%
M48
METRIC,000.000
T01C0.80
T10C0.40
T11C0.50
T12C0.55
T13C1.00
%
T01
X002065Y022263
X002065Y019263
X002065Y067913
X002065Y064913
X035065Y022263
X035065Y019263
X068066Y022263
X068066Y019263
X035065Y067913
X035065Y064913
T10
X006037Y030165
X006870Y039890
X009232Y014338
X010507Y026329
X010782Y009512
X011112Y018707
X011181Y028966
X011186Y030540
X011203Y032698
X011823Y007759
X014744Y007962
X015153Y010558
X015161Y009123
X015836Y019291
X016878Y024980
X018293Y015011
X019088Y018453
X019443Y006311
X020104Y017843
X021628Y022341
X022951Y025082
X030370Y024932
X006037Y075814
X006870Y085540
X009232Y059988
X010507Y071979
X010782Y055162
X011112Y064357
X011181Y074616
X011186Y076190
X011203Y078349
X011823Y053409
X014744Y053612
X015153Y056208
X015161Y054773
X015836Y064941
X016878Y070630
X018293Y060661
X019088Y064102
X019443Y051961
X020104Y063493
X021628Y067991
X022951Y070732
X030370Y070582
X039038Y030165
X039871Y039890
X042233Y014338
X043508Y026329
X043783Y009512
X044113Y018707
X044181Y028966
X044186Y030540
X044204Y032698
X044824Y007759
X047745Y007962
X048154Y010558
X048161Y009123
X048837Y019291
X049878Y024980
X051293Y015011
X052088Y018453
X052444Y006311
X053104Y017843
X054628Y022341
X055952Y025082
X063371Y024932
X072038Y030165
X072872Y039890
X075234Y014338
X076509Y026329
X076783Y009512
X077113Y018707
X077182Y028966
X077187Y030540
X077205Y032698
X077825Y007759
X080746Y007962
X081155Y010558
X081162Y009123
X081838Y019291
X082879Y024980
X084294Y015011
X085089Y018453
X085445Y006311
X086105Y017843
X087629Y022341
X088952Y025082
X096372Y024932
X039038Y075814
X039871Y085540
X042233Y059988
X043508Y071979
X043783Y055162
X044113Y064357
X044181Y074616
X044186Y076190
X044204Y078349
X044824Y053409
X047745Y053612
X048154Y056208
X048161Y054773
X048837Y064941
X049878Y070630
X051293Y060661
X052088Y064102
X052444Y051961
X053104Y063493
X054628Y067991
X055952Y070732
X063371Y070582
T11
X014676Y001767G85X014676Y001117
X021676Y001767G85X021676Y001117
X014676Y047417G85X014676Y046767
X021676Y047417G85X021676Y046767
X047676Y001767G85X047676Y001117
X054677Y001767G85X054677Y001117
X080677Y001767G85X080677Y001117
X087677Y001767G85X087677Y001117
X047676Y047417G85X047676Y046767
X054677Y047417G85X054677Y046767
T12
X015524Y004142G85X015824Y004142
X020525Y004142G85X020825Y004142
X015524Y049792G85X015824Y049792
X020525Y049792G85X020825Y049792
X048525Y004142G85X048824Y004142
X053526Y004142G85X053826Y004142
X081525Y004142G85X081825Y004142
X086527Y004142G85X086826Y004142
X048525Y049792G85X048824Y049792
X053526Y049792G85X053826Y049792
T13
X002344Y004643
X002344Y002103
X026286Y002204
X028826Y002204
X029194Y036583
X029194Y034043
X029194Y028943
X029194Y026403
X029197Y021285
X029197Y018745
X029197Y016204
X029197Y013665
X029197Y011125
X029197Y008585
X029197Y006045
X068401Y061549
X068401Y059009
X068401Y056469
X068401Y053929
X068401Y051389
X068401Y048849
X071622Y058249
X074162Y058249
X076702Y058249
X080200Y062689
X080200Y060149
X080200Y057609
X080200Y055069
X080200Y052529
X080200Y049989
X080200Y047449
X002344Y050293
X002344Y047753
X026286Y047854
X028826Y047854
X029194Y082233
X029194Y079693
X029194Y074593
X029194Y072053
X029197Y066935
X029197Y064394
X029197Y061855
X029197Y059315
X029197Y056775
X029197Y054235
X029197Y051695
X035345Y004643
X035345Y002103
X059287Y002204
X061827Y002204
X062195Y036583
X062195Y034043
X062195Y028943
X062195Y026403
X062197Y021285
X062197Y018745
X062197Y016204
X062197Y013665
X062197Y011125
X062197Y008585
X062197Y006045
X068345Y004643
X068345Y002103
X092287Y002204
X094827Y002204
X095196Y036583
X095196Y034043
X095196Y028943
X095196Y026403
X095198Y021285
X095198Y018745
X095198Y016204
X095198Y013665
X095198Y011125
X095198Y008585
X095198Y006045
X068401Y082549
X068401Y080009
X068401Y077469
X068401Y074929
X068401Y072389
X068401Y069849
X071622Y079249
X074162Y079249
X076702Y079249
X080200Y083689
X080200Y081149
X080200Y078609
X080200Y076069
X080200Y073529
X080200Y070989
X080200Y068449
X035345Y050293
X035345Y047753
X059287Y047854
X061827Y047854
X062195Y082233
X062195Y079693
X062195Y074593
X062195Y072053
X062197Y066935
X062197Y064394
X062197Y061855
X062197Y059315
X062197Y056775
X062197Y054235
X062197Y051695
M30