%MOIN*%
%OFA0B0*%
%FSLAX46Y46*%
%IPPOS*%
%LPD*%
%ADD10O,0.066929133858267723X0.066929133858267723*%
%ADD11R,0.066929133858267723X0.066929133858267723*%
%ADD12C,0.031496062992125991*%
%ADD13O,0.049212598425196853X0.037401574803149609*%
%ADD14O,0.03503937007874016X0.0610236220472441*%
%ADD25O,0.066929133858267723X0.066929133858267723*%
%ADD26R,0.066929133858267723X0.066929133858267723*%
%ADD27O,0.066929133858267723X0.066929133858267723*%
%ADD28R,0.066929133858267723X0.066929133858267723*%
%ADD29C,0.031496062992125991*%
%ADD30O,0.049212598425196853X0.037401574803149609*%
%ADD31O,0.03503937007874016X0.0610236220472441*%
%ADD32O,0.066929133858267723X0.066929133858267723*%
%ADD33R,0.066929133858267723X0.066929133858267723*%
%ADD34C,0.031496062992125991*%
%ADD35O,0.049212598425196853X0.037401574803149609*%
%ADD36O,0.03503937007874016X0.0610236220472441*%
%ADD37O,0.066929133858267723X0.066929133858267723*%
%ADD38R,0.066929133858267723X0.066929133858267723*%
%ADD39C,0.031496062992125991*%
%ADD40O,0.049212598425196853X0.037401574803149609*%
%ADD41O,0.03503937007874016X0.0610236220472441*%
%ADD42O,0.066929133858267723X0.066929133858267723*%
%ADD43R,0.066929133858267723X0.066929133858267723*%
%ADD44O,0.066929133858267723X0.066929133858267723*%
%ADD45R,0.066929133858267723X0.066929133858267723*%
%ADD46C,0.031496062992125991*%
%ADD47O,0.049212598425196853X0.037401574803149609*%
%ADD48O,0.03503937007874016X0.0610236220472441*%
G01*
D10*
X-0003930500Y0006002500D02*
X0001149500Y0000238000D03*
X0001149500Y0000338000D03*
X0001149500Y0000438000D03*
X0001149500Y0000537999D03*
X0001149500Y0000638000D03*
X0001149500Y0000738000D03*
D11*
X0001149500Y0000838000D03*
D12*
X0000081311Y0000876515D03*
X0000081311Y0000758405D03*
D11*
X0000092334Y0000182814D03*
D10*
X0000092334Y0000082814D03*
D13*
X0000617137Y0000163129D03*
X0000813988Y0000163129D03*
D14*
X0000577767Y0000056830D03*
X0000853358Y0000056830D03*
D10*
X0001034854Y0000086751D03*
D11*
X0001134854Y0000086751D03*
D10*
X0001149421Y0001440295D03*
D11*
X0001149421Y0001340295D03*
D10*
X0001149421Y0001039507D03*
D11*
X0001149421Y0001139507D03*
G04 next file*
G04 #@! TF.GenerationSoftware,KiCad,Pcbnew,(5.1.9)-1*
G04 #@! TF.CreationDate,2021-07-08T10:46:36+02:00*
G04 #@! TF.ProjectId,ttl_to_usb_adapter,74746c5f-746f-45f7-9573-625f61646170,v0.0*
G04 #@! TF.SameCoordinates,Original*
G04 #@! TF.FileFunction,Soldermask,Bot*
G04 #@! TF.FilePolarity,Negative*
G04 Gerber Fmt 4.6, Leading zero omitted, Abs format (unit mm)*
G04 Created by KiCad (PCBNEW (5.1.9)-1) date 2021-07-08 10:46:36*
G01*
G04 APERTURE LIST*
G04 APERTURE END LIST*
D25*
X-0003464511Y0005931098D02*
X0003157535Y0002468106D03*
X0003157535Y0002368106D03*
X0003157535Y0002268106D03*
X0003157535Y0002168106D03*
X0003157535Y0002068106D03*
X0003157535Y0001968106D03*
D26*
X0003157535Y0001868106D03*
X0003019740Y0002293303D03*
D25*
X0002919740Y0002293303D03*
X0002819740Y0002293303D03*
X0002692968Y0002423224D03*
X0002692968Y0002323224D03*
X0002692968Y0002223224D03*
X0002692968Y0002123224D03*
X0002692968Y0002023224D03*
D26*
X0002692968Y0001923224D03*
G04 next file*
G04 #@! TF.GenerationSoftware,KiCad,Pcbnew,(5.1.9)-1*
G04 #@! TF.CreationDate,2021-07-08T10:50:12+02:00*
G04 #@! TF.ProjectId,iot-postbox,696f742d-706f-4737-9462-6f782e6b6963,v0.0*
G04 #@! TF.SameCoordinates,Original*
G04 #@! TF.FileFunction,Soldermask,Bot*
G04 #@! TF.FilePolarity,Negative*
G04 Gerber Fmt 4.6, Leading zero omitted, Abs format (unit mm)*
G04 Created by KiCad (PCBNEW (5.1.9)-1) date 2021-07-08 10:50:12*
G01*
G04 APERTURE LIST*
G04 APERTURE END LIST*
D27*
X-0003930500Y0007799740D02*
X0001149500Y0002035240D03*
X0001149500Y0002135240D03*
X0001149500Y0002235240D03*
X0001149500Y0002335240D03*
X0001149500Y0002435240D03*
X0001149500Y0002535240D03*
D28*
X0001149500Y0002635240D03*
D29*
X0000081311Y0002673755D03*
X0000081311Y0002555645D03*
D28*
X0000092334Y0001980055D03*
D27*
X0000092334Y0001880055D03*
D30*
X0000617137Y0001960370D03*
X0000813988Y0001960370D03*
D31*
X0000577767Y0001854070D03*
X0000853358Y0001854070D03*
D27*
X0001034854Y0001883992D03*
D28*
X0001134854Y0001883992D03*
D27*
X0001149421Y0003237535D03*
D28*
X0001149421Y0003137535D03*
D27*
X0001149421Y0002836748D03*
D28*
X0001149421Y0002936748D03*
G04 next file*
G04 #@! TF.GenerationSoftware,KiCad,Pcbnew,(5.1.9)-1*
G04 #@! TF.CreationDate,2021-07-08T10:50:12+02:00*
G04 #@! TF.ProjectId,iot-postbox,696f742d-706f-4737-9462-6f782e6b6963,v0.0*
G04 #@! TF.SameCoordinates,Original*
G04 #@! TF.FileFunction,Soldermask,Bot*
G04 #@! TF.FilePolarity,Negative*
G04 Gerber Fmt 4.6, Leading zero omitted, Abs format (unit mm)*
G04 Created by KiCad (PCBNEW (5.1.9)-1) date 2021-07-08 10:50:12*
G01*
G04 APERTURE LIST*
G04 APERTURE END LIST*
D32*
X-0002631259Y0006002500D02*
X0002448740Y0000238000D03*
X0002448740Y0000338000D03*
X0002448740Y0000438000D03*
X0002448740Y0000537999D03*
X0002448740Y0000638000D03*
X0002448740Y0000738000D03*
D33*
X0002448740Y0000838000D03*
D34*
X0001380551Y0000876515D03*
X0001380551Y0000758405D03*
D33*
X0001391574Y0000182814D03*
D32*
X0001391574Y0000082814D03*
D35*
X0001916377Y0000163129D03*
X0002113228Y0000163129D03*
D36*
X0001877007Y0000056830D03*
X0002152598Y0000056830D03*
D32*
X0002334094Y0000086751D03*
D33*
X0002434094Y0000086751D03*
D32*
X0002448661Y0001440295D03*
D33*
X0002448661Y0001340295D03*
D32*
X0002448661Y0001039507D03*
D33*
X0002448661Y0001139507D03*
G04 next file*
G04 #@! TF.GenerationSoftware,KiCad,Pcbnew,(5.1.9)-1*
G04 #@! TF.CreationDate,2021-07-08T10:50:12+02:00*
G04 #@! TF.ProjectId,iot-postbox,696f742d-706f-4737-9462-6f782e6b6963,v0.0*
G04 #@! TF.SameCoordinates,Original*
G04 #@! TF.FileFunction,Soldermask,Bot*
G04 #@! TF.FilePolarity,Negative*
G04 Gerber Fmt 4.6, Leading zero omitted, Abs format (unit mm)*
G04 Created by KiCad (PCBNEW (5.1.9)-1) date 2021-07-08 10:50:12*
G01*
G04 APERTURE LIST*
G04 APERTURE END LIST*
D37*
X-0001332019Y0006002500D02*
X0003747980Y0000238000D03*
X0003747980Y0000338000D03*
X0003747980Y0000438000D03*
X0003747980Y0000537999D03*
X0003747980Y0000638000D03*
X0003747980Y0000738000D03*
D38*
X0003747980Y0000838000D03*
D39*
X0002679791Y0000876515D03*
X0002679791Y0000758405D03*
D38*
X0002690814Y0000182814D03*
D37*
X0002690814Y0000082814D03*
D40*
X0003215618Y0000163129D03*
X0003412468Y0000163129D03*
D41*
X0003176248Y0000056830D03*
X0003451838Y0000056830D03*
D37*
X0003633334Y0000086751D03*
D38*
X0003733334Y0000086751D03*
D37*
X0003747901Y0001440295D03*
D38*
X0003747901Y0001340295D03*
D37*
X0003747901Y0001039507D03*
D38*
X0003747901Y0001139507D03*
G04 next file*
G04 #@! TF.GenerationSoftware,KiCad,Pcbnew,(5.1.9)-1*
G04 #@! TF.CreationDate,2021-07-08T10:46:36+02:00*
G04 #@! TF.ProjectId,ttl_to_usb_adapter,74746c5f-746f-45f7-9573-625f61646170,v0.0*
G04 #@! TF.SameCoordinates,Original*
G04 #@! TF.FileFunction,Soldermask,Bot*
G04 #@! TF.FilePolarity,Negative*
G04 Gerber Fmt 4.6, Leading zero omitted, Abs format (unit mm)*
G04 Created by KiCad (PCBNEW (5.1.9)-1) date 2021-07-08 10:46:36*
G01*
G04 APERTURE LIST*
G04 APERTURE END LIST*
D42*
X-0003464511Y0006757870D02*
X0003157535Y0003294877D03*
X0003157535Y0003194877D03*
X0003157535Y0003094877D03*
X0003157535Y0002994877D03*
X0003157535Y0002894877D03*
X0003157535Y0002794877D03*
D43*
X0003157535Y0002694877D03*
X0003019740Y0003120074D03*
D42*
X0002919740Y0003120074D03*
X0002819740Y0003120074D03*
X0002692968Y0003249996D03*
X0002692968Y0003149996D03*
X0002692968Y0003049996D03*
X0002692968Y0002949996D03*
X0002692968Y0002849996D03*
D43*
X0002692968Y0002749996D03*
G04 next file*
G04 #@! TF.GenerationSoftware,KiCad,Pcbnew,(5.1.9)-1*
G04 #@! TF.CreationDate,2021-07-08T10:50:12+02:00*
G04 #@! TF.ProjectId,iot-postbox,696f742d-706f-4737-9462-6f782e6b6963,v0.0*
G04 #@! TF.SameCoordinates,Original*
G04 #@! TF.FileFunction,Soldermask,Bot*
G04 #@! TF.FilePolarity,Negative*
G04 Gerber Fmt 4.6, Leading zero omitted, Abs format (unit mm)*
G04 Created by KiCad (PCBNEW (5.1.9)-1) date 2021-07-08 10:50:12*
G01*
G04 APERTURE LIST*
G04 APERTURE END LIST*
D44*
X-0002631259Y0007799740D02*
X0002448740Y0002035240D03*
X0002448740Y0002135240D03*
X0002448740Y0002235240D03*
X0002448740Y0002335240D03*
X0002448740Y0002435240D03*
X0002448740Y0002535240D03*
D45*
X0002448740Y0002635240D03*
D46*
X0001380551Y0002673755D03*
X0001380551Y0002555645D03*
D45*
X0001391574Y0001980055D03*
D44*
X0001391574Y0001880055D03*
D47*
X0001916377Y0001960370D03*
X0002113228Y0001960370D03*
D48*
X0001877007Y0001854070D03*
X0002152598Y0001854070D03*
D44*
X0002334094Y0001883992D03*
D45*
X0002434094Y0001883992D03*
D44*
X0002448661Y0003237535D03*
D45*
X0002448661Y0003137535D03*
D44*
X0002448661Y0002836748D03*
D45*
X0002448661Y0002936748D03*
M02*