%MOIN*%
%OFA0B0*%
%FSLAX46Y46*%
%IPPOS*%
%LPD*%
%ADD10O,0.066929133858267723X0.066929133858267723*%
%ADD11R,0.066929133858267723X0.066929133858267723*%
%ADD12C,0.031496062992125991*%
%ADD13R,0.047244094488188976X0.023622047244094488*%
%ADD14R,0.023622047244094488X0.031496062992125991*%
%ADD15R,0.025590551181102365X0.061417322834645675*%
%ADD16R,0.059055118110236227X0.025590551181102365*%
%ADD17R,0.10629921259842522X0.14173228346456693*%
%ADD18R,0.0984251968503937X0.03937007874015748*%
%ADD19R,0.03937007874015748X0.070866141732283464*%
%ADD20R,0.015748031496062995X0.053149606299212608*%
%ADD21O,0.049212598425196853X0.037401574803149609*%
%ADD22R,0.059055118110236227X0.0610236220472441*%
%ADD23R,0.047244094488188976X0.0610236220472441*%
%ADD24O,0.03503937007874016X0.0610236220472441*%
%ADD25R,0.047244094488188976X0.035433070866141732*%
%ADD26R,0.035433070866141732X0.047244094488188976*%
%ADD37O,0.066929133858267723X0.066929133858267723*%
%ADD38R,0.066929133858267723X0.066929133858267723*%
%ADD39R,0.025590551181102365X0.015748031496062995*%
%ADD40O,0.066929133858267723X0.066929133858267723*%
%ADD41R,0.066929133858267723X0.066929133858267723*%
%ADD42C,0.031496062992125991*%
%ADD43R,0.047244094488188976X0.023622047244094488*%
%ADD44R,0.023622047244094488X0.031496062992125991*%
%ADD45R,0.025590551181102365X0.061417322834645675*%
%ADD46R,0.059055118110236227X0.025590551181102365*%
%ADD47R,0.10629921259842522X0.14173228346456693*%
%ADD48R,0.0984251968503937X0.03937007874015748*%
%ADD49R,0.03937007874015748X0.070866141732283464*%
%ADD50R,0.015748031496062995X0.053149606299212608*%
%ADD51O,0.049212598425196853X0.037401574803149609*%
%ADD52R,0.059055118110236227X0.0610236220472441*%
%ADD53R,0.047244094488188976X0.0610236220472441*%
%ADD54O,0.03503937007874016X0.0610236220472441*%
%ADD55R,0.047244094488188976X0.035433070866141732*%
%ADD56R,0.035433070866141732X0.047244094488188976*%
%ADD57O,0.066929133858267723X0.066929133858267723*%
%ADD58R,0.066929133858267723X0.066929133858267723*%
%ADD59C,0.031496062992125991*%
%ADD60R,0.047244094488188976X0.023622047244094488*%
%ADD61R,0.023622047244094488X0.031496062992125991*%
%ADD62R,0.025590551181102365X0.061417322834645675*%
%ADD63R,0.059055118110236227X0.025590551181102365*%
%ADD64R,0.10629921259842522X0.14173228346456693*%
%ADD65R,0.0984251968503937X0.03937007874015748*%
%ADD66R,0.03937007874015748X0.070866141732283464*%
%ADD67R,0.015748031496062995X0.053149606299212608*%
%ADD68O,0.049212598425196853X0.037401574803149609*%
%ADD69R,0.059055118110236227X0.0610236220472441*%
%ADD70R,0.047244094488188976X0.0610236220472441*%
%ADD71O,0.03503937007874016X0.0610236220472441*%
%ADD72R,0.047244094488188976X0.035433070866141732*%
%ADD73R,0.035433070866141732X0.047244094488188976*%
%ADD74O,0.066929133858267723X0.066929133858267723*%
%ADD75R,0.066929133858267723X0.066929133858267723*%
%ADD76C,0.031496062992125991*%
%ADD77R,0.047244094488188976X0.023622047244094488*%
%ADD78R,0.023622047244094488X0.031496062992125991*%
%ADD79R,0.025590551181102365X0.061417322834645675*%
%ADD80R,0.059055118110236227X0.025590551181102365*%
%ADD81R,0.10629921259842522X0.14173228346456693*%
%ADD82R,0.0984251968503937X0.03937007874015748*%
%ADD83R,0.03937007874015748X0.070866141732283464*%
%ADD84R,0.015748031496062995X0.053149606299212608*%
%ADD85O,0.049212598425196853X0.037401574803149609*%
%ADD86R,0.059055118110236227X0.0610236220472441*%
%ADD87R,0.047244094488188976X0.0610236220472441*%
%ADD88O,0.03503937007874016X0.0610236220472441*%
%ADD89R,0.047244094488188976X0.035433070866141732*%
%ADD90R,0.035433070866141732X0.047244094488188976*%
%ADD91O,0.066929133858267723X0.066929133858267723*%
%ADD92R,0.066929133858267723X0.066929133858267723*%
%ADD93R,0.025590551181102365X0.015748031496062995*%
%ADD94O,0.066929133858267723X0.066929133858267723*%
%ADD95R,0.066929133858267723X0.066929133858267723*%
%ADD96C,0.031496062992125991*%
%ADD97R,0.047244094488188976X0.023622047244094488*%
%ADD98R,0.023622047244094488X0.031496062992125991*%
%ADD99R,0.025590551181102365X0.061417322834645675*%
%ADD100R,0.059055118110236227X0.025590551181102365*%
%ADD101R,0.10629921259842522X0.14173228346456693*%
%ADD102R,0.0984251968503937X0.03937007874015748*%
%ADD103R,0.03937007874015748X0.070866141732283464*%
%ADD104R,0.015748031496062995X0.053149606299212608*%
%ADD105O,0.049212598425196853X0.037401574803149609*%
%ADD106R,0.059055118110236227X0.0610236220472441*%
%ADD107R,0.047244094488188976X0.0610236220472441*%
%ADD108O,0.03503937007874016X0.0610236220472441*%
%ADD109R,0.047244094488188976X0.035433070866141732*%
%ADD110R,0.035433070866141732X0.047244094488188976*%
G01*
D10*
X-0003930500Y0006002500D02*
X0001149500Y0000238000D03*
X0001149500Y0000338000D03*
X0001149500Y0000438000D03*
X0001149500Y0000537999D03*
X0001149500Y0000638000D03*
X0001149500Y0000738000D03*
D11*
X0001149500Y0000838000D03*
D12*
X0000081311Y0000876515D03*
D13*
X0000168318Y0000728877D03*
X0000168318Y0000787933D03*
X0000168318Y0000906043D03*
D14*
X0000125011Y0000971397D03*
X0000037610Y0000971397D03*
X0000125011Y0000663523D03*
X0000037610Y0000663523D03*
D12*
X0000081311Y0000758405D03*
G36*
G01*
X0000160051Y0001061555D02*
X0000160051Y0001049744D01*
G75*
G02*
X0000154145Y0001043838I-0000005905D01*
G01*
X0000107885Y0001043838D01*
G75*
G02*
X0000101980Y0001049744J0000005905D01*
G01*
X0000101980Y0001061555D01*
G75*
G02*
X0000107885Y0001067460I0000005905D01*
G01*
X0000154145Y0001067460D01*
G75*
G02*
X0000160051Y0001061555J-0000005905D01*
G01*
G37*
G36*
G01*
X0000160051Y0001136358D02*
X0000160051Y0001124547D01*
G75*
G02*
X0000154145Y0001118641I-0000005905D01*
G01*
X0000107885Y0001118641D01*
G75*
G02*
X0000101980Y0001124547J0000005905D01*
G01*
X0000101980Y0001136358D01*
G75*
G02*
X0000107885Y0001142263I0000005905D01*
G01*
X0000154145Y0001142263D01*
G75*
G02*
X0000160051Y0001136358J-0000005905D01*
G01*
G37*
G36*
G01*
X0000086232Y0001098956D02*
X0000086232Y0001087145D01*
G75*
G02*
X0000080326Y0001081240I-0000005905D01*
G01*
X0000034066Y0001081240D01*
G75*
G02*
X0000028161Y0001087145J0000005905D01*
G01*
X0000028161Y0001098956D01*
G75*
G02*
X0000034066Y0001104862I0000005905D01*
G01*
X0000080326Y0001104862D01*
G75*
G02*
X0000086232Y0001098956J-0000005905D01*
G01*
G37*
G36*
G01*
X0000638397Y0000643248D02*
X0000638397Y0000651122D01*
G75*
G02*
X0000642334Y0000655059I0000003937D01*
G01*
X0000692531Y0000655059D01*
G75*
G02*
X0000696468Y0000651122J-0000003937D01*
G01*
X0000696468Y0000643248D01*
G75*
G02*
X0000692531Y0000639311I-0000003937D01*
G01*
X0000642334Y0000639311D01*
G75*
G02*
X0000638397Y0000643248J0000003937D01*
G01*
G37*
G36*
G01*
X0000638397Y0000617657D02*
X0000638397Y0000625531D01*
G75*
G02*
X0000642334Y0000629468I0000003937D01*
G01*
X0000692531Y0000629468D01*
G75*
G02*
X0000696468Y0000625531J-0000003937D01*
G01*
X0000696468Y0000617657D01*
G75*
G02*
X0000692531Y0000613720I-0000003937D01*
G01*
X0000642334Y0000613720D01*
G75*
G02*
X0000638397Y0000617657J0000003937D01*
G01*
G37*
G36*
G01*
X0000638397Y0000592066D02*
X0000638397Y0000599940D01*
G75*
G02*
X0000642334Y0000603877I0000003937D01*
G01*
X0000692531Y0000603877D01*
G75*
G02*
X0000696468Y0000599940J-0000003937D01*
G01*
X0000696468Y0000592066D01*
G75*
G02*
X0000692531Y0000588129I-0000003937D01*
G01*
X0000642334Y0000588129D01*
G75*
G02*
X0000638397Y0000592066J0000003937D01*
G01*
G37*
G36*
G01*
X0000638397Y0000566476D02*
X0000638397Y0000574350D01*
G75*
G02*
X0000642334Y0000578287I0000003937D01*
G01*
X0000692531Y0000578287D01*
G75*
G02*
X0000696468Y0000574350J-0000003937D01*
G01*
X0000696468Y0000566476D01*
G75*
G02*
X0000692531Y0000562539I-0000003937D01*
G01*
X0000642334Y0000562539D01*
G75*
G02*
X0000638397Y0000566476J0000003937D01*
G01*
G37*
G36*
G01*
X0000863791Y0000566476D02*
X0000863791Y0000574350D01*
G75*
G02*
X0000867728Y0000578287I0000003937D01*
G01*
X0000917925Y0000578287D01*
G75*
G02*
X0000921862Y0000574350J-0000003937D01*
G01*
X0000921862Y0000566476D01*
G75*
G02*
X0000917925Y0000562539I-0000003937D01*
G01*
X0000867728Y0000562539D01*
G75*
G02*
X0000863791Y0000566476J0000003937D01*
G01*
G37*
G36*
G01*
X0000863791Y0000592066D02*
X0000863791Y0000599940D01*
G75*
G02*
X0000867728Y0000603877I0000003937D01*
G01*
X0000917925Y0000603877D01*
G75*
G02*
X0000921862Y0000599940J-0000003937D01*
G01*
X0000921862Y0000592066D01*
G75*
G02*
X0000917925Y0000588129I-0000003937D01*
G01*
X0000867728Y0000588129D01*
G75*
G02*
X0000863791Y0000592066J0000003937D01*
G01*
G37*
G36*
G01*
X0000863791Y0000617657D02*
X0000863791Y0000625531D01*
G75*
G02*
X0000867728Y0000629468I0000003937D01*
G01*
X0000917925Y0000629468D01*
G75*
G02*
X0000921862Y0000625531J-0000003937D01*
G01*
X0000921862Y0000617657D01*
G75*
G02*
X0000917925Y0000613720I-0000003937D01*
G01*
X0000867728Y0000613720D01*
G75*
G02*
X0000863791Y0000617657J0000003937D01*
G01*
G37*
G36*
G01*
X0000863791Y0000643248D02*
X0000863791Y0000651122D01*
G75*
G02*
X0000867728Y0000655059I0000003937D01*
G01*
X0000917925Y0000655059D01*
G75*
G02*
X0000921862Y0000651122J-0000003937D01*
G01*
X0000921862Y0000643248D01*
G75*
G02*
X0000917925Y0000639311I-0000003937D01*
G01*
X0000867728Y0000639311D01*
G75*
G02*
X0000863791Y0000643248J0000003937D01*
G01*
G37*
D15*
X0000488791Y0000632421D03*
X0000526192Y0000632421D03*
X0000563594Y0000632421D03*
X0000563594Y0000738720D03*
X0000488791Y0000738720D03*
X0000526192Y0000738720D03*
D16*
X0000862807Y0000303484D03*
X0000862807Y0000353484D03*
X0000862807Y0000403484D03*
X0000862807Y0000453484D03*
X0000650208Y0000453484D03*
X0000650208Y0000403484D03*
X0000650208Y0000353484D03*
X0000650208Y0000303484D03*
D17*
X0000756507Y0000378484D03*
D18*
X0000367137Y0001666673D03*
X0000367137Y0001587933D03*
X0000367137Y0001509192D03*
X0000367137Y0001430452D03*
X0000367137Y0001351712D03*
X0000367137Y0001272972D03*
X0000367137Y0001194232D03*
X0000367137Y0001115492D03*
D19*
X0000469500Y0001056437D03*
X0000548240Y0001056437D03*
X0000626980Y0001056437D03*
X0000705720Y0001056437D03*
X0000784460Y0001056437D03*
X0000863200Y0001056437D03*
D18*
X0000965562Y0001115492D03*
X0000965562Y0001194232D03*
X0000965562Y0001272972D03*
X0000965562Y0001351712D03*
X0000965562Y0001430452D03*
X0000965562Y0001509192D03*
X0000965562Y0001587933D03*
X0000965562Y0001666673D03*
G36*
G01*
X0001025799Y0000302893D02*
X0000990366Y0000302893D01*
G75*
G02*
X0000980523Y0000312736J0000009842D01*
G01*
X0000980523Y0000333405D01*
G75*
G02*
X0000990366Y0000343248I0000009842D01*
G01*
X0001025799Y0000343248D01*
G75*
G02*
X0001035641Y0000333405J-0000009842D01*
G01*
X0001035641Y0000312736D01*
G75*
G02*
X0001025799Y0000302893I-0000009842D01*
G01*
G37*
G36*
G01*
X0001025799Y0000231043D02*
X0000990366Y0000231043D01*
G75*
G02*
X0000980523Y0000240885J0000009842D01*
G01*
X0000980523Y0000261555D01*
G75*
G02*
X0000990366Y0000271397I0000009842D01*
G01*
X0001025799Y0000271397D01*
G75*
G02*
X0001035641Y0000261555J-0000009842D01*
G01*
X0001035641Y0000240885D01*
G75*
G02*
X0001025799Y0000231043I-0000009842D01*
G01*
G37*
G36*
G01*
X0000586232Y0000937539D02*
X0000586232Y0000902106D01*
G75*
G02*
X0000576389Y0000892263I-0000009842D01*
G01*
X0000555720Y0000892263D01*
G75*
G02*
X0000545877Y0000902106J0000009842D01*
G01*
X0000545877Y0000937539D01*
G75*
G02*
X0000555720Y0000947381I0000009842D01*
G01*
X0000576389Y0000947381D01*
G75*
G02*
X0000586232Y0000937539J-0000009842D01*
G01*
G37*
G36*
G01*
X0000514381Y0000937539D02*
X0000514381Y0000902106D01*
G75*
G02*
X0000504539Y0000892263I-0000009842D01*
G01*
X0000483870Y0000892263D01*
G75*
G02*
X0000474027Y0000902106J0000009842D01*
G01*
X0000474027Y0000937539D01*
G75*
G02*
X0000483870Y0000947381I0000009842D01*
G01*
X0000504539Y0000947381D01*
G75*
G02*
X0000514381Y0000937539J-0000009842D01*
G01*
G37*
G36*
G01*
X0000472059Y0000817460D02*
X0000472059Y0000852893D01*
G75*
G02*
X0000481901Y0000862736I0000009842D01*
G01*
X0000502570Y0000862736D01*
G75*
G02*
X0000512413Y0000852893J-0000009842D01*
G01*
X0000512413Y0000817460D01*
G75*
G02*
X0000502570Y0000807618I-0000009842D01*
G01*
X0000481901Y0000807618D01*
G75*
G02*
X0000472059Y0000817460J0000009842D01*
G01*
G37*
G36*
G01*
X0000543909Y0000817460D02*
X0000543909Y0000852893D01*
G75*
G02*
X0000553751Y0000862736I0000009842D01*
G01*
X0000574421Y0000862736D01*
G75*
G02*
X0000584263Y0000852893J-0000009842D01*
G01*
X0000584263Y0000817460D01*
G75*
G02*
X0000574421Y0000807618I-0000009842D01*
G01*
X0000553751Y0000807618D01*
G75*
G02*
X0000543909Y0000817460J0000009842D01*
G01*
G37*
G36*
G01*
X0000302767Y0000782027D02*
X0000302767Y0000817460D01*
G75*
G02*
X0000312610Y0000827303I0000009842D01*
G01*
X0000333279Y0000827303D01*
G75*
G02*
X0000343122Y0000817460J-0000009842D01*
G01*
X0000343122Y0000782027D01*
G75*
G02*
X0000333279Y0000772185I-0000009842D01*
G01*
X0000312610Y0000772185D01*
G75*
G02*
X0000302767Y0000782027J0000009842D01*
G01*
G37*
G36*
G01*
X0000374618Y0000782027D02*
X0000374618Y0000817460D01*
G75*
G02*
X0000384460Y0000827303I0000009842D01*
G01*
X0000405129Y0000827303D01*
G75*
G02*
X0000414972Y0000817460J-0000009842D01*
G01*
X0000414972Y0000782027D01*
G75*
G02*
X0000405129Y0000772185I-0000009842D01*
G01*
X0000384460Y0000772185D01*
G75*
G02*
X0000374618Y0000782027J0000009842D01*
G01*
G37*
G36*
G01*
X0000990366Y0000456830D02*
X0001025799Y0000456830D01*
G75*
G02*
X0001035641Y0000446988J-0000009842D01*
G01*
X0001035641Y0000426318D01*
G75*
G02*
X0001025799Y0000416476I-0000009842D01*
G01*
X0000990366Y0000416476D01*
G75*
G02*
X0000980523Y0000426318J0000009842D01*
G01*
X0000980523Y0000446988D01*
G75*
G02*
X0000990366Y0000456830I0000009842D01*
G01*
G37*
G36*
G01*
X0000990366Y0000528681D02*
X0001025799Y0000528681D01*
G75*
G02*
X0001035641Y0000518838J-0000009842D01*
G01*
X0001035641Y0000498169D01*
G75*
G02*
X0001025799Y0000488326I-0000009842D01*
G01*
X0000990366Y0000488326D01*
G75*
G02*
X0000980523Y0000498169J0000009842D01*
G01*
X0000980523Y0000518838D01*
G75*
G02*
X0000990366Y0000528681I0000009842D01*
G01*
G37*
G36*
G01*
X0000283279Y0000198562D02*
X0000283279Y0000233996D01*
G75*
G02*
X0000293121Y0000243838I0000009842D01*
G01*
X0000313791Y0000243838D01*
G75*
G02*
X0000323633Y0000233996J-0000009842D01*
G01*
X0000323633Y0000198562D01*
G75*
G02*
X0000313791Y0000188720I-0000009842D01*
G01*
X0000293121Y0000188720D01*
G75*
G02*
X0000283279Y0000198562J0000009842D01*
G01*
G37*
G36*
G01*
X0000211429Y0000198562D02*
X0000211429Y0000233996D01*
G75*
G02*
X0000221271Y0000243838I0000009842D01*
G01*
X0000241941Y0000243838D01*
G75*
G02*
X0000251783Y0000233996J-0000009842D01*
G01*
X0000251783Y0000198562D01*
G75*
G02*
X0000241941Y0000188720I-0000009842D01*
G01*
X0000221271Y0000188720D01*
G75*
G02*
X0000211429Y0000198562J0000009842D01*
G01*
G37*
G36*
G01*
X0000470877Y0000231240D02*
X0000470877Y0000195807D01*
G75*
G02*
X0000461035Y0000185964I-0000009842D01*
G01*
X0000440366Y0000185964D01*
G75*
G02*
X0000430523Y0000195807J0000009842D01*
G01*
X0000430523Y0000231240D01*
G75*
G02*
X0000440366Y0000241082I0000009842D01*
G01*
X0000461035Y0000241082D01*
G75*
G02*
X0000470877Y0000231240J-0000009842D01*
G01*
G37*
G36*
G01*
X0000399027Y0000231240D02*
X0000399027Y0000195807D01*
G75*
G02*
X0000389185Y0000185964I-0000009842D01*
G01*
X0000368515Y0000185964D01*
G75*
G02*
X0000358673Y0000195807J0000009842D01*
G01*
X0000358673Y0000231240D01*
G75*
G02*
X0000368515Y0000241082I0000009842D01*
G01*
X0000389185Y0000241082D01*
G75*
G02*
X0000399027Y0000231240J-0000009842D01*
G01*
G37*
G36*
G01*
X0000887413Y0000892657D02*
X0000887413Y0000928090D01*
G75*
G02*
X0000897255Y0000937933I0000009842D01*
G01*
X0000917925Y0000937933D01*
G75*
G02*
X0000927767Y0000928090J-0000009842D01*
G01*
X0000927767Y0000892657D01*
G75*
G02*
X0000917925Y0000882814I-0000009842D01*
G01*
X0000897255Y0000882814D01*
G75*
G02*
X0000887413Y0000892657J0000009842D01*
G01*
G37*
G36*
G01*
X0000959263Y0000892657D02*
X0000959263Y0000928090D01*
G75*
G02*
X0000969106Y0000937933I0000009842D01*
G01*
X0000989775Y0000937933D01*
G75*
G02*
X0000999618Y0000928090J-0000009842D01*
G01*
X0000999618Y0000892657D01*
G75*
G02*
X0000989775Y0000882814I-0000009842D01*
G01*
X0000969106Y0000882814D01*
G75*
G02*
X0000959263Y0000892657J0000009842D01*
G01*
G37*
G36*
G01*
X0000887413Y0000783405D02*
X0000887413Y0000818838D01*
G75*
G02*
X0000897255Y0000828681I0000009842D01*
G01*
X0000917925Y0000828681D01*
G75*
G02*
X0000927767Y0000818838J-0000009842D01*
G01*
X0000927767Y0000783405D01*
G75*
G02*
X0000917925Y0000773562I-0000009842D01*
G01*
X0000897255Y0000773562D01*
G75*
G02*
X0000887413Y0000783405J0000009842D01*
G01*
G37*
G36*
G01*
X0000959263Y0000783405D02*
X0000959263Y0000818838D01*
G75*
G02*
X0000969106Y0000828681I0000009842D01*
G01*
X0000989775Y0000828681D01*
G75*
G02*
X0000999618Y0000818838J-0000009842D01*
G01*
X0000999618Y0000783405D01*
G75*
G02*
X0000989775Y0000773562I-0000009842D01*
G01*
X0000969106Y0000773562D01*
G75*
G02*
X0000959263Y0000783405J0000009842D01*
G01*
G37*
G36*
G01*
X0000057688Y0001547185D02*
X0000093122Y0001547185D01*
G75*
G02*
X0000102964Y0001537342J-0000009842D01*
G01*
X0000102964Y0001516673D01*
G75*
G02*
X0000093122Y0001506830I-0000009842D01*
G01*
X0000057688Y0001506830D01*
G75*
G02*
X0000047846Y0001516673J0000009842D01*
G01*
X0000047846Y0001537342D01*
G75*
G02*
X0000057688Y0001547185I0000009842D01*
G01*
G37*
G36*
G01*
X0000057688Y0001475334D02*
X0000093122Y0001475334D01*
G75*
G02*
X0000102964Y0001465492J-0000009842D01*
G01*
X0000102964Y0001444822D01*
G75*
G02*
X0000093122Y0001434980I-0000009842D01*
G01*
X0000057688Y0001434980D01*
G75*
G02*
X0000047846Y0001444822J0000009842D01*
G01*
X0000047846Y0001465492D01*
G75*
G02*
X0000057688Y0001475334I0000009842D01*
G01*
G37*
G36*
G01*
X0001128082Y0001630846D02*
X0001128082Y0001666279D01*
G75*
G02*
X0001137925Y0001676122I0000009842D01*
G01*
X0001158594Y0001676122D01*
G75*
G02*
X0001168437Y0001666279J-0000009842D01*
G01*
X0001168437Y0001630846D01*
G75*
G02*
X0001158594Y0001621003I-0000009842D01*
G01*
X0001137925Y0001621003D01*
G75*
G02*
X0001128082Y0001630846J0000009842D01*
G01*
G37*
G36*
G01*
X0001056232Y0001630846D02*
X0001056232Y0001666279D01*
G75*
G02*
X0001066074Y0001676122I0000009842D01*
G01*
X0001086744Y0001676122D01*
G75*
G02*
X0001096586Y0001666279J-0000009842D01*
G01*
X0001096586Y0001630846D01*
G75*
G02*
X0001086744Y0001621003I-0000009842D01*
G01*
X0001066074Y0001621003D01*
G75*
G02*
X0001056232Y0001630846J0000009842D01*
G01*
G37*
G36*
G01*
X0000990366Y0000628877D02*
X0001025799Y0000628877D01*
G75*
G02*
X0001035641Y0000619035J-0000009842D01*
G01*
X0001035641Y0000598366D01*
G75*
G02*
X0001025799Y0000588523I-0000009842D01*
G01*
X0000990366Y0000588523D01*
G75*
G02*
X0000980523Y0000598366J0000009842D01*
G01*
X0000980523Y0000619035D01*
G75*
G02*
X0000990366Y0000628877I0000009842D01*
G01*
G37*
G36*
G01*
X0000990366Y0000700728D02*
X0001025799Y0000700728D01*
G75*
G02*
X0001035641Y0000690885J-0000009842D01*
G01*
X0001035641Y0000670216D01*
G75*
G02*
X0001025799Y0000660374I-0000009842D01*
G01*
X0000990366Y0000660374D01*
G75*
G02*
X0000980523Y0000670216J0000009842D01*
G01*
X0000980523Y0000690885D01*
G75*
G02*
X0000990366Y0000700728I0000009842D01*
G01*
G37*
G36*
G01*
X0001128082Y0001547381D02*
X0001128082Y0001582815D01*
G75*
G02*
X0001137925Y0001592657I0000009842D01*
G01*
X0001158594Y0001592657D01*
G75*
G02*
X0001168437Y0001582815J-0000009842D01*
G01*
X0001168437Y0001547381D01*
G75*
G02*
X0001158594Y0001537539I-0000009842D01*
G01*
X0001137925Y0001537539D01*
G75*
G02*
X0001128082Y0001547381J0000009842D01*
G01*
G37*
G36*
G01*
X0001056232Y0001547381D02*
X0001056232Y0001582815D01*
G75*
G02*
X0001066074Y0001592657I0000009842D01*
G01*
X0001086744Y0001592657D01*
G75*
G02*
X0001096586Y0001582815J-0000009842D01*
G01*
X0001096586Y0001547381D01*
G75*
G02*
X0001086744Y0001537539I-0000009842D01*
G01*
X0001066074Y0001537539D01*
G75*
G02*
X0001056232Y0001547381J0000009842D01*
G01*
G37*
G36*
G01*
X0000107295Y0001623366D02*
X0000107295Y0001658799D01*
G75*
G02*
X0000117137Y0001668641I0000009842D01*
G01*
X0000137807Y0001668641D01*
G75*
G02*
X0000147649Y0001658799J-0000009842D01*
G01*
X0000147649Y0001623366D01*
G75*
G02*
X0000137807Y0001613523I-0000009842D01*
G01*
X0000117137Y0001613523D01*
G75*
G02*
X0000107295Y0001623366J0000009842D01*
G01*
G37*
G36*
G01*
X0000179145Y0001623366D02*
X0000179145Y0001658799D01*
G75*
G02*
X0000188988Y0001668641I0000009842D01*
G01*
X0000209657Y0001668641D01*
G75*
G02*
X0000219499Y0001658799J-0000009842D01*
G01*
X0000219499Y0001623366D01*
G75*
G02*
X0000209657Y0001613523I-0000009842D01*
G01*
X0000188988Y0001613523D01*
G75*
G02*
X0000179145Y0001623366J0000009842D01*
G01*
G37*
D11*
X0000092334Y0000182814D03*
D10*
X0000092334Y0000082814D03*
G36*
G01*
X0000253751Y0000498169D02*
X0000371862Y0000498169D01*
G75*
G02*
X0000381704Y0000488326J-0000009842D01*
G01*
X0000381704Y0000468641D01*
G75*
G02*
X0000371862Y0000458799I-0000009842D01*
G01*
X0000253751Y0000458799D01*
G75*
G02*
X0000243909Y0000468641J0000009842D01*
G01*
X0000243909Y0000488326D01*
G75*
G02*
X0000253751Y0000498169I0000009842D01*
G01*
G37*
G36*
G01*
X0000253751Y0000419429D02*
X0000371862Y0000419429D01*
G75*
G02*
X0000381704Y0000409586J-0000009842D01*
G01*
X0000381704Y0000389901D01*
G75*
G02*
X0000371862Y0000380059I-0000009842D01*
G01*
X0000253751Y0000380059D01*
G75*
G02*
X0000243909Y0000389901J0000009842D01*
G01*
X0000243909Y0000409586D01*
G75*
G02*
X0000253751Y0000419429I0000009842D01*
G01*
G37*
G36*
G01*
X0000029342Y0000600531D02*
X0000143515Y0000600531D01*
G75*
G02*
X0000153358Y0000590688J-0000009842D01*
G01*
X0000153358Y0000551318D01*
G75*
G02*
X0000143515Y0000541476I-0000009842D01*
G01*
X0000029342Y0000541476D01*
G75*
G02*
X0000019500Y0000551318J0000009842D01*
G01*
X0000019500Y0000590688D01*
G75*
G02*
X0000029342Y0000600531I0000009842D01*
G01*
G37*
G36*
G01*
X0000029342Y0000336751D02*
X0000143515Y0000336751D01*
G75*
G02*
X0000153358Y0000326909J-0000009842D01*
G01*
X0000153358Y0000287539D01*
G75*
G02*
X0000143515Y0000277696I-0000009842D01*
G01*
X0000029342Y0000277696D01*
G75*
G02*
X0000019500Y0000287539J0000009842D01*
G01*
X0000019500Y0000326909D01*
G75*
G02*
X0000029342Y0000336751I0000009842D01*
G01*
G37*
D20*
X0000664381Y0000163129D03*
X0000689972Y0000163129D03*
X0000715562Y0000163129D03*
X0000741153Y0000163129D03*
X0000766744Y0000163129D03*
D21*
X0000617137Y0000163129D03*
X0000813988Y0000163129D03*
D22*
X0000676192Y0000056830D03*
X0000754933Y0000056830D03*
D23*
X0000601389Y0000056830D03*
X0000829736Y0000056830D03*
D24*
X0000577767Y0000056830D03*
X0000853358Y0000056830D03*
D10*
X0001034854Y0000086751D03*
D11*
X0001134854Y0000086751D03*
D10*
X0001149421Y0001440295D03*
D11*
X0001149421Y0001340295D03*
D10*
X0001149421Y0001039507D03*
D11*
X0001149421Y0001139507D03*
G36*
G01*
X0000291862Y0000040049D02*
X0000291862Y0000075974D01*
G75*
G02*
X0000301458Y0000085570I0000009596D01*
G01*
X0000320651Y0000085570D01*
G75*
G02*
X0000330248Y0000075974J-0000009596D01*
G01*
X0000330248Y0000040049D01*
G75*
G02*
X0000320651Y0000030452I-0000009596D01*
G01*
X0000301458Y0000030452D01*
G75*
G02*
X0000291862Y0000040049J0000009596D01*
G01*
G37*
G36*
G01*
X0000218043Y0000040049D02*
X0000218043Y0000075974D01*
G75*
G02*
X0000227639Y0000085570I0000009596D01*
G01*
X0000246832Y0000085570D01*
G75*
G02*
X0000256429Y0000075974J-0000009596D01*
G01*
X0000256429Y0000040049D01*
G75*
G02*
X0000246832Y0000030452I-0000009596D01*
G01*
X0000227639Y0000030452D01*
G75*
G02*
X0000218043Y0000040049J0000009596D01*
G01*
G37*
G36*
G01*
X0000366940Y0000041230D02*
X0000366940Y0000077155D01*
G75*
G02*
X0000376537Y0000086751I0000009596D01*
G01*
X0000395730Y0000086751D01*
G75*
G02*
X0000405326Y0000077155J-0000009596D01*
G01*
X0000405326Y0000041230D01*
G75*
G02*
X0000395730Y0000031633I-0000009596D01*
G01*
X0000376537Y0000031633D01*
G75*
G02*
X0000366940Y0000041230J0000009596D01*
G01*
G37*
G36*
G01*
X0000440759Y0000041230D02*
X0000440759Y0000077155D01*
G75*
G02*
X0000450356Y0000086751I0000009596D01*
G01*
X0000469549Y0000086751D01*
G75*
G02*
X0000479145Y0000077155J-0000009596D01*
G01*
X0000479145Y0000041230D01*
G75*
G02*
X0000469549Y0000031633I-0000009596D01*
G01*
X0000450356Y0000031633D01*
G75*
G02*
X0000440759Y0000041230J0000009596D01*
G01*
G37*
D25*
X0000207885Y0001555649D03*
X0000207885Y0001425728D03*
D26*
X0000676980Y0000793248D03*
X0000806901Y0000793248D03*
X0000676980Y0000918248D03*
X0000806901Y0000918248D03*
G36*
G01*
X0000201389Y0001150137D02*
X0000238791Y0001150137D01*
G75*
G02*
X0000248633Y0001140295J-0000009842D01*
G01*
X0000248633Y0001120610D01*
G75*
G02*
X0000238791Y0001110767I-0000009842D01*
G01*
X0000201389Y0001110767D01*
G75*
G02*
X0000191547Y0001120610J0000009842D01*
G01*
X0000191547Y0001140295D01*
G75*
G02*
X0000201389Y0001150137I0000009842D01*
G01*
G37*
G36*
G01*
X0000201389Y0001075334D02*
X0000238791Y0001075334D01*
G75*
G02*
X0000248633Y0001065492J-0000009842D01*
G01*
X0000248633Y0001045807D01*
G75*
G02*
X0000238791Y0001035964I-0000009842D01*
G01*
X0000201389Y0001035964D01*
G75*
G02*
X0000191547Y0001045807J0000009842D01*
G01*
X0000191547Y0001065492D01*
G75*
G02*
X0000201389Y0001075334I0000009842D01*
G01*
G37*
G36*
G01*
X0000301783Y0000899940D02*
X0000301783Y0000937342D01*
G75*
G02*
X0000311625Y0000947185I0000009842D01*
G01*
X0000331311Y0000947185D01*
G75*
G02*
X0000341153Y0000937342J-0000009842D01*
G01*
X0000341153Y0000899940D01*
G75*
G02*
X0000331311Y0000890098I-0000009842D01*
G01*
X0000311625Y0000890098D01*
G75*
G02*
X0000301783Y0000899940J0000009842D01*
G01*
G37*
G36*
G01*
X0000376586Y0000899940D02*
X0000376586Y0000937342D01*
G75*
G02*
X0000386429Y0000947185I0000009842D01*
G01*
X0000406114Y0000947185D01*
G75*
G02*
X0000415956Y0000937342J-0000009842D01*
G01*
X0000415956Y0000899940D01*
G75*
G02*
X0000406114Y0000890098I-0000009842D01*
G01*
X0000386429Y0000890098D01*
G75*
G02*
X0000376586Y0000899940J0000009842D01*
G01*
G37*
G36*
G01*
X0000415956Y0000687342D02*
X0000415956Y0000649940D01*
G75*
G02*
X0000406114Y0000640098I-0000009842D01*
G01*
X0000386429Y0000640098D01*
G75*
G02*
X0000376586Y0000649940J0000009842D01*
G01*
X0000376586Y0000687342D01*
G75*
G02*
X0000386429Y0000697185I0000009842D01*
G01*
X0000406114Y0000697185D01*
G75*
G02*
X0000415956Y0000687342J-0000009842D01*
G01*
G37*
G36*
G01*
X0000341153Y0000687342D02*
X0000341153Y0000649940D01*
G75*
G02*
X0000331311Y0000640098I-0000009842D01*
G01*
X0000311625Y0000640098D01*
G75*
G02*
X0000301783Y0000649940J0000009842D01*
G01*
X0000301783Y0000687342D01*
G75*
G02*
X0000311625Y0000697185I0000009842D01*
G01*
X0000331311Y0000697185D01*
G75*
G02*
X0000341153Y0000687342J-0000009842D01*
G01*
G37*
G36*
G01*
X0000454933Y0000462539D02*
X0000454933Y0000499940D01*
G75*
G02*
X0000464775Y0000509783I0000009842D01*
G01*
X0000484460Y0000509783D01*
G75*
G02*
X0000494303Y0000499940J-0000009842D01*
G01*
X0000494303Y0000462539D01*
G75*
G02*
X0000484460Y0000452696I-0000009842D01*
G01*
X0000464775Y0000452696D01*
G75*
G02*
X0000454933Y0000462539J0000009842D01*
G01*
G37*
G36*
G01*
X0000529736Y0000462539D02*
X0000529736Y0000499940D01*
G75*
G02*
X0000539578Y0000509783I0000009842D01*
G01*
X0000559263Y0000509783D01*
G75*
G02*
X0000569106Y0000499940J-0000009842D01*
G01*
X0000569106Y0000462539D01*
G75*
G02*
X0000559263Y0000452696I-0000009842D01*
G01*
X0000539578Y0000452696D01*
G75*
G02*
X0000529736Y0000462539J0000009842D01*
G01*
G37*
G36*
G01*
X0000454933Y0000362145D02*
X0000454933Y0000399547D01*
G75*
G02*
X0000464775Y0000409389I0000009842D01*
G01*
X0000484460Y0000409389D01*
G75*
G02*
X0000494303Y0000399547J-0000009842D01*
G01*
X0000494303Y0000362145D01*
G75*
G02*
X0000484460Y0000352303I-0000009842D01*
G01*
X0000464775Y0000352303D01*
G75*
G02*
X0000454933Y0000362145J0000009842D01*
G01*
G37*
G36*
G01*
X0000529736Y0000362145D02*
X0000529736Y0000399547D01*
G75*
G02*
X0000539578Y0000409389I0000009842D01*
G01*
X0000559263Y0000409389D01*
G75*
G02*
X0000569106Y0000399547J-0000009842D01*
G01*
X0000569106Y0000362145D01*
G75*
G02*
X0000559263Y0000352303I-0000009842D01*
G01*
X0000539578Y0000352303D01*
G75*
G02*
X0000529736Y0000362145J0000009842D01*
G01*
G37*
G36*
G01*
X0000220484Y0001271988D02*
X0000220484Y0001234586D01*
G75*
G02*
X0000210641Y0001224744I-0000009842D01*
G01*
X0000190956Y0001224744D01*
G75*
G02*
X0000181114Y0001234586J0000009842D01*
G01*
X0000181114Y0001271988D01*
G75*
G02*
X0000190956Y0001281830I0000009842D01*
G01*
X0000210641Y0001281830D01*
G75*
G02*
X0000220484Y0001271988J-0000009842D01*
G01*
G37*
G36*
G01*
X0000145681Y0001271988D02*
X0000145681Y0001234586D01*
G75*
G02*
X0000135838Y0001224744I-0000009842D01*
G01*
X0000116153Y0001224744D01*
G75*
G02*
X0000106310Y0001234586J0000009842D01*
G01*
X0000106310Y0001271988D01*
G75*
G02*
X0000116153Y0001281830I0000009842D01*
G01*
X0000135838Y0001281830D01*
G75*
G02*
X0000145681Y0001271988J-0000009842D01*
G01*
G37*
G36*
G01*
X0000220484Y0001360767D02*
X0000220484Y0001323366D01*
G75*
G02*
X0000210641Y0001313523I-0000009842D01*
G01*
X0000190956Y0001313523D01*
G75*
G02*
X0000181114Y0001323366J0000009842D01*
G01*
X0000181114Y0001360767D01*
G75*
G02*
X0000190956Y0001370610I0000009842D01*
G01*
X0000210641Y0001370610D01*
G75*
G02*
X0000220484Y0001360767J-0000009842D01*
G01*
G37*
G36*
G01*
X0000145681Y0001360767D02*
X0000145681Y0001323366D01*
G75*
G02*
X0000135838Y0001313523I-0000009842D01*
G01*
X0000116153Y0001313523D01*
G75*
G02*
X0000106310Y0001323366J0000009842D01*
G01*
X0000106310Y0001360767D01*
G75*
G02*
X0000116153Y0001370610I0000009842D01*
G01*
X0000135838Y0001370610D01*
G75*
G02*
X0000145681Y0001360767J-0000009842D01*
G01*
G37*
G04 next file*
G04 #@! TF.GenerationSoftware,KiCad,Pcbnew,(5.1.9)-1*
G04 #@! TF.CreationDate,2021-07-08T10:46:36+02:00*
G04 #@! TF.ProjectId,ttl_to_usb_adapter,74746c5f-746f-45f7-9573-625f61646170,v0.0*
G04 #@! TF.SameCoordinates,Original*
G04 #@! TF.FileFunction,Soldermask,Top*
G04 #@! TF.FilePolarity,Negative*
G04 Gerber Fmt 4.6, Leading zero omitted, Abs format (unit mm)*
G04 Created by KiCad (PCBNEW (5.1.9)-1) date 2021-07-08 10:46:36*
G01*
G04 APERTURE LIST*
G04 APERTURE END LIST*
D37*
X-0003464511Y0005931098D02*
X0003157535Y0002468106D03*
X0003157535Y0002368106D03*
X0003157535Y0002268106D03*
X0003157535Y0002168106D03*
X0003157535Y0002068106D03*
X0003157535Y0001968106D03*
D38*
X0003157535Y0001868106D03*
G36*
G01*
X0002790409Y0001874011D02*
X0002790409Y0001909444D01*
G75*
G02*
X0002800251Y0001919287I0000009842D01*
G01*
X0002820921Y0001919287D01*
G75*
G02*
X0002830763Y0001909444J-0000009842D01*
G01*
X0002830763Y0001874011D01*
G75*
G02*
X0002820921Y0001864169I-0000009842D01*
G01*
X0002800251Y0001864169D01*
G75*
G02*
X0002790409Y0001874011J0000009842D01*
G01*
G37*
G36*
G01*
X0002862259Y0001874011D02*
X0002862259Y0001909444D01*
G75*
G02*
X0002872102Y0001919287I0000009842D01*
G01*
X0002892771Y0001919287D01*
G75*
G02*
X0002902614Y0001909444J-0000009842D01*
G01*
X0002902614Y0001874011D01*
G75*
G02*
X0002892771Y0001864169I-0000009842D01*
G01*
X0002872102Y0001864169D01*
G75*
G02*
X0002862259Y0001874011J0000009842D01*
G01*
G37*
G36*
G01*
X0002790409Y0002003933D02*
X0002790409Y0002039366D01*
G75*
G02*
X0002800251Y0002049208I0000009842D01*
G01*
X0002820921Y0002049208D01*
G75*
G02*
X0002830763Y0002039366J-0000009842D01*
G01*
X0002830763Y0002003933D01*
G75*
G02*
X0002820921Y0001994090I-0000009842D01*
G01*
X0002800251Y0001994090D01*
G75*
G02*
X0002790409Y0002003933J0000009842D01*
G01*
G37*
G36*
G01*
X0002862259Y0002003933D02*
X0002862259Y0002039366D01*
G75*
G02*
X0002872102Y0002049208I0000009842D01*
G01*
X0002892771Y0002049208D01*
G75*
G02*
X0002902614Y0002039366J-0000009842D01*
G01*
X0002902614Y0002003933D01*
G75*
G02*
X0002892771Y0001994090I-0000009842D01*
G01*
X0002872102Y0001994090D01*
G75*
G02*
X0002862259Y0002003933J0000009842D01*
G01*
G37*
G36*
G01*
X0002790409Y0002133854D02*
X0002790409Y0002169287D01*
G75*
G02*
X0002800251Y0002179129I0000009842D01*
G01*
X0002820921Y0002179129D01*
G75*
G02*
X0002830763Y0002169287J-0000009842D01*
G01*
X0002830763Y0002133854D01*
G75*
G02*
X0002820921Y0002124011I-0000009842D01*
G01*
X0002800251Y0002124011D01*
G75*
G02*
X0002790409Y0002133854J0000009842D01*
G01*
G37*
G36*
G01*
X0002862259Y0002133854D02*
X0002862259Y0002169287D01*
G75*
G02*
X0002872102Y0002179129I0000009842D01*
G01*
X0002892771Y0002179129D01*
G75*
G02*
X0002902614Y0002169287J-0000009842D01*
G01*
X0002902614Y0002133854D01*
G75*
G02*
X0002892771Y0002124011I-0000009842D01*
G01*
X0002872102Y0002124011D01*
G75*
G02*
X0002862259Y0002133854J0000009842D01*
G01*
G37*
X0003019740Y0002293303D03*
D37*
X0002919740Y0002293303D03*
X0002819740Y0002293303D03*
G36*
G01*
X0002943952Y0001873765D02*
X0002943952Y0001909690D01*
G75*
G02*
X0002953549Y0001919287I0000009596D01*
G01*
X0002972742Y0001919287D01*
G75*
G02*
X0002982338Y0001909690J-0000009596D01*
G01*
X0002982338Y0001873765D01*
G75*
G02*
X0002972742Y0001864169I-0000009596D01*
G01*
X0002953549Y0001864169D01*
G75*
G02*
X0002943952Y0001873765J0000009596D01*
G01*
G37*
G36*
G01*
X0003017771Y0001873765D02*
X0003017771Y0001909690D01*
G75*
G02*
X0003027368Y0001919287I0000009596D01*
G01*
X0003046560Y0001919287D01*
G75*
G02*
X0003056157Y0001909690J-0000009596D01*
G01*
X0003056157Y0001873765D01*
G75*
G02*
X0003046560Y0001864169I-0000009596D01*
G01*
X0003027368Y0001864169D01*
G75*
G02*
X0003017771Y0001873765J0000009596D01*
G01*
G37*
G36*
G01*
X0002943952Y0002003687D02*
X0002943952Y0002039612D01*
G75*
G02*
X0002953549Y0002049208I0000009596D01*
G01*
X0002972742Y0002049208D01*
G75*
G02*
X0002982338Y0002039612J-0000009596D01*
G01*
X0002982338Y0002003687D01*
G75*
G02*
X0002972742Y0001994090I-0000009596D01*
G01*
X0002953549Y0001994090D01*
G75*
G02*
X0002943952Y0002003687J0000009596D01*
G01*
G37*
G36*
G01*
X0003017771Y0002003687D02*
X0003017771Y0002039612D01*
G75*
G02*
X0003027368Y0002049208I0000009596D01*
G01*
X0003046560Y0002049208D01*
G75*
G02*
X0003056157Y0002039612J-0000009596D01*
G01*
X0003056157Y0002003687D01*
G75*
G02*
X0003046560Y0001994090I-0000009596D01*
G01*
X0003027368Y0001994090D01*
G75*
G02*
X0003017771Y0002003687J0000009596D01*
G01*
G37*
G36*
G01*
X0002943952Y0002133608D02*
X0002943952Y0002169533D01*
G75*
G02*
X0002953549Y0002179129I0000009596D01*
G01*
X0002972742Y0002179129D01*
G75*
G02*
X0002982338Y0002169533J-0000009596D01*
G01*
X0002982338Y0002133608D01*
G75*
G02*
X0002972742Y0002124011I-0000009596D01*
G01*
X0002953549Y0002124011D01*
G75*
G02*
X0002943952Y0002133608J0000009596D01*
G01*
G37*
G36*
G01*
X0003017771Y0002133608D02*
X0003017771Y0002169533D01*
G75*
G02*
X0003027368Y0002179129I0000009596D01*
G01*
X0003046560Y0002179129D01*
G75*
G02*
X0003056157Y0002169533J-0000009596D01*
G01*
X0003056157Y0002133608D01*
G75*
G02*
X0003046560Y0002124011I-0000009596D01*
G01*
X0003027368Y0002124011D01*
G75*
G02*
X0003017771Y0002133608J0000009596D01*
G01*
G37*
X0002692968Y0002423224D03*
X0002692968Y0002323224D03*
X0002692968Y0002223224D03*
X0002692968Y0002123224D03*
X0002692968Y0002023224D03*
D38*
X0002692968Y0001923224D03*
D39*
X0002879976Y0002464562D03*
X0002879976Y0002413381D03*
X0002954779Y0002438972D03*
X0002879976Y0002438972D03*
X0002954779Y0002413381D03*
X0002954779Y0002464562D03*
G04 next file*
G04 #@! TF.GenerationSoftware,KiCad,Pcbnew,(5.1.9)-1*
G04 #@! TF.CreationDate,2021-07-08T10:50:12+02:00*
G04 #@! TF.ProjectId,iot-postbox,696f742d-706f-4737-9462-6f782e6b6963,v0.0*
G04 #@! TF.SameCoordinates,Original*
G04 #@! TF.FileFunction,Soldermask,Top*
G04 #@! TF.FilePolarity,Negative*
G04 Gerber Fmt 4.6, Leading zero omitted, Abs format (unit mm)*
G04 Created by KiCad (PCBNEW (5.1.9)-1) date 2021-07-08 10:50:12*
G01*
G04 APERTURE LIST*
G04 APERTURE END LIST*
D40*
X-0003930500Y0007799740D02*
X0001149500Y0002035240D03*
X0001149500Y0002135240D03*
X0001149500Y0002235240D03*
X0001149500Y0002335240D03*
X0001149500Y0002435240D03*
X0001149500Y0002535240D03*
D41*
X0001149500Y0002635240D03*
D42*
X0000081311Y0002673755D03*
D43*
X0000168318Y0002526118D03*
X0000168318Y0002585173D03*
X0000168318Y0002703283D03*
D44*
X0000125011Y0002768637D03*
X0000037610Y0002768637D03*
X0000125011Y0002460763D03*
X0000037610Y0002460763D03*
D42*
X0000081311Y0002555645D03*
G36*
G01*
X0000160051Y0002858795D02*
X0000160051Y0002846984D01*
G75*
G02*
X0000154145Y0002841078I-0000005905D01*
G01*
X0000107885Y0002841078D01*
G75*
G02*
X0000101980Y0002846984J0000005905D01*
G01*
X0000101980Y0002858795D01*
G75*
G02*
X0000107885Y0002864700I0000005905D01*
G01*
X0000154145Y0002864700D01*
G75*
G02*
X0000160051Y0002858795J-0000005905D01*
G01*
G37*
G36*
G01*
X0000160051Y0002933598D02*
X0000160051Y0002921787D01*
G75*
G02*
X0000154145Y0002915881I-0000005905D01*
G01*
X0000107885Y0002915881D01*
G75*
G02*
X0000101980Y0002921787J0000005905D01*
G01*
X0000101980Y0002933598D01*
G75*
G02*
X0000107885Y0002939503I0000005905D01*
G01*
X0000154145Y0002939503D01*
G75*
G02*
X0000160051Y0002933598J-0000005905D01*
G01*
G37*
G36*
G01*
X0000086232Y0002896196D02*
X0000086232Y0002884385D01*
G75*
G02*
X0000080326Y0002878480I-0000005905D01*
G01*
X0000034066Y0002878480D01*
G75*
G02*
X0000028161Y0002884385J0000005905D01*
G01*
X0000028161Y0002896196D01*
G75*
G02*
X0000034066Y0002902102I0000005905D01*
G01*
X0000080326Y0002902102D01*
G75*
G02*
X0000086232Y0002896196J-0000005905D01*
G01*
G37*
G36*
G01*
X0000638397Y0002440488D02*
X0000638397Y0002448362D01*
G75*
G02*
X0000642334Y0002452299I0000003937D01*
G01*
X0000692531Y0002452299D01*
G75*
G02*
X0000696468Y0002448362J-0000003937D01*
G01*
X0000696468Y0002440488D01*
G75*
G02*
X0000692531Y0002436551I-0000003937D01*
G01*
X0000642334Y0002436551D01*
G75*
G02*
X0000638397Y0002440488J0000003937D01*
G01*
G37*
G36*
G01*
X0000638397Y0002414897D02*
X0000638397Y0002422771D01*
G75*
G02*
X0000642334Y0002426708I0000003937D01*
G01*
X0000692531Y0002426708D01*
G75*
G02*
X0000696468Y0002422771J-0000003937D01*
G01*
X0000696468Y0002414897D01*
G75*
G02*
X0000692531Y0002410960I-0000003937D01*
G01*
X0000642334Y0002410960D01*
G75*
G02*
X0000638397Y0002414897J0000003937D01*
G01*
G37*
G36*
G01*
X0000638397Y0002389307D02*
X0000638397Y0002397181D01*
G75*
G02*
X0000642334Y0002401118I0000003937D01*
G01*
X0000692531Y0002401118D01*
G75*
G02*
X0000696468Y0002397181J-0000003937D01*
G01*
X0000696468Y0002389307D01*
G75*
G02*
X0000692531Y0002385370I-0000003937D01*
G01*
X0000642334Y0002385370D01*
G75*
G02*
X0000638397Y0002389307J0000003937D01*
G01*
G37*
G36*
G01*
X0000638397Y0002363716D02*
X0000638397Y0002371590D01*
G75*
G02*
X0000642334Y0002375527I0000003937D01*
G01*
X0000692531Y0002375527D01*
G75*
G02*
X0000696468Y0002371590J-0000003937D01*
G01*
X0000696468Y0002363716D01*
G75*
G02*
X0000692531Y0002359779I-0000003937D01*
G01*
X0000642334Y0002359779D01*
G75*
G02*
X0000638397Y0002363716J0000003937D01*
G01*
G37*
G36*
G01*
X0000863791Y0002363716D02*
X0000863791Y0002371590D01*
G75*
G02*
X0000867728Y0002375527I0000003937D01*
G01*
X0000917925Y0002375527D01*
G75*
G02*
X0000921862Y0002371590J-0000003937D01*
G01*
X0000921862Y0002363716D01*
G75*
G02*
X0000917925Y0002359779I-0000003937D01*
G01*
X0000867728Y0002359779D01*
G75*
G02*
X0000863791Y0002363716J0000003937D01*
G01*
G37*
G36*
G01*
X0000863791Y0002389307D02*
X0000863791Y0002397181D01*
G75*
G02*
X0000867728Y0002401118I0000003937D01*
G01*
X0000917925Y0002401118D01*
G75*
G02*
X0000921862Y0002397181J-0000003937D01*
G01*
X0000921862Y0002389307D01*
G75*
G02*
X0000917925Y0002385370I-0000003937D01*
G01*
X0000867728Y0002385370D01*
G75*
G02*
X0000863791Y0002389307J0000003937D01*
G01*
G37*
G36*
G01*
X0000863791Y0002414897D02*
X0000863791Y0002422771D01*
G75*
G02*
X0000867728Y0002426708I0000003937D01*
G01*
X0000917925Y0002426708D01*
G75*
G02*
X0000921862Y0002422771J-0000003937D01*
G01*
X0000921862Y0002414897D01*
G75*
G02*
X0000917925Y0002410960I-0000003937D01*
G01*
X0000867728Y0002410960D01*
G75*
G02*
X0000863791Y0002414897J0000003937D01*
G01*
G37*
G36*
G01*
X0000863791Y0002440488D02*
X0000863791Y0002448362D01*
G75*
G02*
X0000867728Y0002452299I0000003937D01*
G01*
X0000917925Y0002452299D01*
G75*
G02*
X0000921862Y0002448362J-0000003937D01*
G01*
X0000921862Y0002440488D01*
G75*
G02*
X0000917925Y0002436551I-0000003937D01*
G01*
X0000867728Y0002436551D01*
G75*
G02*
X0000863791Y0002440488J0000003937D01*
G01*
G37*
D45*
X0000488791Y0002429661D03*
X0000526192Y0002429661D03*
X0000563594Y0002429661D03*
X0000563594Y0002535960D03*
X0000488791Y0002535960D03*
X0000526192Y0002535960D03*
D46*
X0000862807Y0002100724D03*
X0000862807Y0002150724D03*
X0000862807Y0002200724D03*
X0000862807Y0002250724D03*
X0000650208Y0002250724D03*
X0000650208Y0002200724D03*
X0000650208Y0002150724D03*
X0000650208Y0002100724D03*
D47*
X0000756507Y0002175724D03*
D48*
X0000367137Y0003463913D03*
X0000367137Y0003385173D03*
X0000367137Y0003306433D03*
X0000367137Y0003227692D03*
X0000367137Y0003148952D03*
X0000367137Y0003070212D03*
X0000367137Y0002991472D03*
X0000367137Y0002912732D03*
D49*
X0000469500Y0002853677D03*
X0000548240Y0002853677D03*
X0000626980Y0002853677D03*
X0000705720Y0002853677D03*
X0000784460Y0002853677D03*
X0000863200Y0002853677D03*
D48*
X0000965562Y0002912732D03*
X0000965562Y0002991472D03*
X0000965562Y0003070212D03*
X0000965562Y0003148952D03*
X0000965562Y0003227692D03*
X0000965562Y0003306433D03*
X0000965562Y0003385173D03*
X0000965562Y0003463913D03*
G36*
G01*
X0001025799Y0002100133D02*
X0000990366Y0002100133D01*
G75*
G02*
X0000980523Y0002109976J0000009842D01*
G01*
X0000980523Y0002130645D01*
G75*
G02*
X0000990366Y0002140488I0000009842D01*
G01*
X0001025799Y0002140488D01*
G75*
G02*
X0001035641Y0002130645J-0000009842D01*
G01*
X0001035641Y0002109976D01*
G75*
G02*
X0001025799Y0002100133I-0000009842D01*
G01*
G37*
G36*
G01*
X0001025799Y0002028283D02*
X0000990366Y0002028283D01*
G75*
G02*
X0000980523Y0002038125J0000009842D01*
G01*
X0000980523Y0002058795D01*
G75*
G02*
X0000990366Y0002068637I0000009842D01*
G01*
X0001025799Y0002068637D01*
G75*
G02*
X0001035641Y0002058795J-0000009842D01*
G01*
X0001035641Y0002038125D01*
G75*
G02*
X0001025799Y0002028283I-0000009842D01*
G01*
G37*
G36*
G01*
X0000586232Y0002734779D02*
X0000586232Y0002699346D01*
G75*
G02*
X0000576389Y0002689503I-0000009842D01*
G01*
X0000555720Y0002689503D01*
G75*
G02*
X0000545877Y0002699346J0000009842D01*
G01*
X0000545877Y0002734779D01*
G75*
G02*
X0000555720Y0002744622I0000009842D01*
G01*
X0000576389Y0002744622D01*
G75*
G02*
X0000586232Y0002734779J-0000009842D01*
G01*
G37*
G36*
G01*
X0000514381Y0002734779D02*
X0000514381Y0002699346D01*
G75*
G02*
X0000504539Y0002689503I-0000009842D01*
G01*
X0000483870Y0002689503D01*
G75*
G02*
X0000474027Y0002699346J0000009842D01*
G01*
X0000474027Y0002734779D01*
G75*
G02*
X0000483870Y0002744622I0000009842D01*
G01*
X0000504539Y0002744622D01*
G75*
G02*
X0000514381Y0002734779J-0000009842D01*
G01*
G37*
G36*
G01*
X0000472059Y0002614700D02*
X0000472059Y0002650133D01*
G75*
G02*
X0000481901Y0002659976I0000009842D01*
G01*
X0000502570Y0002659976D01*
G75*
G02*
X0000512413Y0002650133J-0000009842D01*
G01*
X0000512413Y0002614700D01*
G75*
G02*
X0000502570Y0002604858I-0000009842D01*
G01*
X0000481901Y0002604858D01*
G75*
G02*
X0000472059Y0002614700J0000009842D01*
G01*
G37*
G36*
G01*
X0000543909Y0002614700D02*
X0000543909Y0002650133D01*
G75*
G02*
X0000553751Y0002659976I0000009842D01*
G01*
X0000574421Y0002659976D01*
G75*
G02*
X0000584263Y0002650133J-0000009842D01*
G01*
X0000584263Y0002614700D01*
G75*
G02*
X0000574421Y0002604858I-0000009842D01*
G01*
X0000553751Y0002604858D01*
G75*
G02*
X0000543909Y0002614700J0000009842D01*
G01*
G37*
G36*
G01*
X0000302767Y0002579267D02*
X0000302767Y0002614700D01*
G75*
G02*
X0000312610Y0002624543I0000009842D01*
G01*
X0000333279Y0002624543D01*
G75*
G02*
X0000343122Y0002614700J-0000009842D01*
G01*
X0000343122Y0002579267D01*
G75*
G02*
X0000333279Y0002569425I-0000009842D01*
G01*
X0000312610Y0002569425D01*
G75*
G02*
X0000302767Y0002579267J0000009842D01*
G01*
G37*
G36*
G01*
X0000374618Y0002579267D02*
X0000374618Y0002614700D01*
G75*
G02*
X0000384460Y0002624543I0000009842D01*
G01*
X0000405129Y0002624543D01*
G75*
G02*
X0000414972Y0002614700J-0000009842D01*
G01*
X0000414972Y0002579267D01*
G75*
G02*
X0000405129Y0002569425I-0000009842D01*
G01*
X0000384460Y0002569425D01*
G75*
G02*
X0000374618Y0002579267J0000009842D01*
G01*
G37*
G36*
G01*
X0000990366Y0002254070D02*
X0001025799Y0002254070D01*
G75*
G02*
X0001035641Y0002244228J-0000009842D01*
G01*
X0001035641Y0002223558D01*
G75*
G02*
X0001025799Y0002213716I-0000009842D01*
G01*
X0000990366Y0002213716D01*
G75*
G02*
X0000980523Y0002223558J0000009842D01*
G01*
X0000980523Y0002244228D01*
G75*
G02*
X0000990366Y0002254070I0000009842D01*
G01*
G37*
G36*
G01*
X0000990366Y0002325921D02*
X0001025799Y0002325921D01*
G75*
G02*
X0001035641Y0002316078J-0000009842D01*
G01*
X0001035641Y0002295409D01*
G75*
G02*
X0001025799Y0002285566I-0000009842D01*
G01*
X0000990366Y0002285566D01*
G75*
G02*
X0000980523Y0002295409J0000009842D01*
G01*
X0000980523Y0002316078D01*
G75*
G02*
X0000990366Y0002325921I0000009842D01*
G01*
G37*
G36*
G01*
X0000283279Y0001995803D02*
X0000283279Y0002031236D01*
G75*
G02*
X0000293121Y0002041078I0000009842D01*
G01*
X0000313791Y0002041078D01*
G75*
G02*
X0000323633Y0002031236J-0000009842D01*
G01*
X0000323633Y0001995803D01*
G75*
G02*
X0000313791Y0001985960I-0000009842D01*
G01*
X0000293121Y0001985960D01*
G75*
G02*
X0000283279Y0001995803J0000009842D01*
G01*
G37*
G36*
G01*
X0000211429Y0001995803D02*
X0000211429Y0002031236D01*
G75*
G02*
X0000221271Y0002041078I0000009842D01*
G01*
X0000241941Y0002041078D01*
G75*
G02*
X0000251783Y0002031236J-0000009842D01*
G01*
X0000251783Y0001995803D01*
G75*
G02*
X0000241941Y0001985960I-0000009842D01*
G01*
X0000221271Y0001985960D01*
G75*
G02*
X0000211429Y0001995803J0000009842D01*
G01*
G37*
G36*
G01*
X0000470877Y0002028480D02*
X0000470877Y0001993047D01*
G75*
G02*
X0000461035Y0001983204I-0000009842D01*
G01*
X0000440366Y0001983204D01*
G75*
G02*
X0000430523Y0001993047J0000009842D01*
G01*
X0000430523Y0002028480D01*
G75*
G02*
X0000440366Y0002038322I0000009842D01*
G01*
X0000461035Y0002038322D01*
G75*
G02*
X0000470877Y0002028480J-0000009842D01*
G01*
G37*
G36*
G01*
X0000399027Y0002028480D02*
X0000399027Y0001993047D01*
G75*
G02*
X0000389185Y0001983204I-0000009842D01*
G01*
X0000368515Y0001983204D01*
G75*
G02*
X0000358673Y0001993047J0000009842D01*
G01*
X0000358673Y0002028480D01*
G75*
G02*
X0000368515Y0002038322I0000009842D01*
G01*
X0000389185Y0002038322D01*
G75*
G02*
X0000399027Y0002028480J-0000009842D01*
G01*
G37*
G36*
G01*
X0000887413Y0002689897D02*
X0000887413Y0002725330D01*
G75*
G02*
X0000897255Y0002735173I0000009842D01*
G01*
X0000917925Y0002735173D01*
G75*
G02*
X0000927767Y0002725330J-0000009842D01*
G01*
X0000927767Y0002689897D01*
G75*
G02*
X0000917925Y0002680055I-0000009842D01*
G01*
X0000897255Y0002680055D01*
G75*
G02*
X0000887413Y0002689897J0000009842D01*
G01*
G37*
G36*
G01*
X0000959263Y0002689897D02*
X0000959263Y0002725330D01*
G75*
G02*
X0000969106Y0002735173I0000009842D01*
G01*
X0000989775Y0002735173D01*
G75*
G02*
X0000999618Y0002725330J-0000009842D01*
G01*
X0000999618Y0002689897D01*
G75*
G02*
X0000989775Y0002680055I-0000009842D01*
G01*
X0000969106Y0002680055D01*
G75*
G02*
X0000959263Y0002689897J0000009842D01*
G01*
G37*
G36*
G01*
X0000887413Y0002580645D02*
X0000887413Y0002616078D01*
G75*
G02*
X0000897255Y0002625921I0000009842D01*
G01*
X0000917925Y0002625921D01*
G75*
G02*
X0000927767Y0002616078J-0000009842D01*
G01*
X0000927767Y0002580645D01*
G75*
G02*
X0000917925Y0002570803I-0000009842D01*
G01*
X0000897255Y0002570803D01*
G75*
G02*
X0000887413Y0002580645J0000009842D01*
G01*
G37*
G36*
G01*
X0000959263Y0002580645D02*
X0000959263Y0002616078D01*
G75*
G02*
X0000969106Y0002625921I0000009842D01*
G01*
X0000989775Y0002625921D01*
G75*
G02*
X0000999618Y0002616078J-0000009842D01*
G01*
X0000999618Y0002580645D01*
G75*
G02*
X0000989775Y0002570803I-0000009842D01*
G01*
X0000969106Y0002570803D01*
G75*
G02*
X0000959263Y0002580645J0000009842D01*
G01*
G37*
G36*
G01*
X0000057688Y0003344425D02*
X0000093122Y0003344425D01*
G75*
G02*
X0000102964Y0003334582J-0000009842D01*
G01*
X0000102964Y0003313913D01*
G75*
G02*
X0000093122Y0003304070I-0000009842D01*
G01*
X0000057688Y0003304070D01*
G75*
G02*
X0000047846Y0003313913J0000009842D01*
G01*
X0000047846Y0003334582D01*
G75*
G02*
X0000057688Y0003344425I0000009842D01*
G01*
G37*
G36*
G01*
X0000057688Y0003272574D02*
X0000093122Y0003272574D01*
G75*
G02*
X0000102964Y0003262732J-0000009842D01*
G01*
X0000102964Y0003242062D01*
G75*
G02*
X0000093122Y0003232220I-0000009842D01*
G01*
X0000057688Y0003232220D01*
G75*
G02*
X0000047846Y0003242062J0000009842D01*
G01*
X0000047846Y0003262732D01*
G75*
G02*
X0000057688Y0003272574I0000009842D01*
G01*
G37*
G36*
G01*
X0001128082Y0003428086D02*
X0001128082Y0003463519D01*
G75*
G02*
X0001137925Y0003473362I0000009842D01*
G01*
X0001158594Y0003473362D01*
G75*
G02*
X0001168437Y0003463519J-0000009842D01*
G01*
X0001168437Y0003428086D01*
G75*
G02*
X0001158594Y0003418244I-0000009842D01*
G01*
X0001137925Y0003418244D01*
G75*
G02*
X0001128082Y0003428086J0000009842D01*
G01*
G37*
G36*
G01*
X0001056232Y0003428086D02*
X0001056232Y0003463519D01*
G75*
G02*
X0001066074Y0003473362I0000009842D01*
G01*
X0001086744Y0003473362D01*
G75*
G02*
X0001096586Y0003463519J-0000009842D01*
G01*
X0001096586Y0003428086D01*
G75*
G02*
X0001086744Y0003418244I-0000009842D01*
G01*
X0001066074Y0003418244D01*
G75*
G02*
X0001056232Y0003428086J0000009842D01*
G01*
G37*
G36*
G01*
X0000990366Y0002426118D02*
X0001025799Y0002426118D01*
G75*
G02*
X0001035641Y0002416275J-0000009842D01*
G01*
X0001035641Y0002395606D01*
G75*
G02*
X0001025799Y0002385763I-0000009842D01*
G01*
X0000990366Y0002385763D01*
G75*
G02*
X0000980523Y0002395606J0000009842D01*
G01*
X0000980523Y0002416275D01*
G75*
G02*
X0000990366Y0002426118I0000009842D01*
G01*
G37*
G36*
G01*
X0000990366Y0002497968D02*
X0001025799Y0002497968D01*
G75*
G02*
X0001035641Y0002488126J-0000009842D01*
G01*
X0001035641Y0002467456D01*
G75*
G02*
X0001025799Y0002457614I-0000009842D01*
G01*
X0000990366Y0002457614D01*
G75*
G02*
X0000980523Y0002467456J0000009842D01*
G01*
X0000980523Y0002488126D01*
G75*
G02*
X0000990366Y0002497968I0000009842D01*
G01*
G37*
G36*
G01*
X0001128082Y0003344621D02*
X0001128082Y0003380055D01*
G75*
G02*
X0001137925Y0003389897I0000009842D01*
G01*
X0001158594Y0003389897D01*
G75*
G02*
X0001168437Y0003380055J-0000009842D01*
G01*
X0001168437Y0003344621D01*
G75*
G02*
X0001158594Y0003334779I-0000009842D01*
G01*
X0001137925Y0003334779D01*
G75*
G02*
X0001128082Y0003344621J0000009842D01*
G01*
G37*
G36*
G01*
X0001056232Y0003344621D02*
X0001056232Y0003380055D01*
G75*
G02*
X0001066074Y0003389897I0000009842D01*
G01*
X0001086744Y0003389897D01*
G75*
G02*
X0001096586Y0003380055J-0000009842D01*
G01*
X0001096586Y0003344621D01*
G75*
G02*
X0001086744Y0003334779I-0000009842D01*
G01*
X0001066074Y0003334779D01*
G75*
G02*
X0001056232Y0003344621J0000009842D01*
G01*
G37*
G36*
G01*
X0000107295Y0003420606D02*
X0000107295Y0003456039D01*
G75*
G02*
X0000117137Y0003465881I0000009842D01*
G01*
X0000137807Y0003465881D01*
G75*
G02*
X0000147649Y0003456039J-0000009842D01*
G01*
X0000147649Y0003420606D01*
G75*
G02*
X0000137807Y0003410763I-0000009842D01*
G01*
X0000117137Y0003410763D01*
G75*
G02*
X0000107295Y0003420606J0000009842D01*
G01*
G37*
G36*
G01*
X0000179145Y0003420606D02*
X0000179145Y0003456039D01*
G75*
G02*
X0000188988Y0003465881I0000009842D01*
G01*
X0000209657Y0003465881D01*
G75*
G02*
X0000219499Y0003456039J-0000009842D01*
G01*
X0000219499Y0003420606D01*
G75*
G02*
X0000209657Y0003410763I-0000009842D01*
G01*
X0000188988Y0003410763D01*
G75*
G02*
X0000179145Y0003420606J0000009842D01*
G01*
G37*
D41*
X0000092334Y0001980055D03*
D40*
X0000092334Y0001880055D03*
G36*
G01*
X0000253751Y0002295409D02*
X0000371862Y0002295409D01*
G75*
G02*
X0000381704Y0002285566J-0000009842D01*
G01*
X0000381704Y0002265881D01*
G75*
G02*
X0000371862Y0002256039I-0000009842D01*
G01*
X0000253751Y0002256039D01*
G75*
G02*
X0000243909Y0002265881J0000009842D01*
G01*
X0000243909Y0002285566D01*
G75*
G02*
X0000253751Y0002295409I0000009842D01*
G01*
G37*
G36*
G01*
X0000253751Y0002216669D02*
X0000371862Y0002216669D01*
G75*
G02*
X0000381704Y0002206826J-0000009842D01*
G01*
X0000381704Y0002187141D01*
G75*
G02*
X0000371862Y0002177299I-0000009842D01*
G01*
X0000253751Y0002177299D01*
G75*
G02*
X0000243909Y0002187141J0000009842D01*
G01*
X0000243909Y0002206826D01*
G75*
G02*
X0000253751Y0002216669I0000009842D01*
G01*
G37*
G36*
G01*
X0000029342Y0002397771D02*
X0000143515Y0002397771D01*
G75*
G02*
X0000153358Y0002387929J-0000009842D01*
G01*
X0000153358Y0002348559D01*
G75*
G02*
X0000143515Y0002338716I-0000009842D01*
G01*
X0000029342Y0002338716D01*
G75*
G02*
X0000019500Y0002348559J0000009842D01*
G01*
X0000019500Y0002387929D01*
G75*
G02*
X0000029342Y0002397771I0000009842D01*
G01*
G37*
G36*
G01*
X0000029342Y0002133992D02*
X0000143515Y0002133992D01*
G75*
G02*
X0000153358Y0002124149J-0000009842D01*
G01*
X0000153358Y0002084779D01*
G75*
G02*
X0000143515Y0002074937I-0000009842D01*
G01*
X0000029342Y0002074937D01*
G75*
G02*
X0000019500Y0002084779J0000009842D01*
G01*
X0000019500Y0002124149D01*
G75*
G02*
X0000029342Y0002133992I0000009842D01*
G01*
G37*
D50*
X0000664381Y0001960370D03*
X0000689972Y0001960370D03*
X0000715562Y0001960370D03*
X0000741153Y0001960370D03*
X0000766744Y0001960370D03*
D51*
X0000617137Y0001960370D03*
X0000813988Y0001960370D03*
D52*
X0000676192Y0001854070D03*
X0000754933Y0001854070D03*
D53*
X0000601389Y0001854070D03*
X0000829736Y0001854070D03*
D54*
X0000577767Y0001854070D03*
X0000853358Y0001854070D03*
D40*
X0001034854Y0001883992D03*
D41*
X0001134854Y0001883992D03*
D40*
X0001149421Y0003237535D03*
D41*
X0001149421Y0003137535D03*
D40*
X0001149421Y0002836748D03*
D41*
X0001149421Y0002936748D03*
G36*
G01*
X0000291862Y0001837289D02*
X0000291862Y0001873214D01*
G75*
G02*
X0000301458Y0001882811I0000009596D01*
G01*
X0000320651Y0001882811D01*
G75*
G02*
X0000330248Y0001873214J-0000009596D01*
G01*
X0000330248Y0001837289D01*
G75*
G02*
X0000320651Y0001827692I-0000009596D01*
G01*
X0000301458Y0001827692D01*
G75*
G02*
X0000291862Y0001837289J0000009596D01*
G01*
G37*
G36*
G01*
X0000218043Y0001837289D02*
X0000218043Y0001873214D01*
G75*
G02*
X0000227639Y0001882811I0000009596D01*
G01*
X0000246832Y0001882811D01*
G75*
G02*
X0000256429Y0001873214J-0000009596D01*
G01*
X0000256429Y0001837289D01*
G75*
G02*
X0000246832Y0001827692I-0000009596D01*
G01*
X0000227639Y0001827692D01*
G75*
G02*
X0000218043Y0001837289J0000009596D01*
G01*
G37*
G36*
G01*
X0000366940Y0001838470D02*
X0000366940Y0001874395D01*
G75*
G02*
X0000376537Y0001883992I0000009596D01*
G01*
X0000395730Y0001883992D01*
G75*
G02*
X0000405326Y0001874395J-0000009596D01*
G01*
X0000405326Y0001838470D01*
G75*
G02*
X0000395730Y0001828874I-0000009596D01*
G01*
X0000376537Y0001828874D01*
G75*
G02*
X0000366940Y0001838470J0000009596D01*
G01*
G37*
G36*
G01*
X0000440759Y0001838470D02*
X0000440759Y0001874395D01*
G75*
G02*
X0000450356Y0001883992I0000009596D01*
G01*
X0000469549Y0001883992D01*
G75*
G02*
X0000479145Y0001874395J-0000009596D01*
G01*
X0000479145Y0001838470D01*
G75*
G02*
X0000469549Y0001828874I-0000009596D01*
G01*
X0000450356Y0001828874D01*
G75*
G02*
X0000440759Y0001838470J0000009596D01*
G01*
G37*
D55*
X0000207885Y0003352889D03*
X0000207885Y0003222968D03*
D56*
X0000676980Y0002590488D03*
X0000806901Y0002590488D03*
X0000676980Y0002715488D03*
X0000806901Y0002715488D03*
G36*
G01*
X0000201389Y0002947377D02*
X0000238791Y0002947377D01*
G75*
G02*
X0000248633Y0002937535J-0000009842D01*
G01*
X0000248633Y0002917850D01*
G75*
G02*
X0000238791Y0002908007I-0000009842D01*
G01*
X0000201389Y0002908007D01*
G75*
G02*
X0000191547Y0002917850J0000009842D01*
G01*
X0000191547Y0002937535D01*
G75*
G02*
X0000201389Y0002947377I0000009842D01*
G01*
G37*
G36*
G01*
X0000201389Y0002872574D02*
X0000238791Y0002872574D01*
G75*
G02*
X0000248633Y0002862732J-0000009842D01*
G01*
X0000248633Y0002843047D01*
G75*
G02*
X0000238791Y0002833204I-0000009842D01*
G01*
X0000201389Y0002833204D01*
G75*
G02*
X0000191547Y0002843047J0000009842D01*
G01*
X0000191547Y0002862732D01*
G75*
G02*
X0000201389Y0002872574I0000009842D01*
G01*
G37*
G36*
G01*
X0000301783Y0002697181D02*
X0000301783Y0002734582D01*
G75*
G02*
X0000311625Y0002744425I0000009842D01*
G01*
X0000331311Y0002744425D01*
G75*
G02*
X0000341153Y0002734582J-0000009842D01*
G01*
X0000341153Y0002697181D01*
G75*
G02*
X0000331311Y0002687338I-0000009842D01*
G01*
X0000311625Y0002687338D01*
G75*
G02*
X0000301783Y0002697181J0000009842D01*
G01*
G37*
G36*
G01*
X0000376586Y0002697181D02*
X0000376586Y0002734582D01*
G75*
G02*
X0000386429Y0002744425I0000009842D01*
G01*
X0000406114Y0002744425D01*
G75*
G02*
X0000415956Y0002734582J-0000009842D01*
G01*
X0000415956Y0002697181D01*
G75*
G02*
X0000406114Y0002687338I-0000009842D01*
G01*
X0000386429Y0002687338D01*
G75*
G02*
X0000376586Y0002697181J0000009842D01*
G01*
G37*
G36*
G01*
X0000415956Y0002484582D02*
X0000415956Y0002447181D01*
G75*
G02*
X0000406114Y0002437338I-0000009842D01*
G01*
X0000386429Y0002437338D01*
G75*
G02*
X0000376586Y0002447181J0000009842D01*
G01*
X0000376586Y0002484582D01*
G75*
G02*
X0000386429Y0002494425I0000009842D01*
G01*
X0000406114Y0002494425D01*
G75*
G02*
X0000415956Y0002484582J-0000009842D01*
G01*
G37*
G36*
G01*
X0000341153Y0002484582D02*
X0000341153Y0002447181D01*
G75*
G02*
X0000331311Y0002437338I-0000009842D01*
G01*
X0000311625Y0002437338D01*
G75*
G02*
X0000301783Y0002447181J0000009842D01*
G01*
X0000301783Y0002484582D01*
G75*
G02*
X0000311625Y0002494425I0000009842D01*
G01*
X0000331311Y0002494425D01*
G75*
G02*
X0000341153Y0002484582J-0000009842D01*
G01*
G37*
G36*
G01*
X0000454933Y0002259779D02*
X0000454933Y0002297181D01*
G75*
G02*
X0000464775Y0002307023I0000009842D01*
G01*
X0000484460Y0002307023D01*
G75*
G02*
X0000494303Y0002297181J-0000009842D01*
G01*
X0000494303Y0002259779D01*
G75*
G02*
X0000484460Y0002249937I-0000009842D01*
G01*
X0000464775Y0002249937D01*
G75*
G02*
X0000454933Y0002259779J0000009842D01*
G01*
G37*
G36*
G01*
X0000529736Y0002259779D02*
X0000529736Y0002297181D01*
G75*
G02*
X0000539578Y0002307023I0000009842D01*
G01*
X0000559263Y0002307023D01*
G75*
G02*
X0000569106Y0002297181J-0000009842D01*
G01*
X0000569106Y0002259779D01*
G75*
G02*
X0000559263Y0002249937I-0000009842D01*
G01*
X0000539578Y0002249937D01*
G75*
G02*
X0000529736Y0002259779J0000009842D01*
G01*
G37*
G36*
G01*
X0000454933Y0002159385D02*
X0000454933Y0002196787D01*
G75*
G02*
X0000464775Y0002206629I0000009842D01*
G01*
X0000484460Y0002206629D01*
G75*
G02*
X0000494303Y0002196787J-0000009842D01*
G01*
X0000494303Y0002159385D01*
G75*
G02*
X0000484460Y0002149543I-0000009842D01*
G01*
X0000464775Y0002149543D01*
G75*
G02*
X0000454933Y0002159385J0000009842D01*
G01*
G37*
G36*
G01*
X0000529736Y0002159385D02*
X0000529736Y0002196787D01*
G75*
G02*
X0000539578Y0002206629I0000009842D01*
G01*
X0000559263Y0002206629D01*
G75*
G02*
X0000569106Y0002196787J-0000009842D01*
G01*
X0000569106Y0002159385D01*
G75*
G02*
X0000559263Y0002149543I-0000009842D01*
G01*
X0000539578Y0002149543D01*
G75*
G02*
X0000529736Y0002159385J0000009842D01*
G01*
G37*
G36*
G01*
X0000220484Y0003069228D02*
X0000220484Y0003031826D01*
G75*
G02*
X0000210641Y0003021984I-0000009842D01*
G01*
X0000190956Y0003021984D01*
G75*
G02*
X0000181114Y0003031826J0000009842D01*
G01*
X0000181114Y0003069228D01*
G75*
G02*
X0000190956Y0003079070I0000009842D01*
G01*
X0000210641Y0003079070D01*
G75*
G02*
X0000220484Y0003069228J-0000009842D01*
G01*
G37*
G36*
G01*
X0000145681Y0003069228D02*
X0000145681Y0003031826D01*
G75*
G02*
X0000135838Y0003021984I-0000009842D01*
G01*
X0000116153Y0003021984D01*
G75*
G02*
X0000106310Y0003031826J0000009842D01*
G01*
X0000106310Y0003069228D01*
G75*
G02*
X0000116153Y0003079070I0000009842D01*
G01*
X0000135838Y0003079070D01*
G75*
G02*
X0000145681Y0003069228J-0000009842D01*
G01*
G37*
G36*
G01*
X0000220484Y0003158007D02*
X0000220484Y0003120606D01*
G75*
G02*
X0000210641Y0003110763I-0000009842D01*
G01*
X0000190956Y0003110763D01*
G75*
G02*
X0000181114Y0003120606J0000009842D01*
G01*
X0000181114Y0003158007D01*
G75*
G02*
X0000190956Y0003167850I0000009842D01*
G01*
X0000210641Y0003167850D01*
G75*
G02*
X0000220484Y0003158007J-0000009842D01*
G01*
G37*
G36*
G01*
X0000145681Y0003158007D02*
X0000145681Y0003120606D01*
G75*
G02*
X0000135838Y0003110763I-0000009842D01*
G01*
X0000116153Y0003110763D01*
G75*
G02*
X0000106310Y0003120606J0000009842D01*
G01*
X0000106310Y0003158007D01*
G75*
G02*
X0000116153Y0003167850I0000009842D01*
G01*
X0000135838Y0003167850D01*
G75*
G02*
X0000145681Y0003158007J-0000009842D01*
G01*
G37*
G04 next file*
G04 #@! TF.GenerationSoftware,KiCad,Pcbnew,(5.1.9)-1*
G04 #@! TF.CreationDate,2021-07-08T10:50:12+02:00*
G04 #@! TF.ProjectId,iot-postbox,696f742d-706f-4737-9462-6f782e6b6963,v0.0*
G04 #@! TF.SameCoordinates,Original*
G04 #@! TF.FileFunction,Soldermask,Top*
G04 #@! TF.FilePolarity,Negative*
G04 Gerber Fmt 4.6, Leading zero omitted, Abs format (unit mm)*
G04 Created by KiCad (PCBNEW (5.1.9)-1) date 2021-07-08 10:50:12*
G01*
G04 APERTURE LIST*
G04 APERTURE END LIST*
D57*
X-0002631259Y0006002500D02*
X0002448740Y0000238000D03*
X0002448740Y0000338000D03*
X0002448740Y0000438000D03*
X0002448740Y0000537999D03*
X0002448740Y0000638000D03*
X0002448740Y0000738000D03*
D58*
X0002448740Y0000838000D03*
D59*
X0001380551Y0000876515D03*
D60*
X0001467559Y0000728877D03*
X0001467559Y0000787933D03*
X0001467559Y0000906043D03*
D61*
X0001424251Y0000971397D03*
X0001336850Y0000971397D03*
X0001424251Y0000663523D03*
X0001336850Y0000663523D03*
D59*
X0001380551Y0000758405D03*
G36*
G01*
X0001459291Y0001061555D02*
X0001459291Y0001049744D01*
G75*
G02*
X0001453385Y0001043838I-0000005905D01*
G01*
X0001407125Y0001043838D01*
G75*
G02*
X0001401220Y0001049744J0000005905D01*
G01*
X0001401220Y0001061555D01*
G75*
G02*
X0001407125Y0001067460I0000005905D01*
G01*
X0001453385Y0001067460D01*
G75*
G02*
X0001459291Y0001061555J-0000005905D01*
G01*
G37*
G36*
G01*
X0001459291Y0001136358D02*
X0001459291Y0001124547D01*
G75*
G02*
X0001453385Y0001118641I-0000005905D01*
G01*
X0001407125Y0001118641D01*
G75*
G02*
X0001401220Y0001124547J0000005905D01*
G01*
X0001401220Y0001136358D01*
G75*
G02*
X0001407125Y0001142263I0000005905D01*
G01*
X0001453385Y0001142263D01*
G75*
G02*
X0001459291Y0001136358J-0000005905D01*
G01*
G37*
G36*
G01*
X0001385472Y0001098956D02*
X0001385472Y0001087145D01*
G75*
G02*
X0001379566Y0001081240I-0000005905D01*
G01*
X0001333307Y0001081240D01*
G75*
G02*
X0001327401Y0001087145J0000005905D01*
G01*
X0001327401Y0001098956D01*
G75*
G02*
X0001333307Y0001104862I0000005905D01*
G01*
X0001379566Y0001104862D01*
G75*
G02*
X0001385472Y0001098956J-0000005905D01*
G01*
G37*
G36*
G01*
X0001937637Y0000643248D02*
X0001937637Y0000651122D01*
G75*
G02*
X0001941574Y0000655059I0000003937D01*
G01*
X0001991771Y0000655059D01*
G75*
G02*
X0001995708Y0000651122J-0000003937D01*
G01*
X0001995708Y0000643248D01*
G75*
G02*
X0001991771Y0000639311I-0000003937D01*
G01*
X0001941574Y0000639311D01*
G75*
G02*
X0001937637Y0000643248J0000003937D01*
G01*
G37*
G36*
G01*
X0001937637Y0000617657D02*
X0001937637Y0000625531D01*
G75*
G02*
X0001941574Y0000629468I0000003937D01*
G01*
X0001991771Y0000629468D01*
G75*
G02*
X0001995708Y0000625531J-0000003937D01*
G01*
X0001995708Y0000617657D01*
G75*
G02*
X0001991771Y0000613720I-0000003937D01*
G01*
X0001941574Y0000613720D01*
G75*
G02*
X0001937637Y0000617657J0000003937D01*
G01*
G37*
G36*
G01*
X0001937637Y0000592066D02*
X0001937637Y0000599940D01*
G75*
G02*
X0001941574Y0000603877I0000003937D01*
G01*
X0001991771Y0000603877D01*
G75*
G02*
X0001995708Y0000599940J-0000003937D01*
G01*
X0001995708Y0000592066D01*
G75*
G02*
X0001991771Y0000588129I-0000003937D01*
G01*
X0001941574Y0000588129D01*
G75*
G02*
X0001937637Y0000592066J0000003937D01*
G01*
G37*
G36*
G01*
X0001937637Y0000566476D02*
X0001937637Y0000574350D01*
G75*
G02*
X0001941574Y0000578287I0000003937D01*
G01*
X0001991771Y0000578287D01*
G75*
G02*
X0001995708Y0000574350J-0000003937D01*
G01*
X0001995708Y0000566476D01*
G75*
G02*
X0001991771Y0000562539I-0000003937D01*
G01*
X0001941574Y0000562539D01*
G75*
G02*
X0001937637Y0000566476J0000003937D01*
G01*
G37*
G36*
G01*
X0002163031Y0000566476D02*
X0002163031Y0000574350D01*
G75*
G02*
X0002166968Y0000578287I0000003937D01*
G01*
X0002217165Y0000578287D01*
G75*
G02*
X0002221102Y0000574350J-0000003937D01*
G01*
X0002221102Y0000566476D01*
G75*
G02*
X0002217165Y0000562539I-0000003937D01*
G01*
X0002166968Y0000562539D01*
G75*
G02*
X0002163031Y0000566476J0000003937D01*
G01*
G37*
G36*
G01*
X0002163031Y0000592066D02*
X0002163031Y0000599940D01*
G75*
G02*
X0002166968Y0000603877I0000003937D01*
G01*
X0002217165Y0000603877D01*
G75*
G02*
X0002221102Y0000599940J-0000003937D01*
G01*
X0002221102Y0000592066D01*
G75*
G02*
X0002217165Y0000588129I-0000003937D01*
G01*
X0002166968Y0000588129D01*
G75*
G02*
X0002163031Y0000592066J0000003937D01*
G01*
G37*
G36*
G01*
X0002163031Y0000617657D02*
X0002163031Y0000625531D01*
G75*
G02*
X0002166968Y0000629468I0000003937D01*
G01*
X0002217165Y0000629468D01*
G75*
G02*
X0002221102Y0000625531J-0000003937D01*
G01*
X0002221102Y0000617657D01*
G75*
G02*
X0002217165Y0000613720I-0000003937D01*
G01*
X0002166968Y0000613720D01*
G75*
G02*
X0002163031Y0000617657J0000003937D01*
G01*
G37*
G36*
G01*
X0002163031Y0000643248D02*
X0002163031Y0000651122D01*
G75*
G02*
X0002166968Y0000655059I0000003937D01*
G01*
X0002217165Y0000655059D01*
G75*
G02*
X0002221102Y0000651122J-0000003937D01*
G01*
X0002221102Y0000643248D01*
G75*
G02*
X0002217165Y0000639311I-0000003937D01*
G01*
X0002166968Y0000639311D01*
G75*
G02*
X0002163031Y0000643248J0000003937D01*
G01*
G37*
D62*
X0001788031Y0000632421D03*
X0001825433Y0000632421D03*
X0001862834Y0000632421D03*
X0001862834Y0000738720D03*
X0001788031Y0000738720D03*
X0001825433Y0000738720D03*
D63*
X0002162047Y0000303484D03*
X0002162047Y0000353484D03*
X0002162047Y0000403484D03*
X0002162047Y0000453484D03*
X0001949448Y0000453484D03*
X0001949448Y0000403484D03*
X0001949448Y0000353484D03*
X0001949448Y0000303484D03*
D64*
X0002055747Y0000378484D03*
D65*
X0001666377Y0001666673D03*
X0001666377Y0001587933D03*
X0001666377Y0001509192D03*
X0001666377Y0001430452D03*
X0001666377Y0001351712D03*
X0001666377Y0001272972D03*
X0001666377Y0001194232D03*
X0001666377Y0001115492D03*
D66*
X0001768740Y0001056437D03*
X0001847480Y0001056437D03*
X0001926220Y0001056437D03*
X0002004960Y0001056437D03*
X0002083700Y0001056437D03*
X0002162440Y0001056437D03*
D65*
X0002264803Y0001115492D03*
X0002264803Y0001194232D03*
X0002264803Y0001272972D03*
X0002264803Y0001351712D03*
X0002264803Y0001430452D03*
X0002264803Y0001509192D03*
X0002264803Y0001587933D03*
X0002264803Y0001666673D03*
G36*
G01*
X0002325039Y0000302893D02*
X0002289606Y0000302893D01*
G75*
G02*
X0002279763Y0000312736J0000009842D01*
G01*
X0002279763Y0000333405D01*
G75*
G02*
X0002289606Y0000343248I0000009842D01*
G01*
X0002325039Y0000343248D01*
G75*
G02*
X0002334881Y0000333405J-0000009842D01*
G01*
X0002334881Y0000312736D01*
G75*
G02*
X0002325039Y0000302893I-0000009842D01*
G01*
G37*
G36*
G01*
X0002325039Y0000231043D02*
X0002289606Y0000231043D01*
G75*
G02*
X0002279763Y0000240885J0000009842D01*
G01*
X0002279763Y0000261555D01*
G75*
G02*
X0002289606Y0000271397I0000009842D01*
G01*
X0002325039Y0000271397D01*
G75*
G02*
X0002334881Y0000261555J-0000009842D01*
G01*
X0002334881Y0000240885D01*
G75*
G02*
X0002325039Y0000231043I-0000009842D01*
G01*
G37*
G36*
G01*
X0001885472Y0000937539D02*
X0001885472Y0000902106D01*
G75*
G02*
X0001875630Y0000892263I-0000009842D01*
G01*
X0001854960Y0000892263D01*
G75*
G02*
X0001845118Y0000902106J0000009842D01*
G01*
X0001845118Y0000937539D01*
G75*
G02*
X0001854960Y0000947381I0000009842D01*
G01*
X0001875630Y0000947381D01*
G75*
G02*
X0001885472Y0000937539J-0000009842D01*
G01*
G37*
G36*
G01*
X0001813622Y0000937539D02*
X0001813622Y0000902106D01*
G75*
G02*
X0001803779Y0000892263I-0000009842D01*
G01*
X0001783110Y0000892263D01*
G75*
G02*
X0001773267Y0000902106J0000009842D01*
G01*
X0001773267Y0000937539D01*
G75*
G02*
X0001783110Y0000947381I0000009842D01*
G01*
X0001803779Y0000947381D01*
G75*
G02*
X0001813622Y0000937539J-0000009842D01*
G01*
G37*
G36*
G01*
X0001771299Y0000817460D02*
X0001771299Y0000852893D01*
G75*
G02*
X0001781141Y0000862736I0000009842D01*
G01*
X0001801811Y0000862736D01*
G75*
G02*
X0001811653Y0000852893J-0000009842D01*
G01*
X0001811653Y0000817460D01*
G75*
G02*
X0001801811Y0000807618I-0000009842D01*
G01*
X0001781141Y0000807618D01*
G75*
G02*
X0001771299Y0000817460J0000009842D01*
G01*
G37*
G36*
G01*
X0001843149Y0000817460D02*
X0001843149Y0000852893D01*
G75*
G02*
X0001852992Y0000862736I0000009842D01*
G01*
X0001873661Y0000862736D01*
G75*
G02*
X0001883503Y0000852893J-0000009842D01*
G01*
X0001883503Y0000817460D01*
G75*
G02*
X0001873661Y0000807618I-0000009842D01*
G01*
X0001852992Y0000807618D01*
G75*
G02*
X0001843149Y0000817460J0000009842D01*
G01*
G37*
G36*
G01*
X0001602007Y0000782027D02*
X0001602007Y0000817460D01*
G75*
G02*
X0001611850Y0000827303I0000009842D01*
G01*
X0001632519Y0000827303D01*
G75*
G02*
X0001642362Y0000817460J-0000009842D01*
G01*
X0001642362Y0000782027D01*
G75*
G02*
X0001632519Y0000772185I-0000009842D01*
G01*
X0001611850Y0000772185D01*
G75*
G02*
X0001602007Y0000782027J0000009842D01*
G01*
G37*
G36*
G01*
X0001673858Y0000782027D02*
X0001673858Y0000817460D01*
G75*
G02*
X0001683700Y0000827303I0000009842D01*
G01*
X0001704370Y0000827303D01*
G75*
G02*
X0001714212Y0000817460J-0000009842D01*
G01*
X0001714212Y0000782027D01*
G75*
G02*
X0001704370Y0000772185I-0000009842D01*
G01*
X0001683700Y0000772185D01*
G75*
G02*
X0001673858Y0000782027J0000009842D01*
G01*
G37*
G36*
G01*
X0002289606Y0000456830D02*
X0002325039Y0000456830D01*
G75*
G02*
X0002334881Y0000446988J-0000009842D01*
G01*
X0002334881Y0000426318D01*
G75*
G02*
X0002325039Y0000416476I-0000009842D01*
G01*
X0002289606Y0000416476D01*
G75*
G02*
X0002279763Y0000426318J0000009842D01*
G01*
X0002279763Y0000446988D01*
G75*
G02*
X0002289606Y0000456830I0000009842D01*
G01*
G37*
G36*
G01*
X0002289606Y0000528681D02*
X0002325039Y0000528681D01*
G75*
G02*
X0002334881Y0000518838J-0000009842D01*
G01*
X0002334881Y0000498169D01*
G75*
G02*
X0002325039Y0000488326I-0000009842D01*
G01*
X0002289606Y0000488326D01*
G75*
G02*
X0002279763Y0000498169J0000009842D01*
G01*
X0002279763Y0000518838D01*
G75*
G02*
X0002289606Y0000528681I0000009842D01*
G01*
G37*
G36*
G01*
X0001582519Y0000198562D02*
X0001582519Y0000233996D01*
G75*
G02*
X0001592362Y0000243838I0000009842D01*
G01*
X0001613031Y0000243838D01*
G75*
G02*
X0001622874Y0000233996J-0000009842D01*
G01*
X0001622874Y0000198562D01*
G75*
G02*
X0001613031Y0000188720I-0000009842D01*
G01*
X0001592362Y0000188720D01*
G75*
G02*
X0001582519Y0000198562J0000009842D01*
G01*
G37*
G36*
G01*
X0001510669Y0000198562D02*
X0001510669Y0000233996D01*
G75*
G02*
X0001520511Y0000243838I0000009842D01*
G01*
X0001541181Y0000243838D01*
G75*
G02*
X0001551023Y0000233996J-0000009842D01*
G01*
X0001551023Y0000198562D01*
G75*
G02*
X0001541181Y0000188720I-0000009842D01*
G01*
X0001520511Y0000188720D01*
G75*
G02*
X0001510669Y0000198562J0000009842D01*
G01*
G37*
G36*
G01*
X0001770118Y0000231240D02*
X0001770118Y0000195807D01*
G75*
G02*
X0001760275Y0000185964I-0000009842D01*
G01*
X0001739606Y0000185964D01*
G75*
G02*
X0001729763Y0000195807J0000009842D01*
G01*
X0001729763Y0000231240D01*
G75*
G02*
X0001739606Y0000241082I0000009842D01*
G01*
X0001760275Y0000241082D01*
G75*
G02*
X0001770118Y0000231240J-0000009842D01*
G01*
G37*
G36*
G01*
X0001698267Y0000231240D02*
X0001698267Y0000195807D01*
G75*
G02*
X0001688425Y0000185964I-0000009842D01*
G01*
X0001667755Y0000185964D01*
G75*
G02*
X0001657913Y0000195807J0000009842D01*
G01*
X0001657913Y0000231240D01*
G75*
G02*
X0001667755Y0000241082I0000009842D01*
G01*
X0001688425Y0000241082D01*
G75*
G02*
X0001698267Y0000231240J-0000009842D01*
G01*
G37*
G36*
G01*
X0002186653Y0000892657D02*
X0002186653Y0000928090D01*
G75*
G02*
X0002196495Y0000937933I0000009842D01*
G01*
X0002217165Y0000937933D01*
G75*
G02*
X0002227007Y0000928090J-0000009842D01*
G01*
X0002227007Y0000892657D01*
G75*
G02*
X0002217165Y0000882814I-0000009842D01*
G01*
X0002196495Y0000882814D01*
G75*
G02*
X0002186653Y0000892657J0000009842D01*
G01*
G37*
G36*
G01*
X0002258503Y0000892657D02*
X0002258503Y0000928090D01*
G75*
G02*
X0002268346Y0000937933I0000009842D01*
G01*
X0002289015Y0000937933D01*
G75*
G02*
X0002298858Y0000928090J-0000009842D01*
G01*
X0002298858Y0000892657D01*
G75*
G02*
X0002289015Y0000882814I-0000009842D01*
G01*
X0002268346Y0000882814D01*
G75*
G02*
X0002258503Y0000892657J0000009842D01*
G01*
G37*
G36*
G01*
X0002186653Y0000783405D02*
X0002186653Y0000818838D01*
G75*
G02*
X0002196495Y0000828681I0000009842D01*
G01*
X0002217165Y0000828681D01*
G75*
G02*
X0002227007Y0000818838J-0000009842D01*
G01*
X0002227007Y0000783405D01*
G75*
G02*
X0002217165Y0000773562I-0000009842D01*
G01*
X0002196495Y0000773562D01*
G75*
G02*
X0002186653Y0000783405J0000009842D01*
G01*
G37*
G36*
G01*
X0002258503Y0000783405D02*
X0002258503Y0000818838D01*
G75*
G02*
X0002268346Y0000828681I0000009842D01*
G01*
X0002289015Y0000828681D01*
G75*
G02*
X0002298858Y0000818838J-0000009842D01*
G01*
X0002298858Y0000783405D01*
G75*
G02*
X0002289015Y0000773562I-0000009842D01*
G01*
X0002268346Y0000773562D01*
G75*
G02*
X0002258503Y0000783405J0000009842D01*
G01*
G37*
G36*
G01*
X0001356929Y0001547185D02*
X0001392362Y0001547185D01*
G75*
G02*
X0001402204Y0001537342J-0000009842D01*
G01*
X0001402204Y0001516673D01*
G75*
G02*
X0001392362Y0001506830I-0000009842D01*
G01*
X0001356929Y0001506830D01*
G75*
G02*
X0001347086Y0001516673J0000009842D01*
G01*
X0001347086Y0001537342D01*
G75*
G02*
X0001356929Y0001547185I0000009842D01*
G01*
G37*
G36*
G01*
X0001356929Y0001475334D02*
X0001392362Y0001475334D01*
G75*
G02*
X0001402204Y0001465492J-0000009842D01*
G01*
X0001402204Y0001444822D01*
G75*
G02*
X0001392362Y0001434980I-0000009842D01*
G01*
X0001356929Y0001434980D01*
G75*
G02*
X0001347086Y0001444822J0000009842D01*
G01*
X0001347086Y0001465492D01*
G75*
G02*
X0001356929Y0001475334I0000009842D01*
G01*
G37*
G36*
G01*
X0002427322Y0001630846D02*
X0002427322Y0001666279D01*
G75*
G02*
X0002437165Y0001676122I0000009842D01*
G01*
X0002457834Y0001676122D01*
G75*
G02*
X0002467677Y0001666279J-0000009842D01*
G01*
X0002467677Y0001630846D01*
G75*
G02*
X0002457834Y0001621003I-0000009842D01*
G01*
X0002437165Y0001621003D01*
G75*
G02*
X0002427322Y0001630846J0000009842D01*
G01*
G37*
G36*
G01*
X0002355472Y0001630846D02*
X0002355472Y0001666279D01*
G75*
G02*
X0002365314Y0001676122I0000009842D01*
G01*
X0002385984Y0001676122D01*
G75*
G02*
X0002395826Y0001666279J-0000009842D01*
G01*
X0002395826Y0001630846D01*
G75*
G02*
X0002385984Y0001621003I-0000009842D01*
G01*
X0002365314Y0001621003D01*
G75*
G02*
X0002355472Y0001630846J0000009842D01*
G01*
G37*
G36*
G01*
X0002289606Y0000628877D02*
X0002325039Y0000628877D01*
G75*
G02*
X0002334881Y0000619035J-0000009842D01*
G01*
X0002334881Y0000598366D01*
G75*
G02*
X0002325039Y0000588523I-0000009842D01*
G01*
X0002289606Y0000588523D01*
G75*
G02*
X0002279763Y0000598366J0000009842D01*
G01*
X0002279763Y0000619035D01*
G75*
G02*
X0002289606Y0000628877I0000009842D01*
G01*
G37*
G36*
G01*
X0002289606Y0000700728D02*
X0002325039Y0000700728D01*
G75*
G02*
X0002334881Y0000690885J-0000009842D01*
G01*
X0002334881Y0000670216D01*
G75*
G02*
X0002325039Y0000660374I-0000009842D01*
G01*
X0002289606Y0000660374D01*
G75*
G02*
X0002279763Y0000670216J0000009842D01*
G01*
X0002279763Y0000690885D01*
G75*
G02*
X0002289606Y0000700728I0000009842D01*
G01*
G37*
G36*
G01*
X0002427322Y0001547381D02*
X0002427322Y0001582815D01*
G75*
G02*
X0002437165Y0001592657I0000009842D01*
G01*
X0002457834Y0001592657D01*
G75*
G02*
X0002467677Y0001582815J-0000009842D01*
G01*
X0002467677Y0001547381D01*
G75*
G02*
X0002457834Y0001537539I-0000009842D01*
G01*
X0002437165Y0001537539D01*
G75*
G02*
X0002427322Y0001547381J0000009842D01*
G01*
G37*
G36*
G01*
X0002355472Y0001547381D02*
X0002355472Y0001582815D01*
G75*
G02*
X0002365314Y0001592657I0000009842D01*
G01*
X0002385984Y0001592657D01*
G75*
G02*
X0002395826Y0001582815J-0000009842D01*
G01*
X0002395826Y0001547381D01*
G75*
G02*
X0002385984Y0001537539I-0000009842D01*
G01*
X0002365314Y0001537539D01*
G75*
G02*
X0002355472Y0001547381J0000009842D01*
G01*
G37*
G36*
G01*
X0001406535Y0001623366D02*
X0001406535Y0001658799D01*
G75*
G02*
X0001416377Y0001668641I0000009842D01*
G01*
X0001437047Y0001668641D01*
G75*
G02*
X0001446889Y0001658799J-0000009842D01*
G01*
X0001446889Y0001623366D01*
G75*
G02*
X0001437047Y0001613523I-0000009842D01*
G01*
X0001416377Y0001613523D01*
G75*
G02*
X0001406535Y0001623366J0000009842D01*
G01*
G37*
G36*
G01*
X0001478385Y0001623366D02*
X0001478385Y0001658799D01*
G75*
G02*
X0001488228Y0001668641I0000009842D01*
G01*
X0001508897Y0001668641D01*
G75*
G02*
X0001518740Y0001658799J-0000009842D01*
G01*
X0001518740Y0001623366D01*
G75*
G02*
X0001508897Y0001613523I-0000009842D01*
G01*
X0001488228Y0001613523D01*
G75*
G02*
X0001478385Y0001623366J0000009842D01*
G01*
G37*
D58*
X0001391574Y0000182814D03*
D57*
X0001391574Y0000082814D03*
G36*
G01*
X0001552992Y0000498169D02*
X0001671102Y0000498169D01*
G75*
G02*
X0001680944Y0000488326J-0000009842D01*
G01*
X0001680944Y0000468641D01*
G75*
G02*
X0001671102Y0000458799I-0000009842D01*
G01*
X0001552992Y0000458799D01*
G75*
G02*
X0001543149Y0000468641J0000009842D01*
G01*
X0001543149Y0000488326D01*
G75*
G02*
X0001552992Y0000498169I0000009842D01*
G01*
G37*
G36*
G01*
X0001552992Y0000419429D02*
X0001671102Y0000419429D01*
G75*
G02*
X0001680944Y0000409586J-0000009842D01*
G01*
X0001680944Y0000389901D01*
G75*
G02*
X0001671102Y0000380059I-0000009842D01*
G01*
X0001552992Y0000380059D01*
G75*
G02*
X0001543149Y0000389901J0000009842D01*
G01*
X0001543149Y0000409586D01*
G75*
G02*
X0001552992Y0000419429I0000009842D01*
G01*
G37*
G36*
G01*
X0001328582Y0000600531D02*
X0001442755Y0000600531D01*
G75*
G02*
X0001452598Y0000590688J-0000009842D01*
G01*
X0001452598Y0000551318D01*
G75*
G02*
X0001442755Y0000541476I-0000009842D01*
G01*
X0001328582Y0000541476D01*
G75*
G02*
X0001318740Y0000551318J0000009842D01*
G01*
X0001318740Y0000590688D01*
G75*
G02*
X0001328582Y0000600531I0000009842D01*
G01*
G37*
G36*
G01*
X0001328582Y0000336751D02*
X0001442755Y0000336751D01*
G75*
G02*
X0001452598Y0000326909J-0000009842D01*
G01*
X0001452598Y0000287539D01*
G75*
G02*
X0001442755Y0000277696I-0000009842D01*
G01*
X0001328582Y0000277696D01*
G75*
G02*
X0001318740Y0000287539J0000009842D01*
G01*
X0001318740Y0000326909D01*
G75*
G02*
X0001328582Y0000336751I0000009842D01*
G01*
G37*
D67*
X0001963622Y0000163129D03*
X0001989212Y0000163129D03*
X0002014803Y0000163129D03*
X0002040393Y0000163129D03*
X0002065984Y0000163129D03*
D68*
X0001916377Y0000163129D03*
X0002113228Y0000163129D03*
D69*
X0001975433Y0000056830D03*
X0002054173Y0000056830D03*
D70*
X0001900629Y0000056830D03*
X0002128976Y0000056830D03*
D71*
X0001877007Y0000056830D03*
X0002152598Y0000056830D03*
D57*
X0002334094Y0000086751D03*
D58*
X0002434094Y0000086751D03*
D57*
X0002448661Y0001440295D03*
D58*
X0002448661Y0001340295D03*
D57*
X0002448661Y0001039507D03*
D58*
X0002448661Y0001139507D03*
G36*
G01*
X0001591102Y0000040049D02*
X0001591102Y0000075974D01*
G75*
G02*
X0001600698Y0000085570I0000009596D01*
G01*
X0001619891Y0000085570D01*
G75*
G02*
X0001629488Y0000075974J-0000009596D01*
G01*
X0001629488Y0000040049D01*
G75*
G02*
X0001619891Y0000030452I-0000009596D01*
G01*
X0001600698Y0000030452D01*
G75*
G02*
X0001591102Y0000040049J0000009596D01*
G01*
G37*
G36*
G01*
X0001517283Y0000040049D02*
X0001517283Y0000075974D01*
G75*
G02*
X0001526879Y0000085570I0000009596D01*
G01*
X0001546072Y0000085570D01*
G75*
G02*
X0001555669Y0000075974J-0000009596D01*
G01*
X0001555669Y0000040049D01*
G75*
G02*
X0001546072Y0000030452I-0000009596D01*
G01*
X0001526879Y0000030452D01*
G75*
G02*
X0001517283Y0000040049J0000009596D01*
G01*
G37*
G36*
G01*
X0001666181Y0000041230D02*
X0001666181Y0000077155D01*
G75*
G02*
X0001675777Y0000086751I0000009596D01*
G01*
X0001694970Y0000086751D01*
G75*
G02*
X0001704566Y0000077155J-0000009596D01*
G01*
X0001704566Y0000041230D01*
G75*
G02*
X0001694970Y0000031633I-0000009596D01*
G01*
X0001675777Y0000031633D01*
G75*
G02*
X0001666181Y0000041230J0000009596D01*
G01*
G37*
G36*
G01*
X0001740000Y0000041230D02*
X0001740000Y0000077155D01*
G75*
G02*
X0001749596Y0000086751I0000009596D01*
G01*
X0001768789Y0000086751D01*
G75*
G02*
X0001778385Y0000077155J-0000009596D01*
G01*
X0001778385Y0000041230D01*
G75*
G02*
X0001768789Y0000031633I-0000009596D01*
G01*
X0001749596Y0000031633D01*
G75*
G02*
X0001740000Y0000041230J0000009596D01*
G01*
G37*
D72*
X0001507125Y0001555649D03*
X0001507125Y0001425728D03*
D73*
X0001976220Y0000793248D03*
X0002106141Y0000793248D03*
X0001976220Y0000918248D03*
X0002106141Y0000918248D03*
G36*
G01*
X0001500629Y0001150137D02*
X0001538031Y0001150137D01*
G75*
G02*
X0001547874Y0001140295J-0000009842D01*
G01*
X0001547874Y0001120610D01*
G75*
G02*
X0001538031Y0001110767I-0000009842D01*
G01*
X0001500629Y0001110767D01*
G75*
G02*
X0001490787Y0001120610J0000009842D01*
G01*
X0001490787Y0001140295D01*
G75*
G02*
X0001500629Y0001150137I0000009842D01*
G01*
G37*
G36*
G01*
X0001500629Y0001075334D02*
X0001538031Y0001075334D01*
G75*
G02*
X0001547874Y0001065492J-0000009842D01*
G01*
X0001547874Y0001045807D01*
G75*
G02*
X0001538031Y0001035964I-0000009842D01*
G01*
X0001500629Y0001035964D01*
G75*
G02*
X0001490787Y0001045807J0000009842D01*
G01*
X0001490787Y0001065492D01*
G75*
G02*
X0001500629Y0001075334I0000009842D01*
G01*
G37*
G36*
G01*
X0001601023Y0000899940D02*
X0001601023Y0000937342D01*
G75*
G02*
X0001610866Y0000947185I0000009842D01*
G01*
X0001630551Y0000947185D01*
G75*
G02*
X0001640393Y0000937342J-0000009842D01*
G01*
X0001640393Y0000899940D01*
G75*
G02*
X0001630551Y0000890098I-0000009842D01*
G01*
X0001610866Y0000890098D01*
G75*
G02*
X0001601023Y0000899940J0000009842D01*
G01*
G37*
G36*
G01*
X0001675826Y0000899940D02*
X0001675826Y0000937342D01*
G75*
G02*
X0001685669Y0000947185I0000009842D01*
G01*
X0001705354Y0000947185D01*
G75*
G02*
X0001715196Y0000937342J-0000009842D01*
G01*
X0001715196Y0000899940D01*
G75*
G02*
X0001705354Y0000890098I-0000009842D01*
G01*
X0001685669Y0000890098D01*
G75*
G02*
X0001675826Y0000899940J0000009842D01*
G01*
G37*
G36*
G01*
X0001715196Y0000687342D02*
X0001715196Y0000649940D01*
G75*
G02*
X0001705354Y0000640098I-0000009842D01*
G01*
X0001685669Y0000640098D01*
G75*
G02*
X0001675826Y0000649940J0000009842D01*
G01*
X0001675826Y0000687342D01*
G75*
G02*
X0001685669Y0000697185I0000009842D01*
G01*
X0001705354Y0000697185D01*
G75*
G02*
X0001715196Y0000687342J-0000009842D01*
G01*
G37*
G36*
G01*
X0001640393Y0000687342D02*
X0001640393Y0000649940D01*
G75*
G02*
X0001630551Y0000640098I-0000009842D01*
G01*
X0001610866Y0000640098D01*
G75*
G02*
X0001601023Y0000649940J0000009842D01*
G01*
X0001601023Y0000687342D01*
G75*
G02*
X0001610866Y0000697185I0000009842D01*
G01*
X0001630551Y0000697185D01*
G75*
G02*
X0001640393Y0000687342J-0000009842D01*
G01*
G37*
G36*
G01*
X0001754173Y0000462539D02*
X0001754173Y0000499940D01*
G75*
G02*
X0001764015Y0000509783I0000009842D01*
G01*
X0001783700Y0000509783D01*
G75*
G02*
X0001793543Y0000499940J-0000009842D01*
G01*
X0001793543Y0000462539D01*
G75*
G02*
X0001783700Y0000452696I-0000009842D01*
G01*
X0001764015Y0000452696D01*
G75*
G02*
X0001754173Y0000462539J0000009842D01*
G01*
G37*
G36*
G01*
X0001828976Y0000462539D02*
X0001828976Y0000499940D01*
G75*
G02*
X0001838818Y0000509783I0000009842D01*
G01*
X0001858503Y0000509783D01*
G75*
G02*
X0001868346Y0000499940J-0000009842D01*
G01*
X0001868346Y0000462539D01*
G75*
G02*
X0001858503Y0000452696I-0000009842D01*
G01*
X0001838818Y0000452696D01*
G75*
G02*
X0001828976Y0000462539J0000009842D01*
G01*
G37*
G36*
G01*
X0001754173Y0000362145D02*
X0001754173Y0000399547D01*
G75*
G02*
X0001764015Y0000409389I0000009842D01*
G01*
X0001783700Y0000409389D01*
G75*
G02*
X0001793543Y0000399547J-0000009842D01*
G01*
X0001793543Y0000362145D01*
G75*
G02*
X0001783700Y0000352303I-0000009842D01*
G01*
X0001764015Y0000352303D01*
G75*
G02*
X0001754173Y0000362145J0000009842D01*
G01*
G37*
G36*
G01*
X0001828976Y0000362145D02*
X0001828976Y0000399547D01*
G75*
G02*
X0001838818Y0000409389I0000009842D01*
G01*
X0001858503Y0000409389D01*
G75*
G02*
X0001868346Y0000399547J-0000009842D01*
G01*
X0001868346Y0000362145D01*
G75*
G02*
X0001858503Y0000352303I-0000009842D01*
G01*
X0001838818Y0000352303D01*
G75*
G02*
X0001828976Y0000362145J0000009842D01*
G01*
G37*
G36*
G01*
X0001519724Y0001271988D02*
X0001519724Y0001234586D01*
G75*
G02*
X0001509881Y0001224744I-0000009842D01*
G01*
X0001490196Y0001224744D01*
G75*
G02*
X0001480354Y0001234586J0000009842D01*
G01*
X0001480354Y0001271988D01*
G75*
G02*
X0001490196Y0001281830I0000009842D01*
G01*
X0001509881Y0001281830D01*
G75*
G02*
X0001519724Y0001271988J-0000009842D01*
G01*
G37*
G36*
G01*
X0001444921Y0001271988D02*
X0001444921Y0001234586D01*
G75*
G02*
X0001435078Y0001224744I-0000009842D01*
G01*
X0001415393Y0001224744D01*
G75*
G02*
X0001405551Y0001234586J0000009842D01*
G01*
X0001405551Y0001271988D01*
G75*
G02*
X0001415393Y0001281830I0000009842D01*
G01*
X0001435078Y0001281830D01*
G75*
G02*
X0001444921Y0001271988J-0000009842D01*
G01*
G37*
G36*
G01*
X0001519724Y0001360767D02*
X0001519724Y0001323366D01*
G75*
G02*
X0001509881Y0001313523I-0000009842D01*
G01*
X0001490196Y0001313523D01*
G75*
G02*
X0001480354Y0001323366J0000009842D01*
G01*
X0001480354Y0001360767D01*
G75*
G02*
X0001490196Y0001370610I0000009842D01*
G01*
X0001509881Y0001370610D01*
G75*
G02*
X0001519724Y0001360767J-0000009842D01*
G01*
G37*
G36*
G01*
X0001444921Y0001360767D02*
X0001444921Y0001323366D01*
G75*
G02*
X0001435078Y0001313523I-0000009842D01*
G01*
X0001415393Y0001313523D01*
G75*
G02*
X0001405551Y0001323366J0000009842D01*
G01*
X0001405551Y0001360767D01*
G75*
G02*
X0001415393Y0001370610I0000009842D01*
G01*
X0001435078Y0001370610D01*
G75*
G02*
X0001444921Y0001360767J-0000009842D01*
G01*
G37*
G04 next file*
G04 #@! TF.GenerationSoftware,KiCad,Pcbnew,(5.1.9)-1*
G04 #@! TF.CreationDate,2021-07-08T10:50:12+02:00*
G04 #@! TF.ProjectId,iot-postbox,696f742d-706f-4737-9462-6f782e6b6963,v0.0*
G04 #@! TF.SameCoordinates,Original*
G04 #@! TF.FileFunction,Soldermask,Top*
G04 #@! TF.FilePolarity,Negative*
G04 Gerber Fmt 4.6, Leading zero omitted, Abs format (unit mm)*
G04 Created by KiCad (PCBNEW (5.1.9)-1) date 2021-07-08 10:50:12*
G01*
G04 APERTURE LIST*
G04 APERTURE END LIST*
D74*
X-0001332019Y0006002500D02*
X0003747980Y0000238000D03*
X0003747980Y0000338000D03*
X0003747980Y0000438000D03*
X0003747980Y0000537999D03*
X0003747980Y0000638000D03*
X0003747980Y0000738000D03*
D75*
X0003747980Y0000838000D03*
D76*
X0002679791Y0000876515D03*
D77*
X0002766799Y0000728877D03*
X0002766799Y0000787933D03*
X0002766799Y0000906043D03*
D78*
X0002723492Y0000971397D03*
X0002636090Y0000971397D03*
X0002723492Y0000663523D03*
X0002636090Y0000663523D03*
D76*
X0002679791Y0000758405D03*
G36*
G01*
X0002758531Y0001061555D02*
X0002758531Y0001049744D01*
G75*
G02*
X0002752625Y0001043838I-0000005905D01*
G01*
X0002706366Y0001043838D01*
G75*
G02*
X0002700460Y0001049744J0000005905D01*
G01*
X0002700460Y0001061555D01*
G75*
G02*
X0002706366Y0001067460I0000005905D01*
G01*
X0002752625Y0001067460D01*
G75*
G02*
X0002758531Y0001061555J-0000005905D01*
G01*
G37*
G36*
G01*
X0002758531Y0001136358D02*
X0002758531Y0001124547D01*
G75*
G02*
X0002752625Y0001118641I-0000005905D01*
G01*
X0002706366Y0001118641D01*
G75*
G02*
X0002700460Y0001124547J0000005905D01*
G01*
X0002700460Y0001136358D01*
G75*
G02*
X0002706366Y0001142263I0000005905D01*
G01*
X0002752625Y0001142263D01*
G75*
G02*
X0002758531Y0001136358J-0000005905D01*
G01*
G37*
G36*
G01*
X0002684712Y0001098956D02*
X0002684712Y0001087145D01*
G75*
G02*
X0002678807Y0001081240I-0000005905D01*
G01*
X0002632547Y0001081240D01*
G75*
G02*
X0002626641Y0001087145J0000005905D01*
G01*
X0002626641Y0001098956D01*
G75*
G02*
X0002632547Y0001104862I0000005905D01*
G01*
X0002678807Y0001104862D01*
G75*
G02*
X0002684712Y0001098956J-0000005905D01*
G01*
G37*
G36*
G01*
X0003236877Y0000643248D02*
X0003236877Y0000651122D01*
G75*
G02*
X0003240814Y0000655059I0000003937D01*
G01*
X0003291011Y0000655059D01*
G75*
G02*
X0003294948Y0000651122J-0000003937D01*
G01*
X0003294948Y0000643248D01*
G75*
G02*
X0003291011Y0000639311I-0000003937D01*
G01*
X0003240814Y0000639311D01*
G75*
G02*
X0003236877Y0000643248J0000003937D01*
G01*
G37*
G36*
G01*
X0003236877Y0000617657D02*
X0003236877Y0000625531D01*
G75*
G02*
X0003240814Y0000629468I0000003937D01*
G01*
X0003291011Y0000629468D01*
G75*
G02*
X0003294948Y0000625531J-0000003937D01*
G01*
X0003294948Y0000617657D01*
G75*
G02*
X0003291011Y0000613720I-0000003937D01*
G01*
X0003240814Y0000613720D01*
G75*
G02*
X0003236877Y0000617657J0000003937D01*
G01*
G37*
G36*
G01*
X0003236877Y0000592066D02*
X0003236877Y0000599940D01*
G75*
G02*
X0003240814Y0000603877I0000003937D01*
G01*
X0003291011Y0000603877D01*
G75*
G02*
X0003294948Y0000599940J-0000003937D01*
G01*
X0003294948Y0000592066D01*
G75*
G02*
X0003291011Y0000588129I-0000003937D01*
G01*
X0003240814Y0000588129D01*
G75*
G02*
X0003236877Y0000592066J0000003937D01*
G01*
G37*
G36*
G01*
X0003236877Y0000566476D02*
X0003236877Y0000574350D01*
G75*
G02*
X0003240814Y0000578287I0000003937D01*
G01*
X0003291011Y0000578287D01*
G75*
G02*
X0003294948Y0000574350J-0000003937D01*
G01*
X0003294948Y0000566476D01*
G75*
G02*
X0003291011Y0000562539I-0000003937D01*
G01*
X0003240814Y0000562539D01*
G75*
G02*
X0003236877Y0000566476J0000003937D01*
G01*
G37*
G36*
G01*
X0003462271Y0000566476D02*
X0003462271Y0000574350D01*
G75*
G02*
X0003466208Y0000578287I0000003937D01*
G01*
X0003516405Y0000578287D01*
G75*
G02*
X0003520342Y0000574350J-0000003937D01*
G01*
X0003520342Y0000566476D01*
G75*
G02*
X0003516405Y0000562539I-0000003937D01*
G01*
X0003466208Y0000562539D01*
G75*
G02*
X0003462271Y0000566476J0000003937D01*
G01*
G37*
G36*
G01*
X0003462271Y0000592066D02*
X0003462271Y0000599940D01*
G75*
G02*
X0003466208Y0000603877I0000003937D01*
G01*
X0003516405Y0000603877D01*
G75*
G02*
X0003520342Y0000599940J-0000003937D01*
G01*
X0003520342Y0000592066D01*
G75*
G02*
X0003516405Y0000588129I-0000003937D01*
G01*
X0003466208Y0000588129D01*
G75*
G02*
X0003462271Y0000592066J0000003937D01*
G01*
G37*
G36*
G01*
X0003462271Y0000617657D02*
X0003462271Y0000625531D01*
G75*
G02*
X0003466208Y0000629468I0000003937D01*
G01*
X0003516405Y0000629468D01*
G75*
G02*
X0003520342Y0000625531J-0000003937D01*
G01*
X0003520342Y0000617657D01*
G75*
G02*
X0003516405Y0000613720I-0000003937D01*
G01*
X0003466208Y0000613720D01*
G75*
G02*
X0003462271Y0000617657J0000003937D01*
G01*
G37*
G36*
G01*
X0003462271Y0000643248D02*
X0003462271Y0000651122D01*
G75*
G02*
X0003466208Y0000655059I0000003937D01*
G01*
X0003516405Y0000655059D01*
G75*
G02*
X0003520342Y0000651122J-0000003937D01*
G01*
X0003520342Y0000643248D01*
G75*
G02*
X0003516405Y0000639311I-0000003937D01*
G01*
X0003466208Y0000639311D01*
G75*
G02*
X0003462271Y0000643248J0000003937D01*
G01*
G37*
D79*
X0003087271Y0000632421D03*
X0003124673Y0000632421D03*
X0003162074Y0000632421D03*
X0003162074Y0000738720D03*
X0003087271Y0000738720D03*
X0003124673Y0000738720D03*
D80*
X0003461287Y0000303484D03*
X0003461287Y0000353484D03*
X0003461287Y0000403484D03*
X0003461287Y0000453484D03*
X0003248688Y0000453484D03*
X0003248688Y0000403484D03*
X0003248688Y0000353484D03*
X0003248688Y0000303484D03*
D81*
X0003354988Y0000378484D03*
D82*
X0002965618Y0001666673D03*
X0002965618Y0001587933D03*
X0002965618Y0001509192D03*
X0002965618Y0001430452D03*
X0002965618Y0001351712D03*
X0002965618Y0001272972D03*
X0002965618Y0001194232D03*
X0002965618Y0001115492D03*
D83*
X0003067980Y0001056437D03*
X0003146720Y0001056437D03*
X0003225460Y0001056437D03*
X0003304200Y0001056437D03*
X0003382940Y0001056437D03*
X0003461681Y0001056437D03*
D82*
X0003564043Y0001115492D03*
X0003564043Y0001194232D03*
X0003564043Y0001272972D03*
X0003564043Y0001351712D03*
X0003564043Y0001430452D03*
X0003564043Y0001509192D03*
X0003564043Y0001587933D03*
X0003564043Y0001666673D03*
G36*
G01*
X0003624279Y0000302893D02*
X0003588846Y0000302893D01*
G75*
G02*
X0003579003Y0000312736J0000009842D01*
G01*
X0003579003Y0000333405D01*
G75*
G02*
X0003588846Y0000343248I0000009842D01*
G01*
X0003624279Y0000343248D01*
G75*
G02*
X0003634122Y0000333405J-0000009842D01*
G01*
X0003634122Y0000312736D01*
G75*
G02*
X0003624279Y0000302893I-0000009842D01*
G01*
G37*
G36*
G01*
X0003624279Y0000231043D02*
X0003588846Y0000231043D01*
G75*
G02*
X0003579003Y0000240885J0000009842D01*
G01*
X0003579003Y0000261555D01*
G75*
G02*
X0003588846Y0000271397I0000009842D01*
G01*
X0003624279Y0000271397D01*
G75*
G02*
X0003634122Y0000261555J-0000009842D01*
G01*
X0003634122Y0000240885D01*
G75*
G02*
X0003624279Y0000231043I-0000009842D01*
G01*
G37*
G36*
G01*
X0003184712Y0000937539D02*
X0003184712Y0000902106D01*
G75*
G02*
X0003174870Y0000892263I-0000009842D01*
G01*
X0003154200Y0000892263D01*
G75*
G02*
X0003144358Y0000902106J0000009842D01*
G01*
X0003144358Y0000937539D01*
G75*
G02*
X0003154200Y0000947381I0000009842D01*
G01*
X0003174870Y0000947381D01*
G75*
G02*
X0003184712Y0000937539J-0000009842D01*
G01*
G37*
G36*
G01*
X0003112862Y0000937539D02*
X0003112862Y0000902106D01*
G75*
G02*
X0003103019Y0000892263I-0000009842D01*
G01*
X0003082350Y0000892263D01*
G75*
G02*
X0003072507Y0000902106J0000009842D01*
G01*
X0003072507Y0000937539D01*
G75*
G02*
X0003082350Y0000947381I0000009842D01*
G01*
X0003103019Y0000947381D01*
G75*
G02*
X0003112862Y0000937539J-0000009842D01*
G01*
G37*
G36*
G01*
X0003070539Y0000817460D02*
X0003070539Y0000852893D01*
G75*
G02*
X0003080381Y0000862736I0000009842D01*
G01*
X0003101051Y0000862736D01*
G75*
G02*
X0003110893Y0000852893J-0000009842D01*
G01*
X0003110893Y0000817460D01*
G75*
G02*
X0003101051Y0000807618I-0000009842D01*
G01*
X0003080381Y0000807618D01*
G75*
G02*
X0003070539Y0000817460J0000009842D01*
G01*
G37*
G36*
G01*
X0003142389Y0000817460D02*
X0003142389Y0000852893D01*
G75*
G02*
X0003152232Y0000862736I0000009842D01*
G01*
X0003172901Y0000862736D01*
G75*
G02*
X0003182744Y0000852893J-0000009842D01*
G01*
X0003182744Y0000817460D01*
G75*
G02*
X0003172901Y0000807618I-0000009842D01*
G01*
X0003152232Y0000807618D01*
G75*
G02*
X0003142389Y0000817460J0000009842D01*
G01*
G37*
G36*
G01*
X0002901248Y0000782027D02*
X0002901248Y0000817460D01*
G75*
G02*
X0002911090Y0000827303I0000009842D01*
G01*
X0002931759Y0000827303D01*
G75*
G02*
X0002941602Y0000817460J-0000009842D01*
G01*
X0002941602Y0000782027D01*
G75*
G02*
X0002931759Y0000772185I-0000009842D01*
G01*
X0002911090Y0000772185D01*
G75*
G02*
X0002901248Y0000782027J0000009842D01*
G01*
G37*
G36*
G01*
X0002973098Y0000782027D02*
X0002973098Y0000817460D01*
G75*
G02*
X0002982940Y0000827303I0000009842D01*
G01*
X0003003610Y0000827303D01*
G75*
G02*
X0003013452Y0000817460J-0000009842D01*
G01*
X0003013452Y0000782027D01*
G75*
G02*
X0003003610Y0000772185I-0000009842D01*
G01*
X0002982940Y0000772185D01*
G75*
G02*
X0002973098Y0000782027J0000009842D01*
G01*
G37*
G36*
G01*
X0003588846Y0000456830D02*
X0003624279Y0000456830D01*
G75*
G02*
X0003634122Y0000446988J-0000009842D01*
G01*
X0003634122Y0000426318D01*
G75*
G02*
X0003624279Y0000416476I-0000009842D01*
G01*
X0003588846Y0000416476D01*
G75*
G02*
X0003579003Y0000426318J0000009842D01*
G01*
X0003579003Y0000446988D01*
G75*
G02*
X0003588846Y0000456830I0000009842D01*
G01*
G37*
G36*
G01*
X0003588846Y0000528681D02*
X0003624279Y0000528681D01*
G75*
G02*
X0003634122Y0000518838J-0000009842D01*
G01*
X0003634122Y0000498169D01*
G75*
G02*
X0003624279Y0000488326I-0000009842D01*
G01*
X0003588846Y0000488326D01*
G75*
G02*
X0003579003Y0000498169J0000009842D01*
G01*
X0003579003Y0000518838D01*
G75*
G02*
X0003588846Y0000528681I0000009842D01*
G01*
G37*
G36*
G01*
X0002881759Y0000198562D02*
X0002881759Y0000233996D01*
G75*
G02*
X0002891602Y0000243838I0000009842D01*
G01*
X0002912271Y0000243838D01*
G75*
G02*
X0002922114Y0000233996J-0000009842D01*
G01*
X0002922114Y0000198562D01*
G75*
G02*
X0002912271Y0000188720I-0000009842D01*
G01*
X0002891602Y0000188720D01*
G75*
G02*
X0002881759Y0000198562J0000009842D01*
G01*
G37*
G36*
G01*
X0002809909Y0000198562D02*
X0002809909Y0000233996D01*
G75*
G02*
X0002819751Y0000243838I0000009842D01*
G01*
X0002840421Y0000243838D01*
G75*
G02*
X0002850263Y0000233996J-0000009842D01*
G01*
X0002850263Y0000198562D01*
G75*
G02*
X0002840421Y0000188720I-0000009842D01*
G01*
X0002819751Y0000188720D01*
G75*
G02*
X0002809909Y0000198562J0000009842D01*
G01*
G37*
G36*
G01*
X0003069358Y0000231240D02*
X0003069358Y0000195807D01*
G75*
G02*
X0003059515Y0000185964I-0000009842D01*
G01*
X0003038846Y0000185964D01*
G75*
G02*
X0003029003Y0000195807J0000009842D01*
G01*
X0003029003Y0000231240D01*
G75*
G02*
X0003038846Y0000241082I0000009842D01*
G01*
X0003059515Y0000241082D01*
G75*
G02*
X0003069358Y0000231240J-0000009842D01*
G01*
G37*
G36*
G01*
X0002997507Y0000231240D02*
X0002997507Y0000195807D01*
G75*
G02*
X0002987665Y0000185964I-0000009842D01*
G01*
X0002966995Y0000185964D01*
G75*
G02*
X0002957153Y0000195807J0000009842D01*
G01*
X0002957153Y0000231240D01*
G75*
G02*
X0002966995Y0000241082I0000009842D01*
G01*
X0002987665Y0000241082D01*
G75*
G02*
X0002997507Y0000231240J-0000009842D01*
G01*
G37*
G36*
G01*
X0003485893Y0000892657D02*
X0003485893Y0000928090D01*
G75*
G02*
X0003495736Y0000937933I0000009842D01*
G01*
X0003516405Y0000937933D01*
G75*
G02*
X0003526248Y0000928090J-0000009842D01*
G01*
X0003526248Y0000892657D01*
G75*
G02*
X0003516405Y0000882814I-0000009842D01*
G01*
X0003495736Y0000882814D01*
G75*
G02*
X0003485893Y0000892657J0000009842D01*
G01*
G37*
G36*
G01*
X0003557744Y0000892657D02*
X0003557744Y0000928090D01*
G75*
G02*
X0003567586Y0000937933I0000009842D01*
G01*
X0003588255Y0000937933D01*
G75*
G02*
X0003598098Y0000928090J-0000009842D01*
G01*
X0003598098Y0000892657D01*
G75*
G02*
X0003588255Y0000882814I-0000009842D01*
G01*
X0003567586Y0000882814D01*
G75*
G02*
X0003557744Y0000892657J0000009842D01*
G01*
G37*
G36*
G01*
X0003485893Y0000783405D02*
X0003485893Y0000818838D01*
G75*
G02*
X0003495736Y0000828681I0000009842D01*
G01*
X0003516405Y0000828681D01*
G75*
G02*
X0003526248Y0000818838J-0000009842D01*
G01*
X0003526248Y0000783405D01*
G75*
G02*
X0003516405Y0000773562I-0000009842D01*
G01*
X0003495736Y0000773562D01*
G75*
G02*
X0003485893Y0000783405J0000009842D01*
G01*
G37*
G36*
G01*
X0003557744Y0000783405D02*
X0003557744Y0000818838D01*
G75*
G02*
X0003567586Y0000828681I0000009842D01*
G01*
X0003588255Y0000828681D01*
G75*
G02*
X0003598098Y0000818838J-0000009842D01*
G01*
X0003598098Y0000783405D01*
G75*
G02*
X0003588255Y0000773562I-0000009842D01*
G01*
X0003567586Y0000773562D01*
G75*
G02*
X0003557744Y0000783405J0000009842D01*
G01*
G37*
G36*
G01*
X0002656169Y0001547185D02*
X0002691602Y0001547185D01*
G75*
G02*
X0002701444Y0001537342J-0000009842D01*
G01*
X0002701444Y0001516673D01*
G75*
G02*
X0002691602Y0001506830I-0000009842D01*
G01*
X0002656169Y0001506830D01*
G75*
G02*
X0002646326Y0001516673J0000009842D01*
G01*
X0002646326Y0001537342D01*
G75*
G02*
X0002656169Y0001547185I0000009842D01*
G01*
G37*
G36*
G01*
X0002656169Y0001475334D02*
X0002691602Y0001475334D01*
G75*
G02*
X0002701444Y0001465492J-0000009842D01*
G01*
X0002701444Y0001444822D01*
G75*
G02*
X0002691602Y0001434980I-0000009842D01*
G01*
X0002656169Y0001434980D01*
G75*
G02*
X0002646326Y0001444822J0000009842D01*
G01*
X0002646326Y0001465492D01*
G75*
G02*
X0002656169Y0001475334I0000009842D01*
G01*
G37*
G36*
G01*
X0003726562Y0001630846D02*
X0003726562Y0001666279D01*
G75*
G02*
X0003736405Y0001676122I0000009842D01*
G01*
X0003757074Y0001676122D01*
G75*
G02*
X0003766917Y0001666279J-0000009842D01*
G01*
X0003766917Y0001630846D01*
G75*
G02*
X0003757074Y0001621003I-0000009842D01*
G01*
X0003736405Y0001621003D01*
G75*
G02*
X0003726562Y0001630846J0000009842D01*
G01*
G37*
G36*
G01*
X0003654712Y0001630846D02*
X0003654712Y0001666279D01*
G75*
G02*
X0003664555Y0001676122I0000009842D01*
G01*
X0003685224Y0001676122D01*
G75*
G02*
X0003695066Y0001666279J-0000009842D01*
G01*
X0003695066Y0001630846D01*
G75*
G02*
X0003685224Y0001621003I-0000009842D01*
G01*
X0003664555Y0001621003D01*
G75*
G02*
X0003654712Y0001630846J0000009842D01*
G01*
G37*
G36*
G01*
X0003588846Y0000628877D02*
X0003624279Y0000628877D01*
G75*
G02*
X0003634122Y0000619035J-0000009842D01*
G01*
X0003634122Y0000598366D01*
G75*
G02*
X0003624279Y0000588523I-0000009842D01*
G01*
X0003588846Y0000588523D01*
G75*
G02*
X0003579003Y0000598366J0000009842D01*
G01*
X0003579003Y0000619035D01*
G75*
G02*
X0003588846Y0000628877I0000009842D01*
G01*
G37*
G36*
G01*
X0003588846Y0000700728D02*
X0003624279Y0000700728D01*
G75*
G02*
X0003634122Y0000690885J-0000009842D01*
G01*
X0003634122Y0000670216D01*
G75*
G02*
X0003624279Y0000660374I-0000009842D01*
G01*
X0003588846Y0000660374D01*
G75*
G02*
X0003579003Y0000670216J0000009842D01*
G01*
X0003579003Y0000690885D01*
G75*
G02*
X0003588846Y0000700728I0000009842D01*
G01*
G37*
G36*
G01*
X0003726562Y0001547381D02*
X0003726562Y0001582815D01*
G75*
G02*
X0003736405Y0001592657I0000009842D01*
G01*
X0003757074Y0001592657D01*
G75*
G02*
X0003766917Y0001582815J-0000009842D01*
G01*
X0003766917Y0001547381D01*
G75*
G02*
X0003757074Y0001537539I-0000009842D01*
G01*
X0003736405Y0001537539D01*
G75*
G02*
X0003726562Y0001547381J0000009842D01*
G01*
G37*
G36*
G01*
X0003654712Y0001547381D02*
X0003654712Y0001582815D01*
G75*
G02*
X0003664555Y0001592657I0000009842D01*
G01*
X0003685224Y0001592657D01*
G75*
G02*
X0003695066Y0001582815J-0000009842D01*
G01*
X0003695066Y0001547381D01*
G75*
G02*
X0003685224Y0001537539I-0000009842D01*
G01*
X0003664555Y0001537539D01*
G75*
G02*
X0003654712Y0001547381J0000009842D01*
G01*
G37*
G36*
G01*
X0002705775Y0001623366D02*
X0002705775Y0001658799D01*
G75*
G02*
X0002715617Y0001668641I0000009842D01*
G01*
X0002736287Y0001668641D01*
G75*
G02*
X0002746129Y0001658799J-0000009842D01*
G01*
X0002746129Y0001623366D01*
G75*
G02*
X0002736287Y0001613523I-0000009842D01*
G01*
X0002715617Y0001613523D01*
G75*
G02*
X0002705775Y0001623366J0000009842D01*
G01*
G37*
G36*
G01*
X0002777625Y0001623366D02*
X0002777625Y0001658799D01*
G75*
G02*
X0002787468Y0001668641I0000009842D01*
G01*
X0002808137Y0001668641D01*
G75*
G02*
X0002817980Y0001658799J-0000009842D01*
G01*
X0002817980Y0001623366D01*
G75*
G02*
X0002808137Y0001613523I-0000009842D01*
G01*
X0002787468Y0001613523D01*
G75*
G02*
X0002777625Y0001623366J0000009842D01*
G01*
G37*
D75*
X0002690814Y0000182814D03*
D74*
X0002690814Y0000082814D03*
G36*
G01*
X0002852232Y0000498169D02*
X0002970342Y0000498169D01*
G75*
G02*
X0002980185Y0000488326J-0000009842D01*
G01*
X0002980185Y0000468641D01*
G75*
G02*
X0002970342Y0000458799I-0000009842D01*
G01*
X0002852232Y0000458799D01*
G75*
G02*
X0002842389Y0000468641J0000009842D01*
G01*
X0002842389Y0000488326D01*
G75*
G02*
X0002852232Y0000498169I0000009842D01*
G01*
G37*
G36*
G01*
X0002852232Y0000419429D02*
X0002970342Y0000419429D01*
G75*
G02*
X0002980185Y0000409586J-0000009842D01*
G01*
X0002980185Y0000389901D01*
G75*
G02*
X0002970342Y0000380059I-0000009842D01*
G01*
X0002852232Y0000380059D01*
G75*
G02*
X0002842389Y0000389901J0000009842D01*
G01*
X0002842389Y0000409586D01*
G75*
G02*
X0002852232Y0000419429I0000009842D01*
G01*
G37*
G36*
G01*
X0002627822Y0000600531D02*
X0002741996Y0000600531D01*
G75*
G02*
X0002751838Y0000590688J-0000009842D01*
G01*
X0002751838Y0000551318D01*
G75*
G02*
X0002741996Y0000541476I-0000009842D01*
G01*
X0002627822Y0000541476D01*
G75*
G02*
X0002617980Y0000551318J0000009842D01*
G01*
X0002617980Y0000590688D01*
G75*
G02*
X0002627822Y0000600531I0000009842D01*
G01*
G37*
G36*
G01*
X0002627822Y0000336751D02*
X0002741996Y0000336751D01*
G75*
G02*
X0002751838Y0000326909J-0000009842D01*
G01*
X0002751838Y0000287539D01*
G75*
G02*
X0002741996Y0000277696I-0000009842D01*
G01*
X0002627822Y0000277696D01*
G75*
G02*
X0002617980Y0000287539J0000009842D01*
G01*
X0002617980Y0000326909D01*
G75*
G02*
X0002627822Y0000336751I0000009842D01*
G01*
G37*
D84*
X0003262862Y0000163129D03*
X0003288452Y0000163129D03*
X0003314043Y0000163129D03*
X0003339633Y0000163129D03*
X0003365224Y0000163129D03*
D85*
X0003215618Y0000163129D03*
X0003412468Y0000163129D03*
D86*
X0003274673Y0000056830D03*
X0003353413Y0000056830D03*
D87*
X0003199870Y0000056830D03*
X0003428216Y0000056830D03*
D88*
X0003176248Y0000056830D03*
X0003451838Y0000056830D03*
D74*
X0003633334Y0000086751D03*
D75*
X0003733334Y0000086751D03*
D74*
X0003747901Y0001440295D03*
D75*
X0003747901Y0001340295D03*
D74*
X0003747901Y0001039507D03*
D75*
X0003747901Y0001139507D03*
G36*
G01*
X0002890342Y0000040049D02*
X0002890342Y0000075974D01*
G75*
G02*
X0002899938Y0000085570I0000009596D01*
G01*
X0002919131Y0000085570D01*
G75*
G02*
X0002928728Y0000075974J-0000009596D01*
G01*
X0002928728Y0000040049D01*
G75*
G02*
X0002919131Y0000030452I-0000009596D01*
G01*
X0002899938Y0000030452D01*
G75*
G02*
X0002890342Y0000040049J0000009596D01*
G01*
G37*
G36*
G01*
X0002816523Y0000040049D02*
X0002816523Y0000075974D01*
G75*
G02*
X0002826120Y0000085570I0000009596D01*
G01*
X0002845312Y0000085570D01*
G75*
G02*
X0002854909Y0000075974J-0000009596D01*
G01*
X0002854909Y0000040049D01*
G75*
G02*
X0002845312Y0000030452I-0000009596D01*
G01*
X0002826120Y0000030452D01*
G75*
G02*
X0002816523Y0000040049J0000009596D01*
G01*
G37*
G36*
G01*
X0002965421Y0000041230D02*
X0002965421Y0000077155D01*
G75*
G02*
X0002975017Y0000086751I0000009596D01*
G01*
X0002994210Y0000086751D01*
G75*
G02*
X0003003807Y0000077155J-0000009596D01*
G01*
X0003003807Y0000041230D01*
G75*
G02*
X0002994210Y0000031633I-0000009596D01*
G01*
X0002975017Y0000031633D01*
G75*
G02*
X0002965421Y0000041230J0000009596D01*
G01*
G37*
G36*
G01*
X0003039240Y0000041230D02*
X0003039240Y0000077155D01*
G75*
G02*
X0003048836Y0000086751I0000009596D01*
G01*
X0003068029Y0000086751D01*
G75*
G02*
X0003077625Y0000077155J-0000009596D01*
G01*
X0003077625Y0000041230D01*
G75*
G02*
X0003068029Y0000031633I-0000009596D01*
G01*
X0003048836Y0000031633D01*
G75*
G02*
X0003039240Y0000041230J0000009596D01*
G01*
G37*
D89*
X0002806366Y0001555649D03*
X0002806366Y0001425728D03*
D90*
X0003275460Y0000793248D03*
X0003405381Y0000793248D03*
X0003275460Y0000918248D03*
X0003405381Y0000918248D03*
G36*
G01*
X0002799870Y0001150137D02*
X0002837271Y0001150137D01*
G75*
G02*
X0002847114Y0001140295J-0000009842D01*
G01*
X0002847114Y0001120610D01*
G75*
G02*
X0002837271Y0001110767I-0000009842D01*
G01*
X0002799870Y0001110767D01*
G75*
G02*
X0002790027Y0001120610J0000009842D01*
G01*
X0002790027Y0001140295D01*
G75*
G02*
X0002799870Y0001150137I0000009842D01*
G01*
G37*
G36*
G01*
X0002799870Y0001075334D02*
X0002837271Y0001075334D01*
G75*
G02*
X0002847114Y0001065492J-0000009842D01*
G01*
X0002847114Y0001045807D01*
G75*
G02*
X0002837271Y0001035964I-0000009842D01*
G01*
X0002799870Y0001035964D01*
G75*
G02*
X0002790027Y0001045807J0000009842D01*
G01*
X0002790027Y0001065492D01*
G75*
G02*
X0002799870Y0001075334I0000009842D01*
G01*
G37*
G36*
G01*
X0002900263Y0000899940D02*
X0002900263Y0000937342D01*
G75*
G02*
X0002910106Y0000947185I0000009842D01*
G01*
X0002929791Y0000947185D01*
G75*
G02*
X0002939633Y0000937342J-0000009842D01*
G01*
X0002939633Y0000899940D01*
G75*
G02*
X0002929791Y0000890098I-0000009842D01*
G01*
X0002910106Y0000890098D01*
G75*
G02*
X0002900263Y0000899940J0000009842D01*
G01*
G37*
G36*
G01*
X0002975066Y0000899940D02*
X0002975066Y0000937342D01*
G75*
G02*
X0002984909Y0000947185I0000009842D01*
G01*
X0003004594Y0000947185D01*
G75*
G02*
X0003014437Y0000937342J-0000009842D01*
G01*
X0003014437Y0000899940D01*
G75*
G02*
X0003004594Y0000890098I-0000009842D01*
G01*
X0002984909Y0000890098D01*
G75*
G02*
X0002975066Y0000899940J0000009842D01*
G01*
G37*
G36*
G01*
X0003014437Y0000687342D02*
X0003014437Y0000649940D01*
G75*
G02*
X0003004594Y0000640098I-0000009842D01*
G01*
X0002984909Y0000640098D01*
G75*
G02*
X0002975066Y0000649940J0000009842D01*
G01*
X0002975066Y0000687342D01*
G75*
G02*
X0002984909Y0000697185I0000009842D01*
G01*
X0003004594Y0000697185D01*
G75*
G02*
X0003014437Y0000687342J-0000009842D01*
G01*
G37*
G36*
G01*
X0002939633Y0000687342D02*
X0002939633Y0000649940D01*
G75*
G02*
X0002929791Y0000640098I-0000009842D01*
G01*
X0002910106Y0000640098D01*
G75*
G02*
X0002900263Y0000649940J0000009842D01*
G01*
X0002900263Y0000687342D01*
G75*
G02*
X0002910106Y0000697185I0000009842D01*
G01*
X0002929791Y0000697185D01*
G75*
G02*
X0002939633Y0000687342J-0000009842D01*
G01*
G37*
G36*
G01*
X0003053413Y0000462539D02*
X0003053413Y0000499940D01*
G75*
G02*
X0003063255Y0000509783I0000009842D01*
G01*
X0003082940Y0000509783D01*
G75*
G02*
X0003092783Y0000499940J-0000009842D01*
G01*
X0003092783Y0000462539D01*
G75*
G02*
X0003082940Y0000452696I-0000009842D01*
G01*
X0003063255Y0000452696D01*
G75*
G02*
X0003053413Y0000462539J0000009842D01*
G01*
G37*
G36*
G01*
X0003128216Y0000462539D02*
X0003128216Y0000499940D01*
G75*
G02*
X0003138059Y0000509783I0000009842D01*
G01*
X0003157744Y0000509783D01*
G75*
G02*
X0003167586Y0000499940J-0000009842D01*
G01*
X0003167586Y0000462539D01*
G75*
G02*
X0003157744Y0000452696I-0000009842D01*
G01*
X0003138059Y0000452696D01*
G75*
G02*
X0003128216Y0000462539J0000009842D01*
G01*
G37*
G36*
G01*
X0003053413Y0000362145D02*
X0003053413Y0000399547D01*
G75*
G02*
X0003063255Y0000409389I0000009842D01*
G01*
X0003082940Y0000409389D01*
G75*
G02*
X0003092783Y0000399547J-0000009842D01*
G01*
X0003092783Y0000362145D01*
G75*
G02*
X0003082940Y0000352303I-0000009842D01*
G01*
X0003063255Y0000352303D01*
G75*
G02*
X0003053413Y0000362145J0000009842D01*
G01*
G37*
G36*
G01*
X0003128216Y0000362145D02*
X0003128216Y0000399547D01*
G75*
G02*
X0003138059Y0000409389I0000009842D01*
G01*
X0003157744Y0000409389D01*
G75*
G02*
X0003167586Y0000399547J-0000009842D01*
G01*
X0003167586Y0000362145D01*
G75*
G02*
X0003157744Y0000352303I-0000009842D01*
G01*
X0003138059Y0000352303D01*
G75*
G02*
X0003128216Y0000362145J0000009842D01*
G01*
G37*
G36*
G01*
X0002818964Y0001271988D02*
X0002818964Y0001234586D01*
G75*
G02*
X0002809122Y0001224744I-0000009842D01*
G01*
X0002789437Y0001224744D01*
G75*
G02*
X0002779594Y0001234586J0000009842D01*
G01*
X0002779594Y0001271988D01*
G75*
G02*
X0002789437Y0001281830I0000009842D01*
G01*
X0002809122Y0001281830D01*
G75*
G02*
X0002818964Y0001271988J-0000009842D01*
G01*
G37*
G36*
G01*
X0002744161Y0001271988D02*
X0002744161Y0001234586D01*
G75*
G02*
X0002734318Y0001224744I-0000009842D01*
G01*
X0002714633Y0001224744D01*
G75*
G02*
X0002704791Y0001234586J0000009842D01*
G01*
X0002704791Y0001271988D01*
G75*
G02*
X0002714633Y0001281830I0000009842D01*
G01*
X0002734318Y0001281830D01*
G75*
G02*
X0002744161Y0001271988J-0000009842D01*
G01*
G37*
G36*
G01*
X0002818964Y0001360767D02*
X0002818964Y0001323366D01*
G75*
G02*
X0002809122Y0001313523I-0000009842D01*
G01*
X0002789437Y0001313523D01*
G75*
G02*
X0002779594Y0001323366J0000009842D01*
G01*
X0002779594Y0001360767D01*
G75*
G02*
X0002789437Y0001370610I0000009842D01*
G01*
X0002809122Y0001370610D01*
G75*
G02*
X0002818964Y0001360767J-0000009842D01*
G01*
G37*
G36*
G01*
X0002744161Y0001360767D02*
X0002744161Y0001323366D01*
G75*
G02*
X0002734318Y0001313523I-0000009842D01*
G01*
X0002714633Y0001313523D01*
G75*
G02*
X0002704791Y0001323366J0000009842D01*
G01*
X0002704791Y0001360767D01*
G75*
G02*
X0002714633Y0001370610I0000009842D01*
G01*
X0002734318Y0001370610D01*
G75*
G02*
X0002744161Y0001360767J-0000009842D01*
G01*
G37*
G04 next file*
G04 #@! TF.GenerationSoftware,KiCad,Pcbnew,(5.1.9)-1*
G04 #@! TF.CreationDate,2021-07-08T10:46:36+02:00*
G04 #@! TF.ProjectId,ttl_to_usb_adapter,74746c5f-746f-45f7-9573-625f61646170,v0.0*
G04 #@! TF.SameCoordinates,Original*
G04 #@! TF.FileFunction,Soldermask,Top*
G04 #@! TF.FilePolarity,Negative*
G04 Gerber Fmt 4.6, Leading zero omitted, Abs format (unit mm)*
G04 Created by KiCad (PCBNEW (5.1.9)-1) date 2021-07-08 10:46:36*
G01*
G04 APERTURE LIST*
G04 APERTURE END LIST*
D91*
X-0003464511Y0006757870D02*
X0003157535Y0003294877D03*
X0003157535Y0003194877D03*
X0003157535Y0003094877D03*
X0003157535Y0002994877D03*
X0003157535Y0002894877D03*
X0003157535Y0002794877D03*
D92*
X0003157535Y0002694877D03*
G36*
G01*
X0002790409Y0002700783D02*
X0002790409Y0002736216D01*
G75*
G02*
X0002800251Y0002746059I0000009842D01*
G01*
X0002820921Y0002746059D01*
G75*
G02*
X0002830763Y0002736216J-0000009842D01*
G01*
X0002830763Y0002700783D01*
G75*
G02*
X0002820921Y0002690940I-0000009842D01*
G01*
X0002800251Y0002690940D01*
G75*
G02*
X0002790409Y0002700783J0000009842D01*
G01*
G37*
G36*
G01*
X0002862259Y0002700783D02*
X0002862259Y0002736216D01*
G75*
G02*
X0002872102Y0002746059I0000009842D01*
G01*
X0002892771Y0002746059D01*
G75*
G02*
X0002902614Y0002736216J-0000009842D01*
G01*
X0002902614Y0002700783D01*
G75*
G02*
X0002892771Y0002690940I-0000009842D01*
G01*
X0002872102Y0002690940D01*
G75*
G02*
X0002862259Y0002700783J0000009842D01*
G01*
G37*
G36*
G01*
X0002790409Y0002830704D02*
X0002790409Y0002866137D01*
G75*
G02*
X0002800251Y0002875980I0000009842D01*
G01*
X0002820921Y0002875980D01*
G75*
G02*
X0002830763Y0002866137J-0000009842D01*
G01*
X0002830763Y0002830704D01*
G75*
G02*
X0002820921Y0002820862I-0000009842D01*
G01*
X0002800251Y0002820862D01*
G75*
G02*
X0002790409Y0002830704J0000009842D01*
G01*
G37*
G36*
G01*
X0002862259Y0002830704D02*
X0002862259Y0002866137D01*
G75*
G02*
X0002872102Y0002875980I0000009842D01*
G01*
X0002892771Y0002875980D01*
G75*
G02*
X0002902614Y0002866137J-0000009842D01*
G01*
X0002902614Y0002830704D01*
G75*
G02*
X0002892771Y0002820862I-0000009842D01*
G01*
X0002872102Y0002820862D01*
G75*
G02*
X0002862259Y0002830704J0000009842D01*
G01*
G37*
G36*
G01*
X0002790409Y0002960625D02*
X0002790409Y0002996059D01*
G75*
G02*
X0002800251Y0003005901I0000009842D01*
G01*
X0002820921Y0003005901D01*
G75*
G02*
X0002830763Y0002996059J-0000009842D01*
G01*
X0002830763Y0002960625D01*
G75*
G02*
X0002820921Y0002950783I-0000009842D01*
G01*
X0002800251Y0002950783D01*
G75*
G02*
X0002790409Y0002960625J0000009842D01*
G01*
G37*
G36*
G01*
X0002862259Y0002960625D02*
X0002862259Y0002996059D01*
G75*
G02*
X0002872102Y0003005901I0000009842D01*
G01*
X0002892771Y0003005901D01*
G75*
G02*
X0002902614Y0002996059J-0000009842D01*
G01*
X0002902614Y0002960625D01*
G75*
G02*
X0002892771Y0002950783I-0000009842D01*
G01*
X0002872102Y0002950783D01*
G75*
G02*
X0002862259Y0002960625J0000009842D01*
G01*
G37*
X0003019740Y0003120074D03*
D91*
X0002919740Y0003120074D03*
X0002819740Y0003120074D03*
G36*
G01*
X0002943952Y0002700537D02*
X0002943952Y0002736462D01*
G75*
G02*
X0002953549Y0002746059I0000009596D01*
G01*
X0002972742Y0002746059D01*
G75*
G02*
X0002982338Y0002736462J-0000009596D01*
G01*
X0002982338Y0002700537D01*
G75*
G02*
X0002972742Y0002690940I-0000009596D01*
G01*
X0002953549Y0002690940D01*
G75*
G02*
X0002943952Y0002700537J0000009596D01*
G01*
G37*
G36*
G01*
X0003017771Y0002700537D02*
X0003017771Y0002736462D01*
G75*
G02*
X0003027368Y0002746059I0000009596D01*
G01*
X0003046560Y0002746059D01*
G75*
G02*
X0003056157Y0002736462J-0000009596D01*
G01*
X0003056157Y0002700537D01*
G75*
G02*
X0003046560Y0002690940I-0000009596D01*
G01*
X0003027368Y0002690940D01*
G75*
G02*
X0003017771Y0002700537J0000009596D01*
G01*
G37*
G36*
G01*
X0002943952Y0002830458D02*
X0002943952Y0002866383D01*
G75*
G02*
X0002953549Y0002875980I0000009596D01*
G01*
X0002972742Y0002875980D01*
G75*
G02*
X0002982338Y0002866383J-0000009596D01*
G01*
X0002982338Y0002830458D01*
G75*
G02*
X0002972742Y0002820862I-0000009596D01*
G01*
X0002953549Y0002820862D01*
G75*
G02*
X0002943952Y0002830458J0000009596D01*
G01*
G37*
G36*
G01*
X0003017771Y0002830458D02*
X0003017771Y0002866383D01*
G75*
G02*
X0003027368Y0002875980I0000009596D01*
G01*
X0003046560Y0002875980D01*
G75*
G02*
X0003056157Y0002866383J-0000009596D01*
G01*
X0003056157Y0002830458D01*
G75*
G02*
X0003046560Y0002820862I-0000009596D01*
G01*
X0003027368Y0002820862D01*
G75*
G02*
X0003017771Y0002830458J0000009596D01*
G01*
G37*
G36*
G01*
X0002943952Y0002960379D02*
X0002943952Y0002996305D01*
G75*
G02*
X0002953549Y0003005901I0000009596D01*
G01*
X0002972742Y0003005901D01*
G75*
G02*
X0002982338Y0002996305J-0000009596D01*
G01*
X0002982338Y0002960379D01*
G75*
G02*
X0002972742Y0002950783I-0000009596D01*
G01*
X0002953549Y0002950783D01*
G75*
G02*
X0002943952Y0002960379J0000009596D01*
G01*
G37*
G36*
G01*
X0003017771Y0002960379D02*
X0003017771Y0002996305D01*
G75*
G02*
X0003027368Y0003005901I0000009596D01*
G01*
X0003046560Y0003005901D01*
G75*
G02*
X0003056157Y0002996305J-0000009596D01*
G01*
X0003056157Y0002960379D01*
G75*
G02*
X0003046560Y0002950783I-0000009596D01*
G01*
X0003027368Y0002950783D01*
G75*
G02*
X0003017771Y0002960379J0000009596D01*
G01*
G37*
X0002692968Y0003249996D03*
X0002692968Y0003149996D03*
X0002692968Y0003049996D03*
X0002692968Y0002949996D03*
X0002692968Y0002849996D03*
D92*
X0002692968Y0002749996D03*
D93*
X0002879976Y0003291334D03*
X0002879976Y0003240153D03*
X0002954779Y0003265744D03*
X0002879976Y0003265744D03*
X0002954779Y0003240153D03*
X0002954779Y0003291334D03*
G04 next file*
G04 #@! TF.GenerationSoftware,KiCad,Pcbnew,(5.1.9)-1*
G04 #@! TF.CreationDate,2021-07-08T10:50:12+02:00*
G04 #@! TF.ProjectId,iot-postbox,696f742d-706f-4737-9462-6f782e6b6963,v0.0*
G04 #@! TF.SameCoordinates,Original*
G04 #@! TF.FileFunction,Soldermask,Top*
G04 #@! TF.FilePolarity,Negative*
G04 Gerber Fmt 4.6, Leading zero omitted, Abs format (unit mm)*
G04 Created by KiCad (PCBNEW (5.1.9)-1) date 2021-07-08 10:50:12*
G01*
G04 APERTURE LIST*
G04 APERTURE END LIST*
D94*
X-0002631259Y0007799740D02*
X0002448740Y0002035240D03*
X0002448740Y0002135240D03*
X0002448740Y0002235240D03*
X0002448740Y0002335240D03*
X0002448740Y0002435240D03*
X0002448740Y0002535240D03*
D95*
X0002448740Y0002635240D03*
D96*
X0001380551Y0002673755D03*
D97*
X0001467559Y0002526118D03*
X0001467559Y0002585173D03*
X0001467559Y0002703283D03*
D98*
X0001424251Y0002768637D03*
X0001336850Y0002768637D03*
X0001424251Y0002460763D03*
X0001336850Y0002460763D03*
D96*
X0001380551Y0002555645D03*
G36*
G01*
X0001459291Y0002858795D02*
X0001459291Y0002846984D01*
G75*
G02*
X0001453385Y0002841078I-0000005905D01*
G01*
X0001407125Y0002841078D01*
G75*
G02*
X0001401220Y0002846984J0000005905D01*
G01*
X0001401220Y0002858795D01*
G75*
G02*
X0001407125Y0002864700I0000005905D01*
G01*
X0001453385Y0002864700D01*
G75*
G02*
X0001459291Y0002858795J-0000005905D01*
G01*
G37*
G36*
G01*
X0001459291Y0002933598D02*
X0001459291Y0002921787D01*
G75*
G02*
X0001453385Y0002915881I-0000005905D01*
G01*
X0001407125Y0002915881D01*
G75*
G02*
X0001401220Y0002921787J0000005905D01*
G01*
X0001401220Y0002933598D01*
G75*
G02*
X0001407125Y0002939503I0000005905D01*
G01*
X0001453385Y0002939503D01*
G75*
G02*
X0001459291Y0002933598J-0000005905D01*
G01*
G37*
G36*
G01*
X0001385472Y0002896196D02*
X0001385472Y0002884385D01*
G75*
G02*
X0001379566Y0002878480I-0000005905D01*
G01*
X0001333307Y0002878480D01*
G75*
G02*
X0001327401Y0002884385J0000005905D01*
G01*
X0001327401Y0002896196D01*
G75*
G02*
X0001333307Y0002902102I0000005905D01*
G01*
X0001379566Y0002902102D01*
G75*
G02*
X0001385472Y0002896196J-0000005905D01*
G01*
G37*
G36*
G01*
X0001937637Y0002440488D02*
X0001937637Y0002448362D01*
G75*
G02*
X0001941574Y0002452299I0000003937D01*
G01*
X0001991771Y0002452299D01*
G75*
G02*
X0001995708Y0002448362J-0000003937D01*
G01*
X0001995708Y0002440488D01*
G75*
G02*
X0001991771Y0002436551I-0000003937D01*
G01*
X0001941574Y0002436551D01*
G75*
G02*
X0001937637Y0002440488J0000003937D01*
G01*
G37*
G36*
G01*
X0001937637Y0002414897D02*
X0001937637Y0002422771D01*
G75*
G02*
X0001941574Y0002426708I0000003937D01*
G01*
X0001991771Y0002426708D01*
G75*
G02*
X0001995708Y0002422771J-0000003937D01*
G01*
X0001995708Y0002414897D01*
G75*
G02*
X0001991771Y0002410960I-0000003937D01*
G01*
X0001941574Y0002410960D01*
G75*
G02*
X0001937637Y0002414897J0000003937D01*
G01*
G37*
G36*
G01*
X0001937637Y0002389307D02*
X0001937637Y0002397181D01*
G75*
G02*
X0001941574Y0002401118I0000003937D01*
G01*
X0001991771Y0002401118D01*
G75*
G02*
X0001995708Y0002397181J-0000003937D01*
G01*
X0001995708Y0002389307D01*
G75*
G02*
X0001991771Y0002385370I-0000003937D01*
G01*
X0001941574Y0002385370D01*
G75*
G02*
X0001937637Y0002389307J0000003937D01*
G01*
G37*
G36*
G01*
X0001937637Y0002363716D02*
X0001937637Y0002371590D01*
G75*
G02*
X0001941574Y0002375527I0000003937D01*
G01*
X0001991771Y0002375527D01*
G75*
G02*
X0001995708Y0002371590J-0000003937D01*
G01*
X0001995708Y0002363716D01*
G75*
G02*
X0001991771Y0002359779I-0000003937D01*
G01*
X0001941574Y0002359779D01*
G75*
G02*
X0001937637Y0002363716J0000003937D01*
G01*
G37*
G36*
G01*
X0002163031Y0002363716D02*
X0002163031Y0002371590D01*
G75*
G02*
X0002166968Y0002375527I0000003937D01*
G01*
X0002217165Y0002375527D01*
G75*
G02*
X0002221102Y0002371590J-0000003937D01*
G01*
X0002221102Y0002363716D01*
G75*
G02*
X0002217165Y0002359779I-0000003937D01*
G01*
X0002166968Y0002359779D01*
G75*
G02*
X0002163031Y0002363716J0000003937D01*
G01*
G37*
G36*
G01*
X0002163031Y0002389307D02*
X0002163031Y0002397181D01*
G75*
G02*
X0002166968Y0002401118I0000003937D01*
G01*
X0002217165Y0002401118D01*
G75*
G02*
X0002221102Y0002397181J-0000003937D01*
G01*
X0002221102Y0002389307D01*
G75*
G02*
X0002217165Y0002385370I-0000003937D01*
G01*
X0002166968Y0002385370D01*
G75*
G02*
X0002163031Y0002389307J0000003937D01*
G01*
G37*
G36*
G01*
X0002163031Y0002414897D02*
X0002163031Y0002422771D01*
G75*
G02*
X0002166968Y0002426708I0000003937D01*
G01*
X0002217165Y0002426708D01*
G75*
G02*
X0002221102Y0002422771J-0000003937D01*
G01*
X0002221102Y0002414897D01*
G75*
G02*
X0002217165Y0002410960I-0000003937D01*
G01*
X0002166968Y0002410960D01*
G75*
G02*
X0002163031Y0002414897J0000003937D01*
G01*
G37*
G36*
G01*
X0002163031Y0002440488D02*
X0002163031Y0002448362D01*
G75*
G02*
X0002166968Y0002452299I0000003937D01*
G01*
X0002217165Y0002452299D01*
G75*
G02*
X0002221102Y0002448362J-0000003937D01*
G01*
X0002221102Y0002440488D01*
G75*
G02*
X0002217165Y0002436551I-0000003937D01*
G01*
X0002166968Y0002436551D01*
G75*
G02*
X0002163031Y0002440488J0000003937D01*
G01*
G37*
D99*
X0001788031Y0002429661D03*
X0001825433Y0002429661D03*
X0001862834Y0002429661D03*
X0001862834Y0002535960D03*
X0001788031Y0002535960D03*
X0001825433Y0002535960D03*
D100*
X0002162047Y0002100724D03*
X0002162047Y0002150724D03*
X0002162047Y0002200724D03*
X0002162047Y0002250724D03*
X0001949448Y0002250724D03*
X0001949448Y0002200724D03*
X0001949448Y0002150724D03*
X0001949448Y0002100724D03*
D101*
X0002055747Y0002175724D03*
D102*
X0001666377Y0003463913D03*
X0001666377Y0003385173D03*
X0001666377Y0003306433D03*
X0001666377Y0003227692D03*
X0001666377Y0003148952D03*
X0001666377Y0003070212D03*
X0001666377Y0002991472D03*
X0001666377Y0002912732D03*
D103*
X0001768740Y0002853677D03*
X0001847480Y0002853677D03*
X0001926220Y0002853677D03*
X0002004960Y0002853677D03*
X0002083700Y0002853677D03*
X0002162440Y0002853677D03*
D102*
X0002264803Y0002912732D03*
X0002264803Y0002991472D03*
X0002264803Y0003070212D03*
X0002264803Y0003148952D03*
X0002264803Y0003227692D03*
X0002264803Y0003306433D03*
X0002264803Y0003385173D03*
X0002264803Y0003463913D03*
G36*
G01*
X0002325039Y0002100133D02*
X0002289606Y0002100133D01*
G75*
G02*
X0002279763Y0002109976J0000009842D01*
G01*
X0002279763Y0002130645D01*
G75*
G02*
X0002289606Y0002140488I0000009842D01*
G01*
X0002325039Y0002140488D01*
G75*
G02*
X0002334881Y0002130645J-0000009842D01*
G01*
X0002334881Y0002109976D01*
G75*
G02*
X0002325039Y0002100133I-0000009842D01*
G01*
G37*
G36*
G01*
X0002325039Y0002028283D02*
X0002289606Y0002028283D01*
G75*
G02*
X0002279763Y0002038125J0000009842D01*
G01*
X0002279763Y0002058795D01*
G75*
G02*
X0002289606Y0002068637I0000009842D01*
G01*
X0002325039Y0002068637D01*
G75*
G02*
X0002334881Y0002058795J-0000009842D01*
G01*
X0002334881Y0002038125D01*
G75*
G02*
X0002325039Y0002028283I-0000009842D01*
G01*
G37*
G36*
G01*
X0001885472Y0002734779D02*
X0001885472Y0002699346D01*
G75*
G02*
X0001875630Y0002689503I-0000009842D01*
G01*
X0001854960Y0002689503D01*
G75*
G02*
X0001845118Y0002699346J0000009842D01*
G01*
X0001845118Y0002734779D01*
G75*
G02*
X0001854960Y0002744622I0000009842D01*
G01*
X0001875630Y0002744622D01*
G75*
G02*
X0001885472Y0002734779J-0000009842D01*
G01*
G37*
G36*
G01*
X0001813622Y0002734779D02*
X0001813622Y0002699346D01*
G75*
G02*
X0001803779Y0002689503I-0000009842D01*
G01*
X0001783110Y0002689503D01*
G75*
G02*
X0001773267Y0002699346J0000009842D01*
G01*
X0001773267Y0002734779D01*
G75*
G02*
X0001783110Y0002744622I0000009842D01*
G01*
X0001803779Y0002744622D01*
G75*
G02*
X0001813622Y0002734779J-0000009842D01*
G01*
G37*
G36*
G01*
X0001771299Y0002614700D02*
X0001771299Y0002650133D01*
G75*
G02*
X0001781141Y0002659976I0000009842D01*
G01*
X0001801811Y0002659976D01*
G75*
G02*
X0001811653Y0002650133J-0000009842D01*
G01*
X0001811653Y0002614700D01*
G75*
G02*
X0001801811Y0002604858I-0000009842D01*
G01*
X0001781141Y0002604858D01*
G75*
G02*
X0001771299Y0002614700J0000009842D01*
G01*
G37*
G36*
G01*
X0001843149Y0002614700D02*
X0001843149Y0002650133D01*
G75*
G02*
X0001852992Y0002659976I0000009842D01*
G01*
X0001873661Y0002659976D01*
G75*
G02*
X0001883503Y0002650133J-0000009842D01*
G01*
X0001883503Y0002614700D01*
G75*
G02*
X0001873661Y0002604858I-0000009842D01*
G01*
X0001852992Y0002604858D01*
G75*
G02*
X0001843149Y0002614700J0000009842D01*
G01*
G37*
G36*
G01*
X0001602007Y0002579267D02*
X0001602007Y0002614700D01*
G75*
G02*
X0001611850Y0002624543I0000009842D01*
G01*
X0001632519Y0002624543D01*
G75*
G02*
X0001642362Y0002614700J-0000009842D01*
G01*
X0001642362Y0002579267D01*
G75*
G02*
X0001632519Y0002569425I-0000009842D01*
G01*
X0001611850Y0002569425D01*
G75*
G02*
X0001602007Y0002579267J0000009842D01*
G01*
G37*
G36*
G01*
X0001673858Y0002579267D02*
X0001673858Y0002614700D01*
G75*
G02*
X0001683700Y0002624543I0000009842D01*
G01*
X0001704370Y0002624543D01*
G75*
G02*
X0001714212Y0002614700J-0000009842D01*
G01*
X0001714212Y0002579267D01*
G75*
G02*
X0001704370Y0002569425I-0000009842D01*
G01*
X0001683700Y0002569425D01*
G75*
G02*
X0001673858Y0002579267J0000009842D01*
G01*
G37*
G36*
G01*
X0002289606Y0002254070D02*
X0002325039Y0002254070D01*
G75*
G02*
X0002334881Y0002244228J-0000009842D01*
G01*
X0002334881Y0002223558D01*
G75*
G02*
X0002325039Y0002213716I-0000009842D01*
G01*
X0002289606Y0002213716D01*
G75*
G02*
X0002279763Y0002223558J0000009842D01*
G01*
X0002279763Y0002244228D01*
G75*
G02*
X0002289606Y0002254070I0000009842D01*
G01*
G37*
G36*
G01*
X0002289606Y0002325921D02*
X0002325039Y0002325921D01*
G75*
G02*
X0002334881Y0002316078J-0000009842D01*
G01*
X0002334881Y0002295409D01*
G75*
G02*
X0002325039Y0002285566I-0000009842D01*
G01*
X0002289606Y0002285566D01*
G75*
G02*
X0002279763Y0002295409J0000009842D01*
G01*
X0002279763Y0002316078D01*
G75*
G02*
X0002289606Y0002325921I0000009842D01*
G01*
G37*
G36*
G01*
X0001582519Y0001995803D02*
X0001582519Y0002031236D01*
G75*
G02*
X0001592362Y0002041078I0000009842D01*
G01*
X0001613031Y0002041078D01*
G75*
G02*
X0001622874Y0002031236J-0000009842D01*
G01*
X0001622874Y0001995803D01*
G75*
G02*
X0001613031Y0001985960I-0000009842D01*
G01*
X0001592362Y0001985960D01*
G75*
G02*
X0001582519Y0001995803J0000009842D01*
G01*
G37*
G36*
G01*
X0001510669Y0001995803D02*
X0001510669Y0002031236D01*
G75*
G02*
X0001520511Y0002041078I0000009842D01*
G01*
X0001541181Y0002041078D01*
G75*
G02*
X0001551023Y0002031236J-0000009842D01*
G01*
X0001551023Y0001995803D01*
G75*
G02*
X0001541181Y0001985960I-0000009842D01*
G01*
X0001520511Y0001985960D01*
G75*
G02*
X0001510669Y0001995803J0000009842D01*
G01*
G37*
G36*
G01*
X0001770118Y0002028480D02*
X0001770118Y0001993047D01*
G75*
G02*
X0001760275Y0001983204I-0000009842D01*
G01*
X0001739606Y0001983204D01*
G75*
G02*
X0001729763Y0001993047J0000009842D01*
G01*
X0001729763Y0002028480D01*
G75*
G02*
X0001739606Y0002038322I0000009842D01*
G01*
X0001760275Y0002038322D01*
G75*
G02*
X0001770118Y0002028480J-0000009842D01*
G01*
G37*
G36*
G01*
X0001698267Y0002028480D02*
X0001698267Y0001993047D01*
G75*
G02*
X0001688425Y0001983204I-0000009842D01*
G01*
X0001667755Y0001983204D01*
G75*
G02*
X0001657913Y0001993047J0000009842D01*
G01*
X0001657913Y0002028480D01*
G75*
G02*
X0001667755Y0002038322I0000009842D01*
G01*
X0001688425Y0002038322D01*
G75*
G02*
X0001698267Y0002028480J-0000009842D01*
G01*
G37*
G36*
G01*
X0002186653Y0002689897D02*
X0002186653Y0002725330D01*
G75*
G02*
X0002196495Y0002735173I0000009842D01*
G01*
X0002217165Y0002735173D01*
G75*
G02*
X0002227007Y0002725330J-0000009842D01*
G01*
X0002227007Y0002689897D01*
G75*
G02*
X0002217165Y0002680055I-0000009842D01*
G01*
X0002196495Y0002680055D01*
G75*
G02*
X0002186653Y0002689897J0000009842D01*
G01*
G37*
G36*
G01*
X0002258503Y0002689897D02*
X0002258503Y0002725330D01*
G75*
G02*
X0002268346Y0002735173I0000009842D01*
G01*
X0002289015Y0002735173D01*
G75*
G02*
X0002298858Y0002725330J-0000009842D01*
G01*
X0002298858Y0002689897D01*
G75*
G02*
X0002289015Y0002680055I-0000009842D01*
G01*
X0002268346Y0002680055D01*
G75*
G02*
X0002258503Y0002689897J0000009842D01*
G01*
G37*
G36*
G01*
X0002186653Y0002580645D02*
X0002186653Y0002616078D01*
G75*
G02*
X0002196495Y0002625921I0000009842D01*
G01*
X0002217165Y0002625921D01*
G75*
G02*
X0002227007Y0002616078J-0000009842D01*
G01*
X0002227007Y0002580645D01*
G75*
G02*
X0002217165Y0002570803I-0000009842D01*
G01*
X0002196495Y0002570803D01*
G75*
G02*
X0002186653Y0002580645J0000009842D01*
G01*
G37*
G36*
G01*
X0002258503Y0002580645D02*
X0002258503Y0002616078D01*
G75*
G02*
X0002268346Y0002625921I0000009842D01*
G01*
X0002289015Y0002625921D01*
G75*
G02*
X0002298858Y0002616078J-0000009842D01*
G01*
X0002298858Y0002580645D01*
G75*
G02*
X0002289015Y0002570803I-0000009842D01*
G01*
X0002268346Y0002570803D01*
G75*
G02*
X0002258503Y0002580645J0000009842D01*
G01*
G37*
G36*
G01*
X0001356929Y0003344425D02*
X0001392362Y0003344425D01*
G75*
G02*
X0001402204Y0003334582J-0000009842D01*
G01*
X0001402204Y0003313913D01*
G75*
G02*
X0001392362Y0003304070I-0000009842D01*
G01*
X0001356929Y0003304070D01*
G75*
G02*
X0001347086Y0003313913J0000009842D01*
G01*
X0001347086Y0003334582D01*
G75*
G02*
X0001356929Y0003344425I0000009842D01*
G01*
G37*
G36*
G01*
X0001356929Y0003272574D02*
X0001392362Y0003272574D01*
G75*
G02*
X0001402204Y0003262732J-0000009842D01*
G01*
X0001402204Y0003242062D01*
G75*
G02*
X0001392362Y0003232220I-0000009842D01*
G01*
X0001356929Y0003232220D01*
G75*
G02*
X0001347086Y0003242062J0000009842D01*
G01*
X0001347086Y0003262732D01*
G75*
G02*
X0001356929Y0003272574I0000009842D01*
G01*
G37*
G36*
G01*
X0002427322Y0003428086D02*
X0002427322Y0003463519D01*
G75*
G02*
X0002437165Y0003473362I0000009842D01*
G01*
X0002457834Y0003473362D01*
G75*
G02*
X0002467677Y0003463519J-0000009842D01*
G01*
X0002467677Y0003428086D01*
G75*
G02*
X0002457834Y0003418244I-0000009842D01*
G01*
X0002437165Y0003418244D01*
G75*
G02*
X0002427322Y0003428086J0000009842D01*
G01*
G37*
G36*
G01*
X0002355472Y0003428086D02*
X0002355472Y0003463519D01*
G75*
G02*
X0002365314Y0003473362I0000009842D01*
G01*
X0002385984Y0003473362D01*
G75*
G02*
X0002395826Y0003463519J-0000009842D01*
G01*
X0002395826Y0003428086D01*
G75*
G02*
X0002385984Y0003418244I-0000009842D01*
G01*
X0002365314Y0003418244D01*
G75*
G02*
X0002355472Y0003428086J0000009842D01*
G01*
G37*
G36*
G01*
X0002289606Y0002426118D02*
X0002325039Y0002426118D01*
G75*
G02*
X0002334881Y0002416275J-0000009842D01*
G01*
X0002334881Y0002395606D01*
G75*
G02*
X0002325039Y0002385763I-0000009842D01*
G01*
X0002289606Y0002385763D01*
G75*
G02*
X0002279763Y0002395606J0000009842D01*
G01*
X0002279763Y0002416275D01*
G75*
G02*
X0002289606Y0002426118I0000009842D01*
G01*
G37*
G36*
G01*
X0002289606Y0002497968D02*
X0002325039Y0002497968D01*
G75*
G02*
X0002334881Y0002488126J-0000009842D01*
G01*
X0002334881Y0002467456D01*
G75*
G02*
X0002325039Y0002457614I-0000009842D01*
G01*
X0002289606Y0002457614D01*
G75*
G02*
X0002279763Y0002467456J0000009842D01*
G01*
X0002279763Y0002488126D01*
G75*
G02*
X0002289606Y0002497968I0000009842D01*
G01*
G37*
G36*
G01*
X0002427322Y0003344621D02*
X0002427322Y0003380055D01*
G75*
G02*
X0002437165Y0003389897I0000009842D01*
G01*
X0002457834Y0003389897D01*
G75*
G02*
X0002467677Y0003380055J-0000009842D01*
G01*
X0002467677Y0003344621D01*
G75*
G02*
X0002457834Y0003334779I-0000009842D01*
G01*
X0002437165Y0003334779D01*
G75*
G02*
X0002427322Y0003344621J0000009842D01*
G01*
G37*
G36*
G01*
X0002355472Y0003344621D02*
X0002355472Y0003380055D01*
G75*
G02*
X0002365314Y0003389897I0000009842D01*
G01*
X0002385984Y0003389897D01*
G75*
G02*
X0002395826Y0003380055J-0000009842D01*
G01*
X0002395826Y0003344621D01*
G75*
G02*
X0002385984Y0003334779I-0000009842D01*
G01*
X0002365314Y0003334779D01*
G75*
G02*
X0002355472Y0003344621J0000009842D01*
G01*
G37*
G36*
G01*
X0001406535Y0003420606D02*
X0001406535Y0003456039D01*
G75*
G02*
X0001416377Y0003465881I0000009842D01*
G01*
X0001437047Y0003465881D01*
G75*
G02*
X0001446889Y0003456039J-0000009842D01*
G01*
X0001446889Y0003420606D01*
G75*
G02*
X0001437047Y0003410763I-0000009842D01*
G01*
X0001416377Y0003410763D01*
G75*
G02*
X0001406535Y0003420606J0000009842D01*
G01*
G37*
G36*
G01*
X0001478385Y0003420606D02*
X0001478385Y0003456039D01*
G75*
G02*
X0001488228Y0003465881I0000009842D01*
G01*
X0001508897Y0003465881D01*
G75*
G02*
X0001518740Y0003456039J-0000009842D01*
G01*
X0001518740Y0003420606D01*
G75*
G02*
X0001508897Y0003410763I-0000009842D01*
G01*
X0001488228Y0003410763D01*
G75*
G02*
X0001478385Y0003420606J0000009842D01*
G01*
G37*
D95*
X0001391574Y0001980055D03*
D94*
X0001391574Y0001880055D03*
G36*
G01*
X0001552992Y0002295409D02*
X0001671102Y0002295409D01*
G75*
G02*
X0001680944Y0002285566J-0000009842D01*
G01*
X0001680944Y0002265881D01*
G75*
G02*
X0001671102Y0002256039I-0000009842D01*
G01*
X0001552992Y0002256039D01*
G75*
G02*
X0001543149Y0002265881J0000009842D01*
G01*
X0001543149Y0002285566D01*
G75*
G02*
X0001552992Y0002295409I0000009842D01*
G01*
G37*
G36*
G01*
X0001552992Y0002216669D02*
X0001671102Y0002216669D01*
G75*
G02*
X0001680944Y0002206826J-0000009842D01*
G01*
X0001680944Y0002187141D01*
G75*
G02*
X0001671102Y0002177299I-0000009842D01*
G01*
X0001552992Y0002177299D01*
G75*
G02*
X0001543149Y0002187141J0000009842D01*
G01*
X0001543149Y0002206826D01*
G75*
G02*
X0001552992Y0002216669I0000009842D01*
G01*
G37*
G36*
G01*
X0001328582Y0002397771D02*
X0001442755Y0002397771D01*
G75*
G02*
X0001452598Y0002387929J-0000009842D01*
G01*
X0001452598Y0002348559D01*
G75*
G02*
X0001442755Y0002338716I-0000009842D01*
G01*
X0001328582Y0002338716D01*
G75*
G02*
X0001318740Y0002348559J0000009842D01*
G01*
X0001318740Y0002387929D01*
G75*
G02*
X0001328582Y0002397771I0000009842D01*
G01*
G37*
G36*
G01*
X0001328582Y0002133992D02*
X0001442755Y0002133992D01*
G75*
G02*
X0001452598Y0002124149J-0000009842D01*
G01*
X0001452598Y0002084779D01*
G75*
G02*
X0001442755Y0002074937I-0000009842D01*
G01*
X0001328582Y0002074937D01*
G75*
G02*
X0001318740Y0002084779J0000009842D01*
G01*
X0001318740Y0002124149D01*
G75*
G02*
X0001328582Y0002133992I0000009842D01*
G01*
G37*
D104*
X0001963622Y0001960370D03*
X0001989212Y0001960370D03*
X0002014803Y0001960370D03*
X0002040393Y0001960370D03*
X0002065984Y0001960370D03*
D105*
X0001916377Y0001960370D03*
X0002113228Y0001960370D03*
D106*
X0001975433Y0001854070D03*
X0002054173Y0001854070D03*
D107*
X0001900629Y0001854070D03*
X0002128976Y0001854070D03*
D108*
X0001877007Y0001854070D03*
X0002152598Y0001854070D03*
D94*
X0002334094Y0001883992D03*
D95*
X0002434094Y0001883992D03*
D94*
X0002448661Y0003237535D03*
D95*
X0002448661Y0003137535D03*
D94*
X0002448661Y0002836748D03*
D95*
X0002448661Y0002936748D03*
G36*
G01*
X0001591102Y0001837289D02*
X0001591102Y0001873214D01*
G75*
G02*
X0001600698Y0001882811I0000009596D01*
G01*
X0001619891Y0001882811D01*
G75*
G02*
X0001629488Y0001873214J-0000009596D01*
G01*
X0001629488Y0001837289D01*
G75*
G02*
X0001619891Y0001827692I-0000009596D01*
G01*
X0001600698Y0001827692D01*
G75*
G02*
X0001591102Y0001837289J0000009596D01*
G01*
G37*
G36*
G01*
X0001517283Y0001837289D02*
X0001517283Y0001873214D01*
G75*
G02*
X0001526879Y0001882811I0000009596D01*
G01*
X0001546072Y0001882811D01*
G75*
G02*
X0001555669Y0001873214J-0000009596D01*
G01*
X0001555669Y0001837289D01*
G75*
G02*
X0001546072Y0001827692I-0000009596D01*
G01*
X0001526879Y0001827692D01*
G75*
G02*
X0001517283Y0001837289J0000009596D01*
G01*
G37*
G36*
G01*
X0001666181Y0001838470D02*
X0001666181Y0001874395D01*
G75*
G02*
X0001675777Y0001883992I0000009596D01*
G01*
X0001694970Y0001883992D01*
G75*
G02*
X0001704566Y0001874395J-0000009596D01*
G01*
X0001704566Y0001838470D01*
G75*
G02*
X0001694970Y0001828874I-0000009596D01*
G01*
X0001675777Y0001828874D01*
G75*
G02*
X0001666181Y0001838470J0000009596D01*
G01*
G37*
G36*
G01*
X0001740000Y0001838470D02*
X0001740000Y0001874395D01*
G75*
G02*
X0001749596Y0001883992I0000009596D01*
G01*
X0001768789Y0001883992D01*
G75*
G02*
X0001778385Y0001874395J-0000009596D01*
G01*
X0001778385Y0001838470D01*
G75*
G02*
X0001768789Y0001828874I-0000009596D01*
G01*
X0001749596Y0001828874D01*
G75*
G02*
X0001740000Y0001838470J0000009596D01*
G01*
G37*
D109*
X0001507125Y0003352889D03*
X0001507125Y0003222968D03*
D110*
X0001976220Y0002590488D03*
X0002106141Y0002590488D03*
X0001976220Y0002715488D03*
X0002106141Y0002715488D03*
G36*
G01*
X0001500629Y0002947377D02*
X0001538031Y0002947377D01*
G75*
G02*
X0001547874Y0002937535J-0000009842D01*
G01*
X0001547874Y0002917850D01*
G75*
G02*
X0001538031Y0002908007I-0000009842D01*
G01*
X0001500629Y0002908007D01*
G75*
G02*
X0001490787Y0002917850J0000009842D01*
G01*
X0001490787Y0002937535D01*
G75*
G02*
X0001500629Y0002947377I0000009842D01*
G01*
G37*
G36*
G01*
X0001500629Y0002872574D02*
X0001538031Y0002872574D01*
G75*
G02*
X0001547874Y0002862732J-0000009842D01*
G01*
X0001547874Y0002843047D01*
G75*
G02*
X0001538031Y0002833204I-0000009842D01*
G01*
X0001500629Y0002833204D01*
G75*
G02*
X0001490787Y0002843047J0000009842D01*
G01*
X0001490787Y0002862732D01*
G75*
G02*
X0001500629Y0002872574I0000009842D01*
G01*
G37*
G36*
G01*
X0001601023Y0002697181D02*
X0001601023Y0002734582D01*
G75*
G02*
X0001610866Y0002744425I0000009842D01*
G01*
X0001630551Y0002744425D01*
G75*
G02*
X0001640393Y0002734582J-0000009842D01*
G01*
X0001640393Y0002697181D01*
G75*
G02*
X0001630551Y0002687338I-0000009842D01*
G01*
X0001610866Y0002687338D01*
G75*
G02*
X0001601023Y0002697181J0000009842D01*
G01*
G37*
G36*
G01*
X0001675826Y0002697181D02*
X0001675826Y0002734582D01*
G75*
G02*
X0001685669Y0002744425I0000009842D01*
G01*
X0001705354Y0002744425D01*
G75*
G02*
X0001715196Y0002734582J-0000009842D01*
G01*
X0001715196Y0002697181D01*
G75*
G02*
X0001705354Y0002687338I-0000009842D01*
G01*
X0001685669Y0002687338D01*
G75*
G02*
X0001675826Y0002697181J0000009842D01*
G01*
G37*
G36*
G01*
X0001715196Y0002484582D02*
X0001715196Y0002447181D01*
G75*
G02*
X0001705354Y0002437338I-0000009842D01*
G01*
X0001685669Y0002437338D01*
G75*
G02*
X0001675826Y0002447181J0000009842D01*
G01*
X0001675826Y0002484582D01*
G75*
G02*
X0001685669Y0002494425I0000009842D01*
G01*
X0001705354Y0002494425D01*
G75*
G02*
X0001715196Y0002484582J-0000009842D01*
G01*
G37*
G36*
G01*
X0001640393Y0002484582D02*
X0001640393Y0002447181D01*
G75*
G02*
X0001630551Y0002437338I-0000009842D01*
G01*
X0001610866Y0002437338D01*
G75*
G02*
X0001601023Y0002447181J0000009842D01*
G01*
X0001601023Y0002484582D01*
G75*
G02*
X0001610866Y0002494425I0000009842D01*
G01*
X0001630551Y0002494425D01*
G75*
G02*
X0001640393Y0002484582J-0000009842D01*
G01*
G37*
G36*
G01*
X0001754173Y0002259779D02*
X0001754173Y0002297181D01*
G75*
G02*
X0001764015Y0002307023I0000009842D01*
G01*
X0001783700Y0002307023D01*
G75*
G02*
X0001793543Y0002297181J-0000009842D01*
G01*
X0001793543Y0002259779D01*
G75*
G02*
X0001783700Y0002249937I-0000009842D01*
G01*
X0001764015Y0002249937D01*
G75*
G02*
X0001754173Y0002259779J0000009842D01*
G01*
G37*
G36*
G01*
X0001828976Y0002259779D02*
X0001828976Y0002297181D01*
G75*
G02*
X0001838818Y0002307023I0000009842D01*
G01*
X0001858503Y0002307023D01*
G75*
G02*
X0001868346Y0002297181J-0000009842D01*
G01*
X0001868346Y0002259779D01*
G75*
G02*
X0001858503Y0002249937I-0000009842D01*
G01*
X0001838818Y0002249937D01*
G75*
G02*
X0001828976Y0002259779J0000009842D01*
G01*
G37*
G36*
G01*
X0001754173Y0002159385D02*
X0001754173Y0002196787D01*
G75*
G02*
X0001764015Y0002206629I0000009842D01*
G01*
X0001783700Y0002206629D01*
G75*
G02*
X0001793543Y0002196787J-0000009842D01*
G01*
X0001793543Y0002159385D01*
G75*
G02*
X0001783700Y0002149543I-0000009842D01*
G01*
X0001764015Y0002149543D01*
G75*
G02*
X0001754173Y0002159385J0000009842D01*
G01*
G37*
G36*
G01*
X0001828976Y0002159385D02*
X0001828976Y0002196787D01*
G75*
G02*
X0001838818Y0002206629I0000009842D01*
G01*
X0001858503Y0002206629D01*
G75*
G02*
X0001868346Y0002196787J-0000009842D01*
G01*
X0001868346Y0002159385D01*
G75*
G02*
X0001858503Y0002149543I-0000009842D01*
G01*
X0001838818Y0002149543D01*
G75*
G02*
X0001828976Y0002159385J0000009842D01*
G01*
G37*
G36*
G01*
X0001519724Y0003069228D02*
X0001519724Y0003031826D01*
G75*
G02*
X0001509881Y0003021984I-0000009842D01*
G01*
X0001490196Y0003021984D01*
G75*
G02*
X0001480354Y0003031826J0000009842D01*
G01*
X0001480354Y0003069228D01*
G75*
G02*
X0001490196Y0003079070I0000009842D01*
G01*
X0001509881Y0003079070D01*
G75*
G02*
X0001519724Y0003069228J-0000009842D01*
G01*
G37*
G36*
G01*
X0001444921Y0003069228D02*
X0001444921Y0003031826D01*
G75*
G02*
X0001435078Y0003021984I-0000009842D01*
G01*
X0001415393Y0003021984D01*
G75*
G02*
X0001405551Y0003031826J0000009842D01*
G01*
X0001405551Y0003069228D01*
G75*
G02*
X0001415393Y0003079070I0000009842D01*
G01*
X0001435078Y0003079070D01*
G75*
G02*
X0001444921Y0003069228J-0000009842D01*
G01*
G37*
G36*
G01*
X0001519724Y0003158007D02*
X0001519724Y0003120606D01*
G75*
G02*
X0001509881Y0003110763I-0000009842D01*
G01*
X0001490196Y0003110763D01*
G75*
G02*
X0001480354Y0003120606J0000009842D01*
G01*
X0001480354Y0003158007D01*
G75*
G02*
X0001490196Y0003167850I0000009842D01*
G01*
X0001509881Y0003167850D01*
G75*
G02*
X0001519724Y0003158007J-0000009842D01*
G01*
G37*
G36*
G01*
X0001444921Y0003158007D02*
X0001444921Y0003120606D01*
G75*
G02*
X0001435078Y0003110763I-0000009842D01*
G01*
X0001415393Y0003110763D01*
G75*
G02*
X0001405551Y0003120606J0000009842D01*
G01*
X0001405551Y0003158007D01*
G75*
G02*
X0001415393Y0003167850I0000009842D01*
G01*
X0001435078Y0003167850D01*
G75*
G02*
X0001444921Y0003158007J-0000009842D01*
G01*
G37*
M02*