%
M48
METRIC,000.000
T01C0.50
%
T01
X065751Y083534
X065751Y082534
X065751Y081534
X065751Y080534
X065751Y079534
X065751Y078534
X064241Y078679
X064241Y079679
X064241Y080679
X064240Y081679
X064240Y082679
X064240Y083679
X075924Y064899
X074924Y064899
X073924Y064899
X072924Y064899
X071924Y064899
X071155Y066399
X072155Y066399
X073155Y066399
X074155Y066399
X075155Y066399
X076155Y066399
X065751Y062534
X065751Y061534
X065751Y060534
X065751Y059534
X065751Y058534
X065751Y057534
X064248Y057679
X064247Y058679
X064247Y059679
X064247Y060679
X064246Y061679
X064246Y062679
X065751Y073534
X065751Y072534
X065751Y071534
X065751Y070534
X065751Y069534
X065751Y068534
X064244Y068679
X064244Y069679
X064244Y070679
X064243Y071679
X064243Y072679
X064243Y073679
X065751Y053534
X065751Y052534
X065751Y051534
X065751Y050534
X065751Y049534
X065751Y048534
X064250Y048679
X064250Y049679
X064250Y050679
X064249Y051679
X064249Y052679
X064249Y053679
X051569Y043894
X050569Y043894
X049569Y043894
X048569Y043893
X047569Y043893
X046569Y043892
X046881Y045399
X047881Y045399
X048881Y045399
X049881Y045399
X050881Y045399
X051881Y045399
X031240Y079679
X031240Y080679
X031240Y081679
X031239Y082679
X031239Y083679
X031239Y084679
X032762Y084808
X032762Y083808
X032761Y082808
X032761Y081808
X032761Y080808
X032760Y079808
X017568Y043894
X016568Y043894
X015568Y043893
X014568Y043893
X013568Y043892
X012568Y043892
X012881Y045399
X013881Y045399
X014881Y045399
X015881Y045399
X016881Y045399
X017881Y045399
X031247Y055679
X031247Y056679
X031247Y057679
X031247Y058679
X031246Y059679
X031246Y060679
X032755Y060808
X032754Y059808
X032754Y058808
X032754Y057808
X032753Y056808
X032753Y055808
X031242Y029029
X031241Y030029
X031241Y031029
X031241Y032029
X031240Y033029
X031240Y034029
X032760Y034158
X032760Y033158
X032760Y032158
X032759Y031158
X032759Y030158
X032759Y029158
X031249Y005029
X031249Y006029
X031248Y007029
X031248Y008029
X031248Y009029
X031247Y010029
X032753Y010158
X032753Y009158
X032752Y008158
X032752Y007158
X032752Y006158
X032751Y005158
X064242Y029029
X064242Y030029
X064242Y031029
X064241Y032029
X064241Y033029
X064241Y034029
X065761Y034158
X065761Y033158
X065760Y032158
X065760Y031158
X065760Y030158
X065759Y029158
X064249Y006029
X064249Y007029
X064249Y008029
X064248Y009029
X064248Y010029
X064248Y011029
X065754Y011158
X065754Y010158
X065753Y009158
X065753Y008158
X065753Y007158
X065752Y006158
X071155Y045399
X072155Y045399
X073155Y045399
X074155Y045399
X075155Y045399
X076155Y045399
X076570Y043891
X075570Y043890
X074570Y043890
X073570Y043890
X072570Y043889
X071570Y043889
M30