%MOIN*%
%OFA0B0*%
%FSLAX46Y46*%
%IPPOS*%
%LPD*%
%ADD10O,0.066929133858267723X0.066929133858267723*%
%ADD11R,0.066929133858267723X0.066929133858267723*%
%ADD12O,0.049212598425196853X0.037401574803149609*%
%ADD13O,0.03503937007874016X0.0610236220472441*%
%ADD14C,0.031496062992125991*%
%ADD15C,0.00984251968503937*%
%ADD16C,0.025590551181102365*%
%ADD27O,0.066929133858267723X0.066929133858267723*%
%ADD28R,0.066929133858267723X0.066929133858267723*%
%ADD29C,0.025590551181102365*%
%ADD30C,0.00984251968503937*%
%ADD31O,0.066929133858267723X0.066929133858267723*%
%ADD32R,0.066929133858267723X0.066929133858267723*%
%ADD33O,0.049212598425196853X0.037401574803149609*%
%ADD34O,0.03503937007874016X0.0610236220472441*%
%ADD35C,0.031496062992125991*%
%ADD36C,0.00984251968503937*%
%ADD37C,0.025590551181102365*%
%ADD38O,0.066929133858267723X0.066929133858267723*%
%ADD39R,0.066929133858267723X0.066929133858267723*%
%ADD40O,0.049212598425196853X0.037401574803149609*%
%ADD41O,0.03503937007874016X0.0610236220472441*%
%ADD42C,0.031496062992125991*%
%ADD43C,0.00984251968503937*%
%ADD44C,0.025590551181102365*%
%ADD45O,0.066929133858267723X0.066929133858267723*%
%ADD46R,0.066929133858267723X0.066929133858267723*%
%ADD47O,0.049212598425196853X0.037401574803149609*%
%ADD48O,0.03503937007874016X0.0610236220472441*%
%ADD49C,0.031496062992125991*%
%ADD50C,0.00984251968503937*%
%ADD51C,0.025590551181102365*%
%ADD52O,0.066929133858267723X0.066929133858267723*%
%ADD53R,0.066929133858267723X0.066929133858267723*%
%ADD54C,0.025590551181102365*%
%ADD55C,0.00984251968503937*%
%ADD56O,0.066929133858267723X0.066929133858267723*%
%ADD57R,0.066929133858267723X0.066929133858267723*%
%ADD58O,0.049212598425196853X0.037401574803149609*%
%ADD59O,0.03503937007874016X0.0610236220472441*%
%ADD60C,0.031496062992125991*%
%ADD61C,0.00984251968503937*%
%ADD62C,0.025590551181102365*%
G01*
D10*
X-0003930500Y0006002500D02*
X0001149500Y0000238000D03*
X0001149500Y0000338000D03*
X0001149500Y0000438000D03*
X0001149500Y0000537999D03*
X0001149500Y0000638000D03*
X0001149500Y0000738000D03*
D11*
X0001149500Y0000838000D03*
X0000092334Y0000182814D03*
D10*
X0000092334Y0000082814D03*
D12*
X0000617137Y0000163129D03*
X0000813988Y0000163129D03*
D13*
X0000577767Y0000056830D03*
X0000853358Y0000056830D03*
D10*
X0001034854Y0000086751D03*
D11*
X0001134854Y0000086751D03*
D10*
X0001149421Y0001440295D03*
D11*
X0001149421Y0001340295D03*
D10*
X0001149421Y0001039507D03*
D11*
X0001149421Y0001139507D03*
D14*
X0000623500Y0000759500D03*
X0000441102Y0001287409D03*
X0000903551Y0000987535D03*
X0000440354Y0001202417D03*
X0000851535Y0000879614D03*
X0000270499Y0001570500D03*
X0001195692Y0000981551D03*
X0000664499Y0000983500D03*
X0000580500Y0000313500D03*
X0000237661Y0001187555D03*
X0000413661Y0001036594D03*
X0000765500Y0000248500D03*
X0000440185Y0001140433D03*
X0000720169Y0000591031D03*
X0000437499Y0000736499D03*
X0000363500Y0000564511D03*
X0000791500Y0000702500D03*
X0000596944Y0000359220D03*
X0000465500Y0000305500D03*
X0000596622Y0000415736D03*
X0000424500Y0000374500D03*
X0000751499Y0000726500D03*
D15*
X0000623500Y0000759500D02*
X0000780500Y0000759500D01*
X0000780500Y0000759500D02*
X0000780500Y0000758500D01*
X0000780500Y0000758500D02*
X0001035499Y0000503500D01*
X0001035499Y0000503500D02*
X0001035499Y0000393500D01*
X0001090673Y0000338326D02*
X0001149618Y0000338326D01*
X0001035499Y0000393500D02*
X0001090673Y0000338326D01*
X0001064602Y0001330074D02*
X0000483767Y0001330074D01*
X0000483767Y0001330074D02*
X0000441102Y0001287409D01*
X0001064602Y0001330074D02*
X0001195696Y0001198980D01*
X0001195696Y0001198980D02*
X0001195696Y0001098460D01*
X0001195696Y0001098460D02*
X0001190468Y0001093232D01*
X0001190468Y0001093232D02*
X0001009248Y0001093232D01*
X0001009248Y0001093232D02*
X0000903551Y0000987535D01*
X0001092763Y0001358236D02*
X0001092763Y0001420763D01*
X0001092763Y0001358236D02*
X0001064602Y0001330074D01*
X0001112295Y0001440295D02*
X0001149421Y0001440295D01*
X0001092763Y0001420763D02*
X0001112295Y0001440295D01*
X0001103149Y0001039507D02*
X0000943255Y0000879614D01*
X0000943255Y0000879614D02*
X0000851535Y0000879614D01*
X0001149421Y0001039507D02*
X0001103149Y0001039507D01*
X0000772051Y0000941390D02*
X0000833828Y0000879614D01*
X0000772051Y0000956139D02*
X0000772051Y0000941390D01*
X0000672935Y0001065153D02*
X0000731090Y0001006997D01*
X0000833828Y0000879614D02*
X0000851535Y0000879614D01*
X0000475078Y0001065153D02*
X0000672935Y0001065153D01*
X0000731090Y0000997100D02*
X0000772051Y0000956139D01*
X0000411625Y0001128606D02*
X0000475078Y0001065153D01*
X0000411625Y0001173688D02*
X0000411625Y0001128606D01*
X0000731090Y0001006997D02*
X0000731090Y0000997100D01*
X0000440354Y0001202417D02*
X0000411625Y0001173688D01*
X0000531220Y0000850826D02*
X0000208566Y0001173480D01*
X0000208566Y0001173480D02*
X0000208566Y0001472897D01*
X0000208566Y0001472897D02*
X0000270688Y0001535019D01*
X0001071499Y0000519499D02*
X0000740173Y0000850826D01*
X0001071499Y0000453500D02*
X0001071499Y0000519499D01*
X0001086673Y0000438326D02*
X0001071499Y0000453500D01*
X0000740173Y0000850826D02*
X0000682173Y0000850826D01*
X0001149618Y0000438326D02*
X0001086673Y0000438326D01*
X0000682173Y0000850826D02*
X0000531220Y0000850826D01*
X0000690846Y0000850826D02*
X0000682173Y0000850826D01*
X0000270688Y0001570311D02*
X0000270499Y0001570500D01*
X0000270688Y0001535019D02*
X0000270688Y0001570311D01*
X0001149618Y0000738326D02*
X0001149618Y0000784598D01*
X0001149618Y0000784598D02*
X0001181429Y0000784598D01*
X0001181429Y0000784598D02*
X0001195893Y0000799062D01*
X0001195893Y0000799062D02*
X0001195893Y0000981350D01*
X0001195893Y0000981350D02*
X0001195692Y0000981551D01*
X0001149618Y0000638326D02*
X0001002346Y0000638326D01*
X0001002346Y0000638326D02*
X0000720870Y0000919803D01*
X0000720870Y0000927129D02*
X0000664499Y0000983500D01*
X0000720870Y0000919803D02*
X0000720870Y0000927129D01*
D16*
X0001134854Y0000086751D02*
X0001079035Y0000030933D01*
X0001079035Y0000030933D02*
X0001013303Y0000030933D01*
X0001013303Y0000030933D02*
X0000932287Y0000111948D01*
X0000413661Y0001036594D02*
X0000388622Y0001036594D01*
X0000388622Y0001036594D02*
X0000237661Y0001187555D01*
X0000580500Y0000313500D02*
X0000699500Y0000313500D01*
X0000699500Y0000313500D02*
X0000766499Y0000246499D01*
X0000932287Y0000111948D02*
X0000788051Y0000111948D01*
X0000765500Y0000134500D02*
X0000788051Y0000111948D01*
X0000765500Y0000248500D02*
X0000765500Y0000134500D01*
X0000705500Y0000996397D02*
X0000665303Y0001036594D01*
X0000655598Y0001036594D02*
X0000413661Y0001036594D01*
X0000705500Y0000986500D02*
X0000705500Y0000996397D01*
X0000746461Y0000945538D02*
X0000705500Y0000986500D01*
X0000746461Y0000930790D02*
X0000746461Y0000945538D01*
X0000665303Y0001036594D02*
X0000655598Y0001036594D01*
X0000838925Y0000838326D02*
X0000746461Y0000930790D01*
X0001149618Y0000838326D02*
X0000838925Y0000838326D01*
X0001149421Y0001139507D02*
X0001095275Y0001139507D01*
X0000440185Y0001140433D02*
X0001094350Y0001140433D01*
X0001094350Y0001140433D02*
X0001095275Y0001139507D01*
X0001034854Y0000086751D02*
X0001034854Y0000140897D01*
X0001034854Y0000140897D02*
X0001095472Y0000201515D01*
X0001149618Y0000238326D02*
X0001110326Y0000238326D01*
X0001095472Y0000223472D02*
X0001095472Y0000201515D01*
X0001110326Y0000238326D02*
X0001095472Y0000223472D01*
X0000321468Y0000564511D02*
X0000424696Y0000564511D01*
X0000092334Y0000182814D02*
X0000092334Y0000335377D01*
X0000092334Y0000335377D02*
X0000321468Y0000564511D01*
X0000451216Y0000591031D02*
X0000424696Y0000564511D01*
X0000437499Y0000736499D02*
X0000437499Y0000714500D01*
X0000437499Y0000714500D02*
X0000446499Y0000705500D01*
X0000437499Y0000714500D02*
X0000437499Y0000704500D01*
X0000437499Y0000704500D02*
X0000455499Y0000686500D01*
X0000455499Y0000686500D02*
X0000455499Y0000638500D01*
X0000455499Y0000638500D02*
X0000476499Y0000617500D01*
X0000476499Y0000616314D02*
X0000451216Y0000591031D01*
X0000476499Y0000617500D02*
X0000476499Y0000616314D01*
X0000543500Y0000617500D02*
X0000569968Y0000591031D01*
X0000476499Y0000617500D02*
X0000543500Y0000617500D01*
X0000569968Y0000591031D02*
X0000720169Y0000591031D01*
D15*
X0000596944Y0000359220D02*
X0000779673Y0000541948D01*
X0000519220Y0000359220D02*
X0000465500Y0000305500D01*
X0000596944Y0000359220D02*
X0000519220Y0000359220D01*
X0000791500Y0000553775D02*
X0000779673Y0000541948D01*
X0000791500Y0000702500D02*
X0000791500Y0000553775D01*
X0000749984Y0000569098D02*
X0000596622Y0000415736D01*
X0000465736Y0000415736D02*
X0000424500Y0000374500D01*
X0000596622Y0000415736D02*
X0000465736Y0000415736D01*
X0000749984Y0000724984D02*
X0000751499Y0000726500D01*
X0000749984Y0000569098D02*
X0000749984Y0000724984D01*
G04 next file*
G04 #@! TF.GenerationSoftware,KiCad,Pcbnew,(5.1.9)-1*
G04 #@! TF.CreationDate,2021-07-08T10:46:36+02:00*
G04 #@! TF.ProjectId,ttl_to_usb_adapter,74746c5f-746f-45f7-9573-625f61646170,v0.0*
G04 #@! TF.SameCoordinates,Original*
G04 #@! TF.FileFunction,Copper,L2,Bot*
G04 #@! TF.FilePolarity,Positive*
G04 Gerber Fmt 4.6, Leading zero omitted, Abs format (unit mm)*
G04 Created by KiCad (PCBNEW (5.1.9)-1) date 2021-07-08 10:46:36*
G01*
G04 APERTURE LIST*
G04 #@! TA.AperFunction,ComponentPad*
G04 #@! TD*
G04 #@! TA.AperFunction,ComponentPad*
G04 #@! TD*
G04 #@! TA.AperFunction,Conductor*
G04 #@! TD*
G04 #@! TA.AperFunction,Conductor*
G04 #@! TD*
G04 APERTURE END LIST*
D27*
X-0003464511Y0005931098D02*
X0003157535Y0002468106D03*
X0003157535Y0002368106D03*
X0003157535Y0002268106D03*
X0003157535Y0002168106D03*
X0003157535Y0002068106D03*
X0003157535Y0001968106D03*
D28*
X0003157535Y0001868106D03*
X0003019740Y0002293303D03*
D27*
X0002919740Y0002293303D03*
X0002819740Y0002293303D03*
X0002692968Y0002423224D03*
X0002692968Y0002323224D03*
X0002692968Y0002223224D03*
X0002692968Y0002123224D03*
X0002692968Y0002023224D03*
D28*
X0002692968Y0001923224D03*
D29*
X0003157535Y0002468106D02*
X0002940397Y0002468106D01*
X0002940397Y0002468106D02*
X0002819740Y0002347448D01*
X0002747114Y0002423224D02*
X0002747114Y0002420074D01*
X0002747114Y0002420074D02*
X0002819740Y0002347448D01*
X0002692968Y0002423224D02*
X0002747114Y0002423224D01*
X0002819740Y0002293303D02*
X0002819740Y0002347448D01*
D30*
X0003157535Y0001968106D02*
X0003157535Y0002009838D01*
X0003157535Y0002009838D02*
X0003165409Y0002017712D01*
X0003203807Y0002040362D02*
X0003181157Y0002017712D01*
X0003203807Y0002089838D02*
X0003203807Y0002040362D01*
X0003175539Y0002118106D02*
X0003203807Y0002089838D01*
X0002744358Y0002118106D02*
X0003175539Y0002118106D01*
X0002739240Y0002123224D02*
X0002744358Y0002118106D01*
X0002692968Y0002123224D02*
X0002739240Y0002123224D01*
X0003165409Y0002017712D02*
X0003181157Y0002017712D01*
X0002692968Y0002023224D02*
X0002739240Y0002023224D01*
X0002739240Y0002023224D02*
X0002784122Y0002068106D01*
X0002784122Y0002068106D02*
X0003157535Y0002068106D01*
X0002966011Y0002325114D02*
X0003009003Y0002368106D01*
X0003009003Y0002368106D02*
X0003157535Y0002368106D01*
X0002919740Y0002293303D02*
X0002956747Y0002293303D01*
X0002966011Y0002302566D02*
X0002966011Y0002325114D01*
X0002956747Y0002293303D02*
X0002966011Y0002302566D01*
G04 next file*
G04 #@! TF.GenerationSoftware,KiCad,Pcbnew,(5.1.9)-1*
G04 #@! TF.CreationDate,2021-07-08T10:50:12+02:00*
G04 #@! TF.ProjectId,iot-postbox,696f742d-706f-4737-9462-6f782e6b6963,v0.0*
G04 #@! TF.SameCoordinates,Original*
G04 #@! TF.FileFunction,Copper,L2,Bot*
G04 #@! TF.FilePolarity,Positive*
G04 Gerber Fmt 4.6, Leading zero omitted, Abs format (unit mm)*
G04 Created by KiCad (PCBNEW (5.1.9)-1) date 2021-07-08 10:50:12*
G01*
G04 APERTURE LIST*
G04 #@! TA.AperFunction,ComponentPad*
G04 #@! TD*
G04 #@! TA.AperFunction,ComponentPad*
G04 #@! TD*
G04 #@! TA.AperFunction,ComponentPad*
G04 #@! TD*
G04 #@! TA.AperFunction,ComponentPad*
G04 #@! TD*
G04 #@! TA.AperFunction,ViaPad*
G04 #@! TD*
G04 #@! TA.AperFunction,Conductor*
G04 #@! TD*
G04 #@! TA.AperFunction,Conductor*
G04 #@! TD*
G04 APERTURE END LIST*
D31*
X-0003930500Y0007799740D02*
X0001149500Y0002035240D03*
X0001149500Y0002135240D03*
X0001149500Y0002235240D03*
X0001149500Y0002335240D03*
X0001149500Y0002435240D03*
X0001149500Y0002535240D03*
D32*
X0001149500Y0002635240D03*
X0000092334Y0001980055D03*
D31*
X0000092334Y0001880055D03*
D33*
X0000617137Y0001960370D03*
X0000813988Y0001960370D03*
D34*
X0000577767Y0001854070D03*
X0000853358Y0001854070D03*
D31*
X0001034854Y0001883992D03*
D32*
X0001134854Y0001883992D03*
D31*
X0001149421Y0003237535D03*
D32*
X0001149421Y0003137535D03*
D31*
X0001149421Y0002836748D03*
D32*
X0001149421Y0002936748D03*
D35*
X0000623500Y0002556740D03*
X0000441102Y0003084649D03*
X0000903551Y0002784775D03*
X0000440354Y0002999657D03*
X0000851535Y0002676854D03*
X0000270499Y0003367740D03*
X0001195692Y0002778791D03*
X0000664499Y0002780740D03*
X0000580500Y0002110740D03*
X0000237661Y0002984795D03*
X0000413661Y0002833834D03*
X0000765500Y0002045740D03*
X0000440185Y0002937673D03*
X0000720169Y0002388271D03*
X0000437499Y0002533740D03*
X0000363500Y0002361751D03*
X0000791500Y0002499740D03*
X0000596944Y0002156460D03*
X0000465500Y0002102740D03*
X0000596622Y0002212976D03*
X0000424500Y0002171740D03*
X0000751499Y0002523740D03*
D36*
X0000623500Y0002556740D02*
X0000780500Y0002556740D01*
X0000780500Y0002556740D02*
X0000780500Y0002555740D01*
X0000780500Y0002555740D02*
X0001035499Y0002300740D01*
X0001035499Y0002300740D02*
X0001035499Y0002190740D01*
X0001090673Y0002135566D02*
X0001149618Y0002135566D01*
X0001035499Y0002190740D02*
X0001090673Y0002135566D01*
X0001064602Y0003127314D02*
X0000483767Y0003127314D01*
X0000483767Y0003127314D02*
X0000441102Y0003084649D01*
X0001064602Y0003127314D02*
X0001195696Y0002996220D01*
X0001195696Y0002996220D02*
X0001195696Y0002895700D01*
X0001195696Y0002895700D02*
X0001190468Y0002890472D01*
X0001190468Y0002890472D02*
X0001009248Y0002890472D01*
X0001009248Y0002890472D02*
X0000903551Y0002784775D01*
X0001092763Y0003155476D02*
X0001092763Y0003218003D01*
X0001092763Y0003155476D02*
X0001064602Y0003127314D01*
X0001112295Y0003237535D02*
X0001149421Y0003237535D01*
X0001092763Y0003218003D02*
X0001112295Y0003237535D01*
X0001103149Y0002836748D02*
X0000943255Y0002676854D01*
X0000943255Y0002676854D02*
X0000851535Y0002676854D01*
X0001149421Y0002836748D02*
X0001103149Y0002836748D01*
X0000772051Y0002738631D02*
X0000833828Y0002676854D01*
X0000772051Y0002753379D02*
X0000772051Y0002738631D01*
X0000672935Y0002862393D02*
X0000731090Y0002804237D01*
X0000833828Y0002676854D02*
X0000851535Y0002676854D01*
X0000475078Y0002862393D02*
X0000672935Y0002862393D01*
X0000731090Y0002794340D02*
X0000772051Y0002753379D01*
X0000411625Y0002925846D02*
X0000475078Y0002862393D01*
X0000411625Y0002970929D02*
X0000411625Y0002925846D01*
X0000731090Y0002804237D02*
X0000731090Y0002794340D01*
X0000440354Y0002999657D02*
X0000411625Y0002970929D01*
X0000531220Y0002648066D02*
X0000208566Y0002970720D01*
X0000208566Y0002970720D02*
X0000208566Y0003270137D01*
X0000208566Y0003270137D02*
X0000270688Y0003332259D01*
X0001071499Y0002316740D02*
X0000740173Y0002648066D01*
X0001071499Y0002250740D02*
X0001071499Y0002316740D01*
X0001086673Y0002235566D02*
X0001071499Y0002250740D01*
X0000740173Y0002648066D02*
X0000682173Y0002648066D01*
X0001149618Y0002235566D02*
X0001086673Y0002235566D01*
X0000682173Y0002648066D02*
X0000531220Y0002648066D01*
X0000690846Y0002648066D02*
X0000682173Y0002648066D01*
X0000270688Y0003367551D02*
X0000270499Y0003367740D01*
X0000270688Y0003332259D02*
X0000270688Y0003367551D01*
X0001149618Y0002535566D02*
X0001149618Y0002581838D01*
X0001149618Y0002581838D02*
X0001181429Y0002581838D01*
X0001181429Y0002581838D02*
X0001195893Y0002596303D01*
X0001195893Y0002596303D02*
X0001195893Y0002778590D01*
X0001195893Y0002778590D02*
X0001195692Y0002778791D01*
X0001149618Y0002435566D02*
X0001002346Y0002435566D01*
X0001002346Y0002435566D02*
X0000720870Y0002717043D01*
X0000720870Y0002724370D02*
X0000664499Y0002780740D01*
X0000720870Y0002717043D02*
X0000720870Y0002724370D01*
D37*
X0001134854Y0001883992D02*
X0001079035Y0001828173D01*
X0001079035Y0001828173D02*
X0001013303Y0001828173D01*
X0001013303Y0001828173D02*
X0000932287Y0001909188D01*
X0000413661Y0002833834D02*
X0000388622Y0002833834D01*
X0000388622Y0002833834D02*
X0000237661Y0002984795D01*
X0000580500Y0002110740D02*
X0000699500Y0002110740D01*
X0000699500Y0002110740D02*
X0000766499Y0002043740D01*
X0000932287Y0001909188D02*
X0000788051Y0001909188D01*
X0000765500Y0001931740D02*
X0000788051Y0001909188D01*
X0000765500Y0002045740D02*
X0000765500Y0001931740D01*
X0000705500Y0002793637D02*
X0000665303Y0002833834D01*
X0000655598Y0002833834D02*
X0000413661Y0002833834D01*
X0000705500Y0002783740D02*
X0000705500Y0002793637D01*
X0000746461Y0002742779D02*
X0000705500Y0002783740D01*
X0000746461Y0002728031D02*
X0000746461Y0002742779D01*
X0000665303Y0002833834D02*
X0000655598Y0002833834D01*
X0000838925Y0002635566D02*
X0000746461Y0002728031D01*
X0001149618Y0002635566D02*
X0000838925Y0002635566D01*
X0001149421Y0002936748D02*
X0001095275Y0002936748D01*
X0000440185Y0002937673D02*
X0001094350Y0002937673D01*
X0001094350Y0002937673D02*
X0001095275Y0002936748D01*
X0001034854Y0001883992D02*
X0001034854Y0001938137D01*
X0001034854Y0001938137D02*
X0001095472Y0001998755D01*
X0001149618Y0002035566D02*
X0001110326Y0002035566D01*
X0001095472Y0002020712D02*
X0001095472Y0001998755D01*
X0001110326Y0002035566D02*
X0001095472Y0002020712D01*
X0000321468Y0002361751D02*
X0000424696Y0002361751D01*
X0000092334Y0001980055D02*
X0000092334Y0002132618D01*
X0000092334Y0002132618D02*
X0000321468Y0002361751D01*
X0000451216Y0002388271D02*
X0000424696Y0002361751D01*
X0000437499Y0002533740D02*
X0000437499Y0002511740D01*
X0000437499Y0002511740D02*
X0000446499Y0002502740D01*
X0000437499Y0002511740D02*
X0000437499Y0002501740D01*
X0000437499Y0002501740D02*
X0000455499Y0002483740D01*
X0000455499Y0002483740D02*
X0000455499Y0002435740D01*
X0000455499Y0002435740D02*
X0000476499Y0002414740D01*
X0000476499Y0002413555D02*
X0000451216Y0002388271D01*
X0000476499Y0002414740D02*
X0000476499Y0002413555D01*
X0000543500Y0002414740D02*
X0000569968Y0002388271D01*
X0000476499Y0002414740D02*
X0000543500Y0002414740D01*
X0000569968Y0002388271D02*
X0000720169Y0002388271D01*
D36*
X0000596944Y0002156460D02*
X0000779673Y0002339188D01*
X0000519220Y0002156460D02*
X0000465500Y0002102740D01*
X0000596944Y0002156460D02*
X0000519220Y0002156460D01*
X0000791500Y0002351015D02*
X0000779673Y0002339188D01*
X0000791500Y0002499740D02*
X0000791500Y0002351015D01*
X0000749984Y0002366338D02*
X0000596622Y0002212976D01*
X0000465736Y0002212976D02*
X0000424500Y0002171740D01*
X0000596622Y0002212976D02*
X0000465736Y0002212976D01*
X0000749984Y0002522224D02*
X0000751499Y0002523740D01*
X0000749984Y0002366338D02*
X0000749984Y0002522224D01*
G04 next file*
G04 #@! TF.GenerationSoftware,KiCad,Pcbnew,(5.1.9)-1*
G04 #@! TF.CreationDate,2021-07-08T10:50:12+02:00*
G04 #@! TF.ProjectId,iot-postbox,696f742d-706f-4737-9462-6f782e6b6963,v0.0*
G04 #@! TF.SameCoordinates,Original*
G04 #@! TF.FileFunction,Copper,L2,Bot*
G04 #@! TF.FilePolarity,Positive*
G04 Gerber Fmt 4.6, Leading zero omitted, Abs format (unit mm)*
G04 Created by KiCad (PCBNEW (5.1.9)-1) date 2021-07-08 10:50:12*
G01*
G04 APERTURE LIST*
G04 #@! TA.AperFunction,ComponentPad*
G04 #@! TD*
G04 #@! TA.AperFunction,ComponentPad*
G04 #@! TD*
G04 #@! TA.AperFunction,ComponentPad*
G04 #@! TD*
G04 #@! TA.AperFunction,ComponentPad*
G04 #@! TD*
G04 #@! TA.AperFunction,ViaPad*
G04 #@! TD*
G04 #@! TA.AperFunction,Conductor*
G04 #@! TD*
G04 #@! TA.AperFunction,Conductor*
G04 #@! TD*
G04 APERTURE END LIST*
D38*
X-0002631259Y0006002500D02*
X0002448740Y0000238000D03*
X0002448740Y0000338000D03*
X0002448740Y0000438000D03*
X0002448740Y0000537999D03*
X0002448740Y0000638000D03*
X0002448740Y0000738000D03*
D39*
X0002448740Y0000838000D03*
X0001391574Y0000182814D03*
D38*
X0001391574Y0000082814D03*
D40*
X0001916377Y0000163129D03*
X0002113228Y0000163129D03*
D41*
X0001877007Y0000056830D03*
X0002152598Y0000056830D03*
D38*
X0002334094Y0000086751D03*
D39*
X0002434094Y0000086751D03*
D38*
X0002448661Y0001440295D03*
D39*
X0002448661Y0001340295D03*
D38*
X0002448661Y0001039507D03*
D39*
X0002448661Y0001139507D03*
D42*
X0001922740Y0000759500D03*
X0001740342Y0001287409D03*
X0002202791Y0000987535D03*
X0001739594Y0001202417D03*
X0002150775Y0000879614D03*
X0001569740Y0001570500D03*
X0002494933Y0000981551D03*
X0001963740Y0000983500D03*
X0001879740Y0000313500D03*
X0001536901Y0001187555D03*
X0001712901Y0001036594D03*
X0002064740Y0000248500D03*
X0001739425Y0001140433D03*
X0002019409Y0000591031D03*
X0001736740Y0000736499D03*
X0001662740Y0000564511D03*
X0002090740Y0000702500D03*
X0001896185Y0000359220D03*
X0001764740Y0000305500D03*
X0001895862Y0000415736D03*
X0001723740Y0000374500D03*
X0002050740Y0000726500D03*
D43*
X0001922740Y0000759500D02*
X0002079740Y0000759500D01*
X0002079740Y0000759500D02*
X0002079740Y0000758500D01*
X0002079740Y0000758500D02*
X0002334740Y0000503500D01*
X0002334740Y0000503500D02*
X0002334740Y0000393500D01*
X0002389913Y0000338326D02*
X0002448858Y0000338326D01*
X0002334740Y0000393500D02*
X0002389913Y0000338326D01*
X0002363842Y0001330074D02*
X0001783007Y0001330074D01*
X0001783007Y0001330074D02*
X0001740342Y0001287409D01*
X0002363842Y0001330074D02*
X0002494936Y0001198980D01*
X0002494936Y0001198980D02*
X0002494936Y0001098460D01*
X0002494936Y0001098460D02*
X0002489708Y0001093232D01*
X0002489708Y0001093232D02*
X0002308488Y0001093232D01*
X0002308488Y0001093232D02*
X0002202791Y0000987535D01*
X0002392003Y0001358236D02*
X0002392003Y0001420763D01*
X0002392003Y0001358236D02*
X0002363842Y0001330074D01*
X0002411535Y0001440295D02*
X0002448661Y0001440295D01*
X0002392003Y0001420763D02*
X0002411535Y0001440295D01*
X0002402389Y0001039507D02*
X0002242496Y0000879614D01*
X0002242496Y0000879614D02*
X0002150775Y0000879614D01*
X0002448661Y0001039507D02*
X0002402389Y0001039507D01*
X0002071292Y0000941390D02*
X0002133068Y0000879614D01*
X0002071292Y0000956139D02*
X0002071292Y0000941390D01*
X0001972175Y0001065153D02*
X0002030331Y0001006997D01*
X0002133068Y0000879614D02*
X0002150775Y0000879614D01*
X0001774318Y0001065153D02*
X0001972175Y0001065153D01*
X0002030331Y0000997100D02*
X0002071292Y0000956139D01*
X0001710866Y0001128606D02*
X0001774318Y0001065153D01*
X0001710866Y0001173688D02*
X0001710866Y0001128606D01*
X0002030331Y0001006997D02*
X0002030331Y0000997100D01*
X0001739594Y0001202417D02*
X0001710866Y0001173688D01*
X0001830460Y0000850826D02*
X0001507807Y0001173480D01*
X0001507807Y0001173480D02*
X0001507807Y0001472897D01*
X0001507807Y0001472897D02*
X0001569929Y0001535019D01*
X0002370740Y0000519499D02*
X0002039413Y0000850826D01*
X0002370740Y0000453500D02*
X0002370740Y0000519499D01*
X0002385913Y0000438326D02*
X0002370740Y0000453500D01*
X0002039413Y0000850826D02*
X0001981413Y0000850826D01*
X0002448858Y0000438326D02*
X0002385913Y0000438326D01*
X0001981413Y0000850826D02*
X0001830460Y0000850826D01*
X0001990086Y0000850826D02*
X0001981413Y0000850826D01*
X0001569929Y0001570311D02*
X0001569740Y0001570500D01*
X0001569929Y0001535019D02*
X0001569929Y0001570311D01*
X0002448858Y0000738326D02*
X0002448858Y0000784598D01*
X0002448858Y0000784598D02*
X0002480669Y0000784598D01*
X0002480669Y0000784598D02*
X0002495133Y0000799062D01*
X0002495133Y0000799062D02*
X0002495133Y0000981350D01*
X0002495133Y0000981350D02*
X0002494933Y0000981551D01*
X0002448858Y0000638326D02*
X0002301586Y0000638326D01*
X0002301586Y0000638326D02*
X0002020110Y0000919803D01*
X0002020110Y0000927129D02*
X0001963740Y0000983500D01*
X0002020110Y0000919803D02*
X0002020110Y0000927129D01*
D44*
X0002434094Y0000086751D02*
X0002378275Y0000030933D01*
X0002378275Y0000030933D02*
X0002312543Y0000030933D01*
X0002312543Y0000030933D02*
X0002231527Y0000111948D01*
X0001712901Y0001036594D02*
X0001687862Y0001036594D01*
X0001687862Y0001036594D02*
X0001536901Y0001187555D01*
X0001879740Y0000313500D02*
X0001998740Y0000313500D01*
X0001998740Y0000313500D02*
X0002065740Y0000246499D01*
X0002231527Y0000111948D02*
X0002087291Y0000111948D01*
X0002064740Y0000134500D02*
X0002087291Y0000111948D01*
X0002064740Y0000248500D02*
X0002064740Y0000134500D01*
X0002004740Y0000996397D02*
X0001964543Y0001036594D01*
X0001954838Y0001036594D02*
X0001712901Y0001036594D01*
X0002004740Y0000986500D02*
X0002004740Y0000996397D01*
X0002045701Y0000945538D02*
X0002004740Y0000986500D01*
X0002045701Y0000930790D02*
X0002045701Y0000945538D01*
X0001964543Y0001036594D02*
X0001954838Y0001036594D01*
X0002138165Y0000838326D02*
X0002045701Y0000930790D01*
X0002448858Y0000838326D02*
X0002138165Y0000838326D01*
X0002448661Y0001139507D02*
X0002394515Y0001139507D01*
X0001739425Y0001140433D02*
X0002393590Y0001140433D01*
X0002393590Y0001140433D02*
X0002394515Y0001139507D01*
X0002334094Y0000086751D02*
X0002334094Y0000140897D01*
X0002334094Y0000140897D02*
X0002394712Y0000201515D01*
X0002448858Y0000238326D02*
X0002409566Y0000238326D01*
X0002394712Y0000223472D02*
X0002394712Y0000201515D01*
X0002409566Y0000238326D02*
X0002394712Y0000223472D01*
X0001620708Y0000564511D02*
X0001723937Y0000564511D01*
X0001391574Y0000182814D02*
X0001391574Y0000335377D01*
X0001391574Y0000335377D02*
X0001620708Y0000564511D01*
X0001750456Y0000591031D02*
X0001723937Y0000564511D01*
X0001736740Y0000736499D02*
X0001736740Y0000714500D01*
X0001736740Y0000714500D02*
X0001745740Y0000705500D01*
X0001736740Y0000714500D02*
X0001736740Y0000704500D01*
X0001736740Y0000704500D02*
X0001754740Y0000686500D01*
X0001754740Y0000686500D02*
X0001754740Y0000638500D01*
X0001754740Y0000638500D02*
X0001775740Y0000617500D01*
X0001775740Y0000616314D02*
X0001750456Y0000591031D01*
X0001775740Y0000617500D02*
X0001775740Y0000616314D01*
X0001842740Y0000617500D02*
X0001869208Y0000591031D01*
X0001775740Y0000617500D02*
X0001842740Y0000617500D01*
X0001869208Y0000591031D02*
X0002019409Y0000591031D01*
D43*
X0001896185Y0000359220D02*
X0002078913Y0000541948D01*
X0001818460Y0000359220D02*
X0001764740Y0000305500D01*
X0001896185Y0000359220D02*
X0001818460Y0000359220D01*
X0002090740Y0000553775D02*
X0002078913Y0000541948D01*
X0002090740Y0000702500D02*
X0002090740Y0000553775D01*
X0002049224Y0000569098D02*
X0001895862Y0000415736D01*
X0001764976Y0000415736D02*
X0001723740Y0000374500D01*
X0001895862Y0000415736D02*
X0001764976Y0000415736D01*
X0002049224Y0000724984D02*
X0002050740Y0000726500D01*
X0002049224Y0000569098D02*
X0002049224Y0000724984D01*
G04 next file*
G04 #@! TF.GenerationSoftware,KiCad,Pcbnew,(5.1.9)-1*
G04 #@! TF.CreationDate,2021-07-08T10:50:12+02:00*
G04 #@! TF.ProjectId,iot-postbox,696f742d-706f-4737-9462-6f782e6b6963,v0.0*
G04 #@! TF.SameCoordinates,Original*
G04 #@! TF.FileFunction,Copper,L2,Bot*
G04 #@! TF.FilePolarity,Positive*
G04 Gerber Fmt 4.6, Leading zero omitted, Abs format (unit mm)*
G04 Created by KiCad (PCBNEW (5.1.9)-1) date 2021-07-08 10:50:12*
G01*
G04 APERTURE LIST*
G04 #@! TA.AperFunction,ComponentPad*
G04 #@! TD*
G04 #@! TA.AperFunction,ComponentPad*
G04 #@! TD*
G04 #@! TA.AperFunction,ComponentPad*
G04 #@! TD*
G04 #@! TA.AperFunction,ComponentPad*
G04 #@! TD*
G04 #@! TA.AperFunction,ViaPad*
G04 #@! TD*
G04 #@! TA.AperFunction,Conductor*
G04 #@! TD*
G04 #@! TA.AperFunction,Conductor*
G04 #@! TD*
G04 APERTURE END LIST*
D45*
X-0001332019Y0006002500D02*
X0003747980Y0000238000D03*
X0003747980Y0000338000D03*
X0003747980Y0000438000D03*
X0003747980Y0000537999D03*
X0003747980Y0000638000D03*
X0003747980Y0000738000D03*
D46*
X0003747980Y0000838000D03*
X0002690814Y0000182814D03*
D45*
X0002690814Y0000082814D03*
D47*
X0003215618Y0000163129D03*
X0003412468Y0000163129D03*
D48*
X0003176248Y0000056830D03*
X0003451838Y0000056830D03*
D45*
X0003633334Y0000086751D03*
D46*
X0003733334Y0000086751D03*
D45*
X0003747901Y0001440295D03*
D46*
X0003747901Y0001340295D03*
D45*
X0003747901Y0001039507D03*
D46*
X0003747901Y0001139507D03*
D49*
X0003221980Y0000759500D03*
X0003039582Y0001287409D03*
X0003502031Y0000987535D03*
X0003038834Y0001202417D03*
X0003450015Y0000879614D03*
X0002868980Y0001570500D03*
X0003794173Y0000981551D03*
X0003262980Y0000983500D03*
X0003178980Y0000313500D03*
X0002836141Y0001187555D03*
X0003012141Y0001036594D03*
X0003363980Y0000248500D03*
X0003038665Y0001140433D03*
X0003318649Y0000591031D03*
X0003035980Y0000736499D03*
X0002961980Y0000564511D03*
X0003389980Y0000702500D03*
X0003195425Y0000359220D03*
X0003063980Y0000305500D03*
X0003195102Y0000415736D03*
X0003022980Y0000374500D03*
X0003349980Y0000726500D03*
D50*
X0003221980Y0000759500D02*
X0003378980Y0000759500D01*
X0003378980Y0000759500D02*
X0003378980Y0000758500D01*
X0003378980Y0000758500D02*
X0003633980Y0000503500D01*
X0003633980Y0000503500D02*
X0003633980Y0000393500D01*
X0003689153Y0000338326D02*
X0003748098Y0000338326D01*
X0003633980Y0000393500D02*
X0003689153Y0000338326D01*
X0003663082Y0001330074D02*
X0003082247Y0001330074D01*
X0003082247Y0001330074D02*
X0003039582Y0001287409D01*
X0003663082Y0001330074D02*
X0003794177Y0001198980D01*
X0003794177Y0001198980D02*
X0003794177Y0001098460D01*
X0003794177Y0001098460D02*
X0003788948Y0001093232D01*
X0003788948Y0001093232D02*
X0003607728Y0001093232D01*
X0003607728Y0001093232D02*
X0003502031Y0000987535D01*
X0003691244Y0001358236D02*
X0003691244Y0001420763D01*
X0003691244Y0001358236D02*
X0003663082Y0001330074D01*
X0003710775Y0001440295D02*
X0003747901Y0001440295D01*
X0003691244Y0001420763D02*
X0003710775Y0001440295D01*
X0003701629Y0001039507D02*
X0003541736Y0000879614D01*
X0003541736Y0000879614D02*
X0003450015Y0000879614D01*
X0003747901Y0001039507D02*
X0003701629Y0001039507D01*
X0003370532Y0000941390D02*
X0003432309Y0000879614D01*
X0003370532Y0000956139D02*
X0003370532Y0000941390D01*
X0003271415Y0001065153D02*
X0003329571Y0001006997D01*
X0003432309Y0000879614D02*
X0003450015Y0000879614D01*
X0003073559Y0001065153D02*
X0003271415Y0001065153D01*
X0003329571Y0000997100D02*
X0003370532Y0000956139D01*
X0003010106Y0001128606D02*
X0003073559Y0001065153D01*
X0003010106Y0001173688D02*
X0003010106Y0001128606D01*
X0003329571Y0001006997D02*
X0003329571Y0000997100D01*
X0003038834Y0001202417D02*
X0003010106Y0001173688D01*
X0003129700Y0000850826D02*
X0002807047Y0001173480D01*
X0002807047Y0001173480D02*
X0002807047Y0001472897D01*
X0002807047Y0001472897D02*
X0002869169Y0001535019D01*
X0003669980Y0000519499D02*
X0003338653Y0000850826D01*
X0003669980Y0000453500D02*
X0003669980Y0000519499D01*
X0003685153Y0000438326D02*
X0003669980Y0000453500D01*
X0003338653Y0000850826D02*
X0003280653Y0000850826D01*
X0003748098Y0000438326D02*
X0003685153Y0000438326D01*
X0003280653Y0000850826D02*
X0003129700Y0000850826D01*
X0003289326Y0000850826D02*
X0003280653Y0000850826D01*
X0002869169Y0001570311D02*
X0002868980Y0001570500D01*
X0002869169Y0001535019D02*
X0002869169Y0001570311D01*
X0003748098Y0000738326D02*
X0003748098Y0000784598D01*
X0003748098Y0000784598D02*
X0003779909Y0000784598D01*
X0003779909Y0000784598D02*
X0003794373Y0000799062D01*
X0003794373Y0000799062D02*
X0003794373Y0000981350D01*
X0003794373Y0000981350D02*
X0003794173Y0000981551D01*
X0003748098Y0000638326D02*
X0003600826Y0000638326D01*
X0003600826Y0000638326D02*
X0003319350Y0000919803D01*
X0003319350Y0000927129D02*
X0003262980Y0000983500D01*
X0003319350Y0000919803D02*
X0003319350Y0000927129D01*
D51*
X0003733334Y0000086751D02*
X0003677515Y0000030933D01*
X0003677515Y0000030933D02*
X0003611783Y0000030933D01*
X0003611783Y0000030933D02*
X0003530767Y0000111948D01*
X0003012141Y0001036594D02*
X0002987102Y0001036594D01*
X0002987102Y0001036594D02*
X0002836141Y0001187555D01*
X0003178980Y0000313500D02*
X0003297980Y0000313500D01*
X0003297980Y0000313500D02*
X0003364980Y0000246499D01*
X0003530767Y0000111948D02*
X0003386531Y0000111948D01*
X0003363980Y0000134500D02*
X0003386531Y0000111948D01*
X0003363980Y0000248500D02*
X0003363980Y0000134500D01*
X0003303980Y0000996397D02*
X0003263783Y0001036594D01*
X0003254078Y0001036594D02*
X0003012141Y0001036594D01*
X0003303980Y0000986500D02*
X0003303980Y0000996397D01*
X0003344941Y0000945538D02*
X0003303980Y0000986500D01*
X0003344941Y0000930790D02*
X0003344941Y0000945538D01*
X0003263783Y0001036594D02*
X0003254078Y0001036594D01*
X0003437405Y0000838326D02*
X0003344941Y0000930790D01*
X0003748098Y0000838326D02*
X0003437405Y0000838326D01*
X0003747901Y0001139507D02*
X0003693755Y0001139507D01*
X0003038665Y0001140433D02*
X0003692830Y0001140433D01*
X0003692830Y0001140433D02*
X0003693755Y0001139507D01*
X0003633334Y0000086751D02*
X0003633334Y0000140897D01*
X0003633334Y0000140897D02*
X0003693952Y0000201515D01*
X0003748098Y0000238326D02*
X0003708807Y0000238326D01*
X0003693952Y0000223472D02*
X0003693952Y0000201515D01*
X0003708807Y0000238326D02*
X0003693952Y0000223472D01*
X0002919948Y0000564511D02*
X0003023177Y0000564511D01*
X0002690814Y0000182814D02*
X0002690814Y0000335377D01*
X0002690814Y0000335377D02*
X0002919948Y0000564511D01*
X0003049696Y0000591031D02*
X0003023177Y0000564511D01*
X0003035980Y0000736499D02*
X0003035980Y0000714500D01*
X0003035980Y0000714500D02*
X0003044980Y0000705500D01*
X0003035980Y0000714500D02*
X0003035980Y0000704500D01*
X0003035980Y0000704500D02*
X0003053980Y0000686500D01*
X0003053980Y0000686500D02*
X0003053980Y0000638500D01*
X0003053980Y0000638500D02*
X0003074980Y0000617500D01*
X0003074980Y0000616314D02*
X0003049696Y0000591031D01*
X0003074980Y0000617500D02*
X0003074980Y0000616314D01*
X0003141980Y0000617500D02*
X0003168448Y0000591031D01*
X0003074980Y0000617500D02*
X0003141980Y0000617500D01*
X0003168448Y0000591031D02*
X0003318649Y0000591031D01*
D50*
X0003195425Y0000359220D02*
X0003378153Y0000541948D01*
X0003117700Y0000359220D02*
X0003063980Y0000305500D01*
X0003195425Y0000359220D02*
X0003117700Y0000359220D01*
X0003389980Y0000553775D02*
X0003378153Y0000541948D01*
X0003389980Y0000702500D02*
X0003389980Y0000553775D01*
X0003348464Y0000569098D02*
X0003195102Y0000415736D01*
X0003064216Y0000415736D02*
X0003022980Y0000374500D01*
X0003195102Y0000415736D02*
X0003064216Y0000415736D01*
X0003348464Y0000724984D02*
X0003349980Y0000726500D01*
X0003348464Y0000569098D02*
X0003348464Y0000724984D01*
G04 next file*
G04 #@! TF.GenerationSoftware,KiCad,Pcbnew,(5.1.9)-1*
G04 #@! TF.CreationDate,2021-07-08T10:46:36+02:00*
G04 #@! TF.ProjectId,ttl_to_usb_adapter,74746c5f-746f-45f7-9573-625f61646170,v0.0*
G04 #@! TF.SameCoordinates,Original*
G04 #@! TF.FileFunction,Copper,L2,Bot*
G04 #@! TF.FilePolarity,Positive*
G04 Gerber Fmt 4.6, Leading zero omitted, Abs format (unit mm)*
G04 Created by KiCad (PCBNEW (5.1.9)-1) date 2021-07-08 10:46:36*
G01*
G04 APERTURE LIST*
G04 #@! TA.AperFunction,ComponentPad*
G04 #@! TD*
G04 #@! TA.AperFunction,ComponentPad*
G04 #@! TD*
G04 #@! TA.AperFunction,Conductor*
G04 #@! TD*
G04 #@! TA.AperFunction,Conductor*
G04 #@! TD*
G04 APERTURE END LIST*
D52*
X-0003464511Y0006757870D02*
X0003157535Y0003294877D03*
X0003157535Y0003194877D03*
X0003157535Y0003094877D03*
X0003157535Y0002994877D03*
X0003157535Y0002894877D03*
X0003157535Y0002794877D03*
D53*
X0003157535Y0002694877D03*
X0003019740Y0003120074D03*
D52*
X0002919740Y0003120074D03*
X0002819740Y0003120074D03*
X0002692968Y0003249996D03*
X0002692968Y0003149996D03*
X0002692968Y0003049996D03*
X0002692968Y0002949996D03*
X0002692968Y0002849996D03*
D53*
X0002692968Y0002749996D03*
D54*
X0003157535Y0003294877D02*
X0002940397Y0003294877D01*
X0002940397Y0003294877D02*
X0002819740Y0003174220D01*
X0002747114Y0003249996D02*
X0002747114Y0003246846D01*
X0002747114Y0003246846D02*
X0002819740Y0003174220D01*
X0002692968Y0003249996D02*
X0002747114Y0003249996D01*
X0002819740Y0003120074D02*
X0002819740Y0003174220D01*
D55*
X0003157535Y0002794877D02*
X0003157535Y0002836610D01*
X0003157535Y0002836610D02*
X0003165409Y0002844484D01*
X0003203807Y0002867133D02*
X0003181157Y0002844484D01*
X0003203807Y0002916610D02*
X0003203807Y0002867133D01*
X0003175539Y0002944877D02*
X0003203807Y0002916610D01*
X0002744358Y0002944877D02*
X0003175539Y0002944877D01*
X0002739240Y0002949996D02*
X0002744358Y0002944877D01*
X0002692968Y0002949996D02*
X0002739240Y0002949996D01*
X0003165409Y0002844484D02*
X0003181157Y0002844484D01*
X0002692968Y0002849996D02*
X0002739240Y0002849996D01*
X0002739240Y0002849996D02*
X0002784122Y0002894877D01*
X0002784122Y0002894877D02*
X0003157535Y0002894877D01*
X0002966011Y0003151885D02*
X0003009003Y0003194877D01*
X0003009003Y0003194877D02*
X0003157535Y0003194877D01*
X0002919740Y0003120074D02*
X0002956747Y0003120074D01*
X0002966011Y0003129338D02*
X0002966011Y0003151885D01*
X0002956747Y0003120074D02*
X0002966011Y0003129338D01*
G04 next file*
G04 #@! TF.GenerationSoftware,KiCad,Pcbnew,(5.1.9)-1*
G04 #@! TF.CreationDate,2021-07-08T10:50:12+02:00*
G04 #@! TF.ProjectId,iot-postbox,696f742d-706f-4737-9462-6f782e6b6963,v0.0*
G04 #@! TF.SameCoordinates,Original*
G04 #@! TF.FileFunction,Copper,L2,Bot*
G04 #@! TF.FilePolarity,Positive*
G04 Gerber Fmt 4.6, Leading zero omitted, Abs format (unit mm)*
G04 Created by KiCad (PCBNEW (5.1.9)-1) date 2021-07-08 10:50:12*
G01*
G04 APERTURE LIST*
G04 #@! TA.AperFunction,ComponentPad*
G04 #@! TD*
G04 #@! TA.AperFunction,ComponentPad*
G04 #@! TD*
G04 #@! TA.AperFunction,ComponentPad*
G04 #@! TD*
G04 #@! TA.AperFunction,ComponentPad*
G04 #@! TD*
G04 #@! TA.AperFunction,ViaPad*
G04 #@! TD*
G04 #@! TA.AperFunction,Conductor*
G04 #@! TD*
G04 #@! TA.AperFunction,Conductor*
G04 #@! TD*
G04 APERTURE END LIST*
D56*
X-0002631259Y0007799740D02*
X0002448740Y0002035240D03*
X0002448740Y0002135240D03*
X0002448740Y0002235240D03*
X0002448740Y0002335240D03*
X0002448740Y0002435240D03*
X0002448740Y0002535240D03*
D57*
X0002448740Y0002635240D03*
X0001391574Y0001980055D03*
D56*
X0001391574Y0001880055D03*
D58*
X0001916377Y0001960370D03*
X0002113228Y0001960370D03*
D59*
X0001877007Y0001854070D03*
X0002152598Y0001854070D03*
D56*
X0002334094Y0001883992D03*
D57*
X0002434094Y0001883992D03*
D56*
X0002448661Y0003237535D03*
D57*
X0002448661Y0003137535D03*
D56*
X0002448661Y0002836748D03*
D57*
X0002448661Y0002936748D03*
D60*
X0001922740Y0002556740D03*
X0001740342Y0003084649D03*
X0002202791Y0002784775D03*
X0001739594Y0002999657D03*
X0002150775Y0002676854D03*
X0001569740Y0003367740D03*
X0002494933Y0002778791D03*
X0001963740Y0002780740D03*
X0001879740Y0002110740D03*
X0001536901Y0002984795D03*
X0001712901Y0002833834D03*
X0002064740Y0002045740D03*
X0001739425Y0002937673D03*
X0002019409Y0002388271D03*
X0001736740Y0002533740D03*
X0001662740Y0002361751D03*
X0002090740Y0002499740D03*
X0001896185Y0002156460D03*
X0001764740Y0002102740D03*
X0001895862Y0002212976D03*
X0001723740Y0002171740D03*
X0002050740Y0002523740D03*
D61*
X0001922740Y0002556740D02*
X0002079740Y0002556740D01*
X0002079740Y0002556740D02*
X0002079740Y0002555740D01*
X0002079740Y0002555740D02*
X0002334740Y0002300740D01*
X0002334740Y0002300740D02*
X0002334740Y0002190740D01*
X0002389913Y0002135566D02*
X0002448858Y0002135566D01*
X0002334740Y0002190740D02*
X0002389913Y0002135566D01*
X0002363842Y0003127314D02*
X0001783007Y0003127314D01*
X0001783007Y0003127314D02*
X0001740342Y0003084649D01*
X0002363842Y0003127314D02*
X0002494936Y0002996220D01*
X0002494936Y0002996220D02*
X0002494936Y0002895700D01*
X0002494936Y0002895700D02*
X0002489708Y0002890472D01*
X0002489708Y0002890472D02*
X0002308488Y0002890472D01*
X0002308488Y0002890472D02*
X0002202791Y0002784775D01*
X0002392003Y0003155476D02*
X0002392003Y0003218003D01*
X0002392003Y0003155476D02*
X0002363842Y0003127314D01*
X0002411535Y0003237535D02*
X0002448661Y0003237535D01*
X0002392003Y0003218003D02*
X0002411535Y0003237535D01*
X0002402389Y0002836748D02*
X0002242496Y0002676854D01*
X0002242496Y0002676854D02*
X0002150775Y0002676854D01*
X0002448661Y0002836748D02*
X0002402389Y0002836748D01*
X0002071292Y0002738631D02*
X0002133068Y0002676854D01*
X0002071292Y0002753379D02*
X0002071292Y0002738631D01*
X0001972175Y0002862393D02*
X0002030331Y0002804237D01*
X0002133068Y0002676854D02*
X0002150775Y0002676854D01*
X0001774318Y0002862393D02*
X0001972175Y0002862393D01*
X0002030331Y0002794340D02*
X0002071292Y0002753379D01*
X0001710866Y0002925846D02*
X0001774318Y0002862393D01*
X0001710866Y0002970929D02*
X0001710866Y0002925846D01*
X0002030331Y0002804237D02*
X0002030331Y0002794340D01*
X0001739594Y0002999657D02*
X0001710866Y0002970929D01*
X0001830460Y0002648066D02*
X0001507807Y0002970720D01*
X0001507807Y0002970720D02*
X0001507807Y0003270137D01*
X0001507807Y0003270137D02*
X0001569929Y0003332259D01*
X0002370740Y0002316740D02*
X0002039413Y0002648066D01*
X0002370740Y0002250740D02*
X0002370740Y0002316740D01*
X0002385913Y0002235566D02*
X0002370740Y0002250740D01*
X0002039413Y0002648066D02*
X0001981413Y0002648066D01*
X0002448858Y0002235566D02*
X0002385913Y0002235566D01*
X0001981413Y0002648066D02*
X0001830460Y0002648066D01*
X0001990086Y0002648066D02*
X0001981413Y0002648066D01*
X0001569929Y0003367551D02*
X0001569740Y0003367740D01*
X0001569929Y0003332259D02*
X0001569929Y0003367551D01*
X0002448858Y0002535566D02*
X0002448858Y0002581838D01*
X0002448858Y0002581838D02*
X0002480669Y0002581838D01*
X0002480669Y0002581838D02*
X0002495133Y0002596303D01*
X0002495133Y0002596303D02*
X0002495133Y0002778590D01*
X0002495133Y0002778590D02*
X0002494933Y0002778791D01*
X0002448858Y0002435566D02*
X0002301586Y0002435566D01*
X0002301586Y0002435566D02*
X0002020110Y0002717043D01*
X0002020110Y0002724370D02*
X0001963740Y0002780740D01*
X0002020110Y0002717043D02*
X0002020110Y0002724370D01*
D62*
X0002434094Y0001883992D02*
X0002378275Y0001828173D01*
X0002378275Y0001828173D02*
X0002312543Y0001828173D01*
X0002312543Y0001828173D02*
X0002231527Y0001909188D01*
X0001712901Y0002833834D02*
X0001687862Y0002833834D01*
X0001687862Y0002833834D02*
X0001536901Y0002984795D01*
X0001879740Y0002110740D02*
X0001998740Y0002110740D01*
X0001998740Y0002110740D02*
X0002065740Y0002043740D01*
X0002231527Y0001909188D02*
X0002087291Y0001909188D01*
X0002064740Y0001931740D02*
X0002087291Y0001909188D01*
X0002064740Y0002045740D02*
X0002064740Y0001931740D01*
X0002004740Y0002793637D02*
X0001964543Y0002833834D01*
X0001954838Y0002833834D02*
X0001712901Y0002833834D01*
X0002004740Y0002783740D02*
X0002004740Y0002793637D01*
X0002045701Y0002742779D02*
X0002004740Y0002783740D01*
X0002045701Y0002728031D02*
X0002045701Y0002742779D01*
X0001964543Y0002833834D02*
X0001954838Y0002833834D01*
X0002138165Y0002635566D02*
X0002045701Y0002728031D01*
X0002448858Y0002635566D02*
X0002138165Y0002635566D01*
X0002448661Y0002936748D02*
X0002394515Y0002936748D01*
X0001739425Y0002937673D02*
X0002393590Y0002937673D01*
X0002393590Y0002937673D02*
X0002394515Y0002936748D01*
X0002334094Y0001883992D02*
X0002334094Y0001938137D01*
X0002334094Y0001938137D02*
X0002394712Y0001998755D01*
X0002448858Y0002035566D02*
X0002409566Y0002035566D01*
X0002394712Y0002020712D02*
X0002394712Y0001998755D01*
X0002409566Y0002035566D02*
X0002394712Y0002020712D01*
X0001620708Y0002361751D02*
X0001723937Y0002361751D01*
X0001391574Y0001980055D02*
X0001391574Y0002132618D01*
X0001391574Y0002132618D02*
X0001620708Y0002361751D01*
X0001750456Y0002388271D02*
X0001723937Y0002361751D01*
X0001736740Y0002533740D02*
X0001736740Y0002511740D01*
X0001736740Y0002511740D02*
X0001745740Y0002502740D01*
X0001736740Y0002511740D02*
X0001736740Y0002501740D01*
X0001736740Y0002501740D02*
X0001754740Y0002483740D01*
X0001754740Y0002483740D02*
X0001754740Y0002435740D01*
X0001754740Y0002435740D02*
X0001775740Y0002414740D01*
X0001775740Y0002413555D02*
X0001750456Y0002388271D01*
X0001775740Y0002414740D02*
X0001775740Y0002413555D01*
X0001842740Y0002414740D02*
X0001869208Y0002388271D01*
X0001775740Y0002414740D02*
X0001842740Y0002414740D01*
X0001869208Y0002388271D02*
X0002019409Y0002388271D01*
D61*
X0001896185Y0002156460D02*
X0002078913Y0002339188D01*
X0001818460Y0002156460D02*
X0001764740Y0002102740D01*
X0001896185Y0002156460D02*
X0001818460Y0002156460D01*
X0002090740Y0002351015D02*
X0002078913Y0002339188D01*
X0002090740Y0002499740D02*
X0002090740Y0002351015D01*
X0002049224Y0002366338D02*
X0001895862Y0002212976D01*
X0001764976Y0002212976D02*
X0001723740Y0002171740D01*
X0001895862Y0002212976D02*
X0001764976Y0002212976D01*
X0002049224Y0002522224D02*
X0002050740Y0002523740D01*
X0002049224Y0002366338D02*
X0002049224Y0002522224D01*
M02*