M48
INCH,TZ
T1C0.0157
T2C0.0197
T3C0.0217
T4C0.0394
%
G90
G05
T1
X41682Y-48149
X42010Y-44320
X42940Y-54380
X43442Y-49659
X43550Y-56280
X43680Y-52660
X43707Y-48621
X43709Y-48001
X43716Y-47151
X43960Y-56970
X45110Y-56890
X45271Y-55868
X45274Y-56433
X45540Y-52430
X45950Y-50190
X46507Y-54115
X46820Y-52760
X46960Y-57540
X47220Y-53000
X47820Y-51229
X48341Y-50150
X51262Y-50209
T4
X40228Y-58197
X40228Y-59197
X49654Y-59157
X50654Y-59157
X50799Y-45622
X50799Y-46622
X50799Y-48630
X50799Y-49630
X50800Y-51645
X50800Y-52645
X50800Y-53645
X50800Y-54645
X50800Y-55645
X50800Y-56645
X50800Y-57645
T2
G00X45083Y-59329
M15
G01X45083Y-59585
M16
G05
G00X47839Y-59329
M15
G01X47839Y-59585
M16
G05
T3
G00X45417Y-58394
M15
G01X45535Y-58394
M16
G05
G00X47386Y-58394
M15
G01X47504Y-58394
M16
G05
T0
M30
