G04 #@! TF.GenerationSoftware,KiCad,Pcbnew,(5.1.9)-1*
G04 #@! TF.CreationDate,2021-07-08T12:10:21+02:00*
G04 #@! TF.ProjectId,ttl_to_usb_adapter,74746c5f-746f-45f7-9573-625f61646170,v0.0*
G04 #@! TF.SameCoordinates,Original*
G04 #@! TF.FileFunction,Legend,Top*
G04 #@! TF.FilePolarity,Positive*
%FSLAX46Y46*%
G04 Gerber Fmt 4.6, Leading zero omitted, Abs format (unit mm)*
G04 Created by KiCad (PCBNEW (5.1.9)-1) date 2021-07-08 12:10:21*
%MOMM*%
%LPD*%
G01*
G04 APERTURE LIST*
%ADD10C,0.120000*%
%ADD11C,0.150000*%
G04 APERTURE END LIST*
D10*
X169530000Y-104530000D02*
X168200000Y-104530000D01*
X169530000Y-103200000D02*
X169530000Y-104530000D01*
X169530000Y-101930000D02*
X166870000Y-101930000D01*
X166870000Y-101930000D02*
X166870000Y-86630000D01*
X169530000Y-101930000D02*
X169530000Y-86630000D01*
X169530000Y-86630000D02*
X166870000Y-86630000D01*
X160072936Y-103335000D02*
X160527064Y-103335000D01*
X160072936Y-101865000D02*
X160527064Y-101865000D01*
X160072936Y-100035000D02*
X160527064Y-100035000D01*
X160072936Y-98565000D02*
X160527064Y-98565000D01*
X160072936Y-96735000D02*
X160527064Y-96735000D01*
X160072936Y-95265000D02*
X160527064Y-95265000D01*
X162515000Y-103560000D02*
X165200000Y-103560000D01*
X162515000Y-101640000D02*
X162515000Y-103560000D01*
X165200000Y-101640000D02*
X162515000Y-101640000D01*
X162515000Y-100260000D02*
X165200000Y-100260000D01*
X162515000Y-98340000D02*
X162515000Y-100260000D01*
X165200000Y-98340000D02*
X162515000Y-98340000D01*
X162515000Y-96960000D02*
X165200000Y-96960000D01*
X162515000Y-95040000D02*
X162515000Y-96960000D01*
X165200000Y-95040000D02*
X162515000Y-95040000D01*
X157730000Y-103130000D02*
X156400000Y-103130000D01*
X157730000Y-101800000D02*
X157730000Y-103130000D01*
X157730000Y-100530000D02*
X155070000Y-100530000D01*
X155070000Y-100530000D02*
X155070000Y-87770000D01*
X157730000Y-100530000D02*
X157730000Y-87770000D01*
X157730000Y-87770000D02*
X155070000Y-87770000D01*
X162800000Y-87540000D02*
X160900000Y-87540000D01*
X161400000Y-89860000D02*
X162800000Y-89860000D01*
D11*
X165038095Y-88752380D02*
X165038095Y-89561904D01*
X165085714Y-89657142D01*
X165133333Y-89704761D01*
X165228571Y-89752380D01*
X165419047Y-89752380D01*
X165514285Y-89704761D01*
X165561904Y-89657142D01*
X165609523Y-89561904D01*
X165609523Y-88752380D01*
X166038095Y-88847619D02*
X166085714Y-88800000D01*
X166180952Y-88752380D01*
X166419047Y-88752380D01*
X166514285Y-88800000D01*
X166561904Y-88847619D01*
X166609523Y-88942857D01*
X166609523Y-89038095D01*
X166561904Y-89180952D01*
X165990476Y-89752380D01*
X166609523Y-89752380D01*
X160133333Y-101402380D02*
X159800000Y-100926190D01*
X159561904Y-101402380D02*
X159561904Y-100402380D01*
X159942857Y-100402380D01*
X160038095Y-100450000D01*
X160085714Y-100497619D01*
X160133333Y-100592857D01*
X160133333Y-100735714D01*
X160085714Y-100830952D01*
X160038095Y-100878571D01*
X159942857Y-100926190D01*
X159561904Y-100926190D01*
X160466666Y-100402380D02*
X161085714Y-100402380D01*
X160752380Y-100783333D01*
X160895238Y-100783333D01*
X160990476Y-100830952D01*
X161038095Y-100878571D01*
X161085714Y-100973809D01*
X161085714Y-101211904D01*
X161038095Y-101307142D01*
X160990476Y-101354761D01*
X160895238Y-101402380D01*
X160609523Y-101402380D01*
X160514285Y-101354761D01*
X160466666Y-101307142D01*
X160133333Y-98102380D02*
X159800000Y-97626190D01*
X159561904Y-98102380D02*
X159561904Y-97102380D01*
X159942857Y-97102380D01*
X160038095Y-97150000D01*
X160085714Y-97197619D01*
X160133333Y-97292857D01*
X160133333Y-97435714D01*
X160085714Y-97530952D01*
X160038095Y-97578571D01*
X159942857Y-97626190D01*
X159561904Y-97626190D01*
X160514285Y-97197619D02*
X160561904Y-97150000D01*
X160657142Y-97102380D01*
X160895238Y-97102380D01*
X160990476Y-97150000D01*
X161038095Y-97197619D01*
X161085714Y-97292857D01*
X161085714Y-97388095D01*
X161038095Y-97530952D01*
X160466666Y-98102380D01*
X161085714Y-98102380D01*
X160133333Y-94802380D02*
X159800000Y-94326190D01*
X159561904Y-94802380D02*
X159561904Y-93802380D01*
X159942857Y-93802380D01*
X160038095Y-93850000D01*
X160085714Y-93897619D01*
X160133333Y-93992857D01*
X160133333Y-94135714D01*
X160085714Y-94230952D01*
X160038095Y-94278571D01*
X159942857Y-94326190D01*
X159561904Y-94326190D01*
X161085714Y-94802380D02*
X160514285Y-94802380D01*
X160800000Y-94802380D02*
X160800000Y-93802380D01*
X160704761Y-93945238D01*
X160609523Y-94040476D01*
X160514285Y-94088095D01*
X162723809Y-100500000D02*
X162628571Y-100452380D01*
X162485714Y-100452380D01*
X162342857Y-100500000D01*
X162247619Y-100595238D01*
X162200000Y-100690476D01*
X162152380Y-100880952D01*
X162152380Y-101023809D01*
X162200000Y-101214285D01*
X162247619Y-101309523D01*
X162342857Y-101404761D01*
X162485714Y-101452380D01*
X162580952Y-101452380D01*
X162723809Y-101404761D01*
X162771428Y-101357142D01*
X162771428Y-101023809D01*
X162580952Y-101023809D01*
X163200000Y-101452380D02*
X163200000Y-100452380D01*
X163580952Y-100452380D01*
X163676190Y-100500000D01*
X163723809Y-100547619D01*
X163771428Y-100642857D01*
X163771428Y-100785714D01*
X163723809Y-100880952D01*
X163676190Y-100928571D01*
X163580952Y-100976190D01*
X163200000Y-100976190D01*
X164200000Y-101452380D02*
X164200000Y-100452380D01*
X164866666Y-100452380D02*
X165057142Y-100452380D01*
X165152380Y-100500000D01*
X165247619Y-100595238D01*
X165295238Y-100785714D01*
X165295238Y-101119047D01*
X165247619Y-101309523D01*
X165152380Y-101404761D01*
X165057142Y-101452380D01*
X164866666Y-101452380D01*
X164771428Y-101404761D01*
X164676190Y-101309523D01*
X164628571Y-101119047D01*
X164628571Y-100785714D01*
X164676190Y-100595238D01*
X164771428Y-100500000D01*
X164866666Y-100452380D01*
X165914285Y-100452380D02*
X166009523Y-100452380D01*
X166104761Y-100500000D01*
X166152380Y-100547619D01*
X166200000Y-100642857D01*
X166247619Y-100833333D01*
X166247619Y-101071428D01*
X166200000Y-101261904D01*
X166152380Y-101357142D01*
X166104761Y-101404761D01*
X166009523Y-101452380D01*
X165914285Y-101452380D01*
X165819047Y-101404761D01*
X165771428Y-101357142D01*
X165723809Y-101261904D01*
X165676190Y-101071428D01*
X165676190Y-100833333D01*
X165723809Y-100642857D01*
X165771428Y-100547619D01*
X165819047Y-100500000D01*
X165914285Y-100452380D01*
X163652380Y-98152380D02*
X163319047Y-97676190D01*
X163080952Y-98152380D02*
X163080952Y-97152380D01*
X163461904Y-97152380D01*
X163557142Y-97200000D01*
X163604761Y-97247619D01*
X163652380Y-97342857D01*
X163652380Y-97485714D01*
X163604761Y-97580952D01*
X163557142Y-97628571D01*
X163461904Y-97676190D01*
X163080952Y-97676190D01*
X164033333Y-98104761D02*
X164176190Y-98152380D01*
X164414285Y-98152380D01*
X164509523Y-98104761D01*
X164557142Y-98057142D01*
X164604761Y-97961904D01*
X164604761Y-97866666D01*
X164557142Y-97771428D01*
X164509523Y-97723809D01*
X164414285Y-97676190D01*
X164223809Y-97628571D01*
X164128571Y-97580952D01*
X164080952Y-97533333D01*
X164033333Y-97438095D01*
X164033333Y-97342857D01*
X164080952Y-97247619D01*
X164128571Y-97200000D01*
X164223809Y-97152380D01*
X164461904Y-97152380D01*
X164604761Y-97200000D01*
X164890476Y-97152380D02*
X165461904Y-97152380D01*
X165176190Y-98152380D02*
X165176190Y-97152380D01*
X162604761Y-94707142D02*
X162557142Y-94754761D01*
X162414285Y-94802380D01*
X162319047Y-94802380D01*
X162176190Y-94754761D01*
X162080952Y-94659523D01*
X162033333Y-94564285D01*
X161985714Y-94373809D01*
X161985714Y-94230952D01*
X162033333Y-94040476D01*
X162080952Y-93945238D01*
X162176190Y-93850000D01*
X162319047Y-93802380D01*
X162414285Y-93802380D01*
X162557142Y-93850000D01*
X162604761Y-93897619D01*
X163033333Y-94802380D02*
X163033333Y-93802380D01*
X163033333Y-94278571D02*
X163604761Y-94278571D01*
X163604761Y-94802380D02*
X163604761Y-93802380D01*
X163842857Y-94897619D02*
X164604761Y-94897619D01*
X164842857Y-94802380D02*
X164842857Y-93802380D01*
X165223809Y-93802380D01*
X165319047Y-93850000D01*
X165366666Y-93897619D01*
X165414285Y-93992857D01*
X165414285Y-94135714D01*
X165366666Y-94230952D01*
X165319047Y-94278571D01*
X165223809Y-94326190D01*
X164842857Y-94326190D01*
X165842857Y-94802380D02*
X165842857Y-93802380D01*
X166080952Y-93802380D01*
X166223809Y-93850000D01*
X166319047Y-93945238D01*
X166366666Y-94040476D01*
X166414285Y-94230952D01*
X166414285Y-94373809D01*
X166366666Y-94564285D01*
X166319047Y-94659523D01*
X166223809Y-94754761D01*
X166080952Y-94802380D01*
X165842857Y-94802380D01*
X158138095Y-88752380D02*
X158138095Y-89561904D01*
X158185714Y-89657142D01*
X158233333Y-89704761D01*
X158328571Y-89752380D01*
X158519047Y-89752380D01*
X158614285Y-89704761D01*
X158661904Y-89657142D01*
X158709523Y-89561904D01*
X158709523Y-88752380D01*
X159709523Y-89752380D02*
X159138095Y-89752380D01*
X159423809Y-89752380D02*
X159423809Y-88752380D01*
X159328571Y-88895238D01*
X159233333Y-88990476D01*
X159138095Y-89038095D01*
X162071061Y-91339919D02*
X161975823Y-91292300D01*
X161880585Y-91197061D01*
X161737728Y-91054204D01*
X161642490Y-91006585D01*
X161547252Y-91006585D01*
X161594871Y-91244680D02*
X161499633Y-91197061D01*
X161404395Y-91101823D01*
X161356776Y-90911347D01*
X161356776Y-90578014D01*
X161404395Y-90387538D01*
X161499633Y-90292300D01*
X161594871Y-90244680D01*
X161785347Y-90244680D01*
X161880585Y-90292300D01*
X161975823Y-90387538D01*
X162023442Y-90578014D01*
X162023442Y-90911347D01*
X161975823Y-91101823D01*
X161880585Y-91197061D01*
X161785347Y-91244680D01*
X161594871Y-91244680D01*
X162975823Y-91244680D02*
X162404395Y-91244680D01*
X162690109Y-91244680D02*
X162690109Y-90244680D01*
X162594871Y-90387538D01*
X162499633Y-90482776D01*
X162404395Y-90530395D01*
M02*
