G04 #@! TF.GenerationSoftware,KiCad,Pcbnew,(5.1.9)-1*
G04 #@! TF.CreationDate,2021-07-08T12:10:21+02:00*
G04 #@! TF.ProjectId,ttl_to_usb_adapter,74746c5f-746f-45f7-9573-625f61646170,v0.0*
G04 #@! TF.SameCoordinates,Original*
G04 #@! TF.FileFunction,Copper,L1,Top*
G04 #@! TF.FilePolarity,Positive*
%FSLAX46Y46*%
G04 Gerber Fmt 4.6, Leading zero omitted, Abs format (unit mm)*
G04 Created by KiCad (PCBNEW (5.1.9)-1) date 2021-07-08 12:10:21*
%MOMM*%
%LPD*%
G01*
G04 APERTURE LIST*
G04 #@! TA.AperFunction,ComponentPad*
%ADD10O,1.700000X1.700000*%
G04 #@! TD*
G04 #@! TA.AperFunction,ComponentPad*
%ADD11R,1.700000X1.700000*%
G04 #@! TD*
G04 #@! TA.AperFunction,SMDPad,CuDef*
%ADD12R,0.650000X0.400000*%
G04 #@! TD*
G04 #@! TA.AperFunction,Conductor*
%ADD13C,0.650000*%
G04 #@! TD*
G04 #@! TA.AperFunction,Conductor*
%ADD14C,0.250000*%
G04 #@! TD*
G04 APERTURE END LIST*
D10*
X168200000Y-87960000D03*
X168200000Y-90500000D03*
X168200000Y-93040000D03*
X168200000Y-95580000D03*
X168200000Y-98120000D03*
X168200000Y-100660000D03*
D11*
X168200000Y-103200000D03*
G04 #@! TA.AperFunction,SMDPad,CuDef*
G36*
G01*
X158875000Y-103050002D02*
X158875000Y-102149998D01*
G75*
G02*
X159124998Y-101900000I249998J0D01*
G01*
X159650002Y-101900000D01*
G75*
G02*
X159900000Y-102149998I0J-249998D01*
G01*
X159900000Y-103050002D01*
G75*
G02*
X159650002Y-103300000I-249998J0D01*
G01*
X159124998Y-103300000D01*
G75*
G02*
X158875000Y-103050002I0J249998D01*
G01*
G37*
G04 #@! TD.AperFunction*
G04 #@! TA.AperFunction,SMDPad,CuDef*
G36*
G01*
X160700000Y-103050002D02*
X160700000Y-102149998D01*
G75*
G02*
X160949998Y-101900000I249998J0D01*
G01*
X161475002Y-101900000D01*
G75*
G02*
X161725000Y-102149998I0J-249998D01*
G01*
X161725000Y-103050002D01*
G75*
G02*
X161475002Y-103300000I-249998J0D01*
G01*
X160949998Y-103300000D01*
G75*
G02*
X160700000Y-103050002I0J249998D01*
G01*
G37*
G04 #@! TD.AperFunction*
G04 #@! TA.AperFunction,SMDPad,CuDef*
G36*
G01*
X158875000Y-99750002D02*
X158875000Y-98849998D01*
G75*
G02*
X159124998Y-98600000I249998J0D01*
G01*
X159650002Y-98600000D01*
G75*
G02*
X159900000Y-98849998I0J-249998D01*
G01*
X159900000Y-99750002D01*
G75*
G02*
X159650002Y-100000000I-249998J0D01*
G01*
X159124998Y-100000000D01*
G75*
G02*
X158875000Y-99750002I0J249998D01*
G01*
G37*
G04 #@! TD.AperFunction*
G04 #@! TA.AperFunction,SMDPad,CuDef*
G36*
G01*
X160700000Y-99750002D02*
X160700000Y-98849998D01*
G75*
G02*
X160949998Y-98600000I249998J0D01*
G01*
X161475002Y-98600000D01*
G75*
G02*
X161725000Y-98849998I0J-249998D01*
G01*
X161725000Y-99750002D01*
G75*
G02*
X161475002Y-100000000I-249998J0D01*
G01*
X160949998Y-100000000D01*
G75*
G02*
X160700000Y-99750002I0J249998D01*
G01*
G37*
G04 #@! TD.AperFunction*
G04 #@! TA.AperFunction,SMDPad,CuDef*
G36*
G01*
X158875000Y-96450002D02*
X158875000Y-95549998D01*
G75*
G02*
X159124998Y-95300000I249998J0D01*
G01*
X159650002Y-95300000D01*
G75*
G02*
X159900000Y-95549998I0J-249998D01*
G01*
X159900000Y-96450002D01*
G75*
G02*
X159650002Y-96700000I-249998J0D01*
G01*
X159124998Y-96700000D01*
G75*
G02*
X158875000Y-96450002I0J249998D01*
G01*
G37*
G04 #@! TD.AperFunction*
G04 #@! TA.AperFunction,SMDPad,CuDef*
G36*
G01*
X160700000Y-96450002D02*
X160700000Y-95549998D01*
G75*
G02*
X160949998Y-95300000I249998J0D01*
G01*
X161475002Y-95300000D01*
G75*
G02*
X161725000Y-95549998I0J-249998D01*
G01*
X161725000Y-96450002D01*
G75*
G02*
X161475002Y-96700000I-249998J0D01*
G01*
X160949998Y-96700000D01*
G75*
G02*
X160700000Y-96450002I0J249998D01*
G01*
G37*
G04 #@! TD.AperFunction*
X164700000Y-92400000D03*
D10*
X162160000Y-92400000D03*
X159620000Y-92400000D03*
G04 #@! TA.AperFunction,SMDPad,CuDef*
G36*
G01*
X162775000Y-103056250D02*
X162775000Y-102143750D01*
G75*
G02*
X163018750Y-101900000I243750J0D01*
G01*
X163506250Y-101900000D01*
G75*
G02*
X163750000Y-102143750I0J-243750D01*
G01*
X163750000Y-103056250D01*
G75*
G02*
X163506250Y-103300000I-243750J0D01*
G01*
X163018750Y-103300000D01*
G75*
G02*
X162775000Y-103056250I0J243750D01*
G01*
G37*
G04 #@! TD.AperFunction*
G04 #@! TA.AperFunction,SMDPad,CuDef*
G36*
G01*
X164650000Y-103056250D02*
X164650000Y-102143750D01*
G75*
G02*
X164893750Y-101900000I243750J0D01*
G01*
X165381250Y-101900000D01*
G75*
G02*
X165625000Y-102143750I0J-243750D01*
G01*
X165625000Y-103056250D01*
G75*
G02*
X165381250Y-103300000I-243750J0D01*
G01*
X164893750Y-103300000D01*
G75*
G02*
X164650000Y-103056250I0J243750D01*
G01*
G37*
G04 #@! TD.AperFunction*
G04 #@! TA.AperFunction,SMDPad,CuDef*
G36*
G01*
X162775000Y-99756250D02*
X162775000Y-98843750D01*
G75*
G02*
X163018750Y-98600000I243750J0D01*
G01*
X163506250Y-98600000D01*
G75*
G02*
X163750000Y-98843750I0J-243750D01*
G01*
X163750000Y-99756250D01*
G75*
G02*
X163506250Y-100000000I-243750J0D01*
G01*
X163018750Y-100000000D01*
G75*
G02*
X162775000Y-99756250I0J243750D01*
G01*
G37*
G04 #@! TD.AperFunction*
G04 #@! TA.AperFunction,SMDPad,CuDef*
G36*
G01*
X164650000Y-99756250D02*
X164650000Y-98843750D01*
G75*
G02*
X164893750Y-98600000I243750J0D01*
G01*
X165381250Y-98600000D01*
G75*
G02*
X165625000Y-98843750I0J-243750D01*
G01*
X165625000Y-99756250D01*
G75*
G02*
X165381250Y-100000000I-243750J0D01*
G01*
X164893750Y-100000000D01*
G75*
G02*
X164650000Y-99756250I0J243750D01*
G01*
G37*
G04 #@! TD.AperFunction*
G04 #@! TA.AperFunction,SMDPad,CuDef*
G36*
G01*
X162775000Y-96456250D02*
X162775000Y-95543750D01*
G75*
G02*
X163018750Y-95300000I243750J0D01*
G01*
X163506250Y-95300000D01*
G75*
G02*
X163750000Y-95543750I0J-243750D01*
G01*
X163750000Y-96456250D01*
G75*
G02*
X163506250Y-96700000I-243750J0D01*
G01*
X163018750Y-96700000D01*
G75*
G02*
X162775000Y-96456250I0J243750D01*
G01*
G37*
G04 #@! TD.AperFunction*
G04 #@! TA.AperFunction,SMDPad,CuDef*
G36*
G01*
X164650000Y-96456250D02*
X164650000Y-95543750D01*
G75*
G02*
X164893750Y-95300000I243750J0D01*
G01*
X165381250Y-95300000D01*
G75*
G02*
X165625000Y-95543750I0J-243750D01*
G01*
X165625000Y-96456250D01*
G75*
G02*
X165381250Y-96700000I-243750J0D01*
G01*
X164893750Y-96700000D01*
G75*
G02*
X164650000Y-96456250I0J243750D01*
G01*
G37*
G04 #@! TD.AperFunction*
X156400000Y-89100000D03*
X156400000Y-91640000D03*
X156400000Y-94180000D03*
X156400000Y-96720000D03*
X156400000Y-99260000D03*
D11*
X156400000Y-101800000D03*
D12*
X161150000Y-88050000D03*
X161150000Y-89350000D03*
X163050000Y-88700000D03*
X161150000Y-88700000D03*
X163050000Y-89350000D03*
X163050000Y-88050000D03*
D13*
X168200000Y-103200000D02*
X166824700Y-103200000D01*
X159387500Y-102600000D02*
X160672200Y-103884700D01*
X160672200Y-103884700D02*
X166140000Y-103884700D01*
X166140000Y-103884700D02*
X166824700Y-103200000D01*
X158587500Y-101800000D02*
X159387500Y-102600000D01*
X159387500Y-99300000D02*
X158587500Y-100100000D01*
X158587500Y-100100000D02*
X158587500Y-101800000D01*
X159387500Y-96000000D02*
X159387500Y-99300000D01*
X156400000Y-101800000D02*
X158587500Y-101800000D01*
X164700000Y-92400000D02*
X162795200Y-94304800D01*
X162795200Y-94304800D02*
X161082700Y-94304800D01*
X161082700Y-94304800D02*
X159387500Y-96000000D01*
D14*
X165137500Y-96000000D02*
X165137500Y-94962500D01*
X165137500Y-94962500D02*
X166400000Y-93700000D01*
X166400000Y-93700000D02*
X166400000Y-91100000D01*
X167000000Y-90500000D02*
X168200000Y-90500000D01*
X166400000Y-91100000D02*
X167000000Y-90500000D01*
X163262500Y-96000000D02*
X161212500Y-96000000D01*
X163050000Y-88050000D02*
X164555400Y-88050000D01*
X164555400Y-88050000D02*
X165735400Y-89230000D01*
X165735400Y-89230000D02*
X168657300Y-89230000D01*
X168657300Y-89230000D02*
X169389500Y-89962200D01*
X169389500Y-89962200D02*
X169389500Y-91850500D01*
X169389500Y-91850500D02*
X168200000Y-93040000D01*
X168200000Y-93040000D02*
X167160000Y-93040000D01*
X166850010Y-93349990D02*
X166850010Y-94149990D01*
X167160000Y-93040000D02*
X166850010Y-93349990D01*
X166850010Y-94149990D02*
X166268750Y-94731250D01*
X166268750Y-94731250D02*
X166268750Y-98168750D01*
X166268750Y-98168750D02*
X165137500Y-99300000D01*
X163262500Y-99300000D02*
X161212500Y-99300000D01*
X165137500Y-102600000D02*
X165137500Y-100821300D01*
X165137500Y-100821300D02*
X165131200Y-100815000D01*
X161150000Y-89350000D02*
X162384300Y-90584300D01*
X162384300Y-90584300D02*
X165097600Y-90584300D01*
X165097600Y-90584300D02*
X165875400Y-91362100D01*
X165875400Y-91362100D02*
X165875400Y-93409500D01*
X165875400Y-93409500D02*
X164321700Y-94963200D01*
X164321700Y-94963200D02*
X164321700Y-100005500D01*
X164321700Y-100005500D02*
X165131200Y-100815000D01*
X168200000Y-95580000D02*
X168200000Y-96200000D01*
X168200000Y-95580000D02*
X166920000Y-95580000D01*
X166920000Y-95580000D02*
X166718760Y-95781240D01*
X166718760Y-99227440D02*
X166623100Y-99323100D01*
X166718760Y-95781240D02*
X166718760Y-99227440D01*
X165131200Y-100815000D02*
X166623100Y-99323100D01*
X163262500Y-102600000D02*
X161212500Y-102600000D01*
X156400000Y-91640000D02*
X159990000Y-88050000D01*
X159990000Y-88050000D02*
X161150000Y-88050000D01*
X163050000Y-88700000D02*
X162399700Y-88700000D01*
X161150000Y-88050000D02*
X161823100Y-88050000D01*
X161823100Y-88050000D02*
X162399700Y-88626600D01*
X162399700Y-88626600D02*
X162399700Y-88700000D01*
X161475200Y-88700000D02*
X161150000Y-88700000D01*
X161475200Y-88700000D02*
X161800300Y-88700000D01*
X163050000Y-89350000D02*
X162399700Y-89350000D01*
X162399700Y-89350000D02*
X161800300Y-88750600D01*
X161800300Y-88750600D02*
X161800300Y-88700000D01*
X156400000Y-94180000D02*
X157720000Y-94180000D01*
X158186050Y-93713950D02*
X158186050Y-91586050D01*
X157720000Y-94180000D02*
X158186050Y-93713950D01*
X161150000Y-88700000D02*
X160200000Y-88700000D01*
X159936050Y-88963950D02*
X159936050Y-89836050D01*
X160200000Y-88700000D02*
X159936050Y-88963950D01*
X159936050Y-89836050D02*
X158186050Y-91586050D01*
M02*
