G04 #@! TF.GenerationSoftware,KiCad,Pcbnew,(5.1.9)-1*
G04 #@! TF.CreationDate,2021-07-08T12:10:21+02:00*
G04 #@! TF.ProjectId,ttl_to_usb_adapter,74746c5f-746f-45f7-9573-625f61646170,v0.0*
G04 #@! TF.SameCoordinates,Original*
G04 #@! TF.FileFunction,Legend,Bot*
G04 #@! TF.FilePolarity,Positive*
%FSLAX46Y46*%
G04 Gerber Fmt 4.6, Leading zero omitted, Abs format (unit mm)*
G04 Created by KiCad (PCBNEW (5.1.9)-1) date 2021-07-08 12:10:21*
%MOMM*%
%LPD*%
G01*
G04 APERTURE LIST*
%ADD10C,0.200000*%
%ADD11C,0.150000*%
%ADD12C,0.120000*%
G04 APERTURE END LIST*
D10*
X157684285Y-86928571D02*
X157560476Y-87461904D01*
X157303333Y-86928571D01*
X156812857Y-86661904D02*
X156736666Y-86661904D01*
X156665238Y-86700000D01*
X156631904Y-86738095D01*
X156603333Y-86814285D01*
X156584285Y-86966666D01*
X156608095Y-87157142D01*
X156665238Y-87309523D01*
X156712857Y-87385714D01*
X156755714Y-87423809D01*
X156836666Y-87461904D01*
X156912857Y-87461904D01*
X156984285Y-87423809D01*
X157017619Y-87385714D01*
X157046190Y-87309523D01*
X157065238Y-87157142D01*
X157041428Y-86966666D01*
X156984285Y-86814285D01*
X156936666Y-86738095D01*
X156893809Y-86700000D01*
X156812857Y-86661904D01*
X156293809Y-87385714D02*
X156260476Y-87423809D01*
X156303333Y-87461904D01*
X156336666Y-87423809D01*
X156293809Y-87385714D01*
X156303333Y-87461904D01*
X155670000Y-86661904D02*
X155593809Y-86661904D01*
X155522380Y-86700000D01*
X155489047Y-86738095D01*
X155460476Y-86814285D01*
X155441428Y-86966666D01*
X155465238Y-87157142D01*
X155522380Y-87309523D01*
X155570000Y-87385714D01*
X155612857Y-87423809D01*
X155693809Y-87461904D01*
X155770000Y-87461904D01*
X155841428Y-87423809D01*
X155874761Y-87385714D01*
X155903333Y-87309523D01*
X155922380Y-87157142D01*
X155898571Y-86966666D01*
X155841428Y-86814285D01*
X155793809Y-86738095D01*
X155750952Y-86700000D01*
X155670000Y-86661904D01*
X166189047Y-103661904D02*
X165731904Y-103661904D01*
X166060476Y-104461904D02*
X165960476Y-103661904D01*
X165579523Y-103661904D02*
X165122380Y-103661904D01*
X165450952Y-104461904D02*
X165350952Y-103661904D01*
X164574761Y-104461904D02*
X164955714Y-104461904D01*
X164855714Y-103661904D01*
X163746190Y-103928571D02*
X163441428Y-103928571D01*
X163598571Y-103661904D02*
X163684285Y-104347619D01*
X163655714Y-104423809D01*
X163584285Y-104461904D01*
X163508095Y-104461904D01*
X163127142Y-104461904D02*
X163198571Y-104423809D01*
X163231904Y-104385714D01*
X163260476Y-104309523D01*
X163231904Y-104080952D01*
X163184285Y-104004761D01*
X163141428Y-103966666D01*
X163060476Y-103928571D01*
X162946190Y-103928571D01*
X162874761Y-103966666D01*
X162841428Y-104004761D01*
X162812857Y-104080952D01*
X162841428Y-104309523D01*
X162889047Y-104385714D01*
X162931904Y-104423809D01*
X163012857Y-104461904D01*
X163127142Y-104461904D01*
X161808095Y-103661904D02*
X161889047Y-104309523D01*
X161860476Y-104385714D01*
X161827142Y-104423809D01*
X161755714Y-104461904D01*
X161603333Y-104461904D01*
X161522380Y-104423809D01*
X161479523Y-104385714D01*
X161431904Y-104309523D01*
X161350952Y-103661904D01*
X161103333Y-104423809D02*
X160993809Y-104461904D01*
X160803333Y-104461904D01*
X160722380Y-104423809D01*
X160679523Y-104385714D01*
X160631904Y-104309523D01*
X160622380Y-104233333D01*
X160650952Y-104157142D01*
X160684285Y-104119047D01*
X160755714Y-104080952D01*
X160903333Y-104042857D01*
X160974761Y-104004761D01*
X161008095Y-103966666D01*
X161036666Y-103890476D01*
X161027142Y-103814285D01*
X160979523Y-103738095D01*
X160936666Y-103700000D01*
X160855714Y-103661904D01*
X160665238Y-103661904D01*
X160555714Y-103700000D01*
X159989047Y-104042857D02*
X159879523Y-104080952D01*
X159846190Y-104119047D01*
X159817619Y-104195238D01*
X159831904Y-104309523D01*
X159879523Y-104385714D01*
X159922380Y-104423809D01*
X160003333Y-104461904D01*
X160308095Y-104461904D01*
X160208095Y-103661904D01*
X159941428Y-103661904D01*
X159870000Y-103700000D01*
X159836666Y-103738095D01*
X159808095Y-103814285D01*
X159817619Y-103890476D01*
X159865238Y-103966666D01*
X159908095Y-104004761D01*
X159989047Y-104042857D01*
X160255714Y-104042857D01*
X158555714Y-104461904D02*
X158503333Y-104042857D01*
X158531904Y-103966666D01*
X158603333Y-103928571D01*
X158755714Y-103928571D01*
X158836666Y-103966666D01*
X158550952Y-104423809D02*
X158631904Y-104461904D01*
X158822380Y-104461904D01*
X158893809Y-104423809D01*
X158922380Y-104347619D01*
X158912857Y-104271428D01*
X158865238Y-104195238D01*
X158784285Y-104157142D01*
X158593809Y-104157142D01*
X158512857Y-104119047D01*
X157831904Y-104461904D02*
X157731904Y-103661904D01*
X157827142Y-104423809D02*
X157908095Y-104461904D01*
X158060476Y-104461904D01*
X158131904Y-104423809D01*
X158165238Y-104385714D01*
X158193809Y-104309523D01*
X158165238Y-104080952D01*
X158117619Y-104004761D01*
X158074761Y-103966666D01*
X157993809Y-103928571D01*
X157841428Y-103928571D01*
X157770000Y-103966666D01*
X157108095Y-104461904D02*
X157055714Y-104042857D01*
X157084285Y-103966666D01*
X157155714Y-103928571D01*
X157308095Y-103928571D01*
X157389047Y-103966666D01*
X157103333Y-104423809D02*
X157184285Y-104461904D01*
X157374761Y-104461904D01*
X157446190Y-104423809D01*
X157474761Y-104347619D01*
X157465238Y-104271428D01*
X157417619Y-104195238D01*
X157336666Y-104157142D01*
X157146190Y-104157142D01*
X157065238Y-104119047D01*
X156660476Y-103928571D02*
X156760476Y-104728571D01*
X156665238Y-103966666D02*
X156584285Y-103928571D01*
X156431904Y-103928571D01*
X156360476Y-103966666D01*
X156327142Y-104004761D01*
X156298571Y-104080952D01*
X156327142Y-104309523D01*
X156374761Y-104385714D01*
X156417619Y-104423809D01*
X156498571Y-104461904D01*
X156650952Y-104461904D01*
X156722380Y-104423809D01*
X156050952Y-103928571D02*
X155746190Y-103928571D01*
X155903333Y-103661904D02*
X155989047Y-104347619D01*
X155960476Y-104423809D01*
X155889047Y-104461904D01*
X155812857Y-104461904D01*
X155236666Y-104423809D02*
X155317619Y-104461904D01*
X155470000Y-104461904D01*
X155541428Y-104423809D01*
X155570000Y-104347619D01*
X155531904Y-104042857D01*
X155484285Y-103966666D01*
X155403333Y-103928571D01*
X155250952Y-103928571D01*
X155179523Y-103966666D01*
X155150952Y-104042857D01*
X155160476Y-104119047D01*
X155550952Y-104195238D01*
X154860476Y-104461904D02*
X154793809Y-103928571D01*
X154812857Y-104080952D02*
X154765238Y-104004761D01*
X154722380Y-103966666D01*
X154641428Y-103928571D01*
X154565238Y-103928571D01*
D11*
X166173930Y-102200000D02*
X166231073Y-102171428D01*
X166316787Y-102171428D01*
X166402501Y-102200000D01*
X166459644Y-102257142D01*
X166488215Y-102314285D01*
X166516787Y-102428571D01*
X166516787Y-102514285D01*
X166488215Y-102628571D01*
X166459644Y-102685714D01*
X166402501Y-102742857D01*
X166316787Y-102771428D01*
X166259644Y-102771428D01*
X166173930Y-102742857D01*
X166145358Y-102714285D01*
X166145358Y-102514285D01*
X166259644Y-102514285D01*
X165888215Y-102771428D02*
X165888215Y-102171428D01*
X165545358Y-102771428D01*
X165545358Y-102171428D01*
X165259644Y-102771428D02*
X165259644Y-102171428D01*
X165116787Y-102171428D01*
X165031073Y-102200000D01*
X164973930Y-102257142D01*
X164945358Y-102314285D01*
X164916787Y-102428571D01*
X164916787Y-102514285D01*
X164945358Y-102628571D01*
X164973930Y-102685714D01*
X165031073Y-102742857D01*
X165116787Y-102771428D01*
X165259644Y-102771428D01*
X166145358Y-101771428D02*
X166345358Y-101485714D01*
X166488215Y-101771428D02*
X166488215Y-101171428D01*
X166259644Y-101171428D01*
X166202501Y-101200000D01*
X166173930Y-101228571D01*
X166145358Y-101285714D01*
X166145358Y-101371428D01*
X166173930Y-101428571D01*
X166202501Y-101457142D01*
X166259644Y-101485714D01*
X166488215Y-101485714D01*
X165945358Y-101171428D02*
X165545358Y-101771428D01*
X165545358Y-101171428D02*
X165945358Y-101771428D01*
X166573930Y-100171428D02*
X166231073Y-100171428D01*
X166402501Y-100771428D02*
X166402501Y-100171428D01*
X166088215Y-100171428D02*
X165688215Y-100771428D01*
X165688215Y-100171428D02*
X166088215Y-100771428D01*
X166145358Y-97714285D02*
X166173930Y-97742857D01*
X166259644Y-97771428D01*
X166316787Y-97771428D01*
X166402501Y-97742857D01*
X166459644Y-97685714D01*
X166488215Y-97628571D01*
X166516787Y-97514285D01*
X166516787Y-97428571D01*
X166488215Y-97314285D01*
X166459644Y-97257142D01*
X166402501Y-97200000D01*
X166316787Y-97171428D01*
X166259644Y-97171428D01*
X166173930Y-97200000D01*
X166145358Y-97228571D01*
X165888215Y-97771428D02*
X165888215Y-97171428D01*
X165888215Y-97457142D02*
X165545358Y-97457142D01*
X165545358Y-97771428D02*
X165545358Y-97171428D01*
X165402501Y-97828571D02*
X164945358Y-97828571D01*
X164802501Y-97771428D02*
X164802501Y-97171428D01*
X164573930Y-97171428D01*
X164516787Y-97200000D01*
X164488215Y-97228571D01*
X164459644Y-97285714D01*
X164459644Y-97371428D01*
X164488215Y-97428571D01*
X164516787Y-97457142D01*
X164573930Y-97485714D01*
X164802501Y-97485714D01*
X164202501Y-97771428D02*
X164202501Y-97171428D01*
X164059644Y-97171428D01*
X163973930Y-97200000D01*
X163916787Y-97257142D01*
X163888215Y-97314285D01*
X163859644Y-97428571D01*
X163859644Y-97514285D01*
X163888215Y-97628571D01*
X163916787Y-97685714D01*
X163973930Y-97742857D01*
X164059644Y-97771428D01*
X164202501Y-97771428D01*
X166545358Y-96171428D02*
X166173930Y-96171428D01*
X166373930Y-96400000D01*
X166288215Y-96400000D01*
X166231073Y-96428571D01*
X166202501Y-96457142D01*
X166173930Y-96514285D01*
X166173930Y-96657142D01*
X166202501Y-96714285D01*
X166231073Y-96742857D01*
X166288215Y-96771428D01*
X166459644Y-96771428D01*
X166516787Y-96742857D01*
X166545358Y-96714285D01*
X166002501Y-96171428D02*
X165802501Y-96771428D01*
X165602501Y-96171428D01*
X165459644Y-96171428D02*
X165088215Y-96171428D01*
X165288215Y-96400000D01*
X165202501Y-96400000D01*
X165145358Y-96428571D01*
X165116787Y-96457142D01*
X165088215Y-96514285D01*
X165088215Y-96657142D01*
X165116787Y-96714285D01*
X165145358Y-96742857D01*
X165202501Y-96771428D01*
X165373930Y-96771428D01*
X165431073Y-96742857D01*
X165459644Y-96714285D01*
X166173930Y-99200000D02*
X166231073Y-99171428D01*
X166316787Y-99171428D01*
X166402501Y-99200000D01*
X166459644Y-99257142D01*
X166488215Y-99314285D01*
X166516787Y-99428571D01*
X166516787Y-99514285D01*
X166488215Y-99628571D01*
X166459644Y-99685714D01*
X166402501Y-99742857D01*
X166316787Y-99771428D01*
X166259644Y-99771428D01*
X166173930Y-99742857D01*
X166145358Y-99714285D01*
X166145358Y-99514285D01*
X166259644Y-99514285D01*
X165888215Y-99771428D02*
X165888215Y-99171428D01*
X165659644Y-99171428D01*
X165602501Y-99200000D01*
X165573930Y-99228571D01*
X165545358Y-99285714D01*
X165545358Y-99371428D01*
X165573930Y-99428571D01*
X165602501Y-99457142D01*
X165659644Y-99485714D01*
X165888215Y-99485714D01*
X165288215Y-99771428D02*
X165288215Y-99171428D01*
X164888215Y-99171428D02*
X164773930Y-99171428D01*
X164716787Y-99200000D01*
X164659644Y-99257142D01*
X164631073Y-99371428D01*
X164631073Y-99571428D01*
X164659644Y-99685714D01*
X164716787Y-99742857D01*
X164773930Y-99771428D01*
X164888215Y-99771428D01*
X164945358Y-99742857D01*
X165002501Y-99685714D01*
X165031073Y-99571428D01*
X165031073Y-99371428D01*
X165002501Y-99257142D01*
X164945358Y-99200000D01*
X164888215Y-99171428D01*
X164259644Y-99171428D02*
X164202501Y-99171428D01*
X164145358Y-99200000D01*
X164116787Y-99228571D01*
X164088215Y-99285714D01*
X164059644Y-99400000D01*
X164059644Y-99542857D01*
X164088215Y-99657142D01*
X164116787Y-99714285D01*
X164145358Y-99742857D01*
X164202501Y-99771428D01*
X164259644Y-99771428D01*
X164316787Y-99742857D01*
X164345358Y-99714285D01*
X164373930Y-99657142D01*
X164402501Y-99542857D01*
X164402501Y-99400000D01*
X164373930Y-99285714D01*
X164345358Y-99228571D01*
X164316787Y-99200000D01*
X164259644Y-99171428D01*
X166145358Y-98771428D02*
X166345358Y-98485714D01*
X166488215Y-98771428D02*
X166488215Y-98171428D01*
X166259644Y-98171428D01*
X166202501Y-98200000D01*
X166173930Y-98228571D01*
X166145358Y-98285714D01*
X166145358Y-98371428D01*
X166173930Y-98428571D01*
X166202501Y-98457142D01*
X166259644Y-98485714D01*
X166488215Y-98485714D01*
X165916787Y-98742857D02*
X165831073Y-98771428D01*
X165688215Y-98771428D01*
X165631073Y-98742857D01*
X165602501Y-98714285D01*
X165573930Y-98657142D01*
X165573930Y-98600000D01*
X165602501Y-98542857D01*
X165631073Y-98514285D01*
X165688215Y-98485714D01*
X165802501Y-98457142D01*
X165859644Y-98428571D01*
X165888215Y-98400000D01*
X165916787Y-98342857D01*
X165916787Y-98285714D01*
X165888215Y-98228571D01*
X165859644Y-98200000D01*
X165802501Y-98171428D01*
X165659644Y-98171428D01*
X165573930Y-98200000D01*
X165402501Y-98171428D02*
X165059644Y-98171428D01*
X165231073Y-98771428D02*
X165231073Y-98171428D01*
X159245358Y-101300000D02*
X159302501Y-101271428D01*
X159388215Y-101271428D01*
X159473929Y-101300000D01*
X159531072Y-101357142D01*
X159559643Y-101414285D01*
X159588215Y-101528571D01*
X159588215Y-101614285D01*
X159559643Y-101728571D01*
X159531072Y-101785714D01*
X159473929Y-101842857D01*
X159388215Y-101871428D01*
X159331072Y-101871428D01*
X159245358Y-101842857D01*
X159216786Y-101814285D01*
X159216786Y-101614285D01*
X159331072Y-101614285D01*
X158959643Y-101871428D02*
X158959643Y-101271428D01*
X158616786Y-101871428D01*
X158616786Y-101271428D01*
X158331072Y-101871428D02*
X158331072Y-101271428D01*
X158188215Y-101271428D01*
X158102501Y-101300000D01*
X158045358Y-101357142D01*
X158016786Y-101414285D01*
X157988215Y-101528571D01*
X157988215Y-101614285D01*
X158016786Y-101728571D01*
X158045358Y-101785714D01*
X158102501Y-101842857D01*
X158188215Y-101871428D01*
X158331072Y-101871428D01*
X159159644Y-100871428D02*
X159359644Y-100585714D01*
X159502501Y-100871428D02*
X159502501Y-100271428D01*
X159273930Y-100271428D01*
X159216787Y-100300000D01*
X159188216Y-100328571D01*
X159159644Y-100385714D01*
X159159644Y-100471428D01*
X159188216Y-100528571D01*
X159216787Y-100557142D01*
X159273930Y-100585714D01*
X159502501Y-100585714D01*
X158959644Y-100271428D02*
X158559644Y-100871428D01*
X158559644Y-100271428D02*
X158959644Y-100871428D01*
X158331073Y-100871428D02*
X158331073Y-100271428D01*
X158188216Y-100271428D01*
X158102501Y-100300000D01*
X158045359Y-100357142D01*
X158016787Y-100414285D01*
X157988216Y-100528571D01*
X157988216Y-100614285D01*
X158016787Y-100728571D01*
X158045359Y-100785714D01*
X158102501Y-100842857D01*
X158188216Y-100871428D01*
X158331073Y-100871428D01*
X159445358Y-99271428D02*
X159102501Y-99271428D01*
X159273929Y-99871428D02*
X159273929Y-99271428D01*
X158959643Y-99271428D02*
X158559643Y-99871428D01*
X158559643Y-99271428D02*
X158959643Y-99871428D01*
X158331072Y-99871428D02*
X158331072Y-99271428D01*
X158188215Y-99271428D01*
X158102501Y-99300000D01*
X158045358Y-99357142D01*
X158016786Y-99414285D01*
X157988215Y-99528571D01*
X157988215Y-99614285D01*
X158016786Y-99728571D01*
X158045358Y-99785714D01*
X158102501Y-99842857D01*
X158188215Y-99871428D01*
X158331072Y-99871428D01*
X159388215Y-98871428D02*
X159388215Y-98271428D01*
X159245358Y-98271428D01*
X159159644Y-98300000D01*
X159102501Y-98357142D01*
X159073930Y-98414285D01*
X159045358Y-98528571D01*
X159045358Y-98614285D01*
X159073930Y-98728571D01*
X159102501Y-98785714D01*
X159159644Y-98842857D01*
X159245358Y-98871428D01*
X159388215Y-98871428D01*
X158873930Y-98271428D02*
X158531073Y-98271428D01*
X158702501Y-98871428D02*
X158702501Y-98271428D01*
X157988215Y-98871428D02*
X158188215Y-98585714D01*
X158331073Y-98871428D02*
X158331073Y-98271428D01*
X158102501Y-98271428D01*
X158045358Y-98300000D01*
X158016787Y-98328571D01*
X157988215Y-98385714D01*
X157988215Y-98471428D01*
X158016787Y-98528571D01*
X158045358Y-98557142D01*
X158102501Y-98585714D01*
X158331073Y-98585714D01*
X159016786Y-97871428D02*
X159216786Y-97585714D01*
X159359643Y-97871428D02*
X159359643Y-97271428D01*
X159131072Y-97271428D01*
X159073929Y-97300000D01*
X159045358Y-97328571D01*
X159016786Y-97385714D01*
X159016786Y-97471428D01*
X159045358Y-97528571D01*
X159073929Y-97557142D01*
X159131072Y-97585714D01*
X159359643Y-97585714D01*
X158845358Y-97271428D02*
X158502501Y-97271428D01*
X158673929Y-97871428D02*
X158673929Y-97271428D01*
X158331072Y-97842857D02*
X158245358Y-97871428D01*
X158102501Y-97871428D01*
X158045358Y-97842857D01*
X158016786Y-97814285D01*
X157988215Y-97757142D01*
X157988215Y-97700000D01*
X158016786Y-97642857D01*
X158045358Y-97614285D01*
X158102501Y-97585714D01*
X158216786Y-97557142D01*
X158273929Y-97528571D01*
X158302501Y-97500000D01*
X158331072Y-97442857D01*
X158331072Y-97385714D01*
X158302501Y-97328571D01*
X158273929Y-97300000D01*
X158216786Y-97271428D01*
X158073929Y-97271428D01*
X157988215Y-97300000D01*
X159445358Y-96271428D02*
X159073930Y-96271428D01*
X159273930Y-96500000D01*
X159188215Y-96500000D01*
X159131073Y-96528571D01*
X159102501Y-96557142D01*
X159073930Y-96614285D01*
X159073930Y-96757142D01*
X159102501Y-96814285D01*
X159131073Y-96842857D01*
X159188215Y-96871428D01*
X159359644Y-96871428D01*
X159416787Y-96842857D01*
X159445358Y-96814285D01*
X158902501Y-96271428D02*
X158702501Y-96871428D01*
X158502501Y-96271428D01*
X158359644Y-96271428D02*
X157988215Y-96271428D01*
X158188215Y-96500000D01*
X158102501Y-96500000D01*
X158045358Y-96528571D01*
X158016787Y-96557142D01*
X157988215Y-96614285D01*
X157988215Y-96757142D01*
X158016787Y-96814285D01*
X158045358Y-96842857D01*
X158102501Y-96871428D01*
X158273930Y-96871428D01*
X158331073Y-96842857D01*
X158359644Y-96814285D01*
X164480000Y-94154642D02*
X164451428Y-94097500D01*
X164451428Y-94011785D01*
X164480000Y-93926071D01*
X164537142Y-93868928D01*
X164594285Y-93840357D01*
X164708571Y-93811785D01*
X164794285Y-93811785D01*
X164908571Y-93840357D01*
X164965714Y-93868928D01*
X165022857Y-93926071D01*
X165051428Y-94011785D01*
X165051428Y-94068928D01*
X165022857Y-94154642D01*
X164994285Y-94183214D01*
X164794285Y-94183214D01*
X164794285Y-94068928D01*
X165051428Y-94440357D02*
X164451428Y-94440357D01*
X165051428Y-94783214D01*
X164451428Y-94783214D01*
X165051428Y-95068928D02*
X164451428Y-95068928D01*
X164451428Y-95211785D01*
X164480000Y-95297500D01*
X164537142Y-95354642D01*
X164594285Y-95383214D01*
X164708571Y-95411785D01*
X164794285Y-95411785D01*
X164908571Y-95383214D01*
X164965714Y-95354642D01*
X165022857Y-95297500D01*
X165051428Y-95211785D01*
X165051428Y-95068928D01*
X162454285Y-94183214D02*
X162482857Y-94154642D01*
X162511428Y-94068928D01*
X162511428Y-94011785D01*
X162482857Y-93926071D01*
X162425714Y-93868928D01*
X162368571Y-93840357D01*
X162254285Y-93811785D01*
X162168571Y-93811785D01*
X162054285Y-93840357D01*
X161997142Y-93868928D01*
X161940000Y-93926071D01*
X161911428Y-94011785D01*
X161911428Y-94068928D01*
X161940000Y-94154642D01*
X161968571Y-94183214D01*
X162511428Y-94440357D02*
X161911428Y-94440357D01*
X162197142Y-94440357D02*
X162197142Y-94783214D01*
X162511428Y-94783214D02*
X161911428Y-94783214D01*
X162568571Y-94926071D02*
X162568571Y-95383214D01*
X162511428Y-95526071D02*
X161911428Y-95526071D01*
X161911428Y-95754642D01*
X161940000Y-95811785D01*
X161968571Y-95840357D01*
X162025714Y-95868928D01*
X162111428Y-95868928D01*
X162168571Y-95840357D01*
X162197142Y-95811785D01*
X162225714Y-95754642D01*
X162225714Y-95526071D01*
X162511428Y-96126071D02*
X161911428Y-96126071D01*
X161911428Y-96268928D01*
X161940000Y-96354642D01*
X161997142Y-96411785D01*
X162054285Y-96440357D01*
X162168571Y-96468928D01*
X162254285Y-96468928D01*
X162368571Y-96440357D01*
X162425714Y-96411785D01*
X162482857Y-96354642D01*
X162511428Y-96268928D01*
X162511428Y-96126071D01*
X159371428Y-93783214D02*
X159371428Y-94154642D01*
X159600000Y-93954642D01*
X159600000Y-94040357D01*
X159628571Y-94097500D01*
X159657142Y-94126071D01*
X159714285Y-94154642D01*
X159857142Y-94154642D01*
X159914285Y-94126071D01*
X159942857Y-94097500D01*
X159971428Y-94040357D01*
X159971428Y-93868928D01*
X159942857Y-93811785D01*
X159914285Y-93783214D01*
X159371428Y-94326071D02*
X159971428Y-94526071D01*
X159371428Y-94726071D01*
X159371428Y-94868928D02*
X159371428Y-95240357D01*
X159600000Y-95040357D01*
X159600000Y-95126071D01*
X159628571Y-95183214D01*
X159657142Y-95211785D01*
X159714285Y-95240357D01*
X159857142Y-95240357D01*
X159914285Y-95211785D01*
X159942857Y-95183214D01*
X159971428Y-95126071D01*
X159971428Y-94954642D01*
X159942857Y-94897500D01*
X159914285Y-94868928D01*
D12*
X165970000Y-93670000D02*
X165970000Y-92400000D01*
X164700000Y-93670000D02*
X165970000Y-93670000D01*
X159240000Y-91357071D02*
X159240000Y-90960000D01*
X160000000Y-91357071D02*
X160000000Y-90960000D01*
X159240000Y-82300000D02*
X159240000Y-88300000D01*
X160000000Y-82300000D02*
X159240000Y-82300000D01*
X160000000Y-88300000D02*
X160000000Y-82300000D01*
X160890000Y-90960000D02*
X160890000Y-88300000D01*
X161780000Y-91357071D02*
X161780000Y-90960000D01*
X162540000Y-91357071D02*
X162540000Y-90960000D01*
X161780000Y-82300000D02*
X161780000Y-88300000D01*
X162540000Y-82300000D02*
X161780000Y-82300000D01*
X162540000Y-88300000D02*
X162540000Y-82300000D01*
X163430000Y-90960000D02*
X163430000Y-88300000D01*
X164320000Y-91290000D02*
X164320000Y-90960000D01*
X165080000Y-91290000D02*
X165080000Y-90960000D01*
X164420000Y-88300000D02*
X164420000Y-82300000D01*
X164540000Y-88300000D02*
X164540000Y-82300000D01*
X164660000Y-88300000D02*
X164660000Y-82300000D01*
X164780000Y-88300000D02*
X164780000Y-82300000D01*
X164900000Y-88300000D02*
X164900000Y-82300000D01*
X165020000Y-88300000D02*
X165020000Y-82300000D01*
X164320000Y-82300000D02*
X164320000Y-88300000D01*
X165080000Y-82300000D02*
X164320000Y-82300000D01*
X165080000Y-88300000D02*
X165080000Y-82300000D01*
X166030000Y-88300000D02*
X166030000Y-90960000D01*
X158290000Y-88300000D02*
X166030000Y-88300000D01*
X158290000Y-90960000D02*
X158290000Y-88300000D01*
X166030000Y-90960000D02*
X158290000Y-90960000D01*
D11*
X166333333Y-86952380D02*
X166333333Y-87666666D01*
X166380952Y-87809523D01*
X166476190Y-87904761D01*
X166619047Y-87952380D01*
X166714285Y-87952380D01*
X165333333Y-87952380D02*
X165904761Y-87952380D01*
X165619047Y-87952380D02*
X165619047Y-86952380D01*
X165714285Y-87095238D01*
X165809523Y-87190476D01*
X165904761Y-87238095D01*
M02*
