G04 #@! TF.GenerationSoftware,KiCad,Pcbnew,(5.1.9)-1*
G04 #@! TF.CreationDate,2021-07-08T10:46:36+02:00*
G04 #@! TF.ProjectId,ttl_to_usb_adapter,74746c5f-746f-45f7-9573-625f61646170,v0.0*
G04 #@! TF.SameCoordinates,Original*
G04 #@! TF.FileFunction,Copper,L2,Bot*
G04 #@! TF.FilePolarity,Positive*
%FSLAX46Y46*%
G04 Gerber Fmt 4.6, Leading zero omitted, Abs format (unit mm)*
G04 Created by KiCad (PCBNEW (5.1.9)-1) date 2021-07-08 10:46:36*
%MOMM*%
%LPD*%
G01*
G04 APERTURE LIST*
G04 #@! TA.AperFunction,ComponentPad*
%ADD10O,1.700000X1.700000*%
G04 #@! TD*
G04 #@! TA.AperFunction,ComponentPad*
%ADD11R,1.700000X1.700000*%
G04 #@! TD*
G04 #@! TA.AperFunction,Conductor*
%ADD12C,0.650000*%
G04 #@! TD*
G04 #@! TA.AperFunction,Conductor*
%ADD13C,0.250000*%
G04 #@! TD*
G04 APERTURE END LIST*
D10*
X168200000Y-87960000D03*
X168200000Y-90500000D03*
X168200000Y-93040000D03*
X168200000Y-95580000D03*
X168200000Y-98120000D03*
X168200000Y-100660000D03*
D11*
X168200000Y-103200000D03*
X164700000Y-92400000D03*
D10*
X162160000Y-92400000D03*
X159620000Y-92400000D03*
X156400000Y-89100000D03*
X156400000Y-91640000D03*
X156400000Y-94180000D03*
X156400000Y-96720000D03*
X156400000Y-99260000D03*
D11*
X156400000Y-101800000D03*
D12*
X168200000Y-87960000D02*
X162684700Y-87960000D01*
X162684700Y-87960000D02*
X159620000Y-91024700D01*
X157775300Y-89100000D02*
X157775300Y-89180000D01*
X157775300Y-89180000D02*
X159620000Y-91024700D01*
X156400000Y-89100000D02*
X157775300Y-89100000D01*
X159620000Y-92400000D02*
X159620000Y-91024700D01*
D13*
X168200000Y-100660000D02*
X168200000Y-99600000D01*
X168200000Y-99600000D02*
X168400000Y-99400000D01*
X169375300Y-98824700D02*
X168800000Y-99400000D01*
X169375300Y-97568000D02*
X169375300Y-98824700D01*
X168657300Y-96850000D02*
X169375300Y-97568000D01*
X157705300Y-96850000D02*
X168657300Y-96850000D01*
X157575300Y-96720000D02*
X157705300Y-96850000D01*
X156400000Y-96720000D02*
X157575300Y-96720000D01*
X168400000Y-99400000D02*
X168800000Y-99400000D01*
X156400000Y-99260000D02*
X157575300Y-99260000D01*
X157575300Y-99260000D02*
X158715300Y-98120000D01*
X158715300Y-98120000D02*
X168200000Y-98120000D01*
X163335300Y-91592000D02*
X164427300Y-90500000D01*
X164427300Y-90500000D02*
X168200000Y-90500000D01*
X162160000Y-92400000D02*
X163100000Y-92400000D01*
X163335300Y-92164700D02*
X163335300Y-91592000D01*
X163100000Y-92400000D02*
X163335300Y-92164700D01*
M02*
