%FSLAX45Y45*%
G04 Gerber Fmt 4.5, Leading zero omitted, Abs format (unit mm)*
G04 Created by KiCad (PCBNEW (5.0.2)-1) date 04/02/2021 11:27:35*
%MOMM*%
%LPD*%
G01*
G04 APERTURE LIST*
%ADD10C,0.150000*%
%ADD11C,0.200000*%
%ADD12C,0.300000*%
G04 APERTURE END LIST*
D10*
X11564600Y-12776200D02*
G75*
G03X11564600Y-12776200I-160000J0D01*
G01*
X17881600Y-11836400D02*
X17881600Y-13919200D01*
X14808200Y-11836400D02*
X17881600Y-11836400D01*
X13741400Y-11836400D02*
X14808200Y-11836400D01*
X13233400Y-11836400D02*
X13741400Y-11836400D01*
X13208000Y-11760200D02*
X13233400Y-11836400D01*
X13131800Y-11633200D02*
X13208000Y-11760200D01*
X13030200Y-11557000D02*
X13131800Y-11633200D01*
X12928600Y-11506200D02*
X13030200Y-11557000D01*
X12801600Y-11506200D02*
X12928600Y-11506200D01*
X10541000Y-11506200D02*
X12801600Y-11506200D01*
X10439400Y-11709400D02*
X10541000Y-11506200D01*
X9753600Y-11709400D02*
X10439400Y-11709400D01*
X9753600Y-12293600D02*
X9753600Y-11709400D01*
X9880600Y-12293600D02*
X9753600Y-12293600D01*
X9880600Y-13182600D02*
X9880600Y-12293600D01*
X9753600Y-13182600D02*
X9880600Y-13182600D01*
X9753600Y-14376400D02*
X9753600Y-13182600D01*
X13233400Y-13919200D02*
X17881600Y-13919200D01*
X12776200Y-14376400D02*
X13233400Y-13919200D01*
X12750800Y-14376400D02*
X12776200Y-14376400D01*
X10947400Y-14376400D02*
X12750800Y-14376400D01*
X10947400Y-14376400D02*
X9753600Y-14376400D01*
D11*
X13589800Y-12472200D02*
X13689800Y-12572200D01*
X13689800Y-12472200D02*
X13589800Y-12572200D01*
X15215400Y-12980200D02*
X15315400Y-13080200D01*
X15315400Y-12980200D02*
X15215400Y-13080200D01*
X15215400Y-13234200D02*
X15315400Y-13334200D01*
X15315400Y-13234200D02*
X15215400Y-13334200D01*
X14428000Y-12218200D02*
X14528000Y-12318200D01*
X14528000Y-12218200D02*
X14428000Y-12318200D01*
X14428000Y-12472200D02*
X14528000Y-12572200D01*
X14528000Y-12472200D02*
X14428000Y-12572200D01*
X14428000Y-12726200D02*
X14528000Y-12826200D01*
X14528000Y-12726200D02*
X14428000Y-12826200D01*
X14428000Y-12980200D02*
X14528000Y-13080200D01*
X14528000Y-12980200D02*
X14428000Y-13080200D01*
X14428000Y-13234200D02*
X14528000Y-13334200D01*
X14528000Y-13234200D02*
X14428000Y-13334200D01*
X15875800Y-12472200D02*
X15975800Y-12572200D01*
X15975800Y-12472200D02*
X15875800Y-12572200D01*
X15875800Y-12726200D02*
X15975800Y-12826200D01*
X15975800Y-12726200D02*
X15875800Y-12826200D01*
X15875800Y-12980200D02*
X15975800Y-13080200D01*
X15975800Y-12980200D02*
X15875800Y-13080200D01*
X15875800Y-13234200D02*
X15975800Y-13334200D01*
X15975800Y-13234200D02*
X15875800Y-13334200D01*
X13589800Y-12218200D02*
X13689800Y-12318200D01*
X13689800Y-12218200D02*
X13589800Y-12318200D01*
X13589800Y-12726200D02*
X13689800Y-12826200D01*
X13689800Y-12726200D02*
X13589800Y-12826200D01*
X13589800Y-12980200D02*
X13689800Y-13080200D01*
X13689800Y-12980200D02*
X13589800Y-13080200D01*
X13589800Y-13234200D02*
X13689800Y-13334200D01*
X13689800Y-13234200D02*
X13589800Y-13334200D01*
X15215400Y-12472200D02*
X15315400Y-12572200D01*
X15315400Y-12472200D02*
X15215400Y-12572200D01*
X15215400Y-12726200D02*
X15315400Y-12826200D01*
X15315400Y-12726200D02*
X15215400Y-12826200D01*
X10668000Y-11658600D02*
G75*
G03X10668000Y-11658600I-50800J0D01*
G01*
X10668000Y-13944600D02*
G75*
G03X10668000Y-13944600I-50800J0D01*
G01*
X10922000Y-11658600D02*
G75*
G03X10922000Y-11658600I-50800J0D01*
G01*
X10922000Y-13944600D02*
G75*
G03X10922000Y-13944600I-50800J0D01*
G01*
X11176000Y-11658600D02*
G75*
G03X11176000Y-11658600I-50800J0D01*
G01*
X11176000Y-13944600D02*
G75*
G03X11176000Y-13944600I-50800J0D01*
G01*
X11430000Y-11658600D02*
G75*
G03X11430000Y-11658600I-50800J0D01*
G01*
X11430000Y-13944600D02*
G75*
G03X11430000Y-13944600I-50800J0D01*
G01*
X11684000Y-11658600D02*
G75*
G03X11684000Y-11658600I-50800J0D01*
G01*
X11684000Y-13944600D02*
G75*
G03X11684000Y-13944600I-50800J0D01*
G01*
X11938000Y-11658600D02*
G75*
G03X11938000Y-11658600I-50800J0D01*
G01*
X11938000Y-13944600D02*
G75*
G03X11938000Y-13944600I-50800J0D01*
G01*
X12192000Y-11658600D02*
G75*
G03X12192000Y-11658600I-50800J0D01*
G01*
X12192000Y-13944600D02*
G75*
G03X12192000Y-13944600I-50800J0D01*
G01*
X12446000Y-11658600D02*
G75*
G03X12446000Y-11658600I-50800J0D01*
G01*
X12446000Y-13944600D02*
G75*
G03X12446000Y-13944600I-50800J0D01*
G01*
X17272000Y-12279400D02*
X17272000Y-12409400D01*
X17207000Y-12344400D02*
X17337000Y-12344400D01*
X17272000Y-12787400D02*
X17272000Y-12917400D01*
X17207000Y-12852400D02*
X17337000Y-12852400D01*
X17272000Y-13295400D02*
X17272000Y-13425400D01*
X17207000Y-13360400D02*
X17337000Y-13360400D01*
D12*
X10032528Y-14849614D02*
X10032528Y-14549614D01*
X10103957Y-14549614D01*
X10146814Y-14563900D01*
X10175386Y-14592471D01*
X10189671Y-14621043D01*
X10203957Y-14678186D01*
X10203957Y-14721043D01*
X10189671Y-14778186D01*
X10175386Y-14806757D01*
X10146814Y-14835329D01*
X10103957Y-14849614D01*
X10032528Y-14849614D01*
X10332528Y-14849614D02*
X10332528Y-14649614D01*
X10332528Y-14706757D02*
X10346814Y-14678186D01*
X10361100Y-14663900D01*
X10389671Y-14649614D01*
X10418243Y-14649614D01*
X10518243Y-14849614D02*
X10518243Y-14649614D01*
X10518243Y-14549614D02*
X10503957Y-14563900D01*
X10518243Y-14578186D01*
X10532528Y-14563900D01*
X10518243Y-14549614D01*
X10518243Y-14578186D01*
X10703957Y-14849614D02*
X10675386Y-14835329D01*
X10661100Y-14806757D01*
X10661100Y-14549614D01*
X10861100Y-14849614D02*
X10832528Y-14835329D01*
X10818243Y-14806757D01*
X10818243Y-14549614D01*
X11203957Y-14849614D02*
X11203957Y-14549614D01*
X11303957Y-14763900D01*
X11403957Y-14549614D01*
X11403957Y-14849614D01*
X11675386Y-14849614D02*
X11675386Y-14692471D01*
X11661100Y-14663900D01*
X11632528Y-14649614D01*
X11575386Y-14649614D01*
X11546814Y-14663900D01*
X11675386Y-14835329D02*
X11646814Y-14849614D01*
X11575386Y-14849614D01*
X11546814Y-14835329D01*
X11532528Y-14806757D01*
X11532528Y-14778186D01*
X11546814Y-14749614D01*
X11575386Y-14735329D01*
X11646814Y-14735329D01*
X11675386Y-14721043D01*
X11818243Y-14649614D02*
X11818243Y-14949614D01*
X11818243Y-14663900D02*
X11846814Y-14649614D01*
X11903957Y-14649614D01*
X11932528Y-14663900D01*
X11946814Y-14678186D01*
X11961100Y-14706757D01*
X11961100Y-14792471D01*
X11946814Y-14821043D01*
X11932528Y-14835329D01*
X11903957Y-14849614D01*
X11846814Y-14849614D01*
X11818243Y-14835329D01*
X12089671Y-14821043D02*
X12103957Y-14835329D01*
X12089671Y-14849614D01*
X12075386Y-14835329D01*
X12089671Y-14821043D01*
X12089671Y-14849614D01*
X12089671Y-14663900D02*
X12103957Y-14678186D01*
X12089671Y-14692471D01*
X12075386Y-14678186D01*
X12089671Y-14663900D01*
X12089671Y-14692471D01*
X9646100Y-15293900D02*
X9746100Y-15393900D01*
X9746100Y-15293900D02*
X9646100Y-15393900D01*
X10189671Y-15479614D02*
X10018243Y-15479614D01*
X10103957Y-15479614D02*
X10103957Y-15179614D01*
X10075386Y-15222471D01*
X10046814Y-15251043D01*
X10018243Y-15265329D01*
X10318243Y-15451043D02*
X10332528Y-15465329D01*
X10318243Y-15479614D01*
X10303957Y-15465329D01*
X10318243Y-15451043D01*
X10318243Y-15479614D01*
X10518243Y-15179614D02*
X10546814Y-15179614D01*
X10575386Y-15193900D01*
X10589671Y-15208186D01*
X10603957Y-15236757D01*
X10618243Y-15293900D01*
X10618243Y-15365329D01*
X10603957Y-15422471D01*
X10589671Y-15451043D01*
X10575386Y-15465329D01*
X10546814Y-15479614D01*
X10518243Y-15479614D01*
X10489671Y-15465329D01*
X10475386Y-15451043D01*
X10461100Y-15422471D01*
X10446814Y-15365329D01*
X10446814Y-15293900D01*
X10461100Y-15236757D01*
X10475386Y-15208186D01*
X10489671Y-15193900D01*
X10518243Y-15179614D01*
X10803957Y-15179614D02*
X10832528Y-15179614D01*
X10861100Y-15193900D01*
X10875386Y-15208186D01*
X10889671Y-15236757D01*
X10903957Y-15293900D01*
X10903957Y-15365329D01*
X10889671Y-15422471D01*
X10875386Y-15451043D01*
X10861100Y-15465329D01*
X10832528Y-15479614D01*
X10803957Y-15479614D01*
X10775386Y-15465329D01*
X10761100Y-15451043D01*
X10746814Y-15422471D01*
X10732528Y-15365329D01*
X10732528Y-15293900D01*
X10746814Y-15236757D01*
X10761100Y-15208186D01*
X10775386Y-15193900D01*
X10803957Y-15179614D01*
X11032528Y-15479614D02*
X11032528Y-15279614D01*
X11032528Y-15308186D02*
X11046814Y-15293900D01*
X11075386Y-15279614D01*
X11118243Y-15279614D01*
X11146814Y-15293900D01*
X11161100Y-15322471D01*
X11161100Y-15479614D01*
X11161100Y-15322471D02*
X11175386Y-15293900D01*
X11203957Y-15279614D01*
X11246814Y-15279614D01*
X11275386Y-15293900D01*
X11289671Y-15322471D01*
X11289671Y-15479614D01*
X11432528Y-15479614D02*
X11432528Y-15279614D01*
X11432528Y-15308186D02*
X11446814Y-15293900D01*
X11475386Y-15279614D01*
X11518243Y-15279614D01*
X11546814Y-15293900D01*
X11561100Y-15322471D01*
X11561100Y-15479614D01*
X11561100Y-15322471D02*
X11575386Y-15293900D01*
X11603957Y-15279614D01*
X11646814Y-15279614D01*
X11675386Y-15293900D01*
X11689671Y-15322471D01*
X11689671Y-15479614D01*
X12275386Y-15165329D02*
X12018243Y-15551043D01*
X12661100Y-15179614D02*
X12689671Y-15179614D01*
X12718243Y-15193900D01*
X12732528Y-15208186D01*
X12746814Y-15236757D01*
X12761100Y-15293900D01*
X12761100Y-15365329D01*
X12746814Y-15422471D01*
X12732528Y-15451043D01*
X12718243Y-15465329D01*
X12689671Y-15479614D01*
X12661100Y-15479614D01*
X12632528Y-15465329D01*
X12618243Y-15451043D01*
X12603957Y-15422471D01*
X12589671Y-15365329D01*
X12589671Y-15293900D01*
X12603957Y-15236757D01*
X12618243Y-15208186D01*
X12632528Y-15193900D01*
X12661100Y-15179614D01*
X12889671Y-15451043D02*
X12903957Y-15465329D01*
X12889671Y-15479614D01*
X12875386Y-15465329D01*
X12889671Y-15451043D01*
X12889671Y-15479614D01*
X13089671Y-15179614D02*
X13118243Y-15179614D01*
X13146814Y-15193900D01*
X13161100Y-15208186D01*
X13175386Y-15236757D01*
X13189671Y-15293900D01*
X13189671Y-15365329D01*
X13175386Y-15422471D01*
X13161100Y-15451043D01*
X13146814Y-15465329D01*
X13118243Y-15479614D01*
X13089671Y-15479614D01*
X13061100Y-15465329D01*
X13046814Y-15451043D01*
X13032528Y-15422471D01*
X13018243Y-15365329D01*
X13018243Y-15293900D01*
X13032528Y-15236757D01*
X13046814Y-15208186D01*
X13061100Y-15193900D01*
X13089671Y-15179614D01*
X13289671Y-15179614D02*
X13475386Y-15179614D01*
X13375386Y-15293900D01*
X13418243Y-15293900D01*
X13446814Y-15308186D01*
X13461100Y-15322471D01*
X13475386Y-15351043D01*
X13475386Y-15422471D01*
X13461100Y-15451043D01*
X13446814Y-15465329D01*
X13418243Y-15479614D01*
X13332528Y-15479614D01*
X13303957Y-15465329D01*
X13289671Y-15451043D01*
X13618243Y-15479614D02*
X13675386Y-15479614D01*
X13703957Y-15465329D01*
X13718243Y-15451043D01*
X13746814Y-15408186D01*
X13761100Y-15351043D01*
X13761100Y-15236757D01*
X13746814Y-15208186D01*
X13732528Y-15193900D01*
X13703957Y-15179614D01*
X13646814Y-15179614D01*
X13618243Y-15193900D01*
X13603957Y-15208186D01*
X13589671Y-15236757D01*
X13589671Y-15308186D01*
X13603957Y-15336757D01*
X13618243Y-15351043D01*
X13646814Y-15365329D01*
X13703957Y-15365329D01*
X13732528Y-15351043D01*
X13746814Y-15336757D01*
X13761100Y-15308186D01*
X13875386Y-15179614D02*
X13875386Y-15236757D01*
X13989671Y-15179614D02*
X13989671Y-15236757D01*
X14432528Y-15593900D02*
X14418243Y-15579614D01*
X14389671Y-15536757D01*
X14375386Y-15508186D01*
X14361100Y-15465329D01*
X14346814Y-15393900D01*
X14346814Y-15336757D01*
X14361100Y-15265329D01*
X14375386Y-15222471D01*
X14389671Y-15193900D01*
X14418243Y-15151043D01*
X14432528Y-15136757D01*
X14703957Y-15479614D02*
X14532528Y-15479614D01*
X14618243Y-15479614D02*
X14618243Y-15179614D01*
X14589671Y-15222471D01*
X14561100Y-15251043D01*
X14532528Y-15265329D01*
X14875386Y-15308186D02*
X14846814Y-15293900D01*
X14832528Y-15279614D01*
X14818243Y-15251043D01*
X14818243Y-15236757D01*
X14832528Y-15208186D01*
X14846814Y-15193900D01*
X14875386Y-15179614D01*
X14932528Y-15179614D01*
X14961100Y-15193900D01*
X14975386Y-15208186D01*
X14989671Y-15236757D01*
X14989671Y-15251043D01*
X14975386Y-15279614D01*
X14961100Y-15293900D01*
X14932528Y-15308186D01*
X14875386Y-15308186D01*
X14846814Y-15322471D01*
X14832528Y-15336757D01*
X14818243Y-15365329D01*
X14818243Y-15422471D01*
X14832528Y-15451043D01*
X14846814Y-15465329D01*
X14875386Y-15479614D01*
X14932528Y-15479614D01*
X14961100Y-15465329D01*
X14975386Y-15451043D01*
X14989671Y-15422471D01*
X14989671Y-15365329D01*
X14975386Y-15336757D01*
X14961100Y-15322471D01*
X14932528Y-15308186D01*
X15346814Y-15479614D02*
X15346814Y-15179614D01*
X15475386Y-15479614D02*
X15475386Y-15322471D01*
X15461100Y-15293900D01*
X15432528Y-15279614D01*
X15389671Y-15279614D01*
X15361100Y-15293900D01*
X15346814Y-15308186D01*
X15661100Y-15479614D02*
X15632528Y-15465329D01*
X15618243Y-15451043D01*
X15603957Y-15422471D01*
X15603957Y-15336757D01*
X15618243Y-15308186D01*
X15632528Y-15293900D01*
X15661100Y-15279614D01*
X15703957Y-15279614D01*
X15732528Y-15293900D01*
X15746814Y-15308186D01*
X15761100Y-15336757D01*
X15761100Y-15422471D01*
X15746814Y-15451043D01*
X15732528Y-15465329D01*
X15703957Y-15479614D01*
X15661100Y-15479614D01*
X15932528Y-15479614D02*
X15903957Y-15465329D01*
X15889671Y-15436757D01*
X15889671Y-15179614D01*
X16161100Y-15465329D02*
X16132528Y-15479614D01*
X16075386Y-15479614D01*
X16046814Y-15465329D01*
X16032528Y-15436757D01*
X16032528Y-15322471D01*
X16046814Y-15293900D01*
X16075386Y-15279614D01*
X16132528Y-15279614D01*
X16161100Y-15293900D01*
X16175386Y-15322471D01*
X16175386Y-15351043D01*
X16032528Y-15379614D01*
X16289671Y-15465329D02*
X16318243Y-15479614D01*
X16375386Y-15479614D01*
X16403957Y-15465329D01*
X16418243Y-15436757D01*
X16418243Y-15422471D01*
X16403957Y-15393900D01*
X16375386Y-15379614D01*
X16332528Y-15379614D01*
X16303957Y-15365329D01*
X16289671Y-15336757D01*
X16289671Y-15322471D01*
X16303957Y-15293900D01*
X16332528Y-15279614D01*
X16375386Y-15279614D01*
X16403957Y-15293900D01*
X16518243Y-15593900D02*
X16532528Y-15579614D01*
X16561100Y-15536757D01*
X16575386Y-15508186D01*
X16589671Y-15465329D01*
X16603957Y-15393900D01*
X16603957Y-15336757D01*
X16589671Y-15265329D01*
X16575386Y-15222471D01*
X16561100Y-15193900D01*
X16532528Y-15151043D01*
X16518243Y-15136757D01*
X9746100Y-15739900D02*
G75*
G03X9746100Y-15739900I-50800J0D01*
G01*
X10189671Y-15875614D02*
X10018243Y-15875614D01*
X10103957Y-15875614D02*
X10103957Y-15575614D01*
X10075386Y-15618471D01*
X10046814Y-15647043D01*
X10018243Y-15661329D01*
X10318243Y-15847043D02*
X10332528Y-15861329D01*
X10318243Y-15875614D01*
X10303957Y-15861329D01*
X10318243Y-15847043D01*
X10318243Y-15875614D01*
X10518243Y-15575614D02*
X10546814Y-15575614D01*
X10575386Y-15589900D01*
X10589671Y-15604186D01*
X10603957Y-15632757D01*
X10618243Y-15689900D01*
X10618243Y-15761329D01*
X10603957Y-15818471D01*
X10589671Y-15847043D01*
X10575386Y-15861329D01*
X10546814Y-15875614D01*
X10518243Y-15875614D01*
X10489671Y-15861329D01*
X10475386Y-15847043D01*
X10461100Y-15818471D01*
X10446814Y-15761329D01*
X10446814Y-15689900D01*
X10461100Y-15632757D01*
X10475386Y-15604186D01*
X10489671Y-15589900D01*
X10518243Y-15575614D01*
X10732528Y-15604186D02*
X10746814Y-15589900D01*
X10775386Y-15575614D01*
X10846814Y-15575614D01*
X10875386Y-15589900D01*
X10889671Y-15604186D01*
X10903957Y-15632757D01*
X10903957Y-15661329D01*
X10889671Y-15704186D01*
X10718243Y-15875614D01*
X10903957Y-15875614D01*
X11032528Y-15875614D02*
X11032528Y-15675614D01*
X11032528Y-15704186D02*
X11046814Y-15689900D01*
X11075386Y-15675614D01*
X11118243Y-15675614D01*
X11146814Y-15689900D01*
X11161100Y-15718471D01*
X11161100Y-15875614D01*
X11161100Y-15718471D02*
X11175386Y-15689900D01*
X11203957Y-15675614D01*
X11246814Y-15675614D01*
X11275386Y-15689900D01*
X11289671Y-15718471D01*
X11289671Y-15875614D01*
X11432528Y-15875614D02*
X11432528Y-15675614D01*
X11432528Y-15704186D02*
X11446814Y-15689900D01*
X11475386Y-15675614D01*
X11518243Y-15675614D01*
X11546814Y-15689900D01*
X11561100Y-15718471D01*
X11561100Y-15875614D01*
X11561100Y-15718471D02*
X11575386Y-15689900D01*
X11603957Y-15675614D01*
X11646814Y-15675614D01*
X11675386Y-15689900D01*
X11689671Y-15718471D01*
X11689671Y-15875614D01*
X12275386Y-15561329D02*
X12018243Y-15947043D01*
X12661100Y-15575614D02*
X12689671Y-15575614D01*
X12718243Y-15589900D01*
X12732528Y-15604186D01*
X12746814Y-15632757D01*
X12761100Y-15689900D01*
X12761100Y-15761329D01*
X12746814Y-15818471D01*
X12732528Y-15847043D01*
X12718243Y-15861329D01*
X12689671Y-15875614D01*
X12661100Y-15875614D01*
X12632528Y-15861329D01*
X12618243Y-15847043D01*
X12603957Y-15818471D01*
X12589671Y-15761329D01*
X12589671Y-15689900D01*
X12603957Y-15632757D01*
X12618243Y-15604186D01*
X12632528Y-15589900D01*
X12661100Y-15575614D01*
X12889671Y-15847043D02*
X12903957Y-15861329D01*
X12889671Y-15875614D01*
X12875386Y-15861329D01*
X12889671Y-15847043D01*
X12889671Y-15875614D01*
X13089671Y-15575614D02*
X13118243Y-15575614D01*
X13146814Y-15589900D01*
X13161100Y-15604186D01*
X13175386Y-15632757D01*
X13189671Y-15689900D01*
X13189671Y-15761329D01*
X13175386Y-15818471D01*
X13161100Y-15847043D01*
X13146814Y-15861329D01*
X13118243Y-15875614D01*
X13089671Y-15875614D01*
X13061100Y-15861329D01*
X13046814Y-15847043D01*
X13032528Y-15818471D01*
X13018243Y-15761329D01*
X13018243Y-15689900D01*
X13032528Y-15632757D01*
X13046814Y-15604186D01*
X13061100Y-15589900D01*
X13089671Y-15575614D01*
X13446814Y-15675614D02*
X13446814Y-15875614D01*
X13375386Y-15561329D02*
X13303957Y-15775614D01*
X13489671Y-15775614D01*
X13661100Y-15575614D02*
X13689671Y-15575614D01*
X13718243Y-15589900D01*
X13732528Y-15604186D01*
X13746814Y-15632757D01*
X13761100Y-15689900D01*
X13761100Y-15761329D01*
X13746814Y-15818471D01*
X13732528Y-15847043D01*
X13718243Y-15861329D01*
X13689671Y-15875614D01*
X13661100Y-15875614D01*
X13632528Y-15861329D01*
X13618243Y-15847043D01*
X13603957Y-15818471D01*
X13589671Y-15761329D01*
X13589671Y-15689900D01*
X13603957Y-15632757D01*
X13618243Y-15604186D01*
X13632528Y-15589900D01*
X13661100Y-15575614D01*
X13875386Y-15575614D02*
X13875386Y-15632757D01*
X13989671Y-15575614D02*
X13989671Y-15632757D01*
X14432528Y-15989900D02*
X14418243Y-15975614D01*
X14389671Y-15932757D01*
X14375386Y-15904186D01*
X14361100Y-15861329D01*
X14346814Y-15789900D01*
X14346814Y-15732757D01*
X14361100Y-15661329D01*
X14375386Y-15618471D01*
X14389671Y-15589900D01*
X14418243Y-15547043D01*
X14432528Y-15532757D01*
X14703957Y-15875614D02*
X14532528Y-15875614D01*
X14618243Y-15875614D02*
X14618243Y-15575614D01*
X14589671Y-15618471D01*
X14561100Y-15647043D01*
X14532528Y-15661329D01*
X14961100Y-15575614D02*
X14903957Y-15575614D01*
X14875386Y-15589900D01*
X14861100Y-15604186D01*
X14832528Y-15647043D01*
X14818243Y-15704186D01*
X14818243Y-15818471D01*
X14832528Y-15847043D01*
X14846814Y-15861329D01*
X14875386Y-15875614D01*
X14932528Y-15875614D01*
X14961100Y-15861329D01*
X14975386Y-15847043D01*
X14989671Y-15818471D01*
X14989671Y-15747043D01*
X14975386Y-15718471D01*
X14961100Y-15704186D01*
X14932528Y-15689900D01*
X14875386Y-15689900D01*
X14846814Y-15704186D01*
X14832528Y-15718471D01*
X14818243Y-15747043D01*
X15346814Y-15875614D02*
X15346814Y-15575614D01*
X15475386Y-15875614D02*
X15475386Y-15718471D01*
X15461100Y-15689900D01*
X15432528Y-15675614D01*
X15389671Y-15675614D01*
X15361100Y-15689900D01*
X15346814Y-15704186D01*
X15661100Y-15875614D02*
X15632528Y-15861329D01*
X15618243Y-15847043D01*
X15603957Y-15818471D01*
X15603957Y-15732757D01*
X15618243Y-15704186D01*
X15632528Y-15689900D01*
X15661100Y-15675614D01*
X15703957Y-15675614D01*
X15732528Y-15689900D01*
X15746814Y-15704186D01*
X15761100Y-15732757D01*
X15761100Y-15818471D01*
X15746814Y-15847043D01*
X15732528Y-15861329D01*
X15703957Y-15875614D01*
X15661100Y-15875614D01*
X15932528Y-15875614D02*
X15903957Y-15861329D01*
X15889671Y-15832757D01*
X15889671Y-15575614D01*
X16161100Y-15861329D02*
X16132528Y-15875614D01*
X16075386Y-15875614D01*
X16046814Y-15861329D01*
X16032528Y-15832757D01*
X16032528Y-15718471D01*
X16046814Y-15689900D01*
X16075386Y-15675614D01*
X16132528Y-15675614D01*
X16161100Y-15689900D01*
X16175386Y-15718471D01*
X16175386Y-15747043D01*
X16032528Y-15775614D01*
X16289671Y-15861329D02*
X16318243Y-15875614D01*
X16375386Y-15875614D01*
X16403957Y-15861329D01*
X16418243Y-15832757D01*
X16418243Y-15818471D01*
X16403957Y-15789900D01*
X16375386Y-15775614D01*
X16332528Y-15775614D01*
X16303957Y-15761329D01*
X16289671Y-15732757D01*
X16289671Y-15718471D01*
X16303957Y-15689900D01*
X16332528Y-15675614D01*
X16375386Y-15675614D01*
X16403957Y-15689900D01*
X16518243Y-15989900D02*
X16532528Y-15975614D01*
X16561100Y-15932757D01*
X16575386Y-15904186D01*
X16589671Y-15861329D01*
X16603957Y-15789900D01*
X16603957Y-15732757D01*
X16589671Y-15661329D01*
X16575386Y-15618471D01*
X16561100Y-15589900D01*
X16532528Y-15547043D01*
X16518243Y-15532757D01*
X9681100Y-16070900D02*
X9681100Y-16200900D01*
X9616100Y-16135900D02*
X9746100Y-16135900D01*
X10189671Y-16271614D02*
X10018243Y-16271614D01*
X10103957Y-16271614D02*
X10103957Y-15971614D01*
X10075386Y-16014471D01*
X10046814Y-16043043D01*
X10018243Y-16057329D01*
X10318243Y-16243043D02*
X10332528Y-16257329D01*
X10318243Y-16271614D01*
X10303957Y-16257329D01*
X10318243Y-16243043D01*
X10318243Y-16271614D01*
X10432528Y-15971614D02*
X10618243Y-15971614D01*
X10518243Y-16085900D01*
X10561100Y-16085900D01*
X10589671Y-16100186D01*
X10603957Y-16114471D01*
X10618243Y-16143043D01*
X10618243Y-16214471D01*
X10603957Y-16243043D01*
X10589671Y-16257329D01*
X10561100Y-16271614D01*
X10475386Y-16271614D01*
X10446814Y-16257329D01*
X10432528Y-16243043D01*
X10803957Y-15971614D02*
X10832528Y-15971614D01*
X10861100Y-15985900D01*
X10875386Y-16000186D01*
X10889671Y-16028757D01*
X10903957Y-16085900D01*
X10903957Y-16157329D01*
X10889671Y-16214471D01*
X10875386Y-16243043D01*
X10861100Y-16257329D01*
X10832528Y-16271614D01*
X10803957Y-16271614D01*
X10775386Y-16257329D01*
X10761100Y-16243043D01*
X10746814Y-16214471D01*
X10732528Y-16157329D01*
X10732528Y-16085900D01*
X10746814Y-16028757D01*
X10761100Y-16000186D01*
X10775386Y-15985900D01*
X10803957Y-15971614D01*
X11032528Y-16271614D02*
X11032528Y-16071614D01*
X11032528Y-16100186D02*
X11046814Y-16085900D01*
X11075386Y-16071614D01*
X11118243Y-16071614D01*
X11146814Y-16085900D01*
X11161100Y-16114471D01*
X11161100Y-16271614D01*
X11161100Y-16114471D02*
X11175386Y-16085900D01*
X11203957Y-16071614D01*
X11246814Y-16071614D01*
X11275386Y-16085900D01*
X11289671Y-16114471D01*
X11289671Y-16271614D01*
X11432528Y-16271614D02*
X11432528Y-16071614D01*
X11432528Y-16100186D02*
X11446814Y-16085900D01*
X11475386Y-16071614D01*
X11518243Y-16071614D01*
X11546814Y-16085900D01*
X11561100Y-16114471D01*
X11561100Y-16271614D01*
X11561100Y-16114471D02*
X11575386Y-16085900D01*
X11603957Y-16071614D01*
X11646814Y-16071614D01*
X11675386Y-16085900D01*
X11689671Y-16114471D01*
X11689671Y-16271614D01*
X12275386Y-15957329D02*
X12018243Y-16343043D01*
X12661100Y-15971614D02*
X12689671Y-15971614D01*
X12718243Y-15985900D01*
X12732528Y-16000186D01*
X12746814Y-16028757D01*
X12761100Y-16085900D01*
X12761100Y-16157329D01*
X12746814Y-16214471D01*
X12732528Y-16243043D01*
X12718243Y-16257329D01*
X12689671Y-16271614D01*
X12661100Y-16271614D01*
X12632528Y-16257329D01*
X12618243Y-16243043D01*
X12603957Y-16214471D01*
X12589671Y-16157329D01*
X12589671Y-16085900D01*
X12603957Y-16028757D01*
X12618243Y-16000186D01*
X12632528Y-15985900D01*
X12661100Y-15971614D01*
X12889671Y-16243043D02*
X12903957Y-16257329D01*
X12889671Y-16271614D01*
X12875386Y-16257329D01*
X12889671Y-16243043D01*
X12889671Y-16271614D01*
X13089671Y-15971614D02*
X13118243Y-15971614D01*
X13146814Y-15985900D01*
X13161100Y-16000186D01*
X13175386Y-16028757D01*
X13189671Y-16085900D01*
X13189671Y-16157329D01*
X13175386Y-16214471D01*
X13161100Y-16243043D01*
X13146814Y-16257329D01*
X13118243Y-16271614D01*
X13089671Y-16271614D01*
X13061100Y-16257329D01*
X13046814Y-16243043D01*
X13032528Y-16214471D01*
X13018243Y-16157329D01*
X13018243Y-16085900D01*
X13032528Y-16028757D01*
X13046814Y-16000186D01*
X13061100Y-15985900D01*
X13089671Y-15971614D01*
X13461100Y-15971614D02*
X13318243Y-15971614D01*
X13303957Y-16114471D01*
X13318243Y-16100186D01*
X13346814Y-16085900D01*
X13418243Y-16085900D01*
X13446814Y-16100186D01*
X13461100Y-16114471D01*
X13475386Y-16143043D01*
X13475386Y-16214471D01*
X13461100Y-16243043D01*
X13446814Y-16257329D01*
X13418243Y-16271614D01*
X13346814Y-16271614D01*
X13318243Y-16257329D01*
X13303957Y-16243043D01*
X13761100Y-16271614D02*
X13589671Y-16271614D01*
X13675386Y-16271614D02*
X13675386Y-15971614D01*
X13646814Y-16014471D01*
X13618243Y-16043043D01*
X13589671Y-16057329D01*
X13875386Y-15971614D02*
X13875386Y-16028757D01*
X13989671Y-15971614D02*
X13989671Y-16028757D01*
X14432528Y-16385900D02*
X14418243Y-16371614D01*
X14389671Y-16328757D01*
X14375386Y-16300186D01*
X14361100Y-16257329D01*
X14346814Y-16185900D01*
X14346814Y-16128757D01*
X14361100Y-16057329D01*
X14375386Y-16014471D01*
X14389671Y-15985900D01*
X14418243Y-15943043D01*
X14432528Y-15928757D01*
X14518243Y-15971614D02*
X14703957Y-15971614D01*
X14603957Y-16085900D01*
X14646814Y-16085900D01*
X14675386Y-16100186D01*
X14689671Y-16114471D01*
X14703957Y-16143043D01*
X14703957Y-16214471D01*
X14689671Y-16243043D01*
X14675386Y-16257329D01*
X14646814Y-16271614D01*
X14561100Y-16271614D01*
X14532528Y-16257329D01*
X14518243Y-16243043D01*
X15061100Y-16271614D02*
X15061100Y-15971614D01*
X15189671Y-16271614D02*
X15189671Y-16114471D01*
X15175386Y-16085900D01*
X15146814Y-16071614D01*
X15103957Y-16071614D01*
X15075386Y-16085900D01*
X15061100Y-16100186D01*
X15375386Y-16271614D02*
X15346814Y-16257329D01*
X15332528Y-16243043D01*
X15318243Y-16214471D01*
X15318243Y-16128757D01*
X15332528Y-16100186D01*
X15346814Y-16085900D01*
X15375386Y-16071614D01*
X15418243Y-16071614D01*
X15446814Y-16085900D01*
X15461100Y-16100186D01*
X15475386Y-16128757D01*
X15475386Y-16214471D01*
X15461100Y-16243043D01*
X15446814Y-16257329D01*
X15418243Y-16271614D01*
X15375386Y-16271614D01*
X15646814Y-16271614D02*
X15618243Y-16257329D01*
X15603957Y-16228757D01*
X15603957Y-15971614D01*
X15875386Y-16257329D02*
X15846814Y-16271614D01*
X15789671Y-16271614D01*
X15761100Y-16257329D01*
X15746814Y-16228757D01*
X15746814Y-16114471D01*
X15761100Y-16085900D01*
X15789671Y-16071614D01*
X15846814Y-16071614D01*
X15875386Y-16085900D01*
X15889671Y-16114471D01*
X15889671Y-16143043D01*
X15746814Y-16171614D01*
X16003957Y-16257329D02*
X16032528Y-16271614D01*
X16089671Y-16271614D01*
X16118243Y-16257329D01*
X16132528Y-16228757D01*
X16132528Y-16214471D01*
X16118243Y-16185900D01*
X16089671Y-16171614D01*
X16046814Y-16171614D01*
X16018243Y-16157329D01*
X16003957Y-16128757D01*
X16003957Y-16114471D01*
X16018243Y-16085900D01*
X16046814Y-16071614D01*
X16089671Y-16071614D01*
X16118243Y-16085900D01*
X16232528Y-16385900D02*
X16246814Y-16371614D01*
X16275386Y-16328757D01*
X16289671Y-16300186D01*
X16303957Y-16257329D01*
X16318243Y-16185900D01*
X16318243Y-16128757D01*
X16303957Y-16057329D01*
X16289671Y-16014471D01*
X16275386Y-15985900D01*
X16246814Y-15943043D01*
X16232528Y-15928757D01*
M02*
