%FSLAX45Y45*%
G04 Gerber Fmt 4.5, Leading zero omitted, Abs format (unit mm)*
G04 Created by KiCad (PCBNEW (5.0.2)-1) date 04/02/2021 11:27:35*
%MOMM*%
%LPD*%
G01*
G04 APERTURE LIST*
%ADD10C,0.150000*%
%ADD11C,0.200000*%
%ADD12C,0.300000*%
G04 APERTURE END LIST*
D10*
X11564600Y-12776200D02*
G75*
G03X11564600Y-12776200I-160000J0D01*
G01*
X17881600Y-11836400D02*
X17881600Y-13919200D01*
X14808200Y-11836400D02*
X17881600Y-11836400D01*
X13741400Y-11836400D02*
X14808200Y-11836400D01*
X13233400Y-11836400D02*
X13741400Y-11836400D01*
X13208000Y-11760200D02*
X13233400Y-11836400D01*
X13131800Y-11633200D02*
X13208000Y-11760200D01*
X13030200Y-11557000D02*
X13131800Y-11633200D01*
X12928600Y-11506200D02*
X13030200Y-11557000D01*
X12801600Y-11506200D02*
X12928600Y-11506200D01*
X10541000Y-11506200D02*
X12801600Y-11506200D01*
X10439400Y-11709400D02*
X10541000Y-11506200D01*
X9753600Y-11709400D02*
X10439400Y-11709400D01*
X9753600Y-12293600D02*
X9753600Y-11709400D01*
X9880600Y-12293600D02*
X9753600Y-12293600D01*
X9880600Y-13182600D02*
X9880600Y-12293600D01*
X9753600Y-13182600D02*
X9880600Y-13182600D01*
X9753600Y-14376400D02*
X9753600Y-13182600D01*
X13233400Y-13919200D02*
X17881600Y-13919200D01*
X12776200Y-14376400D02*
X13233400Y-13919200D01*
X12750800Y-14376400D02*
X12776200Y-14376400D01*
X10947400Y-14376400D02*
X12750800Y-14376400D01*
X10947400Y-14376400D02*
X9753600Y-14376400D01*
D11*
D12*
X10032528Y-14849614D02*
X10032528Y-14549614D01*
X10103957Y-14549614D01*
X10146814Y-14563900D01*
X10175386Y-14592471D01*
X10189671Y-14621043D01*
X10203957Y-14678186D01*
X10203957Y-14721043D01*
X10189671Y-14778186D01*
X10175386Y-14806757D01*
X10146814Y-14835329D01*
X10103957Y-14849614D01*
X10032528Y-14849614D01*
X10332528Y-14849614D02*
X10332528Y-14649614D01*
X10332528Y-14706757D02*
X10346814Y-14678186D01*
X10361100Y-14663900D01*
X10389671Y-14649614D01*
X10418243Y-14649614D01*
X10518243Y-14849614D02*
X10518243Y-14649614D01*
X10518243Y-14549614D02*
X10503957Y-14563900D01*
X10518243Y-14578186D01*
X10532528Y-14563900D01*
X10518243Y-14549614D01*
X10518243Y-14578186D01*
X10703957Y-14849614D02*
X10675386Y-14835329D01*
X10661100Y-14806757D01*
X10661100Y-14549614D01*
X10861100Y-14849614D02*
X10832528Y-14835329D01*
X10818243Y-14806757D01*
X10818243Y-14549614D01*
X11203957Y-14849614D02*
X11203957Y-14549614D01*
X11303957Y-14763900D01*
X11403957Y-14549614D01*
X11403957Y-14849614D01*
X11675386Y-14849614D02*
X11675386Y-14692471D01*
X11661100Y-14663900D01*
X11632528Y-14649614D01*
X11575386Y-14649614D01*
X11546814Y-14663900D01*
X11675386Y-14835329D02*
X11646814Y-14849614D01*
X11575386Y-14849614D01*
X11546814Y-14835329D01*
X11532528Y-14806757D01*
X11532528Y-14778186D01*
X11546814Y-14749614D01*
X11575386Y-14735329D01*
X11646814Y-14735329D01*
X11675386Y-14721043D01*
X11818243Y-14649614D02*
X11818243Y-14949614D01*
X11818243Y-14663900D02*
X11846814Y-14649614D01*
X11903957Y-14649614D01*
X11932528Y-14663900D01*
X11946814Y-14678186D01*
X11961100Y-14706757D01*
X11961100Y-14792471D01*
X11946814Y-14821043D01*
X11932528Y-14835329D01*
X11903957Y-14849614D01*
X11846814Y-14849614D01*
X11818243Y-14835329D01*
X12089671Y-14821043D02*
X12103957Y-14835329D01*
X12089671Y-14849614D01*
X12075386Y-14835329D01*
X12089671Y-14821043D01*
X12089671Y-14849614D01*
X12089671Y-14663900D02*
X12103957Y-14678186D01*
X12089671Y-14692471D01*
X12075386Y-14678186D01*
X12089671Y-14663900D01*
X12089671Y-14692471D01*
M02*
