G04 #@! TF.GenerationSoftware,KiCad,Pcbnew,(5.1.9)-1*
G04 #@! TF.CreationDate,2021-07-08T10:50:12+02:00*
G04 #@! TF.ProjectId,iot-postbox,696f742d-706f-4737-9462-6f782e6b6963,v0.0*
G04 #@! TF.SameCoordinates,Original*
G04 #@! TF.FileFunction,Legend,Bot*
G04 #@! TF.FilePolarity,Positive*
%FSLAX46Y46*%
G04 Gerber Fmt 4.6, Leading zero omitted, Abs format (unit mm)*
G04 Created by KiCad (PCBNEW (5.1.9)-1) date 2021-07-08 10:50:12*
%MOMM*%
%LPD*%
G01*
G04 APERTURE LIST*
%ADD10C,0.100000*%
%ADD11C,0.200000*%
%ADD12C,0.150000*%
%ADD13C,0.500000*%
%ADD14C,0.120000*%
G04 APERTURE END LIST*
D10*
X120736180Y-116868908D02*
X120736180Y-117354622D01*
X120764751Y-117411765D01*
X120793322Y-117440337D01*
X120850465Y-117468908D01*
X120936180Y-117468908D01*
X120993322Y-117440337D01*
X120736180Y-117240337D02*
X120793322Y-117268908D01*
X120907608Y-117268908D01*
X120964751Y-117240337D01*
X120993322Y-117211765D01*
X121021894Y-117154622D01*
X121021894Y-116983194D01*
X120993322Y-116926051D01*
X120964751Y-116897480D01*
X120907608Y-116868908D01*
X120793322Y-116868908D01*
X120736180Y-116897480D01*
X120450465Y-117268908D02*
X120450465Y-116868908D01*
X120450465Y-116668908D02*
X120479037Y-116697480D01*
X120450465Y-116726051D01*
X120421894Y-116697480D01*
X120450465Y-116668908D01*
X120450465Y-116726051D01*
X120250465Y-116868908D02*
X120021894Y-116868908D01*
X120164751Y-116668908D02*
X120164751Y-117183194D01*
X120136180Y-117240337D01*
X120079037Y-117268908D01*
X120021894Y-117268908D01*
X119821894Y-117268908D02*
X119821894Y-116668908D01*
X119564751Y-117268908D02*
X119564751Y-116954622D01*
X119593322Y-116897480D01*
X119650465Y-116868908D01*
X119736180Y-116868908D01*
X119793322Y-116897480D01*
X119821894Y-116926051D01*
X119021894Y-116868908D02*
X119021894Y-117268908D01*
X119279037Y-116868908D02*
X119279037Y-117183194D01*
X119250465Y-117240337D01*
X119193322Y-117268908D01*
X119107608Y-117268908D01*
X119050465Y-117240337D01*
X119021894Y-117211765D01*
X118736180Y-117268908D02*
X118736180Y-116668908D01*
X118736180Y-116897480D02*
X118679037Y-116868908D01*
X118564751Y-116868908D01*
X118507608Y-116897480D01*
X118479037Y-116926051D01*
X118450465Y-116983194D01*
X118450465Y-117154622D01*
X118479037Y-117211765D01*
X118507608Y-117240337D01*
X118564751Y-117268908D01*
X118679037Y-117268908D01*
X118736180Y-117240337D01*
X118193322Y-117211765D02*
X118164751Y-117240337D01*
X118193322Y-117268908D01*
X118221894Y-117240337D01*
X118193322Y-117211765D01*
X118193322Y-117268908D01*
X117650465Y-117240337D02*
X117707608Y-117268908D01*
X117821894Y-117268908D01*
X117879037Y-117240337D01*
X117907608Y-117211765D01*
X117936180Y-117154622D01*
X117936180Y-116983194D01*
X117907608Y-116926051D01*
X117879037Y-116897480D01*
X117821894Y-116868908D01*
X117707608Y-116868908D01*
X117650465Y-116897480D01*
X117307608Y-117268908D02*
X117364751Y-117240337D01*
X117393322Y-117211765D01*
X117421894Y-117154622D01*
X117421894Y-116983194D01*
X117393322Y-116926051D01*
X117364751Y-116897480D01*
X117307608Y-116868908D01*
X117221894Y-116868908D01*
X117164751Y-116897480D01*
X117136180Y-116926051D01*
X117107608Y-116983194D01*
X117107608Y-117154622D01*
X117136180Y-117211765D01*
X117164751Y-117240337D01*
X117221894Y-117268908D01*
X117307608Y-117268908D01*
X116850465Y-117268908D02*
X116850465Y-116868908D01*
X116850465Y-116926051D02*
X116821894Y-116897480D01*
X116764751Y-116868908D01*
X116679037Y-116868908D01*
X116621894Y-116897480D01*
X116593322Y-116954622D01*
X116593322Y-117268908D01*
X116593322Y-116954622D02*
X116564751Y-116897480D01*
X116507608Y-116868908D01*
X116421894Y-116868908D01*
X116364751Y-116897480D01*
X116336180Y-116954622D01*
X116336180Y-117268908D01*
X115621894Y-116640337D02*
X116136180Y-117411765D01*
X115421894Y-116868908D02*
X115421894Y-117468908D01*
X115421894Y-116897480D02*
X115364751Y-116868908D01*
X115250465Y-116868908D01*
X115193322Y-116897480D01*
X115164751Y-116926051D01*
X115136180Y-116983194D01*
X115136180Y-117154622D01*
X115164751Y-117211765D01*
X115193322Y-117240337D01*
X115250465Y-117268908D01*
X115364751Y-117268908D01*
X115421894Y-117240337D01*
X114621894Y-117268908D02*
X114621894Y-116954622D01*
X114650465Y-116897480D01*
X114707608Y-116868908D01*
X114821894Y-116868908D01*
X114879037Y-116897480D01*
X114621894Y-117240337D02*
X114679037Y-117268908D01*
X114821894Y-117268908D01*
X114879037Y-117240337D01*
X114907608Y-117183194D01*
X114907608Y-117126051D01*
X114879037Y-117068908D01*
X114821894Y-117040337D01*
X114679037Y-117040337D01*
X114621894Y-117011765D01*
X114079037Y-117240337D02*
X114136180Y-117268908D01*
X114250465Y-117268908D01*
X114307608Y-117240337D01*
X114336180Y-117211765D01*
X114364751Y-117154622D01*
X114364751Y-116983194D01*
X114336180Y-116926051D01*
X114307608Y-116897480D01*
X114250465Y-116868908D01*
X114136180Y-116868908D01*
X114079037Y-116897480D01*
X113736180Y-117268908D02*
X113793322Y-117240337D01*
X113821894Y-117183194D01*
X113821894Y-116668908D01*
X113279037Y-117240337D02*
X113336180Y-117268908D01*
X113450465Y-117268908D01*
X113507608Y-117240337D01*
X113536180Y-117183194D01*
X113536180Y-116954622D01*
X113507608Y-116897480D01*
X113450465Y-116868908D01*
X113336180Y-116868908D01*
X113279037Y-116897480D01*
X113250465Y-116954622D01*
X113250465Y-117011765D01*
X113536180Y-117068908D01*
X112993322Y-117268908D02*
X112993322Y-116868908D01*
X112993322Y-116926051D02*
X112964751Y-116897480D01*
X112907608Y-116868908D01*
X112821894Y-116868908D01*
X112764751Y-116897480D01*
X112736180Y-116954622D01*
X112736180Y-117268908D01*
X112736180Y-116954622D02*
X112707608Y-116897480D01*
X112650465Y-116868908D01*
X112564751Y-116868908D01*
X112507608Y-116897480D01*
X112479037Y-116954622D01*
X112479037Y-117268908D01*
X111936180Y-117268908D02*
X111936180Y-116954622D01*
X111964751Y-116897480D01*
X112021894Y-116868908D01*
X112136180Y-116868908D01*
X112193322Y-116897480D01*
X111936180Y-117240337D02*
X111993322Y-117268908D01*
X112136180Y-117268908D01*
X112193322Y-117240337D01*
X112221894Y-117183194D01*
X112221894Y-117126051D01*
X112193322Y-117068908D01*
X112136180Y-117040337D01*
X111993322Y-117040337D01*
X111936180Y-117011765D01*
X111221894Y-116640337D02*
X111736180Y-117411765D01*
X111021894Y-117268908D02*
X111021894Y-116868908D01*
X111021894Y-116668908D02*
X111050465Y-116697480D01*
X111021894Y-116726051D01*
X110993322Y-116697480D01*
X111021894Y-116668908D01*
X111021894Y-116726051D01*
X110650465Y-117268908D02*
X110707608Y-117240337D01*
X110736180Y-117211765D01*
X110764751Y-117154622D01*
X110764751Y-116983194D01*
X110736180Y-116926051D01*
X110707608Y-116897480D01*
X110650465Y-116868908D01*
X110564751Y-116868908D01*
X110507608Y-116897480D01*
X110479037Y-116926051D01*
X110450465Y-116983194D01*
X110450465Y-117154622D01*
X110479037Y-117211765D01*
X110507608Y-117240337D01*
X110564751Y-117268908D01*
X110650465Y-117268908D01*
X110279037Y-116868908D02*
X110050465Y-116868908D01*
X110193322Y-116668908D02*
X110193322Y-117183194D01*
X110164751Y-117240337D01*
X110107608Y-117268908D01*
X110050465Y-117268908D01*
X109850465Y-117040337D02*
X109393322Y-117040337D01*
X109107608Y-116868908D02*
X109107608Y-117468908D01*
X109107608Y-116897480D02*
X109050465Y-116868908D01*
X108936180Y-116868908D01*
X108879037Y-116897480D01*
X108850465Y-116926051D01*
X108821894Y-116983194D01*
X108821894Y-117154622D01*
X108850465Y-117211765D01*
X108879037Y-117240337D01*
X108936180Y-117268908D01*
X109050465Y-117268908D01*
X109107608Y-117240337D01*
X108479037Y-117268908D02*
X108536180Y-117240337D01*
X108564751Y-117211765D01*
X108593322Y-117154622D01*
X108593322Y-116983194D01*
X108564751Y-116926051D01*
X108536180Y-116897480D01*
X108479037Y-116868908D01*
X108393322Y-116868908D01*
X108336180Y-116897480D01*
X108307608Y-116926051D01*
X108279037Y-116983194D01*
X108279037Y-117154622D01*
X108307608Y-117211765D01*
X108336180Y-117240337D01*
X108393322Y-117268908D01*
X108479037Y-117268908D01*
X108050465Y-117240337D02*
X107993322Y-117268908D01*
X107879037Y-117268908D01*
X107821894Y-117240337D01*
X107793322Y-117183194D01*
X107793322Y-117154622D01*
X107821894Y-117097480D01*
X107879037Y-117068908D01*
X107964751Y-117068908D01*
X108021894Y-117040337D01*
X108050465Y-116983194D01*
X108050465Y-116954622D01*
X108021894Y-116897480D01*
X107964751Y-116868908D01*
X107879037Y-116868908D01*
X107821894Y-116897480D01*
X107621894Y-116868908D02*
X107393322Y-116868908D01*
X107536180Y-116668908D02*
X107536180Y-117183194D01*
X107507608Y-117240337D01*
X107450465Y-117268908D01*
X107393322Y-117268908D01*
X107193322Y-117268908D02*
X107193322Y-116668908D01*
X107193322Y-116897480D02*
X107136180Y-116868908D01*
X107021894Y-116868908D01*
X106964751Y-116897480D01*
X106936180Y-116926051D01*
X106907608Y-116983194D01*
X106907608Y-117154622D01*
X106936180Y-117211765D01*
X106964751Y-117240337D01*
X107021894Y-117268908D01*
X107136180Y-117268908D01*
X107193322Y-117240337D01*
X106564751Y-117268908D02*
X106621894Y-117240337D01*
X106650465Y-117211765D01*
X106679037Y-117154622D01*
X106679037Y-116983194D01*
X106650465Y-116926051D01*
X106621894Y-116897480D01*
X106564751Y-116868908D01*
X106479037Y-116868908D01*
X106421894Y-116897480D01*
X106393322Y-116926051D01*
X106364751Y-116983194D01*
X106364751Y-117154622D01*
X106393322Y-117211765D01*
X106421894Y-117240337D01*
X106479037Y-117268908D01*
X106564751Y-117268908D01*
X106164751Y-117268908D02*
X105850465Y-116868908D01*
X106164751Y-116868908D02*
X105850465Y-117268908D01*
D11*
X106584311Y-114903917D02*
X106298597Y-115703917D01*
X106012882Y-114903917D01*
X105555740Y-115589631D02*
X105498597Y-115646774D01*
X105555740Y-115703917D01*
X105612882Y-115646774D01*
X105555740Y-115589631D01*
X105555740Y-115703917D01*
X104755740Y-114503917D02*
X104641454Y-114503917D01*
X104527168Y-114561060D01*
X104470025Y-114618202D01*
X104412882Y-114732488D01*
X104355740Y-114961060D01*
X104355740Y-115246774D01*
X104412882Y-115475345D01*
X104470025Y-115589631D01*
X104527168Y-115646774D01*
X104641454Y-115703917D01*
X104755740Y-115703917D01*
X104870025Y-115646774D01*
X104927168Y-115589631D01*
X104984311Y-115475345D01*
X105041454Y-115246774D01*
X105041454Y-114961060D01*
X104984311Y-114732488D01*
X104927168Y-114618202D01*
X104870025Y-114561060D01*
X104755740Y-114503917D01*
X103841454Y-115589631D02*
X103784311Y-115646774D01*
X103841454Y-115703917D01*
X103898597Y-115646774D01*
X103841454Y-115589631D01*
X103841454Y-115703917D01*
X103041454Y-114503917D02*
X102927168Y-114503917D01*
X102812882Y-114561060D01*
X102755740Y-114618202D01*
X102698597Y-114732488D01*
X102641454Y-114961060D01*
X102641454Y-115246774D01*
X102698597Y-115475345D01*
X102755740Y-115589631D01*
X102812882Y-115646774D01*
X102927168Y-115703917D01*
X103041454Y-115703917D01*
X103155740Y-115646774D01*
X103212882Y-115589631D01*
X103270025Y-115475345D01*
X103327168Y-115246774D01*
X103327168Y-114961060D01*
X103270025Y-114732488D01*
X103212882Y-114618202D01*
X103155740Y-114561060D01*
X103041454Y-114503917D01*
D10*
X120945703Y-115332517D02*
X120679037Y-115332517D01*
X120564751Y-115751564D02*
X120945703Y-115751564D01*
X120945703Y-114951564D01*
X120564751Y-114951564D01*
X120259989Y-115713469D02*
X120145703Y-115751564D01*
X119955227Y-115751564D01*
X119879037Y-115713469D01*
X119840941Y-115675374D01*
X119802846Y-115599183D01*
X119802846Y-115522993D01*
X119840941Y-115446802D01*
X119879037Y-115408707D01*
X119955227Y-115370612D01*
X120107608Y-115332517D01*
X120183799Y-115294421D01*
X120221894Y-115256326D01*
X120259989Y-115180136D01*
X120259989Y-115103945D01*
X120221894Y-115027755D01*
X120183799Y-114989660D01*
X120107608Y-114951564D01*
X119917132Y-114951564D01*
X119802846Y-114989660D01*
X119459989Y-115751564D02*
X119459989Y-114951564D01*
X119155227Y-114951564D01*
X119079037Y-114989660D01*
X119040941Y-115027755D01*
X119002846Y-115103945D01*
X119002846Y-115218231D01*
X119040941Y-115294421D01*
X119079037Y-115332517D01*
X119155227Y-115370612D01*
X119459989Y-115370612D01*
X118545703Y-115294421D02*
X118621894Y-115256326D01*
X118659989Y-115218231D01*
X118698084Y-115142040D01*
X118698084Y-115103945D01*
X118659989Y-115027755D01*
X118621894Y-114989660D01*
X118545703Y-114951564D01*
X118393322Y-114951564D01*
X118317132Y-114989660D01*
X118279037Y-115027755D01*
X118240941Y-115103945D01*
X118240941Y-115142040D01*
X118279037Y-115218231D01*
X118317132Y-115256326D01*
X118393322Y-115294421D01*
X118545703Y-115294421D01*
X118621894Y-115332517D01*
X118659989Y-115370612D01*
X118698084Y-115446802D01*
X118698084Y-115599183D01*
X118659989Y-115675374D01*
X118621894Y-115713469D01*
X118545703Y-115751564D01*
X118393322Y-115751564D01*
X118317132Y-115713469D01*
X118279037Y-115675374D01*
X118240941Y-115599183D01*
X118240941Y-115446802D01*
X118279037Y-115370612D01*
X118317132Y-115332517D01*
X118393322Y-115294421D01*
X117936180Y-115027755D02*
X117898084Y-114989660D01*
X117821894Y-114951564D01*
X117631418Y-114951564D01*
X117555227Y-114989660D01*
X117517132Y-115027755D01*
X117479037Y-115103945D01*
X117479037Y-115180136D01*
X117517132Y-115294421D01*
X117974275Y-115751564D01*
X117479037Y-115751564D01*
X116793322Y-114951564D02*
X116945703Y-114951564D01*
X117021894Y-114989660D01*
X117059989Y-115027755D01*
X117136180Y-115142040D01*
X117174275Y-115294421D01*
X117174275Y-115599183D01*
X117136180Y-115675374D01*
X117098084Y-115713469D01*
X117021894Y-115751564D01*
X116869513Y-115751564D01*
X116793322Y-115713469D01*
X116755227Y-115675374D01*
X116717132Y-115599183D01*
X116717132Y-115408707D01*
X116755227Y-115332517D01*
X116793322Y-115294421D01*
X116869513Y-115256326D01*
X117021894Y-115256326D01*
X117098084Y-115294421D01*
X117136180Y-115332517D01*
X117174275Y-115408707D01*
X116031418Y-114951564D02*
X116183799Y-114951564D01*
X116259989Y-114989660D01*
X116298084Y-115027755D01*
X116374275Y-115142040D01*
X116412370Y-115294421D01*
X116412370Y-115599183D01*
X116374275Y-115675374D01*
X116336180Y-115713469D01*
X116259989Y-115751564D01*
X116107608Y-115751564D01*
X116031418Y-115713469D01*
X115993322Y-115675374D01*
X115955227Y-115599183D01*
X115955227Y-115408707D01*
X115993322Y-115332517D01*
X116031418Y-115294421D01*
X116107608Y-115256326D01*
X116259989Y-115256326D01*
X116336180Y-115294421D01*
X116374275Y-115332517D01*
X116412370Y-115408707D01*
D12*
X100123044Y-129703452D02*
X100123044Y-129855833D01*
X100161140Y-129932023D01*
X100237330Y-130008214D01*
X100389711Y-130046309D01*
X100656378Y-130046309D01*
X100808759Y-130008214D01*
X100884949Y-129932023D01*
X100923044Y-129855833D01*
X100923044Y-129703452D01*
X100884949Y-129627261D01*
X100808759Y-129551071D01*
X100656378Y-129512975D01*
X100389711Y-129512975D01*
X100237330Y-129551071D01*
X100161140Y-129627261D01*
X100123044Y-129703452D01*
X100503997Y-130655833D02*
X100503997Y-130389166D01*
X100923044Y-130389166D02*
X100123044Y-130389166D01*
X100123044Y-130770118D01*
X100503997Y-131341547D02*
X100503997Y-131074880D01*
X100923044Y-131074880D02*
X100123044Y-131074880D01*
X100123044Y-131455833D01*
X100084949Y-132332023D02*
X101113520Y-131646309D01*
X100123044Y-132751071D02*
X100123044Y-132903452D01*
X100161140Y-132979642D01*
X100237330Y-133055833D01*
X100389711Y-133093928D01*
X100656378Y-133093928D01*
X100808759Y-133055833D01*
X100884949Y-132979642D01*
X100923044Y-132903452D01*
X100923044Y-132751071D01*
X100884949Y-132674880D01*
X100808759Y-132598690D01*
X100656378Y-132560595D01*
X100389711Y-132560595D01*
X100237330Y-132598690D01*
X100161140Y-132674880D01*
X100123044Y-132751071D01*
X100923044Y-133436785D02*
X100123044Y-133436785D01*
X100923044Y-133893928D01*
X100123044Y-133893928D01*
D13*
X120606524Y-113114341D02*
X120356524Y-111114341D01*
X119368429Y-113114341D02*
X119547000Y-113019103D01*
X119630334Y-112923865D01*
X119701762Y-112733389D01*
X119630334Y-112161960D01*
X119511286Y-111971484D01*
X119404143Y-111876246D01*
X119201762Y-111781008D01*
X118916048Y-111781008D01*
X118737477Y-111876246D01*
X118654143Y-111971484D01*
X118582715Y-112161960D01*
X118654143Y-112733389D01*
X118773191Y-112923865D01*
X118880334Y-113019103D01*
X119082715Y-113114341D01*
X119368429Y-113114341D01*
X117880334Y-111114341D02*
X116737477Y-111114341D01*
X117558905Y-113114341D02*
X117308905Y-111114341D01*
X116225572Y-112352437D02*
X114701762Y-112352437D01*
X113844620Y-113114341D02*
X113594620Y-111114341D01*
X112832715Y-111114341D01*
X112654143Y-111209580D01*
X112570810Y-111304818D01*
X112499381Y-111495294D01*
X112535096Y-111781008D01*
X112654143Y-111971484D01*
X112761286Y-112066722D01*
X112963667Y-112161960D01*
X113725572Y-112161960D01*
X111558905Y-113114341D02*
X111737477Y-113019103D01*
X111820810Y-112923865D01*
X111892239Y-112733389D01*
X111820810Y-112161960D01*
X111701762Y-111971484D01*
X111594620Y-111876246D01*
X111392239Y-111781008D01*
X111106524Y-111781008D01*
X110927953Y-111876246D01*
X110844620Y-111971484D01*
X110773191Y-112161960D01*
X110844620Y-112733389D01*
X110963667Y-112923865D01*
X111070810Y-113019103D01*
X111273191Y-113114341D01*
X111558905Y-113114341D01*
X110118429Y-113019103D02*
X109939858Y-113114341D01*
X109558905Y-113114341D01*
X109356524Y-113019103D01*
X109237477Y-112828627D01*
X109225572Y-112733389D01*
X109297000Y-112542913D01*
X109475572Y-112447675D01*
X109761286Y-112447675D01*
X109939858Y-112352437D01*
X110011286Y-112161960D01*
X109999381Y-112066722D01*
X109880334Y-111876246D01*
X109677953Y-111781008D01*
X109392239Y-111781008D01*
X109213667Y-111876246D01*
X108535096Y-111781008D02*
X107773191Y-111781008D01*
X108166048Y-111114341D02*
X108380334Y-112828627D01*
X108308905Y-113019103D01*
X108130334Y-113114341D01*
X107939858Y-113114341D01*
X106475572Y-112066722D02*
X106201762Y-112161960D01*
X106118429Y-112257199D01*
X106047000Y-112447675D01*
X106082715Y-112733389D01*
X106201762Y-112923865D01*
X106308905Y-113019103D01*
X106511286Y-113114341D01*
X107273191Y-113114341D01*
X107023191Y-111114341D01*
X106356524Y-111114341D01*
X106177953Y-111209580D01*
X106094620Y-111304818D01*
X106023191Y-111495294D01*
X106047000Y-111685770D01*
X106166048Y-111876246D01*
X106273191Y-111971484D01*
X106475572Y-112066722D01*
X107142239Y-112066722D01*
X104987477Y-113114341D02*
X105166048Y-113019103D01*
X105249381Y-112923865D01*
X105320810Y-112733389D01*
X105249381Y-112161960D01*
X105130334Y-111971484D01*
X105023191Y-111876246D01*
X104820810Y-111781008D01*
X104535096Y-111781008D01*
X104356524Y-111876246D01*
X104273191Y-111971484D01*
X104201762Y-112161960D01*
X104273191Y-112733389D01*
X104392239Y-112923865D01*
X104499381Y-113019103D01*
X104701762Y-113114341D01*
X104987477Y-113114341D01*
X103654143Y-113114341D02*
X102439858Y-111781008D01*
X103487477Y-111781008D02*
X102606524Y-113114341D01*
D12*
X129515759Y-128771704D02*
X129058616Y-128771704D01*
X129387187Y-129571704D02*
X129287187Y-128771704D01*
X128906235Y-128771704D02*
X128449092Y-128771704D01*
X128777663Y-129571704D02*
X128677663Y-128771704D01*
X127901473Y-129571704D02*
X128282425Y-129571704D01*
X128182425Y-128771704D01*
X127834806Y-129647895D02*
X127225282Y-129647895D01*
X126925282Y-128771704D02*
X127006235Y-129419323D01*
X126977663Y-129495514D01*
X126944330Y-129533609D01*
X126872901Y-129571704D01*
X126720520Y-129571704D01*
X126639568Y-129533609D01*
X126596711Y-129495514D01*
X126549092Y-129419323D01*
X126468139Y-128771704D01*
X126196711Y-129343133D02*
X125815759Y-129343133D01*
X126301473Y-129571704D02*
X125934806Y-128771704D01*
X125768139Y-129571704D01*
X125044330Y-129571704D02*
X125263378Y-129190752D01*
X125501473Y-129571704D02*
X125401473Y-128771704D01*
X125096711Y-128771704D01*
X125025282Y-128809800D01*
X124991949Y-128847895D01*
X124963378Y-128924085D01*
X124977663Y-129038371D01*
X125025282Y-129114561D01*
X125068139Y-129152657D01*
X125149092Y-129190752D01*
X125453854Y-129190752D01*
X124715759Y-128771704D02*
X124258616Y-128771704D01*
X124587187Y-129571704D02*
X124487187Y-128771704D01*
X129534806Y-114217409D02*
X129425282Y-114255504D01*
X129234806Y-114255504D01*
X129153854Y-114217409D01*
X129110997Y-114179314D01*
X129063377Y-114103123D01*
X129053854Y-114026933D01*
X129082425Y-113950742D01*
X129115758Y-113912647D01*
X129187187Y-113874552D01*
X129334806Y-113836457D01*
X129406235Y-113798361D01*
X129439568Y-113760266D01*
X129468139Y-113684076D01*
X129458616Y-113607885D01*
X129410997Y-113531695D01*
X129368139Y-113493600D01*
X129287187Y-113455504D01*
X129096711Y-113455504D01*
X128987187Y-113493600D01*
X128749092Y-113722171D02*
X128663377Y-114255504D01*
X128463377Y-113874552D01*
X128358616Y-114255504D01*
X128139568Y-113722171D01*
X127901473Y-114255504D02*
X127834806Y-113722171D01*
X127801473Y-113455504D02*
X127844330Y-113493600D01*
X127810997Y-113531695D01*
X127768139Y-113493600D01*
X127801473Y-113455504D01*
X127810997Y-113531695D01*
X127568139Y-113722171D02*
X127263377Y-113722171D01*
X127420520Y-113455504D02*
X127506235Y-114141219D01*
X127477663Y-114217409D01*
X127406235Y-114255504D01*
X127330044Y-114255504D01*
X126715758Y-114217409D02*
X126796711Y-114255504D01*
X126949092Y-114255504D01*
X127020520Y-114217409D01*
X127053854Y-114179314D01*
X127082425Y-114103123D01*
X127053854Y-113874552D01*
X127006235Y-113798361D01*
X126963377Y-113760266D01*
X126882425Y-113722171D01*
X126730044Y-113722171D01*
X126658616Y-113760266D01*
X126377663Y-114255504D02*
X126277663Y-113455504D01*
X126034806Y-114255504D02*
X125982425Y-113836457D01*
X126010997Y-113760266D01*
X126082425Y-113722171D01*
X126196711Y-113722171D01*
X126277663Y-113760266D01*
X126320520Y-113798361D01*
X125853854Y-114331695D02*
X125244330Y-114331695D01*
X124991949Y-113531695D02*
X124949092Y-113493600D01*
X124868139Y-113455504D01*
X124677663Y-113455504D01*
X124606235Y-113493600D01*
X124572901Y-113531695D01*
X124544330Y-113607885D01*
X124553854Y-113684076D01*
X124606235Y-113798361D01*
X125120520Y-114255504D01*
X124625282Y-114255504D01*
X129534806Y-121862809D02*
X129425282Y-121900904D01*
X129234806Y-121900904D01*
X129153854Y-121862809D01*
X129110997Y-121824714D01*
X129063377Y-121748523D01*
X129053854Y-121672333D01*
X129082425Y-121596142D01*
X129115758Y-121558047D01*
X129187187Y-121519952D01*
X129334806Y-121481857D01*
X129406235Y-121443761D01*
X129439568Y-121405666D01*
X129468139Y-121329476D01*
X129458616Y-121253285D01*
X129410997Y-121177095D01*
X129368139Y-121139000D01*
X129287187Y-121100904D01*
X129096711Y-121100904D01*
X128987187Y-121139000D01*
X128749092Y-121367571D02*
X128663377Y-121900904D01*
X128463377Y-121519952D01*
X128358616Y-121900904D01*
X128139568Y-121367571D01*
X127901473Y-121900904D02*
X127834806Y-121367571D01*
X127801473Y-121100904D02*
X127844330Y-121139000D01*
X127810997Y-121177095D01*
X127768139Y-121139000D01*
X127801473Y-121100904D01*
X127810997Y-121177095D01*
X127568139Y-121367571D02*
X127263377Y-121367571D01*
X127420520Y-121100904D02*
X127506235Y-121786619D01*
X127477663Y-121862809D01*
X127406235Y-121900904D01*
X127330044Y-121900904D01*
X126715758Y-121862809D02*
X126796711Y-121900904D01*
X126949092Y-121900904D01*
X127020520Y-121862809D01*
X127053854Y-121824714D01*
X127082425Y-121748523D01*
X127053854Y-121519952D01*
X127006235Y-121443761D01*
X126963377Y-121405666D01*
X126882425Y-121367571D01*
X126730044Y-121367571D01*
X126658616Y-121405666D01*
X126377663Y-121900904D02*
X126277663Y-121100904D01*
X126034806Y-121900904D02*
X125982425Y-121481857D01*
X126010997Y-121405666D01*
X126082425Y-121367571D01*
X126196711Y-121367571D01*
X126277663Y-121405666D01*
X126320520Y-121443761D01*
X125853854Y-121977095D02*
X125244330Y-121977095D01*
X124625282Y-121900904D02*
X125082425Y-121900904D01*
X124853854Y-121900904D02*
X124753854Y-121100904D01*
X124844330Y-121215190D01*
X124930044Y-121291380D01*
X125010997Y-121329476D01*
X127435909Y-118078304D02*
X127169242Y-118878304D01*
X126902576Y-118078304D01*
X126178766Y-118802114D02*
X126216861Y-118840209D01*
X126331147Y-118878304D01*
X126407338Y-118878304D01*
X126521623Y-118840209D01*
X126597814Y-118764019D01*
X126635909Y-118687828D01*
X126674004Y-118535447D01*
X126674004Y-118421161D01*
X126635909Y-118268780D01*
X126597814Y-118192590D01*
X126521623Y-118116400D01*
X126407338Y-118078304D01*
X126331147Y-118078304D01*
X126216861Y-118116400D01*
X126178766Y-118154495D01*
X125378766Y-118802114D02*
X125416861Y-118840209D01*
X125531147Y-118878304D01*
X125607338Y-118878304D01*
X125721623Y-118840209D01*
X125797814Y-118764019D01*
X125835909Y-118687828D01*
X125874004Y-118535447D01*
X125874004Y-118421161D01*
X125835909Y-118268780D01*
X125797814Y-118192590D01*
X125721623Y-118116400D01*
X125607338Y-118078304D01*
X125531147Y-118078304D01*
X125416861Y-118116400D01*
X125378766Y-118154495D01*
X126902576Y-115576400D02*
X126978766Y-115538304D01*
X127093052Y-115538304D01*
X127207338Y-115576400D01*
X127283528Y-115652590D01*
X127321623Y-115728780D01*
X127359719Y-115881161D01*
X127359719Y-115995447D01*
X127321623Y-116147828D01*
X127283528Y-116224019D01*
X127207338Y-116300209D01*
X127093052Y-116338304D01*
X127016861Y-116338304D01*
X126902576Y-116300209D01*
X126864480Y-116262114D01*
X126864480Y-115995447D01*
X127016861Y-115995447D01*
X126521623Y-116338304D02*
X126521623Y-115538304D01*
X126216861Y-115538304D01*
X126140671Y-115576400D01*
X126102576Y-115614495D01*
X126064480Y-115690685D01*
X126064480Y-115804971D01*
X126102576Y-115881161D01*
X126140671Y-115919257D01*
X126216861Y-115957352D01*
X126521623Y-115957352D01*
X125721623Y-116338304D02*
X125721623Y-115538304D01*
X125188290Y-115538304D02*
X125035909Y-115538304D01*
X124959719Y-115576400D01*
X124883528Y-115652590D01*
X124845433Y-115804971D01*
X124845433Y-116071638D01*
X124883528Y-116224019D01*
X124959719Y-116300209D01*
X125035909Y-116338304D01*
X125188290Y-116338304D01*
X125264480Y-116300209D01*
X125340671Y-116224019D01*
X125378766Y-116071638D01*
X125378766Y-115804971D01*
X125340671Y-115652590D01*
X125264480Y-115576400D01*
X125188290Y-115538304D01*
X124083528Y-116338304D02*
X124540671Y-116338304D01*
X124312100Y-116338304D02*
X124312100Y-115538304D01*
X124388290Y-115652590D01*
X124464480Y-115728780D01*
X124540671Y-115766876D01*
X123778766Y-115614495D02*
X123740671Y-115576400D01*
X123664480Y-115538304D01*
X123474004Y-115538304D01*
X123397814Y-115576400D01*
X123359719Y-115614495D01*
X123321623Y-115690685D01*
X123321623Y-115766876D01*
X123359719Y-115881161D01*
X123816861Y-116338304D01*
X123321623Y-116338304D01*
X126927976Y-125711000D02*
X127004166Y-125672904D01*
X127118452Y-125672904D01*
X127232738Y-125711000D01*
X127308928Y-125787190D01*
X127347023Y-125863380D01*
X127385119Y-126015761D01*
X127385119Y-126130047D01*
X127347023Y-126282428D01*
X127308928Y-126358619D01*
X127232738Y-126434809D01*
X127118452Y-126472904D01*
X127042261Y-126472904D01*
X126927976Y-126434809D01*
X126889880Y-126396714D01*
X126889880Y-126130047D01*
X127042261Y-126130047D01*
X126547023Y-126472904D02*
X126547023Y-125672904D01*
X126242261Y-125672904D01*
X126166071Y-125711000D01*
X126127976Y-125749095D01*
X126089880Y-125825285D01*
X126089880Y-125939571D01*
X126127976Y-126015761D01*
X126166071Y-126053857D01*
X126242261Y-126091952D01*
X126547023Y-126091952D01*
X125747023Y-126472904D02*
X125747023Y-125672904D01*
X125213690Y-125672904D02*
X125061309Y-125672904D01*
X124985119Y-125711000D01*
X124908928Y-125787190D01*
X124870833Y-125939571D01*
X124870833Y-126206238D01*
X124908928Y-126358619D01*
X124985119Y-126434809D01*
X125061309Y-126472904D01*
X125213690Y-126472904D01*
X125289880Y-126434809D01*
X125366071Y-126358619D01*
X125404166Y-126206238D01*
X125404166Y-125939571D01*
X125366071Y-125787190D01*
X125289880Y-125711000D01*
X125213690Y-125672904D01*
X124108928Y-126472904D02*
X124566071Y-126472904D01*
X124337500Y-126472904D02*
X124337500Y-125672904D01*
X124413690Y-125787190D01*
X124489880Y-125863380D01*
X124566071Y-125901476D01*
X123842261Y-125672904D02*
X123347023Y-125672904D01*
X123613690Y-125977666D01*
X123499404Y-125977666D01*
X123423214Y-126015761D01*
X123385119Y-126053857D01*
X123347023Y-126130047D01*
X123347023Y-126320523D01*
X123385119Y-126396714D01*
X123423214Y-126434809D01*
X123499404Y-126472904D01*
X123727976Y-126472904D01*
X123804166Y-126434809D01*
X123842261Y-126396714D01*
X127461309Y-123132904D02*
X127194642Y-123932904D01*
X126927976Y-123132904D01*
X126204166Y-123856714D02*
X126242261Y-123894809D01*
X126356547Y-123932904D01*
X126432738Y-123932904D01*
X126547023Y-123894809D01*
X126623214Y-123818619D01*
X126661309Y-123742428D01*
X126699404Y-123590047D01*
X126699404Y-123475761D01*
X126661309Y-123323380D01*
X126623214Y-123247190D01*
X126547023Y-123171000D01*
X126432738Y-123132904D01*
X126356547Y-123132904D01*
X126242261Y-123171000D01*
X126204166Y-123209095D01*
X125404166Y-123856714D02*
X125442261Y-123894809D01*
X125556547Y-123932904D01*
X125632738Y-123932904D01*
X125747023Y-123894809D01*
X125823214Y-123818619D01*
X125861309Y-123742428D01*
X125899404Y-123590047D01*
X125899404Y-123475761D01*
X125861309Y-123323380D01*
X125823214Y-123247190D01*
X125747023Y-123171000D01*
X125632738Y-123132904D01*
X125556547Y-123132904D01*
X125442261Y-123171000D01*
X125404166Y-123209095D01*
X108887614Y-145764257D02*
X108778090Y-145802352D01*
X108744757Y-145840447D01*
X108716185Y-145916638D01*
X108730471Y-146030923D01*
X108778090Y-146107114D01*
X108820947Y-146145209D01*
X108901900Y-146183304D01*
X109206661Y-146183304D01*
X109106661Y-145383304D01*
X108839995Y-145383304D01*
X108768566Y-145421400D01*
X108735233Y-145459495D01*
X108706661Y-145535685D01*
X108716185Y-145611876D01*
X108763804Y-145688066D01*
X108806661Y-145726161D01*
X108887614Y-145764257D01*
X109154280Y-145764257D01*
X108063804Y-146183304D02*
X108011423Y-145764257D01*
X108039995Y-145688066D01*
X108111423Y-145649971D01*
X108263804Y-145649971D01*
X108344757Y-145688066D01*
X108059042Y-146145209D02*
X108139995Y-146183304D01*
X108330471Y-146183304D01*
X108401900Y-146145209D01*
X108430471Y-146069019D01*
X108420947Y-145992828D01*
X108373328Y-145916638D01*
X108292376Y-145878542D01*
X108101900Y-145878542D01*
X108020947Y-145840447D01*
X107730471Y-145649971D02*
X107425709Y-145649971D01*
X107582852Y-145383304D02*
X107668566Y-146069019D01*
X107639995Y-146145209D01*
X107568566Y-146183304D01*
X107492376Y-146183304D01*
X107273328Y-145649971D02*
X106968566Y-145649971D01*
X107125709Y-145383304D02*
X107211423Y-146069019D01*
X107182852Y-146145209D01*
X107111423Y-146183304D01*
X107035233Y-146183304D01*
X106459042Y-146145209D02*
X106539995Y-146183304D01*
X106692376Y-146183304D01*
X106763804Y-146145209D01*
X106792376Y-146069019D01*
X106754280Y-145764257D01*
X106706661Y-145688066D01*
X106625709Y-145649971D01*
X106473328Y-145649971D01*
X106401900Y-145688066D01*
X106373328Y-145764257D01*
X106382852Y-145840447D01*
X106773328Y-145916638D01*
X106082852Y-146183304D02*
X106016185Y-145649971D01*
X106035233Y-145802352D02*
X105987614Y-145726161D01*
X105944757Y-145688066D01*
X105863804Y-145649971D01*
X105787614Y-145649971D01*
X105597138Y-145649971D02*
X105473328Y-146183304D01*
X105216185Y-145649971D02*
X105473328Y-146183304D01*
X105573328Y-146373780D01*
X105616185Y-146411876D01*
X105697138Y-146449971D01*
X104368566Y-146183304D02*
X104268566Y-145383304D01*
X103963804Y-145383304D01*
X103892376Y-145421400D01*
X103859042Y-145459495D01*
X103830471Y-145535685D01*
X103844757Y-145649971D01*
X103892376Y-145726161D01*
X103935233Y-145764257D01*
X104016185Y-145802352D01*
X104320947Y-145802352D01*
X103454280Y-146183304D02*
X103525709Y-146145209D01*
X103559042Y-146107114D01*
X103587614Y-146030923D01*
X103559042Y-145802352D01*
X103511423Y-145726161D01*
X103468566Y-145688066D01*
X103387614Y-145649971D01*
X103273328Y-145649971D01*
X103201900Y-145688066D01*
X103168566Y-145726161D01*
X103139995Y-145802352D01*
X103168566Y-146030923D01*
X103216185Y-146107114D01*
X103259042Y-146145209D01*
X103339995Y-146183304D01*
X103454280Y-146183304D01*
X102854280Y-145649971D02*
X102768566Y-146183304D01*
X102568566Y-145802352D01*
X102463804Y-146183304D01*
X102244757Y-145649971D01*
X101697138Y-146145209D02*
X101778090Y-146183304D01*
X101930471Y-146183304D01*
X102001900Y-146145209D01*
X102030471Y-146069019D01*
X101992376Y-145764257D01*
X101944757Y-145688066D01*
X101863804Y-145649971D01*
X101711423Y-145649971D01*
X101639995Y-145688066D01*
X101611423Y-145764257D01*
X101620947Y-145840447D01*
X102011423Y-145916638D01*
X101320947Y-146183304D02*
X101254280Y-145649971D01*
X101273328Y-145802352D02*
X101225709Y-145726161D01*
X101182852Y-145688066D01*
X101101900Y-145649971D01*
X101025709Y-145649971D01*
X105951671Y-150241357D02*
X105837385Y-150279452D01*
X105799290Y-150317547D01*
X105761195Y-150393738D01*
X105761195Y-150508023D01*
X105799290Y-150584214D01*
X105837385Y-150622309D01*
X105913576Y-150660404D01*
X106218338Y-150660404D01*
X106218338Y-149860404D01*
X105951671Y-149860404D01*
X105875480Y-149898500D01*
X105837385Y-149936595D01*
X105799290Y-150012785D01*
X105799290Y-150088976D01*
X105837385Y-150165166D01*
X105875480Y-150203261D01*
X105951671Y-150241357D01*
X106218338Y-150241357D01*
X105456433Y-150431833D02*
X105075480Y-150431833D01*
X105532623Y-150660404D02*
X105265957Y-149860404D01*
X104999290Y-150660404D01*
X104846909Y-149860404D02*
X104389766Y-149860404D01*
X104618338Y-150660404D02*
X104618338Y-149860404D01*
X104123100Y-150355642D02*
X103513576Y-150355642D01*
X103818338Y-150660404D02*
X103818338Y-150050880D01*
X105951671Y-147701357D02*
X105837385Y-147739452D01*
X105799290Y-147777547D01*
X105761195Y-147853738D01*
X105761195Y-147968023D01*
X105799290Y-148044214D01*
X105837385Y-148082309D01*
X105913576Y-148120404D01*
X106218338Y-148120404D01*
X106218338Y-147320404D01*
X105951671Y-147320404D01*
X105875480Y-147358500D01*
X105837385Y-147396595D01*
X105799290Y-147472785D01*
X105799290Y-147548976D01*
X105837385Y-147625166D01*
X105875480Y-147663261D01*
X105951671Y-147701357D01*
X106218338Y-147701357D01*
X105456433Y-147891833D02*
X105075480Y-147891833D01*
X105532623Y-148120404D02*
X105265957Y-147320404D01*
X104999290Y-148120404D01*
X104846909Y-147320404D02*
X104389766Y-147320404D01*
X104618338Y-148120404D02*
X104618338Y-147320404D01*
X104123100Y-147815642D02*
X103513576Y-147815642D01*
X127347023Y-131578304D02*
X127347023Y-130778304D01*
X126966071Y-131578304D02*
X126966071Y-130778304D01*
X126508928Y-131578304D01*
X126508928Y-130778304D01*
X126127976Y-131273542D02*
X125518452Y-131273542D01*
X122313061Y-144202104D02*
X122213061Y-143402104D01*
X122017823Y-143973533D01*
X121679728Y-143402104D01*
X121779728Y-144202104D01*
X121055919Y-144202104D02*
X121003538Y-143783057D01*
X121032109Y-143706866D01*
X121103538Y-143668771D01*
X121255919Y-143668771D01*
X121336871Y-143706866D01*
X121051157Y-144164009D02*
X121132109Y-144202104D01*
X121322585Y-144202104D01*
X121394014Y-144164009D01*
X121422585Y-144087819D01*
X121413061Y-144011628D01*
X121365442Y-143935438D01*
X121284490Y-143897342D01*
X121094014Y-143897342D01*
X121013061Y-143859247D01*
X120674966Y-144202104D02*
X120608300Y-143668771D01*
X120574966Y-143402104D02*
X120617823Y-143440200D01*
X120584490Y-143478295D01*
X120541633Y-143440200D01*
X120574966Y-143402104D01*
X120584490Y-143478295D01*
X120227347Y-143668771D02*
X120294014Y-144202104D01*
X120236871Y-143744961D02*
X120194014Y-143706866D01*
X120113061Y-143668771D01*
X119998776Y-143668771D01*
X119927347Y-143706866D01*
X119898776Y-143783057D01*
X119951157Y-144202104D01*
X118960680Y-144202104D02*
X118860680Y-143402104D01*
X118555919Y-143402104D01*
X118484490Y-143440200D01*
X118451157Y-143478295D01*
X118422585Y-143554485D01*
X118436871Y-143668771D01*
X118484490Y-143744961D01*
X118527347Y-143783057D01*
X118608300Y-143821152D01*
X118913061Y-143821152D01*
X118046395Y-144202104D02*
X118117823Y-144164009D01*
X118151157Y-144125914D01*
X118179728Y-144049723D01*
X118151157Y-143821152D01*
X118103538Y-143744961D01*
X118060680Y-143706866D01*
X117979728Y-143668771D01*
X117865442Y-143668771D01*
X117794014Y-143706866D01*
X117760680Y-143744961D01*
X117732109Y-143821152D01*
X117760680Y-144049723D01*
X117808300Y-144125914D01*
X117851157Y-144164009D01*
X117932109Y-144202104D01*
X118046395Y-144202104D01*
X117446395Y-143668771D02*
X117360680Y-144202104D01*
X117160680Y-143821152D01*
X117055919Y-144202104D01*
X116836871Y-143668771D01*
X116289252Y-144164009D02*
X116370204Y-144202104D01*
X116522585Y-144202104D01*
X116594014Y-144164009D01*
X116622585Y-144087819D01*
X116584490Y-143783057D01*
X116536871Y-143706866D01*
X116455919Y-143668771D01*
X116303538Y-143668771D01*
X116232109Y-143706866D01*
X116203538Y-143783057D01*
X116213061Y-143859247D01*
X116603538Y-143935438D01*
X115913061Y-144202104D02*
X115846395Y-143668771D01*
X115865442Y-143821152D02*
X115817823Y-143744961D01*
X115774966Y-143706866D01*
X115694014Y-143668771D01*
X115617823Y-143668771D01*
D14*
X128778000Y-148082000D02*
X128778000Y-148717000D01*
X125603000Y-148082000D02*
X128778000Y-148082000D01*
X122809000Y-145288000D02*
X125603000Y-148082000D01*
X121666000Y-145288000D02*
X122809000Y-145288000D01*
X124079000Y-150368000D02*
X124587000Y-150368000D01*
X124079000Y-148082000D02*
X124079000Y-150368000D01*
X122682000Y-146685000D02*
X124079000Y-148082000D01*
X121666000Y-146685000D02*
X122682000Y-146685000D01*
D12*
X121251023Y-147046904D02*
X121251023Y-146246904D01*
X120870071Y-147046904D02*
X120870071Y-146246904D01*
X120412928Y-147046904D01*
X120412928Y-146246904D01*
X120031976Y-146742142D02*
X119422452Y-146742142D01*
X119727214Y-147046904D02*
X119727214Y-146437380D01*
X121251023Y-145649904D02*
X121251023Y-144849904D01*
X120870071Y-145649904D02*
X120870071Y-144849904D01*
X120412928Y-145649904D01*
X120412928Y-144849904D01*
X120031976Y-145345142D02*
X119422452Y-145345142D01*
X127347023Y-146792904D02*
X127347023Y-145992904D01*
X126966071Y-146792904D02*
X126966071Y-145992904D01*
X126508928Y-146792904D01*
X126508928Y-145992904D01*
X126127976Y-146488142D02*
X125518452Y-146488142D01*
X125823214Y-146792904D02*
X125823214Y-146183380D01*
X126889880Y-144176714D02*
X126927976Y-144214809D01*
X127042261Y-144252904D01*
X127118452Y-144252904D01*
X127232738Y-144214809D01*
X127308928Y-144138619D01*
X127347023Y-144062428D01*
X127385119Y-143910047D01*
X127385119Y-143795761D01*
X127347023Y-143643380D01*
X127308928Y-143567190D01*
X127232738Y-143491000D01*
X127118452Y-143452904D01*
X127042261Y-143452904D01*
X126927976Y-143491000D01*
X126889880Y-143529095D01*
X126547023Y-144252904D02*
X126547023Y-143452904D01*
X126547023Y-143833857D02*
X126089880Y-143833857D01*
X126089880Y-144252904D02*
X126089880Y-143452904D01*
X125708928Y-144252904D02*
X125708928Y-143452904D01*
X125404166Y-143452904D01*
X125327976Y-143491000D01*
X125289880Y-143529095D01*
X125251785Y-143605285D01*
X125251785Y-143719571D01*
X125289880Y-143795761D01*
X125327976Y-143833857D01*
X125404166Y-143871952D01*
X125708928Y-143871952D01*
X124908928Y-144252904D02*
X124908928Y-143452904D01*
X124718452Y-143452904D01*
X124604166Y-143491000D01*
X124527976Y-143567190D01*
X124489880Y-143643380D01*
X124451785Y-143795761D01*
X124451785Y-143910047D01*
X124489880Y-144062428D01*
X124527976Y-144138619D01*
X124604166Y-144214809D01*
X124718452Y-144252904D01*
X124908928Y-144252904D01*
X126889880Y-141712904D02*
X127156547Y-141331952D01*
X127347023Y-141712904D02*
X127347023Y-140912904D01*
X127042261Y-140912904D01*
X126966071Y-140951000D01*
X126927976Y-140989095D01*
X126889880Y-141065285D01*
X126889880Y-141179571D01*
X126927976Y-141255761D01*
X126966071Y-141293857D01*
X127042261Y-141331952D01*
X127347023Y-141331952D01*
X126585119Y-141674809D02*
X126470833Y-141712904D01*
X126280357Y-141712904D01*
X126204166Y-141674809D01*
X126166071Y-141636714D01*
X126127976Y-141560523D01*
X126127976Y-141484333D01*
X126166071Y-141408142D01*
X126204166Y-141370047D01*
X126280357Y-141331952D01*
X126432738Y-141293857D01*
X126508928Y-141255761D01*
X126547023Y-141217666D01*
X126585119Y-141141476D01*
X126585119Y-141065285D01*
X126547023Y-140989095D01*
X126508928Y-140951000D01*
X126432738Y-140912904D01*
X126242261Y-140912904D01*
X126127976Y-140951000D01*
X125899404Y-140912904D02*
X125442261Y-140912904D01*
X125670833Y-141712904D02*
X125670833Y-140912904D01*
X126927976Y-138411000D02*
X127004166Y-138372904D01*
X127118452Y-138372904D01*
X127232738Y-138411000D01*
X127308928Y-138487190D01*
X127347023Y-138563380D01*
X127385119Y-138715761D01*
X127385119Y-138830047D01*
X127347023Y-138982428D01*
X127308928Y-139058619D01*
X127232738Y-139134809D01*
X127118452Y-139172904D01*
X127042261Y-139172904D01*
X126927976Y-139134809D01*
X126889880Y-139096714D01*
X126889880Y-138830047D01*
X127042261Y-138830047D01*
X126547023Y-139172904D02*
X126547023Y-138372904D01*
X126242261Y-138372904D01*
X126166071Y-138411000D01*
X126127976Y-138449095D01*
X126089880Y-138525285D01*
X126089880Y-138639571D01*
X126127976Y-138715761D01*
X126166071Y-138753857D01*
X126242261Y-138791952D01*
X126547023Y-138791952D01*
X125747023Y-139172904D02*
X125747023Y-138372904D01*
X125213690Y-138372904D02*
X125061309Y-138372904D01*
X124985119Y-138411000D01*
X124908928Y-138487190D01*
X124870833Y-138639571D01*
X124870833Y-138906238D01*
X124908928Y-139058619D01*
X124985119Y-139134809D01*
X125061309Y-139172904D01*
X125213690Y-139172904D01*
X125289880Y-139134809D01*
X125366071Y-139058619D01*
X125404166Y-138906238D01*
X125404166Y-138639571D01*
X125366071Y-138487190D01*
X125289880Y-138411000D01*
X125213690Y-138372904D01*
X124375595Y-138372904D02*
X124299404Y-138372904D01*
X124223214Y-138411000D01*
X124185119Y-138449095D01*
X124147023Y-138525285D01*
X124108928Y-138677666D01*
X124108928Y-138868142D01*
X124147023Y-139020523D01*
X124185119Y-139096714D01*
X124223214Y-139134809D01*
X124299404Y-139172904D01*
X124375595Y-139172904D01*
X124451785Y-139134809D01*
X124489880Y-139096714D01*
X124527976Y-139020523D01*
X124566071Y-138868142D01*
X124566071Y-138677666D01*
X124527976Y-138525285D01*
X124489880Y-138449095D01*
X124451785Y-138411000D01*
X124375595Y-138372904D01*
X127461309Y-135832904D02*
X127004166Y-135832904D01*
X127232738Y-136632904D02*
X127232738Y-135832904D01*
X126813690Y-135832904D02*
X126280357Y-136632904D01*
X126280357Y-135832904D02*
X126813690Y-136632904D01*
X126889880Y-134092904D02*
X127156547Y-133711952D01*
X127347023Y-134092904D02*
X127347023Y-133292904D01*
X127042261Y-133292904D01*
X126966071Y-133331000D01*
X126927976Y-133369095D01*
X126889880Y-133445285D01*
X126889880Y-133559571D01*
X126927976Y-133635761D01*
X126966071Y-133673857D01*
X127042261Y-133711952D01*
X127347023Y-133711952D01*
X126623214Y-133292904D02*
X126089880Y-134092904D01*
X126089880Y-133292904D02*
X126623214Y-134092904D01*
M02*
