%TF.GenerationSoftware,KiCad,Pcbnew,(5.0.2)-1*%
%TF.CreationDate,2021-01-29T10:22:33+01:00*%
%TF.ProjectId,radar_d1_mini_pcb,72616461-725f-4643-915f-6d696e695f70,rev?*%
%TF.SameCoordinates,Original*%
%TF.FileFunction,Legend,Bot*%
%TF.FilePolarity,Positive*%
%FSLAX46Y46*%
G04 Gerber Fmt 4.6, Leading zero omitted, Abs format (unit mm)*
G04 Created by KiCad (PCBNEW (5.0.2)-1) date 29/01/2021 10:22:33*
%MOMM*%
%LPD*%
G01*
G04 APERTURE LIST*
%ADD10C,0.150000*%
%ADD11C,0.200000*%
%ADD12C,0.300000*%
%ADD13C,0.100000*%
G04 APERTURE END LIST*
D10*
X130444761Y-122333428D02*
X128444761Y-122333428D01*
X128444761Y-122809619D01*
X128540000Y-123095333D01*
X128730476Y-123285809D01*
X128920952Y-123381047D01*
X129301904Y-123476285D01*
X129587619Y-123476285D01*
X129968571Y-123381047D01*
X130159047Y-123285809D01*
X130349523Y-123095333D01*
X130444761Y-122809619D01*
X130444761Y-122333428D01*
X130444761Y-125381047D02*
X130444761Y-124238190D01*
X130444761Y-124809619D02*
X128444761Y-124809619D01*
X128730476Y-124619142D01*
X128920952Y-124428666D01*
X129016190Y-124238190D01*
X130444761Y-127762000D02*
X129111428Y-127762000D01*
X129301904Y-127762000D02*
X129206666Y-127857238D01*
X129111428Y-128047714D01*
X129111428Y-128333428D01*
X129206666Y-128523904D01*
X129397142Y-128619142D01*
X130444761Y-128619142D01*
X129397142Y-128619142D02*
X129206666Y-128714380D01*
X129111428Y-128904857D01*
X129111428Y-129190571D01*
X129206666Y-129381047D01*
X129397142Y-129476285D01*
X130444761Y-129476285D01*
X130444761Y-130428666D02*
X129111428Y-130428666D01*
X128444761Y-130428666D02*
X128540000Y-130333428D01*
X128635238Y-130428666D01*
X128540000Y-130523904D01*
X128444761Y-130428666D01*
X128635238Y-130428666D01*
X129111428Y-131381047D02*
X130444761Y-131381047D01*
X129301904Y-131381047D02*
X129206666Y-131476285D01*
X129111428Y-131666761D01*
X129111428Y-131952476D01*
X129206666Y-132142952D01*
X129397142Y-132238190D01*
X130444761Y-132238190D01*
X130444761Y-133190571D02*
X129111428Y-133190571D01*
X128444761Y-133190571D02*
X128540000Y-133095333D01*
X128635238Y-133190571D01*
X128540000Y-133285809D01*
X128444761Y-133190571D01*
X128635238Y-133190571D01*
D11*
X142506476Y-122243904D02*
X141973142Y-123043904D01*
X141973142Y-122243904D02*
X142506476Y-123043904D01*
X141706476Y-123005809D02*
X141592190Y-123043904D01*
X141401714Y-123043904D01*
X141325523Y-123005809D01*
X141287428Y-122967714D01*
X141249333Y-122891523D01*
X141249333Y-122815333D01*
X141287428Y-122739142D01*
X141325523Y-122701047D01*
X141401714Y-122662952D01*
X141554095Y-122624857D01*
X141630285Y-122586761D01*
X141668380Y-122548666D01*
X141706476Y-122472476D01*
X141706476Y-122396285D01*
X141668380Y-122320095D01*
X141630285Y-122282000D01*
X141554095Y-122243904D01*
X141363619Y-122243904D01*
X141249333Y-122282000D01*
X140906476Y-123043904D02*
X140906476Y-122243904D01*
X140906476Y-122624857D02*
X140449333Y-122624857D01*
X140449333Y-123043904D02*
X140449333Y-122243904D01*
X140068380Y-122243904D02*
X140068380Y-122891523D01*
X140030285Y-122967714D01*
X139992190Y-123005809D01*
X139916000Y-123043904D01*
X139763619Y-123043904D01*
X139687428Y-123005809D01*
X139649333Y-122967714D01*
X139611238Y-122891523D01*
X139611238Y-122243904D01*
X139344571Y-122243904D02*
X138887428Y-122243904D01*
X139116000Y-123043904D02*
X139116000Y-122243904D01*
X141668380Y-125545809D02*
X141554095Y-125583904D01*
X141363619Y-125583904D01*
X141287428Y-125545809D01*
X141249333Y-125507714D01*
X141211238Y-125431523D01*
X141211238Y-125355333D01*
X141249333Y-125279142D01*
X141287428Y-125241047D01*
X141363619Y-125202952D01*
X141516000Y-125164857D01*
X141592190Y-125126761D01*
X141630285Y-125088666D01*
X141668380Y-125012476D01*
X141668380Y-124936285D01*
X141630285Y-124860095D01*
X141592190Y-124822000D01*
X141516000Y-124783904D01*
X141325523Y-124783904D01*
X141211238Y-124822000D01*
X140411238Y-125507714D02*
X140449333Y-125545809D01*
X140563619Y-125583904D01*
X140639809Y-125583904D01*
X140754095Y-125545809D01*
X140830285Y-125469619D01*
X140868380Y-125393428D01*
X140906476Y-125241047D01*
X140906476Y-125126761D01*
X140868380Y-124974380D01*
X140830285Y-124898190D01*
X140754095Y-124822000D01*
X140639809Y-124783904D01*
X140563619Y-124783904D01*
X140449333Y-124822000D01*
X140411238Y-124860095D01*
X139687428Y-125583904D02*
X140068380Y-125583904D01*
X140068380Y-124783904D01*
X141687428Y-128085809D02*
X141573142Y-128123904D01*
X141382666Y-128123904D01*
X141306476Y-128085809D01*
X141268380Y-128047714D01*
X141230285Y-127971523D01*
X141230285Y-127895333D01*
X141268380Y-127819142D01*
X141306476Y-127781047D01*
X141382666Y-127742952D01*
X141535047Y-127704857D01*
X141611238Y-127666761D01*
X141649333Y-127628666D01*
X141687428Y-127552476D01*
X141687428Y-127476285D01*
X141649333Y-127400095D01*
X141611238Y-127362000D01*
X141535047Y-127323904D01*
X141344571Y-127323904D01*
X141230285Y-127362000D01*
X140887428Y-128123904D02*
X140887428Y-127323904D01*
X140696952Y-127323904D01*
X140582666Y-127362000D01*
X140506476Y-127438190D01*
X140468380Y-127514380D01*
X140430285Y-127666761D01*
X140430285Y-127781047D01*
X140468380Y-127933428D01*
X140506476Y-128009619D01*
X140582666Y-128085809D01*
X140696952Y-128123904D01*
X140887428Y-128123904D01*
X140125523Y-127895333D02*
X139744571Y-127895333D01*
X140201714Y-128123904D02*
X139935047Y-127323904D01*
X139668380Y-128123904D01*
X141706476Y-132403904D02*
X141211238Y-132403904D01*
X141477904Y-132708666D01*
X141363619Y-132708666D01*
X141287428Y-132746761D01*
X141249333Y-132784857D01*
X141211238Y-132861047D01*
X141211238Y-133051523D01*
X141249333Y-133127714D01*
X141287428Y-133165809D01*
X141363619Y-133203904D01*
X141592190Y-133203904D01*
X141668380Y-133165809D01*
X141706476Y-133127714D01*
X140982666Y-132403904D02*
X140716000Y-133203904D01*
X140449333Y-132403904D01*
X140258857Y-132403904D02*
X139763619Y-132403904D01*
X140030285Y-132708666D01*
X139916000Y-132708666D01*
X139839809Y-132746761D01*
X139801714Y-132784857D01*
X139763619Y-132861047D01*
X139763619Y-133051523D01*
X139801714Y-133127714D01*
X139839809Y-133165809D01*
X139916000Y-133203904D01*
X140144571Y-133203904D01*
X140220761Y-133165809D01*
X140258857Y-133127714D01*
X141325523Y-129902000D02*
X141401714Y-129863904D01*
X141516000Y-129863904D01*
X141630285Y-129902000D01*
X141706476Y-129978190D01*
X141744571Y-130054380D01*
X141782666Y-130206761D01*
X141782666Y-130321047D01*
X141744571Y-130473428D01*
X141706476Y-130549619D01*
X141630285Y-130625809D01*
X141516000Y-130663904D01*
X141439809Y-130663904D01*
X141325523Y-130625809D01*
X141287428Y-130587714D01*
X141287428Y-130321047D01*
X141439809Y-130321047D01*
X140944571Y-130663904D02*
X140944571Y-129863904D01*
X140487428Y-130663904D01*
X140487428Y-129863904D01*
X140106476Y-130663904D02*
X140106476Y-129863904D01*
X139916000Y-129863904D01*
X139801714Y-129902000D01*
X139725523Y-129978190D01*
X139687428Y-130054380D01*
X139649333Y-130206761D01*
X139649333Y-130321047D01*
X139687428Y-130473428D01*
X139725523Y-130549619D01*
X139801714Y-130625809D01*
X139916000Y-130663904D01*
X140106476Y-130663904D01*
D10*
X157698857Y-125179142D02*
X157898857Y-125179142D01*
X157898857Y-125493428D02*
X157898857Y-124893428D01*
X157613142Y-124893428D01*
X157156000Y-125464857D02*
X157213142Y-125493428D01*
X157327428Y-125493428D01*
X157384571Y-125464857D01*
X157413142Y-125407714D01*
X157413142Y-125179142D01*
X157384571Y-125122000D01*
X157327428Y-125093428D01*
X157213142Y-125093428D01*
X157156000Y-125122000D01*
X157127428Y-125179142D01*
X157127428Y-125236285D01*
X157413142Y-125293428D01*
X156641714Y-125464857D02*
X156698857Y-125493428D01*
X156813142Y-125493428D01*
X156870285Y-125464857D01*
X156898857Y-125407714D01*
X156898857Y-125179142D01*
X156870285Y-125122000D01*
X156813142Y-125093428D01*
X156698857Y-125093428D01*
X156641714Y-125122000D01*
X156613142Y-125179142D01*
X156613142Y-125236285D01*
X156898857Y-125293428D01*
X156098857Y-125493428D02*
X156098857Y-124893428D01*
X156098857Y-125464857D02*
X156156000Y-125493428D01*
X156270285Y-125493428D01*
X156327428Y-125464857D01*
X156356000Y-125436285D01*
X156384571Y-125379142D01*
X156384571Y-125207714D01*
X156356000Y-125150571D01*
X156327428Y-125122000D01*
X156270285Y-125093428D01*
X156156000Y-125093428D01*
X156098857Y-125122000D01*
X155813142Y-125493428D02*
X155813142Y-124893428D01*
X155813142Y-125122000D02*
X155756000Y-125093428D01*
X155641714Y-125093428D01*
X155584571Y-125122000D01*
X155556000Y-125150571D01*
X155527428Y-125207714D01*
X155527428Y-125379142D01*
X155556000Y-125436285D01*
X155584571Y-125464857D01*
X155641714Y-125493428D01*
X155756000Y-125493428D01*
X155813142Y-125464857D01*
X155013142Y-125493428D02*
X155013142Y-125179142D01*
X155041714Y-125122000D01*
X155098857Y-125093428D01*
X155213142Y-125093428D01*
X155270285Y-125122000D01*
X155013142Y-125464857D02*
X155070285Y-125493428D01*
X155213142Y-125493428D01*
X155270285Y-125464857D01*
X155298857Y-125407714D01*
X155298857Y-125350571D01*
X155270285Y-125293428D01*
X155213142Y-125264857D01*
X155070285Y-125264857D01*
X155013142Y-125236285D01*
X154470285Y-125464857D02*
X154527428Y-125493428D01*
X154641714Y-125493428D01*
X154698857Y-125464857D01*
X154727428Y-125436285D01*
X154756000Y-125379142D01*
X154756000Y-125207714D01*
X154727428Y-125150571D01*
X154698857Y-125122000D01*
X154641714Y-125093428D01*
X154527428Y-125093428D01*
X154470285Y-125122000D01*
X154213142Y-125493428D02*
X154213142Y-124893428D01*
X154156000Y-125264857D02*
X153984571Y-125493428D01*
X153984571Y-125093428D02*
X154213142Y-125322000D01*
X157098857Y-127976285D02*
X157127428Y-128004857D01*
X157213142Y-128033428D01*
X157270285Y-128033428D01*
X157356000Y-128004857D01*
X157413142Y-127947714D01*
X157441714Y-127890571D01*
X157470285Y-127776285D01*
X157470285Y-127690571D01*
X157441714Y-127576285D01*
X157413142Y-127519142D01*
X157356000Y-127462000D01*
X157270285Y-127433428D01*
X157213142Y-127433428D01*
X157127428Y-127462000D01*
X157098857Y-127490571D01*
X156756000Y-128033428D02*
X156813142Y-128004857D01*
X156841714Y-127976285D01*
X156870285Y-127919142D01*
X156870285Y-127747714D01*
X156841714Y-127690571D01*
X156813142Y-127662000D01*
X156756000Y-127633428D01*
X156670285Y-127633428D01*
X156613142Y-127662000D01*
X156584571Y-127690571D01*
X156556000Y-127747714D01*
X156556000Y-127919142D01*
X156584571Y-127976285D01*
X156613142Y-128004857D01*
X156670285Y-128033428D01*
X156756000Y-128033428D01*
X156298857Y-127633428D02*
X156298857Y-128033428D01*
X156298857Y-127690571D02*
X156270285Y-127662000D01*
X156213142Y-127633428D01*
X156127428Y-127633428D01*
X156070285Y-127662000D01*
X156041714Y-127719142D01*
X156041714Y-128033428D01*
X155841714Y-127633428D02*
X155613142Y-127633428D01*
X155756000Y-127433428D02*
X155756000Y-127947714D01*
X155727428Y-128004857D01*
X155670285Y-128033428D01*
X155613142Y-128033428D01*
X155413142Y-128033428D02*
X155413142Y-127633428D01*
X155413142Y-127747714D02*
X155384571Y-127690571D01*
X155356000Y-127662000D01*
X155298857Y-127633428D01*
X155241714Y-127633428D01*
X154956000Y-128033428D02*
X155013142Y-128004857D01*
X155041714Y-127976285D01*
X155070285Y-127919142D01*
X155070285Y-127747714D01*
X155041714Y-127690571D01*
X155013142Y-127662000D01*
X154956000Y-127633428D01*
X154870285Y-127633428D01*
X154813142Y-127662000D01*
X154784571Y-127690571D01*
X154756000Y-127747714D01*
X154756000Y-127919142D01*
X154784571Y-127976285D01*
X154813142Y-128004857D01*
X154870285Y-128033428D01*
X154956000Y-128033428D01*
X154413142Y-128033428D02*
X154470285Y-128004857D01*
X154498857Y-127947714D01*
X154498857Y-127433428D01*
D11*
X157022666Y-129863904D02*
X156756000Y-130663904D01*
X156489333Y-129863904D01*
X155765523Y-130587714D02*
X155803619Y-130625809D01*
X155917904Y-130663904D01*
X155994095Y-130663904D01*
X156108380Y-130625809D01*
X156184571Y-130549619D01*
X156222666Y-130473428D01*
X156260761Y-130321047D01*
X156260761Y-130206761D01*
X156222666Y-130054380D01*
X156184571Y-129978190D01*
X156108380Y-129902000D01*
X155994095Y-129863904D01*
X155917904Y-129863904D01*
X155803619Y-129902000D01*
X155765523Y-129940095D01*
X154965523Y-130587714D02*
X155003619Y-130625809D01*
X155117904Y-130663904D01*
X155194095Y-130663904D01*
X155308380Y-130625809D01*
X155384571Y-130549619D01*
X155422666Y-130473428D01*
X155460761Y-130321047D01*
X155460761Y-130206761D01*
X155422666Y-130054380D01*
X155384571Y-129978190D01*
X155308380Y-129902000D01*
X155194095Y-129863904D01*
X155117904Y-129863904D01*
X155003619Y-129902000D01*
X154965523Y-129940095D01*
X156565523Y-132442000D02*
X156641714Y-132403904D01*
X156756000Y-132403904D01*
X156870285Y-132442000D01*
X156946476Y-132518190D01*
X156984571Y-132594380D01*
X157022666Y-132746761D01*
X157022666Y-132861047D01*
X156984571Y-133013428D01*
X156946476Y-133089619D01*
X156870285Y-133165809D01*
X156756000Y-133203904D01*
X156679809Y-133203904D01*
X156565523Y-133165809D01*
X156527428Y-133127714D01*
X156527428Y-132861047D01*
X156679809Y-132861047D01*
X156184571Y-133203904D02*
X156184571Y-132403904D01*
X155727428Y-133203904D01*
X155727428Y-132403904D01*
X155346476Y-133203904D02*
X155346476Y-132403904D01*
X155156000Y-132403904D01*
X155041714Y-132442000D01*
X154965523Y-132518190D01*
X154927428Y-132594380D01*
X154889333Y-132746761D01*
X154889333Y-132861047D01*
X154927428Y-133013428D01*
X154965523Y-133089619D01*
X155041714Y-133165809D01*
X155156000Y-133203904D01*
X155346476Y-133203904D01*
D12*
X170584571Y-123551142D02*
X169441714Y-123551142D01*
X170013142Y-124122571D02*
X170013142Y-122979714D01*
X168013142Y-122622571D02*
X168727428Y-122622571D01*
X168798857Y-123336857D01*
X168727428Y-123265428D01*
X168584571Y-123194000D01*
X168227428Y-123194000D01*
X168084571Y-123265428D01*
X168013142Y-123336857D01*
X167941714Y-123479714D01*
X167941714Y-123836857D01*
X168013142Y-123979714D01*
X168084571Y-124051142D01*
X168227428Y-124122571D01*
X168584571Y-124122571D01*
X168727428Y-124051142D01*
X168798857Y-123979714D01*
X167513142Y-122622571D02*
X167013142Y-124122571D01*
X166513142Y-122622571D01*
X170656000Y-127702571D02*
X170156000Y-129202571D01*
X169656000Y-127702571D01*
X168298857Y-129059714D02*
X168370285Y-129131142D01*
X168584571Y-129202571D01*
X168727428Y-129202571D01*
X168941714Y-129131142D01*
X169084571Y-128988285D01*
X169156000Y-128845428D01*
X169227428Y-128559714D01*
X169227428Y-128345428D01*
X169156000Y-128059714D01*
X169084571Y-127916857D01*
X168941714Y-127774000D01*
X168727428Y-127702571D01*
X168584571Y-127702571D01*
X168370285Y-127774000D01*
X168298857Y-127845428D01*
X166798857Y-129059714D02*
X166870285Y-129131142D01*
X167084571Y-129202571D01*
X167227428Y-129202571D01*
X167441714Y-129131142D01*
X167584571Y-128988285D01*
X167656000Y-128845428D01*
X167727428Y-128559714D01*
X167727428Y-128345428D01*
X167656000Y-128059714D01*
X167584571Y-127916857D01*
X167441714Y-127774000D01*
X167227428Y-127702571D01*
X167084571Y-127702571D01*
X166870285Y-127774000D01*
X166798857Y-127845428D01*
X169798857Y-133108000D02*
X169941714Y-133036571D01*
X170156000Y-133036571D01*
X170370285Y-133108000D01*
X170513142Y-133250857D01*
X170584571Y-133393714D01*
X170656000Y-133679428D01*
X170656000Y-133893714D01*
X170584571Y-134179428D01*
X170513142Y-134322285D01*
X170370285Y-134465142D01*
X170156000Y-134536571D01*
X170013142Y-134536571D01*
X169798857Y-134465142D01*
X169727428Y-134393714D01*
X169727428Y-133893714D01*
X170013142Y-133893714D01*
X169084571Y-134536571D02*
X169084571Y-133036571D01*
X168227428Y-134536571D01*
X168227428Y-133036571D01*
X167513142Y-134536571D02*
X167513142Y-133036571D01*
X167156000Y-133036571D01*
X166941714Y-133108000D01*
X166798857Y-133250857D01*
X166727428Y-133393714D01*
X166656000Y-133679428D01*
X166656000Y-133893714D01*
X166727428Y-134179428D01*
X166798857Y-134322285D01*
X166941714Y-134465142D01*
X167156000Y-134536571D01*
X167513142Y-134536571D01*
D13*
X97514772Y-117198528D02*
X97514772Y-123009820D01*
X97514772Y-123009820D02*
X98798205Y-123036151D01*
X98798205Y-123036151D02*
X98791517Y-131867373D01*
X98791517Y-131867373D02*
X97589264Y-131865397D01*
X97589264Y-131865397D02*
X97615342Y-140946193D01*
X97615342Y-140946193D02*
X128785493Y-140932195D01*
X128785493Y-140932195D02*
X129388286Y-140699384D01*
X129388286Y-140699384D02*
X129933167Y-140415901D01*
X129933167Y-140415901D02*
X130419577Y-140081253D01*
X130419577Y-140081253D02*
X130846952Y-139694953D01*
X130846952Y-139694953D02*
X131214741Y-139256512D01*
X131214741Y-139256512D02*
X131522377Y-138765440D01*
X131522377Y-138765440D02*
X131769310Y-138221250D01*
X131769310Y-138221250D02*
X131954976Y-137623453D01*
X131954976Y-137623453D02*
X131983734Y-118585540D01*
X131983734Y-118585540D02*
X131749741Y-117966176D01*
X131749741Y-117966176D02*
X131465258Y-117377982D01*
X131465258Y-117377982D02*
X131115743Y-116834555D01*
X131115743Y-116834555D02*
X130686658Y-116349497D01*
X130686658Y-116349497D02*
X130163460Y-115936405D01*
X130163460Y-115936405D02*
X129531613Y-115608878D01*
X129531613Y-115608878D02*
X128776575Y-115380518D01*
X128776575Y-115380518D02*
X127883807Y-115264922D01*
X127883807Y-115264922D02*
X105328715Y-115239974D01*
X105328715Y-115239974D02*
X104367819Y-117183520D01*
X104367819Y-117183520D02*
X97559476Y-117213314D01*
X103740549Y-131195650D02*
X103740549Y-124056069D01*
X103740549Y-124056069D02*
X97926812Y-124056069D01*
X97926812Y-124056069D02*
X97926812Y-131195650D01*
X97926812Y-131195650D02*
X103740549Y-131195650D01*
X104389651Y-117272400D02*
X104389651Y-118824622D01*
X104389651Y-118824622D02*
X103860485Y-119353789D01*
X103860485Y-119353789D02*
X103860485Y-120606150D01*
X103860485Y-120606150D02*
X98798124Y-120606150D01*
X98798124Y-120606150D02*
X98798124Y-119318511D01*
X98798124Y-119318511D02*
X98304235Y-118789344D01*
X98304235Y-118789344D02*
X98304235Y-117219483D01*
X98304235Y-117219483D02*
X104389651Y-117272400D01*
X102308262Y-117237122D02*
X102308262Y-116584483D01*
X102308262Y-116584483D02*
X100315068Y-116584483D01*
X100315068Y-116584483D02*
X100315068Y-117201844D01*
D10*
X276859142Y-247785142D02*
X276144857Y-250785142D01*
X275573428Y-248642285D01*
X275002000Y-250785142D01*
X274287714Y-247785142D01*
X272002000Y-250642285D02*
X272287714Y-250785142D01*
X272859142Y-250785142D01*
X273144857Y-250642285D01*
X273287714Y-250356571D01*
X273287714Y-249213714D01*
X273144857Y-248928000D01*
X272859142Y-248785142D01*
X272287714Y-248785142D01*
X272002000Y-248928000D01*
X271859142Y-249213714D01*
X271859142Y-249499428D01*
X273287714Y-249785142D01*
X270573428Y-250785142D02*
X270573428Y-247785142D01*
X269573428Y-249928000D01*
X268573428Y-247785142D01*
X268573428Y-250785142D01*
X266716285Y-250785142D02*
X267002000Y-250642285D01*
X267144857Y-250499428D01*
X267287714Y-250213714D01*
X267287714Y-249356571D01*
X267144857Y-249070857D01*
X267002000Y-248928000D01*
X266716285Y-248785142D01*
X266287714Y-248785142D01*
X266002000Y-248928000D01*
X265859142Y-249070857D01*
X265716285Y-249356571D01*
X265716285Y-250213714D01*
X265859142Y-250499428D01*
X266002000Y-250642285D01*
X266287714Y-250785142D01*
X266716285Y-250785142D01*
X264573428Y-250642285D02*
X264287714Y-250785142D01*
X263716285Y-250785142D01*
X263430571Y-250642285D01*
X263287714Y-250356571D01*
X263287714Y-250213714D01*
X263430571Y-249928000D01*
X263716285Y-249785142D01*
X264144857Y-249785142D01*
X264430571Y-249642285D01*
X264573428Y-249356571D01*
X264573428Y-249213714D01*
X264430571Y-248928000D01*
X264144857Y-248785142D01*
X263716285Y-248785142D01*
X263430571Y-248928000D01*
X277367142Y-246261142D02*
X276652857Y-249261142D01*
X276081428Y-247118285D01*
X275510000Y-249261142D01*
X274795714Y-246261142D01*
X272510000Y-249118285D02*
X272795714Y-249261142D01*
X273367142Y-249261142D01*
X273652857Y-249118285D01*
X273795714Y-248832571D01*
X273795714Y-247689714D01*
X273652857Y-247404000D01*
X273367142Y-247261142D01*
X272795714Y-247261142D01*
X272510000Y-247404000D01*
X272367142Y-247689714D01*
X272367142Y-247975428D01*
X273795714Y-248261142D01*
X271081428Y-249261142D02*
X271081428Y-246261142D01*
X270081428Y-248404000D01*
X269081428Y-246261142D01*
X269081428Y-249261142D01*
X267224285Y-249261142D02*
X267510000Y-249118285D01*
X267652857Y-248975428D01*
X267795714Y-248689714D01*
X267795714Y-247832571D01*
X267652857Y-247546857D01*
X267510000Y-247404000D01*
X267224285Y-247261142D01*
X266795714Y-247261142D01*
X266510000Y-247404000D01*
X266367142Y-247546857D01*
X266224285Y-247832571D01*
X266224285Y-248689714D01*
X266367142Y-248975428D01*
X266510000Y-249118285D01*
X266795714Y-249261142D01*
X267224285Y-249261142D01*
X265081428Y-249118285D02*
X264795714Y-249261142D01*
X264224285Y-249261142D01*
X263938571Y-249118285D01*
X263795714Y-248832571D01*
X263795714Y-248689714D01*
X263938571Y-248404000D01*
X264224285Y-248261142D01*
X264652857Y-248261142D01*
X264938571Y-248118285D01*
X265081428Y-247832571D01*
X265081428Y-247689714D01*
X264938571Y-247404000D01*
X264652857Y-247261142D01*
X264224285Y-247261142D01*
X263938571Y-247404000D01*
X94434380Y-121412666D02*
X95434380Y-121650761D01*
X94720095Y-121841238D01*
X95434380Y-122031714D01*
X94434380Y-122269809D01*
X95386761Y-123031714D02*
X95434380Y-122936476D01*
X95434380Y-122746000D01*
X95386761Y-122650761D01*
X95291523Y-122603142D01*
X94910571Y-122603142D01*
X94815333Y-122650761D01*
X94767714Y-122746000D01*
X94767714Y-122936476D01*
X94815333Y-123031714D01*
X94910571Y-123079333D01*
X95005809Y-123079333D01*
X95101047Y-122603142D01*
X95434380Y-123507904D02*
X94767714Y-123507904D01*
X94862952Y-123507904D02*
X94815333Y-123555523D01*
X94767714Y-123650761D01*
X94767714Y-123793619D01*
X94815333Y-123888857D01*
X94910571Y-123936476D01*
X95434380Y-123936476D01*
X94910571Y-123936476D02*
X94815333Y-123984095D01*
X94767714Y-124079333D01*
X94767714Y-124222190D01*
X94815333Y-124317428D01*
X94910571Y-124365047D01*
X95434380Y-124365047D01*
X95434380Y-124984095D02*
X95386761Y-124888857D01*
X95339142Y-124841238D01*
X95243904Y-124793619D01*
X94958190Y-124793619D01*
X94862952Y-124841238D01*
X94815333Y-124888857D01*
X94767714Y-124984095D01*
X94767714Y-125126952D01*
X94815333Y-125222190D01*
X94862952Y-125269809D01*
X94958190Y-125317428D01*
X95243904Y-125317428D01*
X95339142Y-125269809D01*
X95386761Y-125222190D01*
X95434380Y-125126952D01*
X95434380Y-124984095D01*
X95386761Y-125698380D02*
X95434380Y-125793619D01*
X95434380Y-125984095D01*
X95386761Y-126079333D01*
X95291523Y-126126952D01*
X95243904Y-126126952D01*
X95148666Y-126079333D01*
X95101047Y-125984095D01*
X95101047Y-125841238D01*
X95053428Y-125746000D01*
X94958190Y-125698380D01*
X94910571Y-125698380D01*
X94815333Y-125746000D01*
X94767714Y-125841238D01*
X94767714Y-125984095D01*
X94815333Y-126079333D01*
X95434380Y-126555523D02*
X94434380Y-126555523D01*
X94434380Y-126793619D01*
X94482000Y-126936476D01*
X94577238Y-127031714D01*
X94672476Y-127079333D01*
X94862952Y-127126952D01*
X95005809Y-127126952D01*
X95196285Y-127079333D01*
X95291523Y-127031714D01*
X95386761Y-126936476D01*
X95434380Y-126793619D01*
X95434380Y-126555523D01*
X95434380Y-128079333D02*
X95434380Y-127507904D01*
X95434380Y-127793619D02*
X94434380Y-127793619D01*
X94577238Y-127698380D01*
X94672476Y-127603142D01*
X94720095Y-127507904D01*
X95434380Y-128507904D02*
X94434380Y-128507904D01*
X95148666Y-128841238D01*
X94434380Y-129174571D01*
X95434380Y-129174571D01*
X95434380Y-129650761D02*
X94767714Y-129650761D01*
X94434380Y-129650761D02*
X94482000Y-129603142D01*
X94529619Y-129650761D01*
X94482000Y-129698380D01*
X94434380Y-129650761D01*
X94529619Y-129650761D01*
X94767714Y-130126952D02*
X95434380Y-130126952D01*
X94862952Y-130126952D02*
X94815333Y-130174571D01*
X94767714Y-130269809D01*
X94767714Y-130412666D01*
X94815333Y-130507904D01*
X94910571Y-130555523D01*
X95434380Y-130555523D01*
X95434380Y-131031714D02*
X94767714Y-131031714D01*
X94434380Y-131031714D02*
X94482000Y-130984095D01*
X94529619Y-131031714D01*
X94482000Y-131079333D01*
X94434380Y-131031714D01*
X94529619Y-131031714D01*
X95434380Y-132031714D02*
X95434380Y-131460285D01*
X95434380Y-131746000D02*
X94434380Y-131746000D01*
X94577238Y-131650761D01*
X94672476Y-131555523D01*
X94720095Y-131460285D01*
X124087142Y-121158857D02*
X127087142Y-121873142D01*
X124944285Y-122444571D01*
X127087142Y-123016000D01*
X124087142Y-123730285D01*
X126944285Y-126016000D02*
X127087142Y-125730285D01*
X127087142Y-125158857D01*
X126944285Y-124873142D01*
X126658571Y-124730285D01*
X125515714Y-124730285D01*
X125230000Y-124873142D01*
X125087142Y-125158857D01*
X125087142Y-125730285D01*
X125230000Y-126016000D01*
X125515714Y-126158857D01*
X125801428Y-126158857D01*
X126087142Y-124730285D01*
X127087142Y-127444571D02*
X124087142Y-127444571D01*
X126230000Y-128444571D01*
X124087142Y-129444571D01*
X127087142Y-129444571D01*
X127087142Y-131301714D02*
X126944285Y-131016000D01*
X126801428Y-130873142D01*
X126515714Y-130730285D01*
X125658571Y-130730285D01*
X125372857Y-130873142D01*
X125230000Y-131016000D01*
X125087142Y-131301714D01*
X125087142Y-131730285D01*
X125230000Y-132016000D01*
X125372857Y-132158857D01*
X125658571Y-132301714D01*
X126515714Y-132301714D01*
X126801428Y-132158857D01*
X126944285Y-132016000D01*
X127087142Y-131730285D01*
X127087142Y-131301714D01*
X126944285Y-133444571D02*
X127087142Y-133730285D01*
X127087142Y-134301714D01*
X126944285Y-134587428D01*
X126658571Y-134730285D01*
X126515714Y-134730285D01*
X126230000Y-134587428D01*
X126087142Y-134301714D01*
X126087142Y-133873142D01*
X125944285Y-133587428D01*
X125658571Y-133444571D01*
X125515714Y-133444571D01*
X125230000Y-133587428D01*
X125087142Y-133873142D01*
X125087142Y-134301714D01*
X125230000Y-134587428D01*
M02*
