%TF.GenerationSoftware,KiCad,Pcbnew,(5.0.2)-1*%
%TF.CreationDate,2021-01-29T10:22:33+01:00*%
%TF.ProjectId,radar_d1_mini_pcb,72616461-725f-4643-915f-6d696e695f70,rev?*%
%TF.SameCoordinates,Original*%
%TF.FileFunction,Profile,NP*%
%FSLAX46Y46*%
G04 Gerber Fmt 4.6, Leading zero omitted, Abs format (unit mm)*
G04 Created by KiCad (PCBNEW (5.0.2)-1) date 29/01/2021 10:22:33*
%MOMM*%
%LPD*%
G01*
G04 APERTURE LIST*
%ADD10C,0.150000*%
G04 APERTURE END LIST*
D10*
X178816000Y-118364000D02*
X178816000Y-139192000D01*
X148082000Y-118364000D02*
X178816000Y-118364000D01*
X137414000Y-118364000D02*
X148082000Y-118364000D01*
X132334000Y-118364000D02*
X137414000Y-118364000D01*
X132080000Y-117602000D02*
X132334000Y-118364000D01*
X131318000Y-116332000D02*
X132080000Y-117602000D01*
X130302000Y-115570000D02*
X131318000Y-116332000D01*
X129286000Y-115062000D02*
X130302000Y-115570000D01*
X128016000Y-115062000D02*
X129286000Y-115062000D01*
X105410000Y-115062000D02*
X128016000Y-115062000D01*
X104394000Y-117094000D02*
X105410000Y-115062000D01*
X97536000Y-117094000D02*
X104394000Y-117094000D01*
X97536000Y-122936000D02*
X97536000Y-117094000D01*
X98806000Y-122936000D02*
X97536000Y-122936000D01*
X98806000Y-131826000D02*
X98806000Y-122936000D01*
X97536000Y-131826000D02*
X98806000Y-131826000D01*
X97536000Y-143764000D02*
X97536000Y-131826000D01*
X132334000Y-139192000D02*
X178816000Y-139192000D01*
X127762000Y-143764000D02*
X132334000Y-139192000D01*
X127508000Y-143764000D02*
X127762000Y-143764000D01*
X109474000Y-143764000D02*
X127508000Y-143764000D01*
X109474000Y-143764000D02*
X97536000Y-143764000D01*
M02*
