M48
;DRILL file {KiCad (5.0.2)-1} date 04/02/2021 11:14:38
;FORMAT={-:-/ absolute / metric / decimal}
FMAT,2
METRIC,TZ
T1C1.000
T2C1.016
T3C1.300
%
G90
G05
T1
X136.398Y-125.222
X152.654Y-130.302
X152.654Y-132.842
X144.78Y-122.682
X144.78Y-125.222
X144.78Y-127.762
X144.78Y-130.302
X144.78Y-132.842
X159.258Y-125.222
X159.258Y-127.762
X159.258Y-130.302
X159.258Y-132.842
X136.398Y-122.682
X136.398Y-127.762
X136.398Y-130.302
X136.398Y-132.842
X152.654Y-125.222
X152.654Y-127.762
T2
X106.172Y-116.586
X106.172Y-139.446
X108.712Y-116.586
X108.712Y-139.446
X111.252Y-116.586
X111.252Y-139.446
X113.792Y-116.586
X113.792Y-139.446
X116.332Y-116.586
X116.332Y-139.446
X118.872Y-116.586
X118.872Y-139.446
X121.412Y-116.586
X121.412Y-139.446
X123.952Y-116.586
X123.952Y-139.446
T3
X172.72Y-123.444
X172.72Y-128.524
X172.72Y-133.604
T0
M30
