%TF.GenerationSoftware,KiCad,Pcbnew,(5.0.2)-1*%
%TF.CreationDate,2021-02-04T11:14:55+01:00*%
%TF.ProjectId,radar_d1_mini_pcb,72616461-725f-4643-915f-6d696e695f70,rev?*%
%TF.SameCoordinates,Original*%
%TF.FileFunction,Copper,L2,Bot*%
%TF.FilePolarity,Positive*%
%FSLAX46Y46*%
G04 Gerber Fmt 4.6, Leading zero omitted, Abs format (unit mm)*
G04 Created by KiCad (PCBNEW (5.0.2)-1) date 04/02/2021 11:14:55*
%MOMM*%
%LPD*%
G01*
G04 APERTURE LIST*
%ADD10C,1.800000*%
%ADD11R,2.600000X2.600000*%
%ADD12C,2.600000*%
%ADD13R,1.700000X1.700000*%
%ADD14O,1.700000X1.700000*%
%ADD15C,1.000000*%
%ADD16C,0.500000*%
G04 APERTURE END LIST*
D10*
X123952000Y-139446000D03*
X121412000Y-139446000D03*
X118872000Y-139446000D03*
X116332000Y-139446000D03*
X113792000Y-139446000D03*
X111252000Y-139446000D03*
X108712000Y-139446000D03*
X106172000Y-139446000D03*
X106172000Y-116586000D03*
X108712000Y-116586000D03*
X111252000Y-116586000D03*
X113792000Y-116586000D03*
X116332000Y-116586000D03*
X118872000Y-116586000D03*
X121412000Y-116586000D03*
X123952000Y-116586000D03*
D11*
X172720000Y-133604000D03*
D12*
X172720000Y-128524000D03*
X172720000Y-123444000D03*
D13*
X159258000Y-132842000D03*
D14*
X159258000Y-130302000D03*
X159258000Y-127762000D03*
X159258000Y-125222000D03*
X152654000Y-125222000D03*
X152654000Y-127762000D03*
X152654000Y-130302000D03*
D13*
X152654000Y-132842000D03*
X144780000Y-122682000D03*
D14*
X144780000Y-125222000D03*
X144780000Y-127762000D03*
X144780000Y-130302000D03*
X144780000Y-132842000D03*
X136398000Y-132842000D03*
X136398000Y-130302000D03*
X136398000Y-127762000D03*
X136398000Y-125222000D03*
D13*
X136398000Y-122682000D03*
D15*
X106680000Y-141478000D02*
X106172000Y-140970000D01*
X127762000Y-141478000D02*
X106680000Y-141478000D01*
X129286000Y-138684000D02*
X129286000Y-139954000D01*
X130302000Y-137668000D02*
X129286000Y-138684000D01*
X161798000Y-137668000D02*
X130302000Y-137668000D01*
X170881523Y-123444000D02*
X168595523Y-125730000D01*
X129286000Y-139954000D02*
X127762000Y-141478000D01*
X172720000Y-123444000D02*
X170881523Y-123444000D01*
X168595523Y-125730000D02*
X164338000Y-125730000D01*
X164338000Y-125730000D02*
X162814000Y-127254000D01*
X106172000Y-140970000D02*
X106172000Y-139446000D01*
X162814000Y-127254000D02*
X162814000Y-136652000D01*
X162814000Y-136652000D02*
X161798000Y-137668000D01*
D16*
X156464000Y-127762000D02*
X155956000Y-128270000D01*
X159258000Y-127762000D02*
X156464000Y-127762000D01*
X155956000Y-128270000D02*
X155956000Y-134874000D01*
X155956000Y-134874000D02*
X154940000Y-135890000D01*
X113792000Y-136652000D02*
X113792000Y-139446000D01*
X154940000Y-135890000D02*
X114554000Y-135890000D01*
X114554000Y-135890000D02*
X113792000Y-136652000D01*
X111252000Y-136906000D02*
X111252000Y-139446000D01*
X149606000Y-127762000D02*
X148336000Y-129032000D01*
X152654000Y-127762000D02*
X149606000Y-127762000D01*
X148336000Y-133096000D02*
X146558000Y-134874000D01*
X146558000Y-134874000D02*
X113284000Y-134874000D01*
X148336000Y-129032000D02*
X148336000Y-133096000D01*
X113284000Y-134874000D02*
X111252000Y-136906000D01*
X111252000Y-120142000D02*
X111252000Y-116586000D01*
X111760000Y-120650000D02*
X111252000Y-120142000D01*
X146558000Y-120650000D02*
X111760000Y-120650000D01*
X149098000Y-123190000D02*
X146558000Y-120650000D01*
X152654000Y-125222000D02*
X150622000Y-123190000D01*
X150622000Y-123190000D02*
X149098000Y-123190000D01*
X158408001Y-124372001D02*
X157138001Y-124372001D01*
X159258000Y-125222000D02*
X158408001Y-124372001D01*
X157138001Y-124372001D02*
X156210000Y-123444000D01*
X156210000Y-123444000D02*
X156210000Y-122682000D01*
X156210000Y-122682000D02*
X155448000Y-121920000D01*
X155448000Y-121920000D02*
X149606000Y-121920000D01*
X149606000Y-121920000D02*
X147066000Y-119380000D01*
X147066000Y-119380000D02*
X114808000Y-119380000D01*
X113792000Y-118364000D02*
X113792000Y-116586000D01*
X114808000Y-119380000D02*
X113792000Y-118364000D01*
D15*
X106172000Y-127254000D02*
X106172000Y-116586000D01*
X111506000Y-132588000D02*
X106172000Y-127254000D01*
X134941919Y-132588000D02*
X111506000Y-132588000D01*
X136398000Y-132842000D02*
X135195919Y-132842000D01*
X135195919Y-132842000D02*
X134941919Y-132588000D01*
X144780000Y-132842000D02*
X136398000Y-132842000D01*
M02*
