%TF.GenerationSoftware,KiCad,Pcbnew,(5.0.2)-1*%
%TF.CreationDate,2021-02-04T11:14:55+01:00*%
%TF.ProjectId,radar_d1_mini_pcb,72616461-725f-4643-915f-6d696e695f70,rev?*%
%TF.SameCoordinates,Original*%
%TF.FileFunction,Copper,L1,Top*%
%TF.FilePolarity,Positive*%
%FSLAX46Y46*%
G04 Gerber Fmt 4.6, Leading zero omitted, Abs format (unit mm)*
G04 Created by KiCad (PCBNEW (5.0.2)-1) date 04/02/2021 11:14:55*
%MOMM*%
%LPD*%
G01*
G04 APERTURE LIST*
%ADD10C,1.800000*%
%ADD11R,2.600000X2.600000*%
%ADD12C,2.600000*%
%ADD13R,1.700000X1.700000*%
%ADD14O,1.700000X1.700000*%
%ADD15C,1.000000*%
%ADD16C,0.500000*%
G04 APERTURE END LIST*
D10*
X123952000Y-139446000D03*
X121412000Y-139446000D03*
X118872000Y-139446000D03*
X116332000Y-139446000D03*
X113792000Y-139446000D03*
X111252000Y-139446000D03*
X108712000Y-139446000D03*
X106172000Y-139446000D03*
X106172000Y-116586000D03*
X108712000Y-116586000D03*
X111252000Y-116586000D03*
X113792000Y-116586000D03*
X116332000Y-116586000D03*
X118872000Y-116586000D03*
X121412000Y-116586000D03*
X123952000Y-116586000D03*
D11*
X172720000Y-133604000D03*
D12*
X172720000Y-128524000D03*
X172720000Y-123444000D03*
D13*
X159258000Y-132842000D03*
D14*
X159258000Y-130302000D03*
X159258000Y-127762000D03*
X159258000Y-125222000D03*
X152654000Y-125222000D03*
X152654000Y-127762000D03*
X152654000Y-130302000D03*
D13*
X152654000Y-132842000D03*
X144780000Y-122682000D03*
D14*
X144780000Y-125222000D03*
X144780000Y-127762000D03*
X144780000Y-130302000D03*
X144780000Y-132842000D03*
X136398000Y-132842000D03*
X136398000Y-130302000D03*
X136398000Y-127762000D03*
X136398000Y-125222000D03*
D13*
X136398000Y-122682000D03*
D15*
X172720000Y-128524000D02*
X166370000Y-128524000D01*
X164592000Y-130302000D02*
X159258000Y-130302000D01*
X166370000Y-128524000D02*
X164592000Y-130302000D01*
X152654000Y-130302000D02*
X159258000Y-130302000D01*
X152654000Y-132842000D02*
X159258000Y-132842000D01*
X159258000Y-132842000D02*
X164592000Y-132842000D01*
X165354000Y-133604000D02*
X172720000Y-133604000D01*
X164592000Y-132842000D02*
X165354000Y-133604000D01*
X152654000Y-132842000D02*
X149352000Y-132842000D01*
X149352000Y-132842000D02*
X148590000Y-132080000D01*
X148590000Y-132080000D02*
X148590000Y-131064000D01*
X147828000Y-130302000D02*
X144780000Y-130302000D01*
X148590000Y-131064000D02*
X147828000Y-130302000D01*
X144780000Y-130302000D02*
X136398000Y-130302000D01*
X108712000Y-141478000D02*
X108712000Y-139446000D01*
X132080000Y-130302000D02*
X127508000Y-134874000D01*
X136398000Y-130302000D02*
X132080000Y-130302000D01*
X127508000Y-134874000D02*
X127508000Y-140716000D01*
X127508000Y-140716000D02*
X125730000Y-142494000D01*
X125730000Y-142494000D02*
X109728000Y-142494000D01*
X109728000Y-142494000D02*
X108712000Y-141478000D01*
D16*
X118872000Y-118364000D02*
X118872000Y-116586000D01*
X141478000Y-122682000D02*
X140716000Y-121920000D01*
X144780000Y-122682000D02*
X141478000Y-122682000D01*
X140716000Y-121920000D02*
X140716000Y-119888000D01*
X140716000Y-119888000D02*
X139954000Y-119126000D01*
X139954000Y-119126000D02*
X119634000Y-119126000D01*
X119634000Y-119126000D02*
X118872000Y-118364000D01*
X136398000Y-125222000D02*
X144780000Y-125222000D01*
X118872000Y-128270000D02*
X118872000Y-139446000D01*
X136398000Y-125222000D02*
X121920000Y-125222000D01*
X121920000Y-125222000D02*
X118872000Y-128270000D01*
X137600081Y-127762000D02*
X144780000Y-127762000D01*
X136398000Y-127762000D02*
X137600081Y-127762000D01*
X116332000Y-140718792D02*
X116332000Y-139446000D01*
X136398000Y-127762000D02*
X132080000Y-127762000D01*
X132080000Y-127762000D02*
X126238000Y-133604000D01*
X126238000Y-133604000D02*
X126238000Y-140208000D01*
X126238000Y-140208000D02*
X125222000Y-141224000D01*
X125222000Y-141224000D02*
X116837208Y-141224000D01*
X116837208Y-141224000D02*
X116332000Y-140718792D01*
X116332000Y-120904000D02*
X116332000Y-116586000D01*
X136398000Y-122682000D02*
X118110000Y-122682000D01*
X118110000Y-122682000D02*
X116332000Y-120904000D01*
M02*
